<svg xmlns="http://www.w3.org/2000/svg" xmlns:xlink="http://www.w3.org/1999/xlink" xmlns:svgjs="http://svgjs.dev/svgjs" width="154" height="64"><svg width="154" height="64" viewBox="0 0 154 64" fill="none" xmlns="http://www.w3.org/2000/svg"><path d="M69.067 27.97L72.94 9.51h4.9l-1.69 7.878 1.819-2.573 4.01-5.304h5.756l-6.907 8.51 3.385 9.95h-5.49l-2.184-7.3-1.215.707-1.356 6.593h-4.9zm17.178 0l3.873-18.46h10.883l-.817 4.004h-5.979l-.59 2.904h5.567l-.903 4.003h-5.567l-.715 3.486h5.983l-.852 4.064H86.245zm14.431 0l3.873-18.46h6.496V22.62h.098l5.992-13.108h6.594l-3.924 18.46h-4.399l1.468-6.934a85.399 85.399 0 011.245-5.145c.141-.49.24-.878.295-1.167h-.098l-6.043 13.246h-4.639V14.725h-.102c-.133.866-.261 1.689-.39 2.469-.124.78-.244 1.5-.355 2.167a57.006 57.006 0 01-.334 1.827l-1.416 6.783h-4.361zm23.344 0l3.873-18.46h4.678c1.622 0 2.923.246 3.903.733.984.487 1.699 1.15 2.144 1.987.449.84.672 1.775.672 2.81 0 1.102-.193 2.076-.582 2.92a5.826 5.826 0 01-1.657 2.134c-.714.577-1.562 1.012-2.546 1.305-.98.298-2.067.444-3.252.444h-1.079l-1.254 6.128h-4.9zm7.032-10.169h.791c.518 0 .967-.112 1.348-.34.381-.224.677-.539.882-.93.21-.397.317-.845.317-1.34 0-.42-.133-.803-.398-1.143-.261-.34-.694-.508-1.297-.508h-.74l-.903 4.261z" fill="#FEFEFE" stroke="#0078BF" stroke-width=".67" stroke-miterlimit="22.93"/><path d="M71.653 54.536l-1.3-18.46h4.788l.312 9.308c.018.444.022.97.018 1.569a33.029 33.029 0 01-.056 1.749 13.126 13.126 0 01-.137 1.366h.098a22.703 22.703 0 01.843-2.805c.159-.431.296-.771.412-1.022l4.39-10.164h5.191l-9.09 18.46h-5.469zm13.078 0l3.874-18.46h4.9l-3.873 18.46h-4.9zm4.331-19.83v-.288c.403-.328.814-.711 1.233-1.15.424-.436.834-.893 1.237-1.367.402-.474.761-.918 1.078-1.331h5.49v.19c-.183.228-.496.516-.932.874a35.291 35.291 0 01-3.115 2.228 26.14 26.14 0 01-1.417.844h-3.574zm7.276 19.83l2.974-14.383h-3.976l.865-4.076h12.89l-.89 4.076h-3.989l-2.97 14.383h-4.904zm11.627 0l3.873-18.46h10.883l-.817 4.004h-5.979l-.59 2.904h5.567l-.903 4.003h-5.567l-.715 3.486h5.983l-.852 4.063h-10.883zm6.877-19.83c-.166-.379-.38-.801-.642-1.275-.256-.47-.526-.931-.808-1.388-.279-.452-.548-.849-.809-1.185v-.288h3.338c.188.16.406.38.65.655.244.28.484.555.719.831.24.28.433.513.587.707.475-.37.963-.741 1.459-1.12.496-.38 1.01-.737 1.536-1.073h3.445v.288a28.87 28.87 0 00-1.352 1.233c-.475.457-.933.913-1.365 1.374-.437.457-.822.87-1.156 1.241h-5.602zm5.983 19.83l.591-3.055 8.653-11.375h-6.009l.844-4.03h12.359l-.651 3.095-8.777 11.337h6.809l-.852 4.028h-12.967zm22.643.285c-1.271 0-2.362-.228-3.274-.69-.907-.46-1.605-1.094-2.084-1.904-.483-.81-.723-1.728-.723-2.758a10.24 10.24 0 01.15-1.719l2.494-11.673h4.905l-2.444 11.552c-.051.246-.094.496-.128.75-.03.25-.047.487-.047.707 0 .504.137.9.41 1.185.279.28.677.422 1.207.422.493 0 .912-.108 1.258-.328.347-.22.643-.573.891-1.06.248-.482.453-1.124.62-1.926l2.397-11.302h4.9l-2.495 11.79c-.308 1.499-.783 2.766-1.417 3.8a6.252 6.252 0 01-2.559 2.352c-1.07.535-2.422.802-4.061.802zm3.907-20.606c-.984 0-1.793-.284-2.418-.853-.629-.569-.941-1.344-.941-2.327 0-1 .312-1.784.941-2.353.625-.569 1.434-.853 2.418-.853.937 0 1.729.284 2.384.853.65.57.975 1.345.975 2.327 0 .991-.32 1.776-.962 2.349-.647.573-1.443.857-2.397.857zm0-2.12c.291 0 .552-.099.771-.297a.976.976 0 00.333-.763c0-.319-.111-.582-.333-.784a1.124 1.124 0 00-.771-.302 1.13 1.13 0 00-.77.302 1.013 1.013 0 00-.334.784c0 .31.099.564.295.763.197.198.467.297.809.297z" fill="#0078BF"/><path fill-rule="evenodd" clip-rule="evenodd" d="M59.853 0c-.777 28.607-9.963 50.558-29.943 64a62.454 62.454 0 01-10.4-8.745 6.691 6.691 0 01-4.562 2.544c-3.691.4-7.006-2.288-7.404-6.005-.398-3.717 2.272-7.055 5.964-7.456 2.986-.324 5.726 1.374 6.875 4.003a7.237 7.237 0 00-.039-.608c-.41-3.83-3.827-6.602-7.632-6.189a6.873 6.873 0 00-2.61.829C3.664 30.693.452 16.467 0 .047 5.192 14.665 13.668 26.74 25.894 35.933l-3.08 7.404c2.694-1.511 4.622-2.722 7.092-4.58C44.324 29.264 54.101 16.189 59.853 0z" fill="#0078BF"/><path d="M29.912 28.013c5.893 0 10.67-4.81 10.67-10.745 0-5.934-4.777-10.745-10.67-10.745-5.894 0-10.672 4.81-10.672 10.745 0 5.934 4.778 10.745 10.672 10.745z" fill="#0078BF"/></svg><style>@media (prefers-color-scheme:light){:root{filter:none}}@media (prefers-color-scheme:dark){:root{filter:none}}</style></svg>