<svg xmlns="http://www.w3.org/2000/svg" version="1.1" xmlns:xlink="http://www.w3.org/1999/xlink" xmlns:svgjs="http://svgjs.dev/svgjs" width="154" height="64"><svg width="154" height="64" viewBox="0 0 154 64" fill="none" xmlns="http://www.w3.org/2000/svg">
<path d="M69.0674 27.9706L72.9404 9.51093H77.8406L76.1499 17.3877L77.9688 14.8151L81.9786 9.51093H87.7348L80.8275 18.0209L84.2125 27.9706H78.7222L76.5394 20.6712L75.3239 21.3779L73.9675 27.9706H69.0674ZM86.2453 27.9706L90.1183 9.51093H101.001L100.184 13.5137H94.2053L93.6147 16.4182H99.1821L98.2794 20.4213H92.7116L91.9969 23.9073H97.9798L97.1283 27.9706H86.2453ZM100.676 27.9706L104.549 9.51093H111.045V22.6187H111.143L117.135 9.51093H123.729L119.805 27.9706H115.406L116.874 21.0372C117.148 19.749 117.392 18.6933 117.601 17.8703C117.811 17.0428 117.982 16.3879 118.119 15.8924C118.26 15.4011 118.359 15.0135 118.414 14.7246H118.316L112.273 27.9706H107.634V14.7246H107.532C107.399 15.5907 107.271 16.4137 107.142 17.1938C107.018 17.9736 106.898 18.6933 106.787 19.361C106.676 20.0246 106.564 20.6367 106.453 21.1883L105.037 27.9706H100.676ZM124.02 27.9706L127.893 9.51093H132.571C134.193 9.51093 135.494 9.75621 136.474 10.2434C137.458 10.7302 138.173 11.3938 138.618 12.2296C139.067 13.07 139.29 14.005 139.29 15.0392C139.29 16.1423 139.097 17.1162 138.708 17.9608C138.318 18.8053 137.766 19.5208 137.051 20.0939C136.337 20.6712 135.489 21.1065 134.505 21.3994C133.525 21.6966 132.438 21.8431 131.253 21.8431H130.174L128.92 27.9706H124.02ZM131.052 17.8014H131.843C132.361 17.8014 132.81 17.6894 133.191 17.4607C133.572 17.237 133.868 16.9224 134.073 16.5302C134.283 16.1335 134.39 15.6857 134.39 15.1902C134.39 14.7719 134.257 14.3885 133.992 14.0482C133.731 13.7079 133.298 13.5398 132.695 13.5398H131.955L131.052 17.8014Z" fill="#FEFEFE" stroke="#0078BF" stroke-width="0.666709" stroke-miterlimit="22.9256"></path>
<path d="M71.6533 54.5365L70.3525 36.0768H75.141L75.4534 45.3841C75.4707 45.8281 75.4749 46.3535 75.4707 46.9527C75.4662 47.5557 75.4493 48.1376 75.4151 48.702C75.3809 49.2664 75.338 49.7233 75.2783 50.0682H75.3764C75.4794 49.6113 75.6034 49.1373 75.7531 48.646C75.9031 48.155 76.0568 47.6939 76.2196 47.2628C76.3779 46.832 76.5147 46.4917 76.6305 46.2414L81.0212 36.0768H86.2124L77.1226 54.5365H71.6533ZM84.7315 54.5365L88.6045 36.0768H93.5047L89.6316 54.5365H84.7315ZM89.0624 34.7065V34.4176C89.4647 34.0902 89.8756 33.7068 90.2948 33.2673C90.7185 32.8319 91.1294 32.375 91.5317 31.9011C91.934 31.4272 92.2933 30.9835 92.6103 30.5697H98.1006V30.7594C97.9168 30.9877 97.6044 31.2765 97.1679 31.6338C96.7269 31.9916 96.2348 32.3667 95.687 32.7585C95.1393 33.1507 94.5957 33.5171 94.0524 33.862C93.5088 34.2064 93.0381 34.4865 92.6359 34.7065H89.0624ZM96.3378 54.5365L99.312 40.153H95.3363L96.201 36.0768H109.091L108.201 40.153H104.212L101.242 54.5365H96.3378ZM107.965 54.5365L111.838 36.0768H122.721L121.904 40.0795H115.925L115.335 42.9841H120.902L119.999 46.9872H114.432L113.717 50.4732H119.7L118.848 54.5365H107.965ZM114.842 34.7065C114.676 34.3272 114.462 33.9047 114.2 33.4308C113.944 32.961 113.674 32.5 113.392 32.0434C113.113 31.5911 112.844 31.1943 112.583 30.8582V30.5697H115.921C116.109 30.7291 116.327 30.9491 116.571 31.2246C116.815 31.5048 117.055 31.7803 117.29 32.0563C117.53 32.3364 117.723 32.5692 117.877 32.763C118.352 32.3924 118.84 32.0219 119.336 31.6426C119.832 31.2636 120.346 30.9059 120.872 30.5697H124.317V30.8582C123.893 31.2205 123.44 31.6297 122.965 32.0907C122.49 32.5477 122.032 33.0042 121.6 33.4652C121.163 33.9221 120.778 34.3359 120.444 34.7065H114.842ZM120.825 54.5365L121.416 51.4813L130.069 40.1056H124.06L124.904 36.0768H137.263L136.612 39.1706L127.835 50.5076H134.644L133.792 54.5365H120.825ZM143.468 54.8208C142.197 54.8208 141.106 54.5925 140.194 54.1314C139.287 53.6704 138.589 53.0371 138.11 52.227C137.627 51.4169 137.387 50.4989 137.387 49.4689C137.387 49.2104 137.399 48.9261 137.425 48.6161C137.451 48.3098 137.489 48.0214 137.537 47.75L140.031 36.0768H144.936L142.492 47.6292C142.441 47.8749 142.398 48.1247 142.364 48.3787C142.334 48.6289 142.317 48.8659 142.317 49.0855C142.317 49.5897 142.454 49.986 142.727 50.2707C143.006 50.5508 143.404 50.6928 143.934 50.6928C144.427 50.6928 144.846 50.5852 145.192 50.3653C145.539 50.1458 145.835 49.7922 146.083 49.3054C146.331 48.8227 146.536 48.1807 146.703 47.3794L149.1 36.0768H154L151.505 47.8662C151.197 49.3656 150.722 50.6326 150.088 51.6667C149.455 52.6964 148.599 53.4807 147.529 54.0194C146.459 54.5539 145.107 54.8208 143.468 54.8208ZM147.375 34.2151C146.391 34.2151 145.582 33.9309 144.957 33.3619C144.328 32.7933 144.016 32.0177 144.016 31.035C144.016 30.0352 144.328 29.2513 144.957 28.6823C145.582 28.1134 146.391 27.8291 147.375 27.8291C148.312 27.8291 149.104 28.1134 149.759 28.6823C150.409 29.2513 150.734 30.0269 150.734 31.0092C150.734 32.0003 150.414 32.7846 149.772 33.3577C149.125 33.9308 148.329 34.2151 147.375 34.2151ZM147.375 32.0949C147.666 32.0949 147.927 31.9961 148.146 31.7977C148.368 31.5994 148.479 31.3454 148.479 31.035C148.479 30.7162 148.368 30.4532 148.146 30.2506C147.927 30.0527 147.666 29.9493 147.375 29.9493C147.084 29.9493 146.828 30.0527 146.605 30.2506C146.382 30.4532 146.271 30.7162 146.271 31.035C146.271 31.3454 146.37 31.5994 146.566 31.7977C146.763 31.9961 147.033 32.0949 147.375 32.0949Z" fill="#0078BF"></path>
<path fill-rule="evenodd" clip-rule="evenodd" d="M59.8535 0C59.076 28.6065 49.8904 50.5583 29.9098 64C26.0432 61.3994 22.5837 58.4789 19.5107 55.2545C18.431 56.6358 16.8211 57.5954 14.9481 57.7987C11.2567 58.1992 7.94157 55.5108 7.54381 51.7935C7.14568 48.0766 9.81605 44.7386 13.5075 44.3381C16.4944 44.0137 19.2344 45.7121 20.3829 48.3408C20.3784 48.1397 20.366 47.9372 20.3442 47.7332C19.934 43.9023 16.5174 41.1314 12.7124 41.544C11.7665 41.6466 10.886 41.9366 10.1025 42.373C3.66403 30.6923 0.451516 16.467 0 0.0469483C5.19224 14.6648 13.6681 26.7411 25.8939 35.9333L22.8142 43.3372C25.5078 41.8257 27.4361 40.6155 29.9064 38.7576C44.3241 29.2633 54.1011 16.188 59.8535 0Z" fill="#0078BF"></path>
<path d="M29.9116 28.0128C35.8052 28.0128 40.5829 23.2021 40.5829 17.2679C40.5829 11.3336 35.8052 6.52289 29.9116 6.52289C24.018 6.52289 19.2402 11.3336 19.2402 17.2679C19.2402 23.2021 24.018 28.0128 29.9116 28.0128Z" fill="#0078BF"></path>
</svg><style>@media (prefers-color-scheme: light) { :root { filter: none; } }
@media (prefers-color-scheme: dark) { :root { filter: none; } }
</style></svg>