<svg width="32" height="32" viewBox="0 0 32 32" fill="none" xmlns="http://www.w3.org/2000/svg">
<path fill-rule="evenodd" clip-rule="evenodd" d="M29.3337 16.0001C29.3337 16.7365 28.7367 17.3334 28.0003 17.3334L4.00033 17.3334C3.26395 17.3334 2.66699 16.7365 2.66699 16.0001C2.66699 15.2637 3.26395 14.6667 4.00033 14.6667L28.0003 14.6667C28.7367 14.6667 29.3337 15.2637 29.3337 16.0001Z" fill="white"/>
<path fill-rule="evenodd" clip-rule="evenodd" d="M28.9428 16.9428C29.4635 16.4221 29.4635 15.5779 28.9428 15.0572L22.2761 8.39052C21.7554 7.86983 20.9112 7.86983 20.3905 8.39052C19.8698 8.91122 19.8698 9.75544 20.3905 10.2761L26.1144 16L20.3905 21.7239C19.8698 22.2446 19.8698 23.0888 20.3905 23.6095C20.9112 24.1302 21.7554 24.1302 22.2761 23.6095L28.9428 16.9428Z" fill="white"/>
</svg>
