<svg width="20" height="20" viewBox="0 0 20 20" fill="none" xmlns="http://www.w3.org/2000/svg">
<path fill-rule="evenodd" clip-rule="evenodd" d="M18.3337 9.99996C18.3337 10.4602 17.9606 10.8333 17.5003 10.8333L2.50033 10.8333C2.04009 10.8333 1.66699 10.4602 1.66699 9.99996C1.66699 9.53972 2.04009 9.16663 2.50033 9.16663L17.5003 9.16663C17.9606 9.16663 18.3337 9.53972 18.3337 9.99996Z" fill="black"/>
<path fill-rule="evenodd" clip-rule="evenodd" d="M18.0893 10.5893C18.4147 10.2638 18.4147 9.73618 18.0893 9.41074L13.9226 5.24408C13.5972 4.91864 13.0695 4.91864 12.7441 5.24408C12.4186 5.56951 12.4186 6.09715 12.7441 6.42259L16.3215 10L12.7441 13.5774C12.4186 13.9028 12.4186 14.4305 12.7441 14.7559C13.0695 15.0814 13.5972 15.0814 13.9226 14.7559L18.0893 10.5893Z" fill="black"/>
</svg>
