<svg width="24" height="24" viewBox="0 0 24 24" fill="none" xmlns="http://www.w3.org/2000/svg">
<path fill-rule="evenodd" clip-rule="evenodd" d="M12.001 6C7.14573 6 4.89079 9.77258 4.09781 11.5534C3.97 11.8405 3.97 12.1595 4.09781 12.4466C4.89079 14.2274 7.14573 18 12.001 18C16.8563 18 19.111 14.2273 19.9038 12.4465C20.0316 12.1595 20.0316 11.8405 19.9038 11.5535C19.111 9.77274 16.8563 6 12.001 6ZM2.27075 10.7399C3.14008 8.78756 5.89221 4 12.001 4C18.1099 4 20.8618 8.78782 21.7309 10.7401C22.0892 11.5448 22.0892 12.4552 21.7309 13.2599C20.8618 15.2122 18.1099 20 12.001 20C5.89221 20 3.14008 15.2124 2.27075 13.2601C1.91235 12.4552 1.91235 11.5448 2.27075 10.7399Z" fill="#0078BF"/>
<path fill-rule="evenodd" clip-rule="evenodd" d="M12 8C9.79086 8 8 9.79086 8 12C8 14.2091 9.79086 16 12 16C14.2091 16 16 14.2091 16 12C16 9.79086 14.2091 8 12 8ZM11.9153 10.0018C11.9434 10.0006 11.9716 10 12 10C13.1046 10 14 10.8954 14 12C14 13.1046 13.1046 14 12 14C10.8954 14 10 13.1046 10 12C10 11.9716 10.0006 11.9434 10.0018 11.9153C10.1577 11.9701 10.3253 12 10.5 12C11.3284 12 12 11.3284 12 10.5C12 10.3253 11.9701 10.1577 11.9153 10.0018Z" fill="#0078BF"/>
</svg>
