<svg width="197" height="209" viewBox="0 0 197 209" fill="none" xmlns="http://www.w3.org/2000/svg">
<g filter="url(#filter0_ddd_2036_7201)">
<g clip-path="url(#clip0_2036_7201)">
<path d="M14 87.5C14 40.8319 51.8319 3 98.5 3C145.168 3 183 40.8319 183 87.5C183 134.168 145.168 172 98.5 172C51.8319 172 14 134.168 14 87.5Z" fill="white"/>
<path d="M70.0635 37.5553C69.9362 37.9544 69.4646 38.4083 68.8258 39.0233C67.845 39.9676 66.412 41.3469 65.5708 43.0271C64.9774 44.2131 64.6607 45.5736 64.5549 46.7546C64.438 48.0602 64.5279 49.0671 64.7618 49.2382C64.7638 49.2396 65.2231 48.6921 65.5968 48.2533C65.8018 48.013 65.9887 47.7932 66.1654 47.6352C66.5715 47.2729 66.941 47.192 67.2801 47.6055C67.5889 47.9814 67.4599 48.9354 67.2823 50.2521C67.1129 51.5064 66.892 53.1416 66.892 54.6897C66.892 56.1452 67.0877 57.5201 67.4588 58.7354C67.8227 59.9272 68.3546 60.9688 69.0341 61.7826C69.5552 62.4043 70.1527 62.8886 70.7224 63.1199C70.9895 63.228 71.2455 63.279 71.4737 63.258C71.6732 63.2396 71.8601 63.1616 72.0229 63.0136C72.1996 62.8529 72.3567 62.6075 72.4841 62.2653C73.0775 60.6725 72.9893 57.2819 72.8979 53.767C72.8676 52.6006 72.8367 51.4202 72.8307 50.2667C72.8186 47.9184 72.9107 45.7454 73.1778 44.1012C73.4769 42.2596 74.0331 40.9977 74.9543 40.7058C75.9161 40.4012 76.9474 41.161 78.541 42.3359C79.9188 43.3515 81.7642 44.7123 84.2816 45.9419C87.0036 47.2716 90.5312 48.465 94.2896 49.255C97.6773 49.9671 101.249 50.3506 104.583 50.2095C108.085 50.0614 111.325 49.3318 114.247 48.0339C117.147 46.7462 119.737 44.8963 121.964 42.4976C124.055 40.2462 125.832 37.5034 127.235 34.6912C128.843 31.4705 129.954 28.1738 130.482 25.4273C130.903 23.2407 130.954 21.4044 130.81 19.9975C130.637 18.3083 130.257 17.3361 129.942 17.2173C129.85 17.1827 129.433 18.1884 128.92 19.4309C128.648 20.0881 128.353 20.7993 128.007 21.5003C127.303 22.9211 126.42 24.1901 125.698 24.8277C125.468 25.0306 125.24 25.1822 125.023 25.2693C124.712 25.3938 124.418 25.3952 124.153 25.2518C124.044 25.193 123.947 25.1123 123.863 25.0094C123.479 24.5355 123.454 23.5534 123.429 22.5708C123.408 21.7745 123.388 20.9768 123.315 20.927C123.296 20.9139 122.584 21.6045 121.658 22.5034C121.028 23.1152 120.315 23.8066 119.537 24.4417C118.441 25.3357 117.247 26.0868 115.861 26.5792C114.471 27.0724 112.895 27.3049 111.042 27.1603C108.238 26.9414 104.801 25.8521 101.796 24.8999C100.973 24.6393 100.185 24.3893 99.3657 24.1467C98.0884 23.7686 97.0133 23.4964 96.146 23.2769C94.4608 22.8505 93.4552 22.5957 93.2622 21.9906C93.062 21.3633 93.5465 21.0154 94.0612 20.6469C94.1509 20.5825 94.2425 20.5168 94.3227 20.4543C93.9021 20.2696 93.0649 20.1086 91.9427 20.062C90.7887 20.0141 89.3741 20.1107 87.8441 20.4596C86.0623 20.8662 84.1292 21.6149 82.3242 22.5678C80.5398 23.5098 78.8867 24.6465 77.6356 25.8438C76.6393 26.7971 75.8993 27.788 75.4868 28.6516C75.2631 29.1202 75.1425 29.5323 75.1396 29.8554C75.1376 30.0747 75.1944 30.2421 75.3163 30.3353C75.3859 30.3883 75.482 30.43 75.6057 30.4575C76.3104 30.6143 77.6572 30.318 79.3487 29.9458C81.4713 29.4788 84.112 28.8979 86.9282 28.9117C91.2131 28.9329 95.7849 30.3357 100.079 31.6529C100.929 31.9137 101.769 32.1713 102.643 32.4282C105.1 33.1502 107.413 33.7355 109.495 34.0651C111.542 34.3891 113.352 34.4647 114.834 34.1767C116.918 33.7722 118.416 32.6261 119.183 32.039C119.666 31.6695 119.965 31.4405 120.335 31.595L120.379 31.616C120.949 31.8875 120.73 32.4711 120.455 33.195C120.374 33.4152 120.282 33.6564 120.232 33.8077C120.228 33.8268 120.22 33.8446 120.212 33.8617C120.148 34.0083 120.034 34.1176 119.898 34.1744C119.862 34.208 119.852 34.2322 119.898 34.2484C120.017 34.2913 120.669 34.0123 121.204 33.7833C121.855 33.5045 122.402 33.2711 122.751 33.5949C123.072 33.8935 123.064 34.2855 122.601 34.8281C121.965 35.573 119.854 37.4937 116.644 39.128C114.67 40.1327 112.268 41.0388 109.517 41.5108C106.462 42.035 102.994 42.0205 99.5824 41.7165C95.015 41.31 90.5272 40.3832 87.2684 39.5401C82.4992 38.3061 80.3513 37.2488 78.5353 36.355C78.1675 36.1739 77.8125 35.9989 77.5112 35.858C76.4939 35.382 75.4391 34.9614 74.3865 34.7179C73.3638 34.4811 72.3352 34.41 71.3352 34.6187C71.0918 34.6695 70.862 34.7322 70.648 34.803C69.7927 35.0866 68.9967 35.5365 68.4259 35.9742C68.0371 36.2724 67.7716 36.485 67.7255 36.5344C67.8065 36.5996 68.0643 36.3598 68.3906 36.3676C68.801 36.3776 69.2057 36.3879 69.5053 36.4922C70.0007 36.6647 70.2457 36.9841 70.0635 37.5553ZM68.0358 38.1272L68.5896 37.5896L68.3632 37.5834C67.6258 37.5652 66.8717 37.5463 66.6265 36.9555C66.6088 36.9179 66.5944 36.878 66.5843 36.8358L66.5721 36.7832C66.4785 36.292 66.941 35.6023 67.7363 34.9923C68.3919 34.4894 69.3087 33.9721 70.2963 33.6444C70.574 33.5524 70.8464 33.4766 71.1068 33.4224C72.2743 33.1788 73.4627 33.2586 74.6375 33.5307C75.7824 33.7957 76.9084 34.2431 77.9861 34.7474C78.3723 34.928 78.697 35.088 79.0332 35.2536C80.8022 36.1241 82.8946 37.1542 87.5468 38.358C90.7529 39.1875 95.1721 40.0995 99.6783 40.5008C103.013 40.7976 106.386 40.8144 109.329 40.3094C111.948 39.8602 114.243 38.9935 116.133 38.0317C117.861 37.1517 119.241 36.1986 120.219 35.4136C119.955 35.4653 119.713 35.4717 119.519 35.4019C118.805 35.1452 118.834 34.4059 119.066 33.6154C118.141 34.2565 116.789 35.0343 115.044 35.373C113.419 35.6885 111.483 35.6133 109.321 35.2711C107.194 34.9344 104.833 34.3372 102.328 33.6011C101.519 33.3636 100.641 33.0937 99.7507 32.8207C95.5306 31.5263 91.0379 30.148 86.9238 30.1275C84.2374 30.1143 81.6588 30.6814 79.5859 31.1375C77.7601 31.5392 76.3059 31.8591 75.3636 31.6492C75.0742 31.5847 74.8288 31.4717 74.6267 31.3172C74.1782 30.974 73.9693 30.4653 73.975 29.8457C73.9799 29.3296 74.1413 28.7358 74.4411 28.1083C74.9105 27.1255 75.7407 26.0093 76.85 24.9476C78.1849 23.6703 79.929 22.4679 81.7989 21.4807C83.6911 20.4817 85.7217 19.6958 87.5976 19.2678C89.2247 18.8968 90.7426 18.7944 91.9882 18.8463C93.6969 18.9173 94.9627 19.3146 95.3749 19.7272C95.8801 20.2324 95.7466 20.6994 95.3428 21.1394C95.1661 21.3317 94.9382 21.4952 94.7186 21.6527C94.5774 21.7537 94.2907 21.3693 94.3671 21.6092C94.3786 21.6456 95.1268 21.7678 96.42 22.0948C97.3177 22.322 98.4308 22.6038 99.6807 22.9739C100.383 23.1817 101.241 23.4538 102.134 23.7367C105.074 24.6684 108.438 25.7347 111.128 25.9445C112.815 26.076 114.239 25.8682 115.486 25.4257C116.737 24.9815 117.821 24.2985 118.82 23.4833C119.546 22.8913 120.245 22.2124 120.863 21.6119C122.168 20.3452 123.171 19.3723 123.954 19.9068C124.536 20.3037 124.565 21.424 124.593 22.5422C124.609 23.1713 124.626 23.8001 124.698 24.0875C124.769 24.0441 124.852 23.98 124.945 23.8979C125.558 23.3558 126.333 22.229 126.97 20.9427C127.285 20.3053 127.577 19.6008 127.846 18.9494C128.601 17.1257 129.211 15.6499 130.334 16.073C131.008 16.3269 131.745 17.679 131.97 19.8688C132.125 21.3788 132.071 23.3412 131.624 25.6657C131.074 28.5255 129.926 31.9389 128.272 35.2538C126.823 38.1576 124.979 40.9993 122.8 43.3462C120.463 45.8626 117.746 47.8033 114.704 49.1542C111.652 50.5095 108.275 51.271 104.628 51.4252C101.202 51.5703 97.5355 51.1771 94.0612 50.4468C90.2102 49.6371 86.5887 48.411 83.7886 47.0433C81.1662 45.7623 79.2788 44.3708 77.8699 43.3322C76.5567 42.3638 75.7069 41.7377 75.2922 41.869C74.865 42.0043 74.5533 42.9182 74.3287 44.3014C74.072 45.8817 73.9834 47.9841 73.9953 50.2621C74.0011 51.3858 74.032 52.569 74.0625 53.7384C74.1572 57.3764 74.2485 60.8856 73.571 62.7039C73.3713 63.24 73.1044 63.6429 72.7899 63.9291C72.4307 64.2559 72.0171 64.4279 71.574 64.4687C71.1605 64.507 70.7297 64.4277 70.3023 64.2545C69.5499 63.9492 68.7904 63.3447 68.1549 62.5833C67.3711 61.6417 66.761 60.4527 66.349 59.1025C65.9392 57.7604 65.723 56.2601 65.723 54.6897C65.723 53.0764 65.9516 51.3835 66.127 50.0852C66.1652 49.8015 66.2061 49.5465 66.2439 49.3258C65.6063 50.0575 64.8517 50.7871 64.0952 50.2344C63.5383 49.8271 63.2409 48.3676 63.3951 46.6448C63.5131 45.3262 63.8696 43.8019 64.5387 42.4644C65.4769 40.5905 66.996 39.1282 68.0358 38.1272ZM119.901 32.725C119.799 32.6824 119.813 32.7109 119.846 32.7668C120.009 32.7956 120.109 32.8129 119.929 32.7356L119.901 32.725Z" fill="#0078BF"/>
<path d="M73.8117 76.2919C74.0991 76.4418 74.2157 76.8071 74.0721 77.1071C73.9285 77.4071 73.5786 77.5289 73.2912 77.379L73.2755 77.3707C72.1048 76.7455 70.9362 76.1201 70.5768 75.3052L70.5604 75.2646C70.3526 74.7584 70.4429 74.261 70.6958 73.7933C70.9059 73.4045 71.2267 73.0478 71.5589 72.7362L71.8359 72.4881C72.209 72.153 72.5503 71.8484 72.5039 71.5149C72.4637 71.226 72.2547 70.8413 71.93 70.4548C71.6057 70.0683 71.1736 69.6987 70.6802 69.4305C70.171 69.1535 69.5971 68.987 69.0428 68.9405C68.506 68.8955 67.9962 68.961 67.5939 69.1452C67.2248 69.3143 66.9401 69.5931 66.7499 69.9597C66.5431 70.3584 66.4395 70.8655 66.4497 71.4573C66.4607 72.0967 66.6034 72.8377 66.8115 73.6282C67.0183 74.4129 67.3094 75.2989 67.6003 76.1847C67.7048 76.5031 67.5425 76.8502 67.2374 76.9593C66.9323 77.0684 66.5999 76.8989 66.4954 76.5804C66.2082 75.7062 65.9208 74.8315 65.688 73.9478C65.4567 73.0697 65.2981 72.2319 65.2851 71.4762C65.2711 70.6705 65.4218 69.9618 65.7222 69.3828C66.0377 68.7746 66.5117 68.3121 67.1283 68.0296C67.7114 67.7625 68.4159 67.6643 69.1343 67.7247C69.8403 67.784 70.5708 67.9959 71.2192 68.3485C71.8414 68.6866 72.3908 69.1581 72.807 69.6542C73.2771 70.2139 73.5874 70.8259 73.6592 71.3434C73.7973 72.3368 73.223 72.8494 72.5929 73.4117L72.3396 73.642C72.0822 73.8832 71.8425 74.1434 71.7098 74.3892C71.6302 74.5363 71.592 74.6733 71.6296 74.7805L71.6362 74.7951C71.8293 75.233 72.8174 75.7613 73.8075 76.2896L73.8117 76.2919Z" fill="#0078BF"/>
<path d="M77.9984 64.0064C78.9443 63.3482 80.2598 62.5367 81.7257 61.7946C82.8869 61.2068 84.1408 60.6624 85.3772 60.2717C86.7574 59.8359 88.1245 59.5871 89.4294 59.5054C90.8056 59.4194 92.1116 59.5197 93.2908 59.7819C94.7997 60.1175 96.0794 60.7122 97.337 61.2963C97.965 61.588 98.588 61.8774 99.214 62.1214C100.126 62.4768 101.079 62.7512 102.057 62.8928C103.022 63.0323 104.012 63.0415 105.011 62.87C106.395 62.632 107.844 62.0326 109.216 61.4653C109.854 61.2015 110.476 60.9439 111.108 60.7186C112.093 60.3672 113.014 60.132 113.888 59.9996C114.769 59.8661 115.602 59.8363 116.407 59.8956C117.218 59.9556 118.004 60.1075 118.742 60.3469C119.481 60.5867 120.169 60.913 120.785 61.3212C121.419 61.7414 121.983 62.2512 122.454 62.9039C122.922 63.5507 123.295 64.3355 123.551 65.3098C123.788 66.2105 123.923 67.2724 123.972 68.3904C124.026 69.593 123.98 70.868 123.859 72.0819C123.739 73.2698 123.545 74.4092 123.158 75.3911C122.749 76.4311 122.13 77.2874 121.173 77.8341C120.315 78.3242 119.204 78.543 117.979 78.5624C116.625 78.5838 115.124 78.3655 113.678 78.0071C112.393 77.6886 111.153 77.2618 109.953 76.8485C108.669 76.4065 107.429 75.9794 106.277 75.734C106.024 75.6798 105.772 75.6339 105.524 75.5959C106.113 76.0442 106.59 76.5315 106.908 76.9733C107.367 77.6125 107.53 78.2054 107.375 78.7526C107.22 79.298 106.773 79.7186 106.017 80.0097C105.386 80.2527 104.494 80.4208 103.549 80.4889C102.649 80.5537 101.684 80.5281 100.837 80.3906C99.939 80.2449 99.1692 79.97 98.6059 79.6054C97.9613 79.188 97.561 78.6426 97.4917 78.0108C97.4223 77.3768 97.6984 76.7129 98.246 76.127C98.5259 75.8274 98.8818 75.5431 99.3002 75.2922C98.4634 75.428 97.6273 75.6729 96.8365 75.9944C96.2117 76.2485 95.5798 76.5697 94.9288 76.9004C93.7346 77.5074 92.4759 78.1471 90.8304 78.5827C89.6708 78.8896 88.3346 79.0889 86.9785 79.2051C85.3825 79.3423 83.7407 79.3651 82.3245 79.3162C80.9912 79.2703 79.8599 79.1603 78.9633 78.9798C78.0364 78.7932 77.3297 78.5234 76.8729 78.1639C75.9069 77.4038 76.0204 76.4777 76.1766 75.2052L76.2252 74.7853C76.3016 74.1009 76.3573 73.3154 76.3593 72.5401C76.3611 71.8912 76.327 71.2421 76.2393 70.6545C76.1545 70.0844 76.0123 69.5464 75.883 69.0575C75.7059 68.3867 75.5503 67.7975 75.5581 67.2226C75.5658 66.6417 75.7324 66.1328 76.1618 65.5897C76.5378 65.1142 77.1201 64.6173 77.9984 64.0064ZM82.2324 62.8909C80.8224 63.6047 79.5549 64.3869 78.6421 65.022C77.8588 65.5669 77.3567 65.9884 77.0613 66.3618C76.8199 66.6671 76.7267 66.9385 76.7227 67.2369C76.7174 67.6379 76.8526 68.1501 77.0065 68.7333C77.143 69.2503 77.2935 69.8188 77.3902 70.4686C77.4879 71.1228 77.5259 71.8347 77.5239 72.5401C77.5217 73.3869 77.4638 74.2178 77.3845 74.9271L77.3319 75.3579C77.2257 76.2241 77.1481 76.8545 77.5762 77.1912C77.887 77.4359 78.4316 77.6321 79.1824 77.7834C80.0258 77.9531 81.0959 78.0571 82.3612 78.1005C83.7217 78.1473 85.3135 78.1242 86.8826 77.9896C88.1833 77.8782 89.4555 77.6895 90.5472 77.4006C92.0681 76.998 93.2738 76.3852 94.4171 75.8041C95.0734 75.4707 95.711 75.1469 96.4163 74.8598C97.4305 74.4475 98.5147 74.1493 99.5918 74.0227C100.59 73.9053 101.587 73.9346 102.523 74.1544C102.66 74.1864 102.795 74.2226 102.928 74.2623L103.183 74.2482C104.215 74.2026 105.341 74.293 106.51 74.5423C107.757 74.8077 109.015 75.2412 110.318 75.69C111.494 76.0947 112.708 76.5128 113.947 76.8199C115.316 77.1592 116.721 77.3665 117.965 77.3466C119.009 77.3303 119.935 77.1555 120.615 76.7664C121.308 76.3705 121.768 75.7239 122.08 74.9285C122.416 74.0753 122.589 73.0452 122.699 71.9579C122.815 70.7995 122.858 69.5852 122.808 68.443C122.762 67.4087 122.64 66.4376 122.428 65.6294C122.215 64.819 121.907 64.1696 121.522 63.6381C121.143 63.1123 120.682 62.6972 120.16 62.3511C119.626 61.9971 119.033 61.7156 118.399 61.5101C117.749 61.2993 117.051 61.1651 116.325 61.1114C115.6 61.0579 114.849 61.0851 114.053 61.2057C113.25 61.3272 112.4 61.5451 111.483 61.8721C110.917 62.0737 110.289 62.3338 109.645 62.5999C108.223 63.1882 106.72 63.8097 105.199 64.0714C104.078 64.264 102.972 64.2543 101.897 64.0988C100.834 63.945 99.7983 63.6466 98.8076 63.2606C98.1382 62.9998 97.5027 62.7044 96.8621 62.4069C95.6646 61.8507 94.4459 61.2845 93.0486 60.9737C91.9684 60.7334 90.7676 60.6418 89.4979 60.7212C88.2873 60.797 87.0116 61.0302 85.7151 61.4395C84.5318 61.8133 83.3367 62.332 82.2324 62.8909ZM102.798 75.4923C101.995 75.5627 101.268 75.7273 100.65 75.9713C99.9764 76.237 99.4382 76.5937 99.0815 76.9756C98.7804 77.2978 98.6233 77.6158 98.6514 77.8724C98.6777 78.1125 98.8818 78.3535 99.2178 78.5709C99.6525 78.8525 100.272 79.0686 101.015 79.1892C101.768 79.3112 102.643 79.3326 103.471 79.2731C104.309 79.2127 105.084 79.0695 105.615 78.8654C106.001 78.7167 106.212 78.5647 106.256 78.4095C106.299 78.2559 106.203 78.0184 105.976 77.7025C105.644 77.2399 105.076 76.7046 104.356 76.2437C103.889 75.9446 103.361 75.6803 102.798 75.4923Z" fill="#0078BF"/>
<path d="M91.1351 64.619C90.4775 64.6052 89.5544 64.6395 88.6012 64.8024C87.9133 64.9197 87.2135 65.1042 86.598 65.386C85.9022 65.7045 85.3069 66.1525 84.839 66.6829C84.3649 67.2205 84.023 67.8406 83.8414 68.4929C83.672 69.1017 83.6388 69.7497 83.7036 70.3839C83.778 71.1138 83.9815 71.8201 84.2552 72.4287C84.5034 72.9805 84.8109 73.4482 85.2095 73.8142L85.2375 73.8418C85.6241 74.187 86.1034 74.4437 86.7067 74.5971C87.3451 74.7594 88.1225 74.8099 88.9255 74.7698C89.7879 74.7267 90.6732 74.5777 91.4464 74.3498C92.1721 74.1361 92.7908 73.8534 93.2934 73.483C93.7749 73.1279 94.1538 72.6872 94.4222 72.1432C94.6956 71.5884 94.8609 70.918 94.915 70.2255C94.9709 69.5106 94.9099 68.783 94.7303 68.1408C94.5527 67.506 94.2552 66.9405 93.9296 66.462C93.5978 65.9745 93.2359 65.5765 92.9388 65.2839C92.6744 65.0235 92.4751 64.8598 92.2447 64.7691C91.9938 64.6702 91.6609 64.6299 91.1351 64.619ZM88.4139 63.6009C89.4424 63.4252 90.4433 63.3883 91.1581 63.4033C91.8239 63.4171 92.2693 63.4777 92.6556 63.6299C93.0632 63.7902 93.3643 64.0294 93.738 64.3974C94.0787 64.7329 94.4944 65.1907 94.8794 65.7564C95.27 66.3303 95.6292 67.0168 95.849 67.8023C96.0699 68.5919 96.1463 69.4707 96.0796 70.3209C96.0136 71.1661 95.8057 71.9968 95.4586 72.7008C95.1008 73.4263 94.5998 74.0109 93.9645 74.4792C93.3504 74.9319 92.613 75.2718 91.7614 75.5227C90.9098 75.7738 89.933 75.938 88.9802 75.9855C88.0748 76.031 87.1841 75.9703 86.4328 75.7791C85.6367 75.5764 84.9974 75.2305 84.4743 74.7606L84.4376 74.7297C83.9152 74.25 83.5173 73.6481 83.2001 72.9434C82.8743 72.2191 82.6322 71.379 82.5438 70.5126C82.4643 69.7331 82.5078 68.9265 82.7228 68.1544C82.9556 67.3182 83.3866 66.5316 83.9806 65.8583C84.5543 65.2077 85.2826 64.6594 86.1324 64.2703C86.8454 63.944 87.6403 63.7328 88.4139 63.6009Z" fill="#0078BF"/>
<path d="M113.315 65.262C112.722 65.49 112.054 65.7889 111.438 66.1807C110.84 66.5605 110.285 67.0293 109.891 67.6077C109.516 68.1572 109.276 68.8193 109.157 69.4961C109.027 70.2398 109.044 70.9973 109.19 71.6428C109.32 72.2177 109.555 72.6985 109.878 73.0942C110.227 73.5218 110.683 73.8601 111.224 74.1197C111.76 74.3771 112.38 74.5595 113.018 74.6674L113.037 74.6709C113.705 74.7823 114.391 74.8102 115.017 74.7562C115.615 74.7048 116.149 74.5789 116.618 74.3838C117.082 74.1903 117.49 73.9256 117.839 73.5937C118.194 73.2566 118.488 72.8516 118.697 72.3754C118.896 71.9228 119.023 71.3986 119.059 70.7999C119.098 70.1529 119.033 69.4237 118.882 68.7153C118.733 68.0156 118.5 67.3388 118.204 66.7835C117.931 66.2702 117.602 65.8629 117.247 65.5544C116.865 65.2225 116.452 65.0028 116.044 64.8865C115.66 64.7775 115.274 64.7599 114.85 64.8199C114.4 64.8835 113.9 65.0367 113.315 65.262ZM110.83 65.1416C111.529 64.6977 112.265 64.367 112.913 64.1177C113.567 63.8654 114.145 63.6915 114.695 63.6138C115.271 63.5324 115.806 63.5589 116.35 63.7137C116.912 63.8737 117.476 64.1721 117.991 64.62C118.453 65.0217 118.877 65.5431 119.223 66.1922C119.573 66.8494 119.846 67.6411 120.019 68.4533C120.194 69.2736 120.269 70.1206 120.223 70.876C120.178 71.6262 120.015 72.2936 119.756 72.8809C119.477 73.5162 119.09 74.0524 118.625 74.4945C118.175 74.9215 117.648 75.2633 117.047 75.5137C116.465 75.7563 115.819 75.9111 115.112 75.972C114.403 76.0331 113.62 76.0003 112.852 75.8721L112.831 75.8689C112.097 75.7446 111.375 75.5308 110.74 75.2257C110.045 74.892 109.453 74.4504 108.992 73.8857C108.548 73.3417 108.227 72.6898 108.053 71.9191C107.872 71.1226 107.851 70.19 108.011 69.277C108.159 68.4346 108.463 67.6031 108.941 66.902C109.438 66.1731 110.112 65.5977 110.83 65.1416Z" fill="#0078BF"/>
<path fill-rule="evenodd" clip-rule="evenodd" d="M91.1418 66.7422C90.5833 66.9403 89.8245 67.3581 89.3924 68.0511C88.9604 68.7445 88.855 69.7124 89.0763 70.4494C89.2975 71.1864 89.8455 71.6926 90.6991 71.9347C91.5526 72.1766 92.7117 72.1547 93.5125 71.7805C94.3137 71.4066 94.7564 70.6807 94.9143 69.8115C95.0725 68.9424 94.9459 67.9303 94.4823 67.3692C94.0188 66.8081 93.2176 66.6984 92.6382 66.6322C92.0587 66.5662 91.7002 66.5441 91.1418 66.7422Z" fill="#0078BF"/>
<path fill-rule="evenodd" clip-rule="evenodd" d="M114.351 67.8863C113.727 68.8908 113.61 70.395 114.357 71.3311C115.104 72.2669 116.715 72.6335 117.727 72.0469C118.739 71.46 119.152 69.9184 118.972 68.7305C118.791 67.5427 118.016 66.7079 117.063 66.5428C116.109 66.3779 114.976 66.8818 114.351 67.8863Z" fill="#0078BF"/>
<path d="M101.45 81.6256C101.132 81.5626 100.8 81.448 100.438 81.3235C99.8797 81.1311 99.2417 80.9116 98.6616 80.8805C98.2183 80.8567 97.7751 80.9397 97.3371 81.1081C96.8811 81.2833 96.4301 81.5515 95.9889 81.8889C95.5195 82.2482 95.0649 82.6787 94.6268 83.0936C94.1594 83.5387 93.7074 83.9669 93.2579 84.2976C92.7821 84.6479 92.3204 84.8792 91.8704 85.0028C91.3986 85.1324 90.9426 85.143 90.4997 85.0491C90.0822 84.9606 89.6813 84.7777 89.3256 84.5367C88.9488 84.2817 88.6179 83.9591 88.3678 83.6134C88.1219 83.2739 87.949 82.9045 87.8551 82.5521C87.7479 82.1495 87.7429 81.7563 87.8454 81.4295C87.9346 81.1452 88.095 80.922 88.3015 80.7495C88.0386 80.7792 87.761 80.8371 87.4875 80.9231C87.0755 81.053 86.6819 81.2455 86.3783 81.4978C86.0768 81.7487 85.8628 82.0628 85.7578 82.4225C85.654 82.7779 85.6507 83.1902 85.7665 83.6445C85.8902 84.1297 86.1502 84.664 86.4888 85.187C86.867 85.7711 87.3333 86.3274 87.8149 86.7814C88.2726 87.2131 88.7491 87.5572 89.2649 87.8286C89.7822 88.1007 90.3398 88.3 90.9585 88.4425C91.5548 88.5797 92.2166 88.6662 92.8952 88.7111C93.6569 88.7616 94.4318 88.7589 95.1548 88.7171C95.8323 88.6782 96.4641 88.6048 97.0408 88.4755C97.5946 88.3514 98.0959 88.1752 98.5357 87.9273C98.9742 87.6803 99.361 87.357 99.6934 87.0206C100.038 86.6719 100.328 86.3068 100.561 85.9925L100.854 85.5874C101.213 85.0835 101.482 84.7168 101.96 84.4295C102.287 84.2332 102.691 84.0956 103.107 84.0594C103.487 84.0259 103.886 84.0751 104.26 84.2365C104.862 84.4964 105.309 85.0005 105.803 85.5565L106.127 85.9173C106.402 86.2158 106.706 86.5183 107.062 86.8188C107.414 87.1156 107.807 87.4029 108.259 87.6706C108.736 87.9538 109.289 88.2227 109.867 88.4443C110.397 88.647 110.942 88.8078 111.463 88.9002C111.999 88.9952 112.512 89.0204 112.999 88.9689C113.479 88.9182 113.94 88.793 114.382 88.5875C114.822 88.3827 115.247 88.0956 115.64 87.7495C116.049 87.3888 116.421 86.9666 116.734 86.5082C117.037 86.0647 117.287 85.5887 117.482 85.1068C117.692 84.5911 117.842 84.0663 117.93 83.5643C118.017 83.0726 118.045 82.6082 117.993 82.1961C117.95 81.8545 117.85 81.5479 117.68 81.2935C117.51 81.0378 117.262 80.8233 116.981 80.6568C116.653 80.4628 116.282 80.3344 115.929 80.2786L115.781 80.2592C115.963 80.4112 116.143 80.5869 116.292 80.7968C116.552 81.1653 116.693 81.6043 116.734 82.0427C116.778 82.5134 116.707 82.9921 116.549 83.3855C116.387 83.7919 116.136 84.1136 115.786 84.3559C115.464 84.5794 115.066 84.7258 114.581 84.7985C114.109 84.869 113.542 84.8713 112.971 84.7862C112.458 84.7097 111.936 84.5623 111.472 84.3313L111.439 84.3137C110.502 83.8375 109.842 83.0638 109.327 82.4597L109.281 82.4066C109.042 82.1269 108.84 81.894 108.65 81.7095C108.472 81.5359 108.293 81.392 108.083 81.2695C107.868 81.1436 107.621 81.038 107.358 80.955C107.073 80.8673 106.77 80.8023 106.469 80.7652C106.178 80.7292 105.891 80.7181 105.618 80.726C105.31 80.735 105.007 80.7679 104.723 80.8168C104.464 80.8613 104.216 80.9222 103.979 80.9967L103.954 81.0039C103.739 81.0726 103.536 81.1544 103.346 81.2469L103.15 81.3431C102.7 81.5723 102.251 81.7842 101.45 81.6256ZM100.803 80.1649C101.137 80.2795 101.444 80.3854 101.665 80.4292C102.093 80.514 102.367 80.3893 102.639 80.2512L102.853 80.1409C103.086 80.0275 103.34 79.9258 103.614 79.8381L103.641 79.8289C103.913 79.7434 104.21 79.6712 104.535 79.6154C104.863 79.5593 105.217 79.5208 105.586 79.5102C105.925 79.5003 106.269 79.5128 106.606 79.5545C106.977 79.6002 107.348 79.68 107.695 79.7893C108.045 79.902 108.372 80.0415 108.654 80.2064C108.95 80.3794 109.199 80.5788 109.445 80.818C109.679 81.0463 109.899 81.2979 110.153 81.5963L110.199 81.6493C110.647 82.1746 111.221 82.8482 111.946 83.217L111.974 83.2299C112.33 83.4068 112.734 83.5204 113.135 83.5802C113.595 83.6489 114.047 83.6477 114.417 83.5924C114.726 83.546 114.967 83.4623 115.143 83.3403C115.291 83.2377 115.399 83.0964 115.472 82.916C115.56 82.6965 115.599 82.426 115.574 82.1571C115.553 81.9265 115.483 81.7017 115.355 81.5213C115.201 81.3034 114.937 81.1085 114.712 80.9476L114.678 80.9248C114.332 80.6764 114.054 80.4776 113.986 80.1107C113.977 80.0588 113.973 80.0088 113.974 79.9581C113.974 79.9265 113.976 79.8946 113.98 79.8624C114.018 79.6048 114.172 79.4021 114.416 79.2614C114.552 79.1825 114.724 79.121 114.914 79.0825C115.239 79.017 115.664 79.0034 116.103 79.0725C116.586 79.1489 117.098 79.3271 117.556 79.5983C117.983 79.8511 118.365 80.1864 118.64 80.5975C118.919 81.0161 119.081 81.5045 119.148 82.0388C119.217 82.5828 119.184 83.1731 119.076 83.7833C118.973 84.3688 118.799 84.9797 118.556 85.5786C118.326 86.145 118.034 86.7007 117.683 87.2138C117.313 87.7562 116.875 88.2548 116.393 88.6793C115.921 89.096 115.402 89.4447 114.857 89.6981C114.299 89.9576 113.717 90.1157 113.113 90.1796C112.518 90.2423 111.904 90.214 111.272 90.1017C110.672 89.9951 110.056 89.8146 109.465 89.5886C108.832 89.3462 108.22 89.0471 107.683 88.7291C107.16 88.4187 106.715 88.0956 106.327 87.7675C105.943 87.443 105.602 87.1031 105.287 86.7609L104.949 86.3857C104.545 85.9303 104.178 85.5173 103.817 85.3614C103.629 85.2802 103.415 85.2567 103.202 85.2751C102.955 85.2968 102.722 85.374 102.54 85.4829C102.27 85.645 102.065 85.9266 101.788 86.3142L101.483 86.736C101.223 87.0877 100.897 87.497 100.506 87.8927C100.103 88.3007 99.6307 88.6945 99.0884 89.0001C98.5467 89.3054 97.9423 89.5194 97.283 89.6672C96.6468 89.8097 95.956 89.8904 95.2188 89.9329C94.4501 89.9771 93.6279 89.9804 92.8223 89.9269C92.096 89.8789 91.3752 89.7832 90.7076 89.6296C89.9899 89.4643 89.3422 89.2325 88.7396 88.9157C88.1358 88.5981 87.5754 88.1927 87.0342 87.6822C86.4782 87.1578 85.9456 86.5248 85.5208 85.8687C85.1152 85.2421 84.7985 84.5817 84.6385 83.9544C84.4656 83.2765 84.4771 82.6395 84.6436 82.0697C84.8201 81.4657 85.1678 80.9478 85.6525 80.5445C86.0784 80.1903 86.6094 79.9269 87.1539 79.7554C87.7471 79.5688 88.3704 79.4879 88.8971 79.5139C89.3241 79.5354 89.6892 79.6262 89.9746 79.7397L90.008 79.7521C90.5326 79.9687 90.8591 80.3519 90.906 80.6157C90.9941 81.1168 90.7531 81.3408 90.3139 81.433L90.2874 81.439C90.1655 81.4628 90.0389 81.4722 89.8982 81.4821C89.7666 81.4913 89.6183 81.5022 89.503 81.5211C89.3325 81.5492 89.1754 81.5981 89.065 81.6742C89.0111 81.7113 88.9709 81.7559 88.9552 81.8064C88.9238 81.9067 88.9326 82.055 88.9786 82.2279C89.0338 82.4354 89.1421 82.6617 89.2996 82.8791C89.4723 83.1178 89.7007 83.3408 89.9605 83.5165C90.1995 83.6784 90.4639 83.8004 90.7326 83.8574C90.9996 83.9139 91.2793 83.906 91.5735 83.8253C91.8894 83.7386 92.2263 83.5668 92.5868 83.3014C92.9752 83.0156 93.401 82.6121 93.8424 82.194H93.8448C94.3145 81.7494 94.8018 81.288 95.2993 80.907C95.8272 80.503 96.3742 80.1797 96.935 79.9638C97.5145 79.7411 98.1109 79.632 98.7208 79.6647C99.4666 79.7049 100.179 79.9502 100.803 80.1649Z" fill="#0078BF"/>
<path d="M98.6028 90.3648C98.3092 90.2267 98.1782 89.8658 98.3105 89.5593C98.4428 89.2528 98.7885 89.1161 99.0821 89.2542L99.1318 89.2805C99.9167 89.6723 100.707 90.062 101.833 90.3076C102.446 90.4411 103.159 90.5345 103.837 90.5555C104.424 90.5735 104.98 90.5391 105.41 90.4319C105.824 90.3284 106.123 90.1519 106.365 89.9395C106.62 89.7149 106.838 89.4241 107.055 89.1336C107.253 88.8691 107.619 88.822 107.872 89.0287C108.126 89.2353 108.171 89.6176 107.973 89.8821C107.721 90.22 107.468 90.5585 107.114 90.8693C106.746 91.1927 106.295 91.4599 105.679 91.614C105.143 91.7482 104.484 91.7922 103.805 91.7712C103.053 91.7477 102.267 91.6456 101.596 91.4994C100.339 91.2254 99.4811 90.802 98.6295 90.3766L98.6028 90.3648Z" fill="#0078BF"/>
<path d="M98.902 93.8883C98.6398 93.6937 98.5786 93.3134 98.765 93.0397C98.9515 92.766 99.3157 92.7021 99.5779 92.8967C99.8326 93.0858 100.088 93.2759 100.365 93.4532C100.613 93.613 100.861 93.7498 101.106 93.8395L101.108 93.8404C101.34 93.9248 101.582 93.9764 101.819 94.0009C102.097 94.0297 102.376 94.0235 102.635 93.9942C102.866 93.9681 103.081 93.9227 103.271 93.8644C103.468 93.8042 103.639 93.7304 103.777 93.6497C104.033 93.5012 104.212 93.298 104.391 93.0951L104.409 93.0741C104.637 92.8359 105.007 92.8359 105.235 93.0741C105.464 93.3123 105.464 93.6988 105.235 93.937L105.234 93.9388C104.997 94.2054 104.757 94.4722 104.343 94.7127C104.131 94.8366 103.88 94.9464 103.6 95.0321C103.344 95.1103 103.061 95.1707 102.758 95.2049C102.429 95.2422 102.07 95.2494 101.705 95.2116C101.375 95.1774 101.04 95.1062 100.72 94.9883C100.375 94.8608 100.057 94.6879 99.7529 94.4923C99.4759 94.3145 99.1885 94.101 98.902 93.8883Z" fill="#0078BF"/>
<path d="M124.972 69.1207C124.763 68.8654 124.791 68.481 125.036 68.2626C125.281 68.0442 125.649 68.074 125.858 68.3292C126.456 69.0556 127.055 69.7827 127.584 70.5599C128.127 71.3582 128.591 72.2011 128.894 73.1309C129.186 74.0238 129.325 74.9903 129.34 75.9553C129.356 76.991 129.228 78.0248 128.99 78.9629C128.76 79.8703 128.428 80.6922 128.014 81.4068L127.984 81.4527C127.56 82.1729 127.052 82.7856 126.479 83.2681C125.335 84.232 123.983 84.6519 122.632 85.07C122.343 85.168 122.026 85.0165 121.911 84.7174C121.791 84.4054 121.937 84.051 122.235 83.926L122.289 83.9066C123.533 83.522 124.778 83.1368 125.748 82.3193C126.22 81.9222 126.64 81.4158 126.991 80.8195L127.014 80.7778C127.373 80.157 127.662 79.4423 127.862 78.653C128.075 77.8138 128.189 76.8925 128.175 75.9743C128.163 75.1346 128.042 74.295 127.789 73.522C127.527 72.7172 127.117 71.9753 126.634 71.2655C126.136 70.5343 125.554 69.8272 124.972 69.1207Z" fill="#0078BF"/>
<path d="M123.13 81.3098C122.838 81.4505 122.491 81.3172 122.356 81.0119C122.221 80.7065 122.349 80.3445 122.642 80.2038C123.121 79.9723 123.602 79.7403 123.992 79.5182C124.366 79.3059 124.68 79.0937 124.874 78.8829C125.011 78.7351 125.082 78.5896 125.102 78.4508C125.125 78.2873 125.085 78.1106 125.004 77.9347C124.912 77.7341 124.77 77.5392 124.61 77.3805C124.464 77.236 124.313 77.1294 124.186 77.0891C124.098 77.0611 124.006 77.0715 123.914 77.1015C123.78 77.1446 123.617 77.2376 123.456 77.3303C123.173 77.4919 122.818 77.3842 122.664 77.0895C122.509 76.7948 122.612 76.4242 122.894 76.2626C123.106 76.1415 123.317 76.0202 123.571 75.9383C123.867 75.8426 124.179 75.8159 124.524 75.9259C124.829 76.023 125.143 76.2307 125.413 76.4987C125.671 76.7531 125.9 77.0718 126.054 77.4057C126.234 77.7938 126.317 78.207 126.257 78.627C126.202 79.0095 126.032 79.3822 125.715 79.7265C125.428 80.0369 125.019 80.3189 124.549 80.5859C124.097 80.8428 123.614 81.0764 123.13 81.3098Z" fill="#0078BF"/>
<path d="M87.7262 97.9251C87.7426 97.5895 88.0167 97.331 88.3381 97.3481C88.6595 97.3652 88.9072 97.6513 88.8908 97.9869C88.8069 99.6753 88.7229 101.364 88.5888 102.943C88.4547 104.519 88.2721 105.937 87.9931 107.037C87.6995 108.196 87.2979 109.022 86.836 109.635C86.3613 110.265 85.826 110.666 85.278 110.966C85.0833 111.073 84.8982 111.162 84.7244 111.244C84.4628 111.369 84.2278 111.481 84.118 111.58C84.0968 111.601 84.1845 111.584 84.2808 111.7C84.6278 112.116 85.3699 112.711 86.3208 113.38C87.4262 114.157 88.7994 115.02 90.1696 115.818C91.4535 116.565 92.7385 117.256 94.0279 117.835C95.2965 118.406 96.5596 118.862 97.8137 119.148C99.0658 119.434 100.31 119.552 101.467 119.505C102.608 119.459 103.665 119.252 104.56 118.888C105.413 118.54 106.119 118.049 106.641 117.495C107.169 116.934 107.505 116.316 107.607 115.727C107.697 115.209 107.608 114.702 107.415 114.271C107.201 113.793 106.866 113.418 106.513 113.237C106.28 113.117 106.002 113.071 105.736 113.028C105.004 112.908 104.333 112.797 103.9 111.78C103.422 110.652 103.427 108.294 103.43 106.469L103.431 106.002C103.429 104.182 103.382 103.2 103.335 102.222L103.334 102.214C103.317 101.878 103.563 101.591 103.885 101.573C104.206 101.554 104.481 101.811 104.499 102.147L104.5 102.16C104.548 103.186 104.598 104.215 104.598 106.002L104.595 106.469C104.591 108.179 104.587 110.388 104.969 111.289C105.144 111.7 105.513 111.761 105.914 111.826C106.269 111.884 106.641 111.945 107.029 112.145C107.607 112.443 108.144 113.028 108.47 113.757C108.757 114.398 108.89 115.159 108.753 115.941C108.609 116.772 108.163 117.614 107.472 118.348C106.839 119.021 105.994 119.611 104.984 120.022C103.966 120.435 102.781 120.669 101.512 120.721C100.252 120.772 98.9081 120.646 97.5672 120.34C96.2323 120.035 94.8989 119.554 93.5666 118.956C92.2549 118.366 90.9322 117.654 89.6032 116.881C88.2065 116.068 86.8042 115.186 85.6723 114.39C84.6351 113.661 83.8114 112.995 83.3994 112.5C82.7151 111.679 82.8297 111.135 83.3519 110.661C83.5867 110.45 83.8953 110.302 84.2402 110.138C84.4043 110.06 84.5788 109.977 84.739 109.889C85.1538 109.662 85.5589 109.358 85.9179 108.882C86.2895 108.389 86.6171 107.706 86.8651 106.727C87.128 105.691 87.301 104.342 87.4291 102.838C87.5568 101.337 87.6416 99.6306 87.7262 97.9251Z" fill="#0078BF"/>
<path d="M90.6083 107.093C90.4141 106.825 90.4653 106.442 90.7225 106.24C90.9796 106.037 91.3459 106.09 91.54 106.359L97.8267 115.034C98.0209 115.302 97.9696 115.684 97.7125 115.887C97.4554 116.09 97.0891 116.036 96.8949 115.768L90.6083 107.093Z" fill="#0078BF"/>
<path d="M98.8018 105.807C98.9063 105.49 99.2378 105.321 99.5416 105.43C99.8453 105.539 100.007 105.885 99.9023 106.202L99.897 106.218C99.4963 107.454 99.0945 108.689 98.9109 109.598C98.7346 110.474 98.7554 111.088 98.7775 111.698L98.7781 111.702C98.7969 112.037 98.5515 112.326 98.2301 112.346C97.9087 112.365 97.6323 112.109 97.6136 111.773L97.6133 111.755C97.5884 111.066 97.5632 110.375 97.7693 109.351C97.9694 108.36 98.3814 107.094 98.7934 105.828L98.8018 105.807Z" fill="#0078BF"/>
<path d="M84.8844 110.938C85.1997 111.005 85.4031 111.326 85.3388 111.655C85.2745 111.984 84.9668 112.197 84.6516 112.13C83.7835 111.944 82.9147 111.757 82.121 111.621C81.3582 111.49 80.6831 111.408 80.1854 111.425C79.8746 111.436 79.6522 111.482 79.5183 111.552C79.6131 111.7 79.8269 111.903 80.0153 112.083C80.3425 112.393 80.6237 112.661 80.6305 113.028C80.6391 113.469 80.4207 113.728 79.8753 113.738C79.5934 113.744 79.1015 113.652 78.5057 113.541C77.5861 113.368 76.3934 113.145 75.6123 113.211C75.1736 113.247 74.8902 113.378 74.717 113.549C74.5135 113.751 74.4468 114.032 74.451 114.278C74.4521 114.345 74.4614 114.434 74.4696 114.518C74.4784 114.608 74.4872 114.693 74.4897 114.797C74.5084 115.574 74.2615 116.09 72.3527 116.14C71.8594 116.153 71.2298 116.137 70.5006 116.119C68.3526 116.066 65.3169 115.99 62.6299 116.58C60.968 116.946 59.4248 117.572 58.0349 118.359C56.4716 119.244 55.1095 120.329 53.9957 121.472C52.9376 122.559 52.0986 123.7 51.4224 124.775C50.7456 125.851 50.2223 126.878 49.8059 127.717L49.7314 127.867C48.8924 129.56 48.4069 130.539 45.8036 132.346C44.9522 132.937 43.8948 133.603 42.7302 134.337C40.327 135.85 37.4608 137.655 35.2129 139.542C33.5521 140.936 32.215 142.384 31.0935 143.791C29.9636 145.207 29.0459 146.588 28.2357 147.832L27.6551 148.726C26.2867 150.842 25.1784 152.553 23.7637 154.076C23.5488 154.307 23.3279 154.532 23.1092 154.756C21.8638 156.027 20.6711 157.245 21.3822 159.11C21.8377 160.305 22.9893 161.8 24.6047 163.39C26.2937 165.053 28.4712 166.798 30.8852 168.402C34.9279 171.09 39.6537 173.4 43.6089 175.333C44.4399 175.739 45.235 176.127 45.755 176.385C50.063 178.521 52.9058 180.129 54.521 181.043C55.4093 181.542 56.2949 182.047 57.184 182.545C57.9669 182.986 59.0352 183.614 58.6784 185.403L58.6729 185.428C58.5695 185.931 58.3539 186.481 58.125 187.066C57.7022 188.148 57.2255 189.368 57.5169 190.116C57.7941 190.828 58.8571 191.374 59.7582 191.836C60.3654 192.147 60.9117 192.428 61.2466 192.766C61.9058 193.432 61.7297 194.044 61.5466 194.68C61.4688 194.95 61.3886 195.23 61.4785 195.413C61.6325 195.726 62.1192 196.075 62.7872 196.391C63.5272 196.741 64.4532 197.02 65.3954 197.15C66.364 197.284 67.3477 197.262 68.2136 197.076C68.9897 196.909 69.6614 196.612 70.1229 196.182C70.815 195.537 71.0982 194.501 71.2857 193.813C71.3677 193.512 71.435 193.266 71.5329 193.066C71.8631 192.391 72.2458 192.423 72.7013 192.666C72.787 192.712 72.8413 192.747 72.8974 192.784C72.9847 192.841 73.0854 192.906 73.1148 192.905C73.1866 192.901 73.29 192.832 73.4048 192.717C73.5716 192.454 73.7459 192.174 73.9253 191.88C73.9463 191.819 73.9646 191.758 73.9798 191.697C74.0861 191.267 74.0563 190.749 74.034 190.355C74.0125 189.984 73.996 189.69 74.0885 189.454L74.1172 189.39C74.3605 188.835 74.6986 188.927 75.1312 189.042C75.2195 189.066 75.3302 189.095 75.3576 189.08C75.4603 189.024 75.5807 188.829 75.6865 188.548C75.8067 188.23 75.8829 187.837 75.8783 187.426C75.8725 186.926 75.7404 186.348 75.6357 185.889C75.5337 185.443 75.4524 185.087 75.5019 184.808C75.6289 184.091 75.99 184.133 76.4959 184.19C76.6214 184.204 76.7879 184.223 76.8904 184.15C77.0742 184.02 77.2649 183.694 77.3932 183.235C77.5154 182.797 77.5682 182.262 77.4962 181.674C77.4129 180.994 77.1613 180.243 76.7756 179.546C76.4166 178.897 75.9439 178.301 75.3859 177.86C74.8389 177.428 74.2063 177.139 73.5539 176.976C72.8188 176.792 72.056 176.761 71.3568 176.858C70.549 176.969 69.7937 177.262 69.2563 177.469C68.8218 177.639 68.5021 177.762 68.2417 177.743L68.2231 177.741C67.5094 177.681 67.5416 177.284 67.5856 176.747C67.5942 176.639 67.6062 176.492 67.5439 176.45C67.3402 176.313 66.8845 176.223 66.3212 176.178C65.6348 176.124 64.8371 176.149 64.1287 176.242C63.462 176.329 62.8671 176.48 62.3354 176.678C61.8121 176.873 61.3584 177.112 60.9647 177.38C60.7619 177.518 60.5649 177.672 60.3798 177.815C59.6689 178.367 59.0875 178.818 58.3351 178.504L58.2931 178.484C57.5469 178.138 56.9673 176.969 56.2573 175.536L55.3969 173.819C54.8279 172.69 54.2102 171.465 53.6288 170.246L53.1061 169.134C52.4092 167.65 51.6484 166.03 50.5055 163.965C49.7314 162.565 48.7824 160.965 47.8239 159.504C47.028 158.29 46.231 157.179 45.5321 156.372C44.939 155.687 44.394 155.199 43.9972 154.843C43.6173 154.503 43.3524 154.265 43.2166 154C42.9542 153.488 43.0573 153.127 43.618 152.813C43.9562 152.624 44.5572 152.468 45.39 152.252C46.5409 151.954 48.1657 151.532 50.0193 150.794C51.5243 150.194 53.1793 149.386 54.8047 148.488C56.5513 147.524 58.2624 146.459 59.7182 145.439C60.8987 144.612 61.9137 143.815 62.7666 143.145C64.0227 142.159 64.9454 141.434 65.6178 141.235C66.6826 140.919 67.0797 141.491 67.4462 142.837C67.5178 143.098 67.6046 143.468 67.7036 143.89C67.7888 144.255 67.8854 144.666 68.025 145.209C68.3786 146.585 68.9106 148.345 69.5698 150.216C70.1311 151.809 70.7832 153.478 71.4934 155.051C72.0867 156.367 72.7238 157.623 73.3761 158.91C74.4459 161.021 75.5584 163.216 76.6022 165.897C77.5397 168.305 78.4226 171.111 78.9296 174.015C79.3411 176.372 79.503 178.787 79.2435 181.098C78.9523 183.689 78.1332 186.14 77.1686 188.286C76.4586 189.865 75.6733 191.272 74.9633 192.445C74.8204 192.802 74.6231 193.126 74.4044 193.386L74.3213 193.478L74.2491 193.592C73.7455 194.381 73.3244 195.007 72.963 195.545C72.1139 196.807 71.6042 197.565 71.1845 198.729C70.5991 200.352 70.1423 202.847 69.1739 208.139L68.8238 210.05C67.7628 215.841 66.2474 224.11 65.1179 231.143C64.8363 232.896 64.6023 234.413 64.3781 235.868C63.5345 241.341 62.8128 246.02 61.6758 250.174C60.9435 252.85 60.0394 255.312 58.9031 257.69C57.77 260.062 56.4024 262.356 54.7413 264.702C53.9853 265.769 53.147 266.874 52.2892 268.005C49.5364 271.634 46.5752 275.537 44.9454 280.187C43.883 283.218 43.3745 286.596 43.1492 290.031C42.9212 293.504 42.9811 297.023 43.0529 300.31C43.1265 303.676 43.2131 306.812 43.3091 309.528C43.3995 312.085 43.4998 314.266 43.6065 315.909C43.7118 317.527 43.8208 318.567 44.039 319.296C44.2334 319.946 44.5305 320.355 45.0249 320.766C45.6277 321.267 46.4983 321.768 47.4027 322.005C48.0773 322.181 48.7632 322.206 49.3448 321.96C50.0153 321.676 50.5985 321.007 51.1587 320.016C51.7615 318.95 52.3266 317.525 52.9299 315.815C53.1656 315.147 53.3966 314.466 53.6383 313.755C54.7132 310.59 55.9958 306.814 57.9762 303.072C59.4862 300.219 61.4048 297.389 63.3257 294.556C64.4654 292.875 65.6065 291.192 66.6823 289.467C68.0815 287.224 69.3296 284.964 70.3027 282.761C71.2667 280.579 71.9586 278.46 72.2561 276.48C72.6454 273.89 72.3648 271.474 72.1143 269.317C71.9796 268.156 71.853 267.068 71.84 266.019C71.821 264.485 72.0536 263.125 72.5135 261.869C72.9725 260.615 73.6553 259.468 74.5376 258.356C75.1625 257.568 75.8944 256.794 76.7234 255.916C78.1284 254.429 79.8222 252.636 81.7598 249.944C83.2323 247.898 84.8506 245.331 86.4219 242.626C88.1291 239.686 89.7871 236.572 91.147 233.779C92.4492 231.104 93.4696 228.74 94.2739 226.707C95.0757 224.68 95.6691 222.966 96.1133 221.599C96.5463 220.267 96.8328 219.283 96.9234 218.455C97.0071 217.687 96.9179 217.037 96.6134 216.32C96.271 215.512 95.6651 214.606 95.2129 213.93C94.7886 213.295 94.4727 212.822 94.5036 212.482L94.5038 212.48C94.5449 212.054 94.7625 211.854 95.1935 211.898C95.2651 211.905 95.3322 211.926 95.3932 211.957C95.824 212.139 96.5805 212.709 97.4595 213.371C98.2623 213.975 99.1766 214.664 99.9486 215.167C100.724 215.673 101.319 215.965 101.898 216.028C102.473 216.091 103.086 215.938 103.909 215.556C104.815 215.136 105.969 214.441 106.874 213.896C107.751 213.368 108.422 212.963 108.722 212.994L108.748 212.998C109.128 213.044 109.305 213.264 109.265 213.682C109.233 214.028 108.586 214.65 107.72 215.482C106.801 216.366 105.6 217.52 104.762 218.503C104.041 219.348 103.6 220.055 103.394 220.918C103.179 221.813 103.197 222.916 103.398 224.534C103.587 226.062 103.944 228.051 104.393 230.246C104.921 232.828 105.577 235.688 106.24 238.418L106.757 240.529C107.809 244.792 108.789 248.76 109.145 252.703C109.345 254.926 109.348 257.127 109.199 259.173C109.037 261.395 108.696 263.448 108.235 265.158C107.748 266.967 107.137 268.368 106.507 269.813C105.993 270.994 105.464 272.207 104.998 273.648C104.426 275.421 103.924 277.592 103.743 279.905C103.597 281.759 103.658 283.702 104.053 285.597C104.751 288.943 106.512 292.211 108.385 295.688C108.907 296.657 109.438 297.643 109.97 298.676C111.236 301.134 112.438 303.736 113.511 306.44C114.491 308.91 115.359 311.454 116.064 314.035C116.868 316.98 117.468 320.009 118.003 322.716C118.441 324.926 118.836 326.92 119.265 328.466C119.65 329.852 120.06 330.875 120.485 331.528L120.505 331.56C120.703 331.86 120.897 332.064 121.082 332.171C121.212 332.247 121.34 332.266 121.464 332.228C121.54 332.206 121.619 332.164 121.703 332.105C122.632 331.445 123.701 329.035 124.66 326.871L125.328 325.382C126.253 323.343 126.991 321.717 127.012 319.402C127.021 318.369 126.888 317.151 126.715 315.562C126.454 313.16 126.101 309.92 126 305.062C125.924 301.426 125.99 296.891 126.056 292.311C126.137 286.753 126.22 281.124 126.048 276.964C125.867 272.585 125.401 269.831 125.048 267.75C124.79 266.23 124.592 265.06 124.603 263.832C124.617 262.171 125.016 260.535 125.418 258.89C125.716 257.669 126.016 256.44 126.147 255.245L126.147 255.243C126.277 254.048 126.249 252.843 126.217 251.534C126.174 249.727 126.126 247.726 126.462 245.269C126.644 243.936 126.941 242.471 127.27 240.839C127.985 237.3 128.862 232.964 129.058 227.506C129.197 223.656 129 219.236 128.573 214.865C128.118 210.202 127.398 205.592 126.543 201.791C125.88 198.838 125.129 196.362 124.443 194.1C123.415 190.71 122.53 187.791 122.266 184.376C122.046 181.529 122.265 178.361 122.683 175.176C123.098 172.017 123.709 168.842 124.277 165.951C124.849 163.042 125.376 160.429 125.872 158.228C126.379 155.977 126.867 154.088 127.357 152.644C127.877 151.11 128.415 150.043 129.199 149.448C130.037 148.814 131.063 148.742 132.502 149.252C133.934 149.76 135.803 150.86 137.795 152.032C139.361 152.953 141.005 153.921 142.531 154.657C144.402 155.559 146.125 156.133 147.956 156.742C149.542 157.27 151.207 157.824 153.08 158.618C154.072 159.038 155.124 159.525 156.194 160.02C159.503 161.553 162.994 163.169 165.157 163.026C166.425 162.942 167.245 162.194 167.763 160.988C168.335 159.653 168.563 157.775 168.61 155.6C168.656 153.44 168.521 150.993 168.232 148.334C167.927 145.522 167.451 142.49 166.839 139.325C166.282 136.449 165.589 133.363 164.913 130.35C164.165 127.019 163.438 123.778 162.911 120.861C162.433 118.21 162.129 115.862 161.836 113.604C161.525 111.201 161.227 108.898 160.745 106.45C160.265 104.004 159.598 101.397 158.807 98.9266C158.071 96.6314 157.225 94.4517 156.318 92.629C155.421 90.8271 154.468 89.386 153.491 88.2757C152.468 87.1123 151.421 86.3121 150.389 85.8398C149.408 85.391 148.43 85.2358 147.406 85.3052C146.353 85.3765 145.243 85.6837 144.032 86.1532C142.835 86.6174 141.537 87.2414 140.336 87.9005C139.064 88.598 137.913 89.3293 137.118 89.9448C136.397 90.5035 135.991 90.9481 135.788 91.3332C135.621 91.6489 135.603 91.9333 135.649 92.2222C135.687 92.4597 135.766 92.7169 135.845 92.9756L135.853 93.0044C136.048 93.6416 136.242 94.2931 136.059 95.0379C135.953 95.4661 135.738 95.8506 135.513 96.252C135.236 96.7446 134.941 97.2713 134.957 97.7856C134.971 98.2228 135.189 98.7228 135.529 99.1667C135.874 99.6163 136.338 99.9952 136.84 100.187C137.52 100.447 138.339 100.372 138.881 100.322L138.932 100.319C139.295 100.286 139.568 100.266 139.787 100.365L139.824 100.384C140.241 100.59 140.295 100.912 140.122 101.33C140.055 101.49 139.951 101.636 139.83 101.805C139.67 102.031 139.463 102.321 139.43 102.537L139.43 102.539C139.403 102.718 139.499 102.941 139.698 103.22C139.963 103.592 140.39 104.021 140.939 104.528C141.497 105.044 142.183 105.641 142.934 106.202C143.666 106.75 144.443 107.25 145.187 107.579C145.954 107.919 146.738 108.096 147.49 108.267C148.232 108.435 148.948 108.597 149.658 108.912C150.455 109.265 151.204 109.799 151.839 110.569C152.398 111.244 152.864 112.1 153.19 113.173C153.523 114.271 153.709 115.602 153.784 117.126C153.857 118.622 153.824 120.307 153.721 122.143C153.617 123.992 153.442 125.992 153.226 127.876C153.013 129.728 152.756 131.491 152.481 132.913C152.201 134.365 151.901 135.448 151.578 136.195C151.188 137.095 150.721 137.585 150.172 137.702C149.597 137.824 149.049 137.528 148.525 137.008C148.1 136.587 147.677 136.008 147.268 135.409L147.021 135.042C146.356 134.061 145.678 133.057 144.676 132.438C144.251 132.176 143.744 131.964 143.221 131.746L143.193 131.733C142.227 131.33 141.214 130.903 140.378 130.064C139.541 129.225 138.96 128.05 138.229 126.572C137.815 125.736 137.351 124.798 136.789 123.813C135.936 122.317 134.817 120.63 133.509 119.1C132.466 117.88 131.31 116.769 130.088 115.956C128.728 115.052 127.266 114.502 125.834 114.185C124.39 113.866 122.979 113.784 121.731 113.814C120.536 113.843 119.456 113.98 118.577 114.093L118.56 114.094C117.561 114.221 116.804 114.317 116.276 114.189C115.554 114.014 115.354 113.561 115.16 113.12C115.095 112.973 115.032 112.83 114.954 112.802C114.727 112.722 114.212 112.772 113.706 112.822C113.093 112.882 112.489 112.941 112.061 112.787C111.374 112.539 111.299 112.009 111.229 111.516C111.215 111.418 111.346 111.412 111.274 111.369C111.23 111.342 110.87 111.403 110.486 111.467C110.072 111.537 109.637 111.61 109.251 111.579C108.484 111.518 108.067 111.111 107.722 110.775C107.644 110.699 107.571 110.628 107.522 110.59C107.439 110.528 107.361 110.498 107.284 110.487L107.282 110.486C107.171 110.469 107.039 110.477 106.907 110.484C106.586 110.503 106.31 110.245 106.293 109.91C106.275 109.574 106.522 109.287 106.843 109.269C107.039 109.257 107.236 109.246 107.456 109.281C107.709 109.321 107.963 109.415 108.219 109.614C108.331 109.704 108.421 109.791 108.516 109.884C108.726 110.087 108.98 110.335 109.338 110.364C109.599 110.384 109.96 110.324 110.303 110.266C110.896 110.166 111.451 110.073 111.854 110.315C112.275 110.568 112.328 110.943 112.385 111.34C112.404 111.481 112.426 111.633 112.44 111.638C112.63 111.707 113.112 111.659 113.601 111.611C114.231 111.549 114.872 111.487 115.329 111.649C115.88 111.844 116.048 112.225 116.219 112.615C116.295 112.786 116.373 112.963 116.536 113.002C116.864 113.081 117.534 112.997 118.419 112.884L118.436 112.882C119.325 112.769 120.417 112.629 121.704 112.598C123.035 112.566 124.538 112.653 126.076 112.994C127.628 113.337 129.219 113.938 130.713 114.932C132.041 115.814 133.278 116.998 134.381 118.29C135.732 119.87 136.897 121.628 137.79 123.193C138.392 124.249 138.854 125.182 139.265 126.015C139.947 127.392 140.489 128.488 141.186 129.187C141.862 129.865 142.764 130.245 143.625 130.604L143.655 130.616C144.222 130.852 144.773 131.082 145.27 131.389C146.487 132.142 147.238 133.254 147.973 134.342L148.218 134.704C148.591 135.249 148.971 135.771 149.328 136.126C149.586 136.382 149.804 136.539 149.939 136.51C150.1 136.476 150.29 136.211 150.514 135.694C150.805 135.023 151.078 134.026 151.339 132.674C151.602 131.314 151.854 129.582 152.066 127.733C152.281 125.858 152.454 123.883 152.556 122.071C152.657 120.274 152.69 118.633 152.619 117.188C152.55 115.77 152.38 114.541 152.076 113.54C151.801 112.636 151.414 111.921 150.954 111.364C150.447 110.746 149.844 110.317 149.201 110.032C148.602 109.766 147.935 109.615 147.243 109.459C146.447 109.278 145.618 109.09 144.735 108.699C143.889 108.325 143.039 107.781 142.254 107.194C141.488 106.621 140.764 105.991 140.167 105.439C139.561 104.879 139.083 104.395 138.762 103.944C138.374 103.4 138.198 102.886 138.28 102.349C138.324 102.061 138.437 101.802 138.569 101.572C137.96 101.615 137.185 101.618 136.438 101.332C135.735 101.063 135.093 100.541 134.621 99.9244C134.13 99.2845 133.815 98.5272 133.792 97.8239C133.765 96.9609 134.149 96.277 134.508 95.6373C134.691 95.3105 134.867 94.9971 134.931 94.7377C135.032 94.3279 134.889 93.8468 134.744 93.3739L134.735 93.3473C134.642 93.0416 134.548 92.7381 134.498 92.4224C134.412 91.8821 134.448 91.348 134.765 90.7471C135.046 90.2148 135.556 89.6404 136.424 88.9675C137.268 88.3137 138.473 87.5467 139.792 86.8231C141.026 86.1458 142.372 85.5001 143.625 85.014C144.943 84.5034 146.159 84.1688 147.333 84.0895C148.538 84.0078 149.692 84.1923 150.854 84.7241C152.034 85.2637 153.214 86.1603 154.35 87.451C155.397 88.6416 156.41 90.1703 157.354 92.0663C158.285 93.9352 159.154 96.1762 159.912 98.5406C160.718 101.057 161.397 103.714 161.887 106.207C162.378 108.703 162.678 111.022 162.992 113.442C163.281 115.682 163.583 118.01 164.057 120.637C164.572 123.489 165.301 126.736 166.051 130.074C166.716 133.04 167.399 136.079 167.98 139.086C168.603 142.303 169.085 145.371 169.392 148.201C169.685 150.9 169.822 153.4 169.774 155.624C169.724 157.95 169.47 159.983 168.827 161.484C168.128 163.112 166.997 164.125 165.23 164.242C162.781 164.404 159.158 162.726 155.723 161.136C154.661 160.644 153.617 160.161 152.642 159.748C150.766 158.953 149.147 158.414 147.604 157.901C145.727 157.276 143.96 156.688 142.042 155.763C140.465 155.002 138.805 154.025 137.224 153.095C135.278 151.95 133.452 150.875 132.127 150.405C131.085 150.036 130.389 150.052 129.884 150.435C129.326 150.859 128.9 151.742 128.457 153.049C127.984 154.445 127.507 156.292 127.009 158.504C126.5 160.766 125.978 163.346 125.418 166.194C124.855 169.062 124.249 172.211 123.839 175.338C123.432 178.44 123.218 181.521 123.431 184.281C123.684 187.554 124.551 190.413 125.557 193.733C126.248 196.01 127.004 198.503 127.681 201.515C128.543 205.351 129.271 210.017 129.733 214.746C130.165 219.167 130.364 223.643 130.223 227.549C130.022 233.118 129.136 237.506 128.412 241.087C128.088 242.692 127.796 244.133 127.617 245.441C127.293 247.81 127.34 249.751 127.382 251.505C127.414 252.866 127.444 254.119 127.306 255.381C127.165 256.674 126.857 257.936 126.55 259.191C126.164 260.773 125.78 262.345 125.767 263.841C125.758 264.938 125.949 266.07 126.199 267.54C126.556 269.646 127.028 272.431 127.213 276.911C127.385 281.089 127.302 286.743 127.221 292.326C127.154 296.894 127.088 301.417 127.164 305.038C127.264 309.816 127.615 313.04 127.875 315.428C128.051 317.047 128.186 318.288 128.176 319.412C128.153 322 127.367 323.732 126.383 325.902L126.098 326.529L125.72 327.381C124.697 329.688 123.558 332.258 122.356 333.111C122.17 333.243 121.981 333.338 121.789 333.396C121.353 333.528 120.928 333.473 120.515 333.234C120.174 333.036 119.849 332.707 119.545 332.248L119.522 332.215C119.029 331.458 118.566 330.318 118.146 328.805C117.703 327.208 117.304 325.193 116.862 322.959C116.334 320.294 115.744 317.312 114.94 314.369C114.243 311.816 113.391 309.317 112.433 306.903C111.381 304.252 110.196 301.686 108.942 299.253C108.43 298.259 107.894 297.263 107.367 296.284C105.449 292.724 103.647 289.38 102.912 285.854C102.49 283.832 102.424 281.771 102.578 279.81C102.768 277.393 103.293 275.121 103.893 273.262C104.39 271.724 104.924 270.5 105.443 269.308C106.057 267.899 106.653 266.534 107.112 264.829C107.552 263.196 107.879 261.225 108.034 259.082C108.179 257.089 108.178 254.956 107.985 252.818C107.637 248.965 106.669 245.043 105.629 240.83L105.108 238.714C104.443 235.976 103.783 233.102 103.251 230.498C102.8 228.293 102.439 226.275 102.242 224.687C102.022 222.911 102.009 221.675 102.261 220.622C102.521 219.536 103.044 218.684 103.89 217.693C104.29 217.223 104.766 216.72 105.255 216.225C104.954 216.387 104.658 216.538 104.38 216.667C103.361 217.14 102.57 217.326 101.779 217.239C100.991 217.152 100.254 216.802 99.3323 216.202C98.621 215.738 97.7716 215.105 96.998 214.523C97.2556 214.951 97.4995 215.398 97.6822 215.828C98.076 216.757 98.1916 217.598 98.0831 218.593C97.9808 219.528 97.6764 220.581 97.2183 221.99C96.7718 223.364 96.1719 225.095 95.3514 227.17C94.5332 229.238 93.4996 231.634 92.1883 234.327C90.8252 237.127 89.1516 240.269 87.4173 243.255C85.8242 245.998 84.1837 248.6 82.6915 250.673C80.7017 253.438 78.9811 255.259 77.5545 256.769C76.7524 257.619 76.0444 258.368 75.4371 259.133C74.6339 260.146 74.0152 261.182 73.6047 262.303C73.1947 263.423 72.9875 264.635 73.0046 266.004C73.0165 266.957 73.1413 268.03 73.2741 269.174C73.5327 271.403 73.8228 273.9 73.407 276.666C73.0907 278.771 72.3668 280.997 71.3621 283.271C70.3665 285.525 69.0902 287.836 67.6596 290.13C66.6039 291.823 65.4391 293.541 64.2756 295.257C62.3829 298.048 60.4924 300.836 58.9989 303.658C57.064 307.314 55.7992 311.038 54.7388 314.16C54.489 314.896 54.2497 315.6 54.026 316.235C53.4008 318.007 52.8095 319.494 52.1633 320.636C51.4743 321.855 50.714 322.695 49.7831 323.09C48.9481 323.444 48.0141 323.42 47.1195 323.187C46.0441 322.905 45.0123 322.312 44.299 321.719C43.6131 321.15 43.1994 320.577 42.9248 319.659C42.6736 318.819 42.5532 317.703 42.4419 315.99C42.3372 314.378 42.2369 312.182 42.1445 309.571C42.0491 306.876 41.9625 303.732 41.8883 300.334C41.8158 297.008 41.7551 293.448 41.9846 289.95C42.2163 286.414 42.7438 282.927 43.8492 279.772C45.5425 274.941 48.5657 270.956 51.376 267.252C52.2133 266.149 53.0315 265.07 53.8051 263.977C55.4192 261.697 56.7508 259.464 57.8573 257.147C58.9612 254.836 59.8399 252.444 60.5523 249.84C61.6771 245.73 62.3918 241.097 63.2272 235.677C63.4693 234.105 63.7214 232.472 63.967 230.943C65.0991 223.893 66.6158 215.618 67.6777 209.821L68.0278 207.91C69.0084 202.552 69.471 200.025 70.0933 198.3C70.2031 197.996 70.3166 197.718 70.4375 197.456C69.8779 197.837 69.1947 198.106 68.4465 198.268C67.4551 198.481 66.3375 198.508 65.2447 198.357C64.1833 198.21 63.1406 197.896 62.3078 197.501C61.4098 197.077 60.7204 196.535 60.4421 195.97C60.1357 195.348 60.2841 194.832 60.4279 194.332C60.5075 194.056 60.5839 193.79 60.4337 193.638C60.2293 193.432 59.7637 193.193 59.2466 192.928C58.1597 192.37 56.8778 191.713 56.4345 190.573C55.9644 189.367 56.5359 187.905 57.0426 186.609C57.2549 186.066 57.4546 185.556 57.533 185.176L57.5368 185.156C57.7201 184.235 57.0722 183.866 56.6061 183.604C55.762 183.149 54.7777 182.619 53.9683 182.115C52.3606 181.206 49.5306 179.605 45.257 177.486C44.4154 177.069 43.7741 176.756 43.1159 176.434C39.1308 174.486 34.3695 172.159 30.2596 169.427C27.7786 167.778 25.5409 165.985 23.8055 164.277C22.0718 162.57 20.8207 160.925 20.2998 159.558C19.3017 156.941 20.7665 155.445 22.2963 153.883C22.5083 153.667 22.7226 153.448 22.9283 153.227C24.2625 151.791 25.3476 150.116 26.6887 148.045L27.2721 147.15C28.0994 145.88 29.0371 144.469 30.1984 143.013C31.3676 141.547 32.7589 140.04 34.4821 138.593C36.8007 136.647 39.6981 134.822 42.1275 133.293C43.2928 132.559 44.3507 131.893 45.1599 131.331C47.5105 129.699 47.9448 128.823 48.695 127.309L48.7694 127.159C49.1955 126.301 49.733 125.246 50.4496 124.107C51.1673 122.966 52.0571 121.756 53.1784 120.605C54.3704 119.381 55.8208 118.224 57.4778 117.286C58.9556 116.449 60.6055 115.781 62.3926 115.389C65.2047 114.771 68.3219 114.848 70.528 114.903C71.2422 114.921 71.859 114.936 72.3253 114.924C73.2069 114.901 73.326 114.869 73.3251 114.825C73.3242 114.784 73.3171 114.715 73.3098 114.642C73.2999 114.541 73.2886 114.433 73.2864 114.297C73.2771 113.763 73.4347 113.142 73.9133 112.668C74.267 112.317 74.7844 112.057 75.5208 111.995C76.4062 111.921 77.6391 112.144 78.6157 112.326L78.532 112.202C78.3968 111.983 78.3263 111.759 78.319 111.537V111.533C78.313 111.327 78.3601 111.134 78.4597 110.959L78.4619 110.957C78.5514 110.8 78.6795 110.664 78.8443 110.553C79.139 110.355 79.5786 110.229 80.1487 110.209C80.7344 110.189 81.4814 110.277 82.3083 110.419C83.1037 110.556 83.9944 110.747 84.8844 110.938ZM72.4092 194.147L72.3628 194.317L72.5773 193.994L72.4675 193.935L72.4092 194.147ZM76.7729 185.608L76.8533 185.967C76.9242 185.775 76.9934 185.581 77.0603 185.385C76.945 185.414 76.835 185.424 76.7312 185.425L76.7729 185.608ZM77.7847 178.936C77.9329 179.204 78.0648 179.48 78.179 179.759C78.266 177.939 78.1045 176.067 77.7835 174.229C77.2953 171.434 76.4354 168.707 75.5197 166.355C74.4934 163.719 73.3978 161.557 72.3441 159.478C71.6847 158.177 71.0407 156.906 70.4383 155.571C69.7094 153.956 69.0438 152.253 68.4736 150.635C67.8023 148.73 67.2591 146.933 66.8971 145.524C66.7833 145.081 66.6706 144.601 66.5712 144.176C66.4862 143.813 66.4117 143.495 66.3234 143.171V143.169C66.1738 142.618 66.0729 142.366 65.9328 142.407C65.4672 142.545 64.6191 143.212 63.4651 144.118C62.597 144.8 61.5636 145.611 60.3667 146.45C58.873 147.496 57.1248 148.585 55.3481 149.566C53.6781 150.488 51.9787 151.318 50.435 151.933C48.5293 152.692 46.8546 153.127 45.6684 153.434C45.2098 153.553 44.8287 153.652 44.5544 153.737L44.7554 153.918C45.1702 154.29 45.7402 154.801 46.3949 155.557C47.142 156.42 47.9713 157.573 48.7875 158.817C49.7612 160.302 50.7264 161.93 51.5145 163.354C52.6635 165.431 53.4404 167.085 54.1519 168.6L54.6745 169.703C55.2842 170.981 55.88 172.163 56.429 173.252L57.2938 174.979C57.8986 176.2 58.3921 177.194 58.7508 177.367L58.769 177.374C58.9161 177.435 59.2625 177.167 59.6857 176.838C59.8836 176.684 60.0948 176.52 60.3299 176.36C60.803 176.038 61.3374 175.755 61.9427 175.529C62.54 175.307 63.2162 175.136 63.9825 175.036H63.9849C64.7771 174.932 65.6589 174.904 66.4078 174.963C67.1491 175.021 67.7977 175.173 68.1787 175.43C68.598 175.713 68.7279 176.049 68.7586 176.361L68.8501 176.326C69.435 176.101 70.2548 175.783 71.2062 175.652C72.0368 175.537 72.9451 175.573 73.8234 175.794C74.6302 175.996 75.4126 176.353 76.0892 176.887C76.7758 177.43 77.3517 178.153 77.7847 178.936Z" fill="#0078BF"/>
<path d="M129.974 159.306C129.843 158.999 129.975 158.639 130.269 158.502C130.562 158.366 130.907 158.503 131.038 158.81C134.208 166.231 137.379 173.654 140.68 180.976C143.963 188.256 147.354 195.387 150.961 202.215C152.676 205.461 154.431 208.623 156.148 211.719C161.726 221.77 166.923 231.138 168.891 239.936C170.105 245.364 170.087 250.559 169.197 255.382C168.186 260.864 166.049 265.864 163.317 270.182C160.517 274.609 157.076 278.334 154.114 280.09C153.133 280.672 152.193 281.046 151.331 281.168C150.406 281.3 149.57 281.146 148.864 280.659C148.421 280.353 148.038 279.921 147.727 279.35C145.813 275.834 146.702 266.636 147.623 257.1C147.914 254.09 148.208 251.045 148.423 248.076C148.854 242.098 148.926 236.733 148.525 231.517C148.125 226.306 147.252 221.239 145.794 215.849C143.611 207.781 140.118 198.98 137.088 191.344C136.028 188.673 135.023 186.142 134.202 183.974C130.821 175.049 129.37 169.398 127.921 163.749L127.91 163.7C127.852 163.388 128.036 163.077 128.334 162.995C128.632 162.913 128.937 163.088 129.035 163.387L129.049 163.434C130.488 169.044 131.929 174.656 135.289 183.526C136.185 185.892 137.149 188.321 138.165 190.881C141.21 198.553 144.72 207.396 146.917 215.52C148.397 220.992 149.283 226.134 149.689 231.421C150.095 236.702 150.023 242.126 149.587 248.166C149.379 251.05 149.079 254.152 148.783 257.219C147.881 266.559 147.01 275.569 148.741 278.749C148.957 279.146 149.215 279.442 149.507 279.643C149.964 279.958 150.531 280.054 151.176 279.962C151.885 279.862 152.684 279.539 153.539 279.032C156.346 277.367 159.639 273.787 162.344 269.51C164.996 265.318 167.071 260.467 168.051 255.153C168.911 250.489 168.929 245.465 167.754 240.213C165.825 231.586 160.67 222.297 155.139 212.329C153.411 209.214 151.645 206.032 149.939 202.801C146.32 195.951 142.918 188.798 139.625 181.495C136.351 174.233 133.162 166.769 129.974 159.306Z" fill="#0078BF"/>
<path d="M67.5626 137.052C67.3116 136.842 67.2719 136.459 67.4736 136.197C67.6752 135.935 68.0424 135.893 68.2933 136.104C70.4332 137.899 72.574 139.694 74.6286 141.334C76.683 142.973 78.6457 144.455 80.4239 145.618C82.1936 146.776 83.8004 147.633 85.3112 148.248C86.806 148.857 88.2003 149.227 89.5611 149.415C90.9267 149.604 92.272 149.612 93.6056 149.531C94.9332 149.45 96.2814 149.274 97.6289 149.098C97.949 149.058 98.2406 149.296 98.2794 149.63C98.3183 149.964 98.0904 150.268 97.7703 150.309C96.4201 150.485 95.0695 150.661 93.6697 150.747C92.276 150.832 90.862 150.821 89.4105 150.621C87.9534 150.419 86.4685 150.027 84.8866 149.383C83.3208 148.745 81.6508 147.854 79.8076 146.648C77.9733 145.448 75.9851 143.949 73.9208 142.301C71.8571 140.654 69.7095 138.853 67.5626 137.052Z" fill="#0078BF"/>
<path d="M113.685 150.984C113.367 151.039 113.067 150.815 113.014 150.483C112.961 150.151 113.176 149.837 113.493 149.782L113.528 149.777C117.673 149.081 121.815 148.383 124.879 146.961C126.389 146.26 127.644 145.38 128.611 144.339C129.55 143.327 130.215 142.161 130.577 140.859C131.323 138.176 130.804 134.823 130.284 131.47L130.283 131.46C130.236 131.126 130.458 130.818 130.777 130.77C131.096 130.723 131.392 130.955 131.437 131.288C131.976 134.772 132.514 138.254 131.696 141.198C131.28 142.696 130.518 144.033 129.446 145.187C128.379 146.337 127.001 147.305 125.35 148.071C122.144 149.559 117.93 150.27 113.713 150.978L113.685 150.984Z" fill="#0078BF"/>
<path d="M146.258 98.633C145.959 98.5078 145.814 98.1534 145.934 97.8414C146.053 97.531 146.39 97.3795 146.687 97.501C147.687 97.8679 148.685 98.2403 149.2 99.3708L149.215 99.4067C149.481 100.012 149.58 100.816 149.417 101.542C149.27 102.202 148.914 102.808 148.286 103.18C147.687 103.535 146.858 103.647 145.998 103.579C145.1 103.508 144.142 103.24 143.379 102.853C142.623 102.469 142.051 101.967 141.625 101.387C141.202 100.812 140.926 100.162 140.756 99.475C140.586 98.7869 140.528 98.1045 140.48 97.5289C140.44 97.0603 140.407 96.6734 140.349 96.5495L140.341 96.5315L140.344 96.5798C140.353 96.6192 140.361 96.6621 140.348 96.6628C140.065 96.6798 139.749 96.6987 139.385 96.4552L139.342 96.4234C139.01 96.1785 138.713 95.7067 138.555 95.1731C138.412 94.692 138.368 94.1383 138.498 93.6356L138.503 93.619C138.297 93.6469 138.089 93.6499 137.888 93.6144C137.359 93.5208 136.932 93.1855 136.625 92.7441C136.302 92.2797 136.108 91.6815 136.072 91.143C136.038 90.6352 136.141 90.1835 136.312 89.7612C136.47 89.3701 136.676 89.0297 136.88 88.6901C137.052 88.4057 137.412 88.3204 137.684 88.4993C137.957 88.6783 138.038 89.0542 137.867 89.3385C137.685 89.6402 137.503 89.942 137.385 90.233C137.28 90.4925 137.217 90.7653 137.236 91.0618C137.258 91.3872 137.376 91.749 137.571 92.0292C137.71 92.2294 137.885 92.3786 138.08 92.4129C138.539 92.4939 139.262 92.1055 139.555 91.9478C139.63 91.9075 139.688 91.8768 139.742 91.8544L139.787 91.8371C140.177 91.705 140.414 91.8118 140.538 92.2416C140.64 92.5877 140.513 92.7328 140.296 92.9516C140.132 93.1181 139.738 93.5171 139.626 93.9502C139.557 94.219 139.585 94.5331 139.669 94.8156C139.753 95.0979 139.876 95.3253 139.996 95.4182L140.015 95.4304C140.06 95.4604 140.178 95.4532 140.284 95.447C140.715 95.421 141.092 95.3977 141.378 95.9742L141.399 96.0155C141.553 96.3436 141.594 96.8325 141.644 97.4242C141.69 97.9668 141.745 98.6107 141.884 99.1747C142.016 99.7068 142.228 100.208 142.551 100.648C142.871 101.083 143.306 101.462 143.886 101.757C144.522 102.079 145.326 102.303 146.085 102.363C146.734 102.414 147.328 102.348 147.711 102.121C148.021 101.938 148.201 101.619 148.28 101.266C148.383 100.806 148.323 100.301 148.158 99.9203L148.145 99.8952C147.836 99.2167 147.07 98.9312 146.302 98.6492L146.258 98.633ZM140.341 96.5315L140.339 96.5253C140.323 96.497 140.334 96.5362 140.344 96.5798L140.341 96.5315Z" fill="#0078BF"/>
<path d="M141.318 96.6771C141.119 96.9192 140.772 96.9626 140.525 96.7689C140.268 96.5676 140.215 96.1864 140.408 95.9179L140.433 95.8863C141.323 94.8023 142.215 93.7182 143.552 92.9814C144.215 92.6166 144.974 92.3484 145.78 92.1293C146.573 91.9135 147.391 91.7491 148.207 91.5851C148.523 91.5221 148.829 91.7387 148.89 92.0689C148.95 92.3991 148.743 92.7185 148.426 92.7815C147.617 92.9438 146.807 93.1069 146.072 93.3068C145.349 93.5035 144.673 93.741 144.096 94.0588C142.954 94.6877 142.136 95.6827 141.318 96.6771Z" fill="#0078BF"/>
<path d="M140.246 92.9491C139.966 93.1089 139.614 93.0049 139.458 92.7144C139.3 92.4222 139.399 92.0516 139.679 91.8872L139.694 91.8787C140.646 91.3407 141.599 90.8033 142.854 90.2967C143.478 90.0451 144.168 89.8044 144.889 89.5703C145.547 89.3561 146.327 89.1195 147.106 88.8836C147.415 88.7902 147.738 88.9758 147.828 89.2982C147.917 89.6206 147.74 89.958 147.431 90.0514C146.717 90.2674 146.003 90.484 145.236 90.7328H145.234C144.532 90.9604 143.867 91.1924 143.274 91.4313C142.1 91.9054 141.172 92.4282 140.246 92.9491Z" fill="#0078BF"/>
<path d="M134.812 137.233C134.634 136.952 134.708 136.574 134.976 136.389C135.245 136.203 135.607 136.28 135.785 136.561C136.984 138.449 138.607 139.854 140.653 140.773C142.729 141.706 145.245 142.145 148.197 142.09C148.519 142.085 148.784 142.353 148.789 142.688C148.793 143.024 148.537 143.3 148.215 143.306C145.092 143.364 142.417 142.893 140.192 141.893C137.935 140.879 136.141 139.325 134.812 137.233Z" fill="#0078BF"/>
<path d="M52.639 133.084C52.32 133.034 52.1002 132.723 52.1482 132.39C52.1961 132.057 52.4937 131.828 52.8126 131.878C58.4465 132.768 63.4444 132.716 67.8057 131.72C72.1385 130.731 75.8454 128.81 78.9257 125.958C79.1665 125.735 79.5347 125.759 79.7477 126.01C79.9606 126.261 79.9383 126.646 79.6975 126.868C76.4633 129.864 72.5809 131.879 68.0522 132.912C63.5518 133.939 58.4136 133.997 52.639 133.084Z" fill="#0078BF"/>
<path d="M68.7021 112.758C68.4425 112.559 68.3862 112.178 68.5766 111.907C68.767 111.636 69.1322 111.577 69.3917 111.776C74.1906 115.444 79.1892 117.924 84.3857 119.214C89.5804 120.503 94.9766 120.606 100.573 119.522C100.889 119.461 101.193 119.68 101.251 120.01C101.309 120.341 101.099 120.658 100.783 120.718C95.021 121.834 89.4646 121.729 84.1162 120.401C78.7699 119.074 73.631 116.526 68.7021 112.758Z" fill="#0078BF"/>
<path d="M109.664 120.679C109.343 120.664 109.094 120.378 109.109 120.043C109.124 119.707 109.397 119.448 109.719 119.464C112.024 119.577 114.031 119.042 115.739 117.859C117.462 116.666 118.899 114.804 120.047 112.275C120.185 111.971 120.533 111.841 120.824 111.984C121.115 112.128 121.24 112.491 121.102 112.795C119.861 115.529 118.287 117.556 116.383 118.874C114.464 120.203 112.224 120.805 109.664 120.679Z" fill="#0078BF"/>
<path d="M64.4637 148.771C64.6478 148.496 65.0109 148.429 65.2742 148.621C65.5376 148.813 65.6021 149.192 65.418 149.467C63.3955 152.484 61.4555 155.186 59.5986 157.571C57.7335 159.968 55.9464 162.054 54.2389 163.829C54.0107 164.066 53.6415 164.065 53.4147 163.827C53.1878 163.588 53.1889 163.203 53.4171 162.966C55.0957 161.221 56.8552 159.167 58.6942 156.804C60.5416 154.431 62.4648 151.752 64.4637 148.771Z" fill="#0078BF"/>
<path d="M60.6716 171.17C60.5254 171.468 60.1746 171.587 59.8885 171.434C59.6024 171.281 59.4889 170.915 59.6351 170.617C60.9172 167.996 62.1121 165.323 63.2182 162.598C64.3174 159.891 65.3342 157.116 66.2682 154.275C66.3726 153.957 66.7051 153.787 67.0102 153.896C67.3152 154.005 67.4776 154.352 67.3731 154.671C66.4418 157.504 65.4141 160.304 64.2913 163.07C63.1753 165.819 61.9683 168.519 60.6716 171.17Z" fill="#0078BF"/>
<path d="M76.8728 158.06C76.6004 157.881 76.5187 157.505 76.6901 157.22C76.8615 156.936 77.2216 156.851 77.494 157.03C80.5053 159.011 83.5988 160.437 86.773 161.306C89.9445 162.175 93.2034 162.49 96.5485 162.251C96.87 162.229 97.1483 162.483 97.1697 162.818C97.1911 163.154 96.9477 163.444 96.6263 163.467C93.1592 163.714 89.7766 163.386 86.4805 162.484C83.1871 161.582 79.984 160.107 76.8728 158.06Z" fill="#0078BF"/>
<path d="M79.8396 164.154C79.5624 163.984 79.4691 163.611 79.6317 163.322C79.7943 163.032 80.1513 162.935 80.4285 163.105C82.3358 164.27 84.3356 165.071 86.4271 165.508C88.5175 165.944 90.7005 166.015 92.9747 165.72C93.2947 165.68 93.5863 165.918 93.6252 166.252C93.6641 166.586 93.4361 166.89 93.116 166.931C90.7177 167.242 88.4115 167.166 86.1987 166.704C83.9866 166.242 81.8666 165.392 79.8396 164.154Z" fill="#0078BF"/>
<path d="M81.4917 169.827C81.1879 169.716 81.0273 169.369 81.1331 169.052C81.239 168.735 81.5714 168.567 81.8752 168.678C83.319 169.203 84.7539 169.599 86.1788 169.864C87.6038 170.129 89.0081 170.261 90.3896 170.262C90.711 170.262 90.9719 170.534 90.9719 170.87C90.9719 171.205 90.711 171.477 90.3896 171.477C88.9252 171.477 87.4538 171.34 85.9777 171.065C84.501 170.791 83.0053 170.378 81.4917 169.827Z" fill="#0078BF"/>
<path d="M121.458 158.222C121.685 157.984 122.054 157.983 122.283 158.22C122.511 158.457 122.512 158.842 122.285 159.08C120.235 161.227 118.121 162.775 115.944 163.724C113.746 164.682 111.488 165.029 109.17 164.766C108.85 164.731 108.618 164.431 108.652 164.097C108.686 163.763 108.973 163.52 109.293 163.556C111.413 163.796 113.481 163.478 115.496 162.599C117.532 161.712 119.52 160.253 121.458 158.222Z" fill="#0078BF"/>
<path d="M119.551 164.514C119.787 164.285 120.156 164.299 120.376 164.545C120.595 164.791 120.581 165.176 120.346 165.405C119.002 166.711 117.586 167.612 116.099 168.106C114.601 168.605 113.043 168.687 111.426 168.353C111.11 168.289 110.903 167.968 110.965 167.638C111.027 167.308 111.333 167.092 111.65 167.157C113.077 167.451 114.443 167.382 115.748 166.948C117.065 166.51 118.332 165.698 119.551 164.514Z" fill="#0078BF"/>
<path d="M118.657 170.258C118.938 170.095 119.293 170.2 119.449 170.494C119.606 170.787 119.504 171.158 119.223 171.321C118.218 171.903 117.222 172.341 116.235 172.633C115.241 172.927 114.252 173.074 113.269 173.074C112.947 173.074 112.687 172.802 112.687 172.466C112.687 172.131 112.947 171.858 113.269 171.858C114.139 171.858 115.023 171.725 115.92 171.46C116.822 171.193 117.735 170.792 118.657 170.258Z" fill="#0078BF"/>
<path d="M94.1963 121.342C93.9416 121.137 93.8946 120.755 94.0912 120.489C94.2878 120.223 94.6538 120.174 94.9085 120.379C96.3596 121.552 97.6183 122.672 98.6833 123.74C99.7589 124.819 100.641 125.848 101.328 126.825C101.519 127.096 101.462 127.477 101.203 127.676C100.943 127.874 100.578 127.816 100.388 127.545C99.7388 126.623 98.9011 125.646 97.8752 124.618C96.8388 123.578 95.6121 122.486 94.1963 121.342Z" fill="#0078BF"/>
<path d="M110.008 111.855C110.197 111.584 110.561 111.525 110.821 111.722C111.08 111.919 111.138 112.299 110.949 112.57C109.138 115.161 107.551 117.67 106.191 120.094C104.841 122.501 103.711 124.831 102.805 127.083C102.68 127.394 102.338 127.54 102.04 127.41C101.742 127.28 101.603 126.922 101.727 126.611C102.646 124.328 103.8 121.95 105.186 119.479C106.563 117.027 108.17 114.485 110.008 111.855Z" fill="#0078BF"/>
<path d="M37.2374 159.346C37.2122 159.01 37.4526 158.716 37.774 158.69C38.0954 158.664 38.3768 158.915 38.402 159.25C38.6468 162.442 39.8701 165.144 42.0707 167.356C44.3076 169.603 47.5604 171.361 51.8278 172.628C52.1379 172.72 52.3177 173.057 52.2296 173.381C52.1414 173.705 51.818 173.892 51.5079 173.8C47.0569 172.479 43.6414 170.623 41.2627 168.233C38.8478 165.806 37.5058 162.843 37.2374 159.346Z" fill="#0078BF"/>
<path d="M28.0189 154.428C28.2294 154.175 28.5977 154.147 28.8409 154.366C29.0841 154.586 29.1108 154.971 28.9003 155.225C28.0843 156.211 27.6758 157.173 27.6758 158.11C27.6758 159.042 28.0827 159.984 28.8957 160.936C29.1099 161.188 29.0885 161.573 28.8477 161.797C28.607 162.02 28.2378 161.998 28.0235 161.747C27.0127 160.563 26.5068 159.35 26.5068 158.11C26.5068 156.875 27.0112 155.647 28.0189 154.428Z" fill="#0078BF"/>
<path d="M157.599 155.507C157.278 155.48 157.037 155.187 157.062 154.851C157.088 154.516 157.369 154.265 157.69 154.291C159.362 154.428 160.544 154.22 161.194 153.63C161.795 153.083 161.957 152.126 161.647 150.719C161.575 150.392 161.772 150.065 162.086 149.99C162.4 149.915 162.713 150.12 162.784 150.448C163.2 152.336 162.909 153.688 161.961 154.55C161.06 155.368 159.592 155.67 157.599 155.507Z" fill="#0078BF"/>
<path d="M76.973 46.8101C76.9805 46.4745 77.2476 46.2086 77.569 46.2165C77.8904 46.2243 78.1451 46.5031 78.1376 46.8386C78.1053 48.1888 78.0726 49.5393 78.0167 50.9017L78.0165 50.9042C77.96 52.2807 77.8778 53.7015 77.7461 55.208C77.6098 56.7669 77.4238 58.3841 77.2096 59.8549C77.0037 61.2704 76.7675 62.5841 76.5201 63.6232C76.2553 64.7371 75.969 65.5493 75.6177 66.0591C75.1395 66.7539 74.5702 66.9652 73.8527 66.6822C73.3864 66.4986 72.9181 66.0932 72.3727 65.621C71.7327 65.0671 70.9711 64.4075 70.1051 64.0289C69.3264 63.6887 68.4325 63.5552 67.548 63.6857C66.7472 63.8038 65.9526 64.1409 65.2585 64.7394C64.4951 65.398 63.8461 66.3767 63.3966 67.562C62.9598 68.7138 62.7138 70.0523 62.7332 71.4765C62.7529 72.9175 63.0449 74.4557 63.5075 75.8697C63.9892 77.3421 64.6515 78.6658 65.3794 79.5903C66.0626 80.4583 66.8106 80.9735 67.5687 81.2943C68.3432 81.6219 69.1502 81.7552 69.9152 81.8539C70.7093 81.9566 71.4478 82.023 72.0712 82.0267C72.6667 82.0301 73.1655 81.9799 73.5163 81.8537C73.7478 81.7705 73.9325 81.6413 74.094 81.5286C74.5974 81.1764 74.9773 80.9114 75.7372 81.312C76.1592 81.535 76.6898 82.0237 77.3467 82.7491C77.9551 83.4214 78.7086 84.3369 79.6108 85.4576L80.0071 85.9479C81.7186 88.0798 83.9142 90.8139 86.47 93.1121C87.8014 94.3094 89.2405 95.3971 90.674 96.3272C92.1878 97.3095 93.6888 98.1118 95.0445 98.6782C96.3361 99.2178 97.4928 99.542 98.6861 99.6225C99.8812 99.703 101.13 99.5416 102.607 99.1108C104.189 98.6494 106.028 97.8812 107.879 96.8633C109.545 95.9467 111.218 94.8269 112.716 93.5458C114.286 92.203 115.661 90.6859 116.817 88.9372C117.975 87.1867 118.921 85.1959 119.633 82.9085C120.352 80.602 120.835 77.9908 121.194 75.2842C121.553 72.5857 121.792 69.7456 122.021 67.0189C122.253 64.2479 122.472 61.6179 122.652 59.4108C122.84 57.1038 122.996 55.1499 123.096 53.781C123.301 51.0031 123.301 50.3858 123.301 49.7687C123.301 49.4318 123.563 49.1585 123.886 49.1585C124.208 49.1585 124.47 49.4318 124.47 49.7687C124.47 50.4008 124.47 51.0338 124.261 53.8714C124.155 55.3106 124 57.2585 123.817 59.5109C123.625 61.8628 123.409 64.4516 123.185 67.1236C122.957 69.8401 122.719 72.6703 122.35 75.4512C121.982 78.2238 121.485 80.9048 120.743 83.2853C119.996 85.6847 118.999 87.7796 117.776 89.6286C116.552 91.4803 115.104 93.0802 113.455 94.4899C111.899 95.8203 110.158 96.9855 108.422 97.9407C106.5 98.998 104.579 99.7992 102.917 100.284C101.31 100.752 99.9391 100.928 98.6132 100.838C97.2856 100.749 96.0163 100.395 94.6107 99.8081C93.1907 99.2148 91.6267 98.38 90.0577 97.3617C88.5807 96.4033 87.0921 95.2774 85.7074 94.0322C83.0747 91.6648 80.8478 88.8918 79.112 86.7296L78.7179 86.2393C77.8466 85.1541 77.1115 84.2617 76.4976 83.5835C75.9319 82.9588 75.504 82.5534 75.2119 82.3991C75.0591 82.3186 74.9226 82.4132 74.7425 82.5391C74.5174 82.6961 74.261 82.8757 73.8954 83.0072C73.4198 83.1783 72.7922 83.2466 72.0667 83.2424C71.3694 83.2385 70.5891 83.17 69.7738 83.0646C68.9295 82.9555 68.0333 82.8061 67.1305 82.4242C66.2115 82.0354 65.306 81.4121 64.4799 80.3624C63.6621 79.3237 62.9274 77.8649 62.4025 76.2608C61.9046 74.7388 61.5902 73.0702 61.5686 71.4908C61.5467 69.8971 61.8217 68.4007 62.3097 67.1137C62.8315 65.7379 63.5998 64.5892 64.5141 63.8003C65.3836 63.0506 66.3814 62.6279 67.388 62.4797C68.4828 62.318 69.5891 62.4829 70.5527 62.904C71.5847 63.3553 72.4175 64.0764 73.1171 64.6819C73.5843 65.0864 73.9851 65.4335 74.2636 65.543C74.411 65.6011 74.5435 65.5359 74.6723 65.3488C74.9287 64.9767 75.1578 64.2996 75.3878 63.3327C75.6226 62.3457 75.8512 61.0684 76.0542 59.6737C76.2714 58.1821 76.4561 56.5907 76.5864 55.0982C76.7145 53.632 76.7956 52.2263 76.8521 50.8516C76.9091 49.4639 76.9414 48.1365 76.973 46.8101Z" fill="#0078BF"/>
<path d="M152.913 115.523C152.593 115.484 152.364 115.181 152.402 114.846C152.439 114.512 152.73 114.273 153.05 114.313L153.07 114.315C153.904 114.42 154.738 114.525 155.53 114.56C155.937 114.579 156.34 114.581 156.713 114.566C157.067 114.553 157.401 114.523 157.692 114.477C158.241 114.391 158.608 114.24 158.974 114.09L159.024 114.073C159.309 113.984 159.618 114.135 159.731 114.43C159.844 114.724 159.722 115.055 159.458 115.197L159.399 115.225C158.97 115.401 158.539 115.577 157.866 115.683C157.549 115.733 157.169 115.766 156.754 115.782C156.349 115.798 155.914 115.796 155.48 115.776C154.615 115.737 153.774 115.631 152.933 115.526L152.913 115.523Z" fill="#0078BF"/>
<path d="M84.5039 25.8335C84.1839 25.8663 83.8985 25.6218 83.8671 25.2877C83.8357 24.9545 84.0688 24.657 84.3875 24.6231C85.7041 24.4702 87.0214 24.3175 88.8155 24.5807C89.6993 24.7103 90.695 24.9425 91.7217 25.2224C92.7286 25.4969 93.777 25.8218 94.7816 26.1414C95.6001 26.4018 96.2188 26.6024 96.8462 26.8058C98.1014 27.2125 99.3824 27.6281 100.883 28.0872C102.022 28.4361 103.29 28.8104 104.585 29.1522C105.867 29.4907 107.158 29.7923 108.341 29.9964C109.489 30.1943 110.543 30.3036 111.482 30.3354C112.472 30.3693 113.338 30.3186 114.055 30.198C115.413 29.9697 116.266 29.4748 117.119 28.9801C117.4 28.8169 117.755 28.9225 117.911 29.216C118.068 29.5096 117.966 29.88 117.685 30.0432C116.743 30.5898 115.8 31.1368 114.238 31.3994C113.451 31.5318 112.511 31.5876 111.446 31.5512C110.452 31.5173 109.347 31.4036 108.154 31.1979C106.923 30.9857 105.603 30.6776 104.301 30.3343C103.013 29.9941 101.723 29.6129 100.554 29.255C99.0634 28.7989 97.7704 28.3796 96.5038 27.9689C95.7616 27.7284 95.024 27.4891 94.4437 27.3046C93.4613 26.9921 92.4328 26.6736 91.4292 26.3999C90.446 26.1317 89.4952 25.9096 88.6556 25.7867C87.0061 25.5448 85.7602 25.6892 84.5152 25.8331L84.5039 25.8335Z" fill="#0078BF"/>
<path d="M94.1577 45.7322C93.8387 45.6877 93.6149 45.3813 93.6576 45.0483C93.7002 44.7153 93.9938 44.4817 94.3128 44.5262L94.3415 44.5299C97.3124 44.9579 100.282 45.3859 102.612 45.5325C103.763 45.6052 104.759 45.6089 105.696 45.5381C106.622 45.468 107.492 45.3236 108.4 45.1002C109.318 44.8744 110.275 44.5677 111.249 44.2213C112.27 43.8586 113.26 43.4725 114.25 43.087C114.551 42.9698 114.886 43.1299 114.998 43.4444C115.111 43.7589 114.957 44.109 114.656 44.2262C113.623 44.6288 112.589 45.0317 111.624 45.3748C110.613 45.7341 109.62 46.0525 108.665 46.2873C107.699 46.5248 106.771 46.6789 105.778 46.7538C104.794 46.8281 103.749 46.8244 102.543 46.7483C100.171 46.5991 97.1765 46.1674 94.1815 45.7359L94.1577 45.7322Z" fill="#0078BF"/>
<path d="M82.6404 34.0907C82.319 34.0842 82.0634 33.8063 82.0696 33.4708C82.0758 33.1353 82.342 32.8685 82.6634 32.8749C83.7383 32.8975 84.8141 32.9204 85.8457 32.9718C86.9043 33.0248 87.9467 33.1083 88.9554 33.2522C89.9656 33.3963 90.9399 33.6013 91.9554 33.8589C92.9592 34.1137 94.0043 34.4209 95.1669 34.773L95.9871 35.0225C98.0954 35.665 100.481 36.3921 102.473 36.7959C103.582 37.021 104.571 37.145 105.5 37.2179C106.46 37.2933 107.322 37.3157 108.183 37.3374C108.505 37.3452 108.759 37.624 108.752 37.9595C108.744 38.2951 108.477 38.5609 108.156 38.5531C107.251 38.5303 106.345 38.507 105.413 38.4336C104.448 38.3578 103.417 38.2282 102.254 37.9923C100.228 37.5818 97.8047 36.8429 95.6628 36.1903L94.8426 35.9408C93.6977 35.594 92.6687 35.2914 91.6815 35.041C90.706 34.7936 89.7703 34.5966 88.8003 34.4583C87.8292 34.3197 86.8195 34.2389 85.791 34.1875C84.7359 34.1349 83.6877 34.1126 82.6404 34.0907Z" fill="#0078BF"/>
<path d="M98.9025 128.348C98.0584 128.673 97.1578 129.132 96.3491 129.744C95.6921 130.242 95.0961 130.842 94.6446 131.554C94.1548 132.327 93.8259 133.241 93.6518 134.22C93.4674 135.258 93.4559 136.37 93.609 137.467C93.7557 138.518 94.0561 139.557 94.4617 140.515C94.8849 141.515 95.4213 142.421 96.0159 143.156C96.5872 143.861 97.2114 144.408 97.9091 144.805C98.608 145.203 99.3893 145.456 100.273 145.574C101.12 145.687 102.064 145.678 102.997 145.587C104.07 145.483 105.132 145.268 106.022 145.008C106.828 144.774 107.48 144.504 108.018 144.143C108.537 143.795 108.959 143.352 109.323 142.762C109.698 142.152 110.016 141.382 110.256 140.544C110.504 139.674 110.667 138.738 110.724 137.833C110.781 136.935 110.732 136.066 110.573 135.232C110.418 134.416 110.157 133.637 109.787 132.899C109.424 132.174 108.947 131.476 108.415 130.845C107.841 130.165 107.211 129.574 106.596 129.119C106.008 128.684 105.425 128.367 104.835 128.143C104.246 127.92 103.649 127.789 103.032 127.727C102.408 127.665 101.762 127.671 101.081 127.766C100.399 127.861 99.6772 128.048 98.9025 128.348ZM95.6643 128.757C96.5675 128.073 97.5667 127.564 98.5004 127.203C99.3515 126.875 100.156 126.668 100.926 126.56C101.699 126.452 102.432 126.446 103.141 126.517C103.857 126.588 104.549 126.74 105.232 126.999C105.912 127.257 106.586 127.623 107.267 128.127C107.966 128.644 108.667 129.299 109.292 130.039C109.876 130.732 110.406 131.511 110.819 132.336C111.246 133.187 111.544 134.075 111.719 134.993C111.898 135.93 111.952 136.904 111.889 137.909C111.826 138.908 111.647 139.939 111.374 140.892C111.105 141.834 110.741 142.711 110.304 143.419C109.846 144.163 109.31 144.723 108.648 145.167C108.006 145.598 107.252 145.913 106.337 146.18C105.392 146.457 104.258 146.685 103.102 146.798C102.091 146.896 101.063 146.905 100.127 146.78C99.0968 146.643 98.1797 146.344 97.3519 145.873C96.522 145.401 95.788 144.761 95.1252 143.942C94.4583 143.118 93.8604 142.111 93.3929 141.007C92.9476 139.955 92.6167 138.807 92.4537 137.639C92.2833 136.418 92.2977 135.172 92.5058 134.001C92.7084 132.862 93.0945 131.793 93.6717 130.882C94.2076 130.037 94.903 129.334 95.6643 128.757Z" fill="#0078BF"/>
<path d="M100.095 141.993C99.5759 141.793 99.0192 141.509 98.5151 141.127C98.0843 140.801 97.6896 140.401 97.3839 139.919C97.0552 139.4 96.8358 138.793 96.7209 138.148C96.6043 137.491 96.5961 136.795 96.6909 136.115C96.7817 135.464 96.9655 134.826 97.2124 134.242C97.4726 133.628 97.8062 133.066 98.1791 132.605C98.5542 132.142 98.9719 131.779 99.4457 131.509C99.9178 131.241 100.439 131.07 101.023 130.992C101.543 130.923 102.113 130.928 102.67 130.982C103.304 131.044 103.927 131.169 104.445 131.32C104.96 131.47 105.387 131.649 105.754 131.896C106.141 132.155 106.454 132.482 106.72 132.915C106.968 133.316 107.173 133.809 107.324 134.336C107.475 134.865 107.574 135.437 107.609 135.993C107.645 136.555 107.614 137.099 107.514 137.623C107.416 138.137 107.248 138.637 107.007 139.117C106.775 139.581 106.479 140.016 106.155 140.4C105.807 140.812 105.417 141.177 105.029 141.465H105.026C104.641 141.749 104.26 141.957 103.876 142.103C103.489 142.249 103.097 142.335 102.692 142.375C102.294 142.415 101.882 142.411 101.45 142.351C101.016 142.291 100.567 142.175 100.095 141.993ZM99.1999 140.14C99.6092 140.45 100.067 140.683 100.497 140.849C100.893 141.002 101.259 141.097 101.603 141.145C101.945 141.193 102.27 141.196 102.583 141.165C102.889 141.134 103.186 141.069 103.479 140.958C103.772 140.847 104.062 140.69 104.354 140.474C104.666 140.241 104.986 139.94 105.278 139.594C105.551 139.272 105.793 138.918 105.975 138.555C106.16 138.187 106.29 137.795 106.368 137.384C106.449 136.963 106.473 136.523 106.445 136.069C106.416 135.607 106.332 135.129 106.205 134.685C106.084 134.261 105.925 133.875 105.739 133.572C105.567 133.293 105.368 133.084 105.124 132.921C104.861 132.744 104.536 132.61 104.134 132.493C103.672 132.358 103.121 132.247 102.565 132.193C102.085 132.146 101.601 132.141 101.169 132.198C100.732 132.257 100.346 132.382 100.003 132.577C99.6614 132.771 99.3534 133.041 99.0698 133.392C98.7691 133.763 98.497 134.224 98.2812 134.733C98.0742 135.223 97.9209 135.752 97.8462 136.286C97.7687 136.843 97.774 137.406 97.867 137.929C97.9533 138.414 98.1157 138.867 98.3567 139.247C98.578 139.596 98.8734 139.893 99.1999 140.14Z" fill="#0078BF"/>
</g>
</g>
<defs>
<filter id="filter0_ddd_2036_7201" x="0" y="0" width="197" height="209" filterUnits="userSpaceOnUse" color-interpolation-filters="sRGB">
<feFlood flood-opacity="0" result="BackgroundImageFix"/>
<feColorMatrix in="SourceAlpha" type="matrix" values="0 0 0 0 0 0 0 0 0 0 0 0 0 0 0 0 0 0 127 0" result="hardAlpha"/>
<feOffset dy="3"/>
<feGaussianBlur stdDeviation="3"/>
<feColorMatrix type="matrix" values="0 0 0 0 0.0392157 0 0 0 0 0.623529 0 0 0 0 0.921569 0 0 0 0.08 0"/>
<feBlend mode="normal" in2="BackgroundImageFix" result="effect1_dropShadow_2036_7201"/>
<feColorMatrix in="SourceAlpha" type="matrix" values="0 0 0 0 0 0 0 0 0 0 0 0 0 0 0 0 0 0 127 0" result="hardAlpha"/>
<feOffset dy="10"/>
<feGaussianBlur stdDeviation="5"/>
<feColorMatrix type="matrix" values="0 0 0 0 0.0392157 0 0 0 0 0.623529 0 0 0 0 0.921569 0 0 0 0.07 0"/>
<feBlend mode="normal" in2="effect1_dropShadow_2036_7201" result="effect2_dropShadow_2036_7201"/>
<feColorMatrix in="SourceAlpha" type="matrix" values="0 0 0 0 0 0 0 0 0 0 0 0 0 0 0 0 0 0 127 0" result="hardAlpha"/>
<feOffset dy="23"/>
<feGaussianBlur stdDeviation="7"/>
<feColorMatrix type="matrix" values="0 0 0 0 0.0392157 0 0 0 0 0.623529 0 0 0 0 0.921569 0 0 0 0.04 0"/>
<feBlend mode="normal" in2="effect2_dropShadow_2036_7201" result="effect3_dropShadow_2036_7201"/>
<feBlend mode="normal" in="SourceGraphic" in2="effect3_dropShadow_2036_7201" result="shape"/>
</filter>
<clipPath id="clip0_2036_7201">
<path d="M14 87.5C14 40.8319 51.8319 3 98.5 3C145.168 3 183 40.8319 183 87.5C183 134.168 145.168 172 98.5 172C51.8319 172 14 134.168 14 87.5Z" fill="white"/>
</clipPath>
</defs>
</svg>
