<svg width="186" height="199" viewBox="0 0 186 199" fill="none" xmlns="http://www.w3.org/2000/svg">
<g filter="url(#filter0_ddd_2036_7268)">
<g clip-path="url(#clip0_2036_7268)">
<path d="M14 82.5C14 38.8695 49.3695 3.5 93 3.5C136.63 3.5 172 38.8695 172 82.5C172 126.13 136.63 161.5 93 161.5C49.3695 161.5 14 126.13 14 82.5Z" fill="white"/>
<path d="M67.1071 45.2023C67.1931 44.8793 67.5156 44.6897 67.827 44.779C68.1384 44.8683 68.3211 45.2028 68.2351 45.5258C67.8352 47.0296 67.4351 48.5341 67.4109 50.0344C67.3929 51.1487 67.5826 52.3235 67.7944 53.6367C67.8711 54.1125 67.951 54.6063 68.0206 55.0894C68.2071 56.3809 68.3611 57.8306 68.5258 59.3836C68.6057 60.1348 68.688 60.9093 68.7909 61.8121L68.9699 63.3377C69.2079 65.3451 69.4498 67.3852 69.523 69.1637C69.5421 69.6271 69.5494 70.0903 69.5559 70.5378C69.5785 72.0434 69.5989 73.3615 70.1602 74.7887C70.5251 75.7163 71.121 76.7098 71.8893 77.686C72.6583 78.6632 73.5973 79.6196 74.6491 80.4748C76.252 81.7777 78.1432 82.8632 79.7565 83.7888C80.354 84.1342 80.92 84.4588 81.2802 84.6769C82.4508 85.3867 83.3023 86.0056 84.0109 86.5208C84.4026 86.8054 84.7488 87.0571 85.1085 87.289C85.5406 87.5676 85.95 87.7843 86.3444 87.9065C86.7052 88.0183 87.0585 88.051 87.4136 87.9785C87.8707 87.8854 88.3944 87.6026 89.0502 87.249C89.5226 86.994 90.0609 86.7037 90.7358 86.3988C92.0298 85.8142 93.6932 85.2445 95.4908 84.6288L96.9285 84.1356C98.0722 83.7378 99.2437 83.3162 100.443 82.7792C101.622 82.2517 102.811 81.6174 103.996 80.7939C105.105 80.0232 106.222 79.0792 107.236 78.1131C108.399 77.0043 109.421 75.8726 110.135 74.9444C111.117 73.6687 111.515 72.7782 111.781 72.1821C111.88 71.9606 111.963 71.7749 112.058 71.6053C112.307 71.1615 112.581 70.9061 113.088 70.8017C113.466 70.7237 113.966 70.7612 114.741 70.8854L115.275 70.9742C116.671 71.2123 118.73 71.5639 120.39 71.1472C121.257 70.9298 122.036 70.4947 122.714 69.9136C123.469 69.2668 124.097 68.4395 124.584 67.527C125.029 66.6968 125.357 65.7855 125.59 64.8415C125.852 63.7769 125.991 62.6818 126.036 61.6181C126.081 60.575 126.037 59.561 125.891 58.6446C125.759 57.8124 125.542 57.0644 125.232 56.4563C124.949 55.9009 124.582 55.4564 124.175 55.1035C123.683 54.6776 123.133 54.382 122.596 54.1813C122.095 53.9938 121.603 53.8875 121.122 53.8376C120.638 53.7874 120.154 53.7941 119.675 53.8319C119.216 53.868 118.773 53.931 118.372 54.0076C117.916 54.0948 117.501 54.2023 117.169 54.3102L117.005 54.3643C116.861 54.4149 116.732 54.459 116.58 54.491C115.885 54.6369 115.474 54.4726 115.256 53.36C115.16 52.8618 115.105 52.0897 115.072 51.1802C115.041 50.3066 115.028 49.2726 115.015 48.2396C115.011 47.9048 115.27 47.6299 115.592 47.626C115.915 47.6221 116.18 47.8906 116.184 48.2253C116.197 49.2367 116.209 50.2484 116.241 51.1374C116.272 51.9889 116.32 52.6971 116.402 53.1175C116.429 53.2521 116.295 53.3121 116.346 53.3024C116.404 53.2898 116.514 53.2521 116.639 53.2097C116.647 53.2097 116.807 53.1563 116.82 53.1497C117.183 53.0319 117.645 52.9129 118.161 52.814C118.614 52.7275 119.102 52.6571 119.588 52.6189C120.12 52.5768 120.667 52.5706 121.236 52.6297C121.807 52.6891 122.391 52.8156 122.991 53.0397C123.648 53.2856 124.323 53.6483 124.927 54.1712C125.442 54.618 125.908 55.1826 126.268 55.8903C126.639 56.6167 126.894 57.4903 127.047 58.4495C127.205 59.4478 127.253 60.5457 127.205 61.6706C127.156 62.8217 127.008 64.0013 126.727 65.1411C126.473 66.1679 126.109 67.1738 125.609 68.1109C125.054 69.1555 124.332 70.1043 123.462 70.8504C122.654 71.5425 121.718 72.0625 120.665 72.3266C118.772 72.8017 116.576 72.4269 115.087 72.1729L114.562 72.0841C113.93 71.9826 113.545 71.9474 113.313 71.9953C113.209 72.0167 113.143 72.0876 113.072 72.2141C113.006 72.3312 112.932 72.4953 112.845 72.6911C112.555 73.341 112.121 74.3117 111.052 75.7005C110.302 76.6746 109.237 77.8565 108.029 79.0071C106.978 80.0077 105.814 80.9911 104.647 81.8021C103.387 82.6782 102.136 83.3464 100.906 83.897C99.696 84.4388 98.4857 84.8741 97.2998 85.2864L95.8577 85.7848C94.0729 86.3961 92.4212 86.9618 91.2034 87.5119C90.5977 87.7855 90.062 88.0745 89.5914 88.3285C88.8533 88.7265 88.2644 89.0445 87.6381 89.1722C87.0849 89.2851 86.5477 89.2384 86.0094 89.0716C85.5049 88.9152 85.0045 88.6531 84.4897 88.3211C84.1477 88.1007 83.7696 87.8258 83.3415 87.5147C82.6591 87.0187 81.8391 86.4225 80.6911 85.7279C80.1317 85.3906 79.6769 85.1295 79.1936 84.8522C77.545 83.9087 75.6136 82.8002 73.9291 81.431C72.8062 80.5181 71.803 79.496 70.9813 78.4517C70.1385 77.3809 69.4811 76.2814 69.0735 75.2451C68.4331 73.6173 68.4112 72.1886 68.3866 70.5566C68.3804 70.1317 68.3735 69.6934 68.3537 69.2111C68.2843 67.5226 68.0428 65.4876 67.8055 63.485L67.6265 61.9547C67.5393 61.1895 67.4486 60.3373 67.3614 59.5166C67.1991 57.9871 67.0474 56.5594 66.8606 55.2652C66.7861 54.7482 66.7109 54.2837 66.6388 53.8364C66.4188 52.4716 66.2217 51.2511 66.2416 50.0156C66.2682 48.3565 66.6879 46.7788 67.1071 45.2023Z" fill="#0078BF"/>
<path d="M66.4733 52.3679C66.1253 51.5568 65.7677 50.6177 65.4969 49.6442C65.2208 48.6521 65.0343 47.6227 65.0354 46.6509C65.0369 45.6457 65.2361 44.7097 65.6921 43.7719C66.1359 42.8597 66.8215 41.9518 67.8058 40.9797C68.8628 39.9361 70.2661 38.8163 71.8062 37.5879C73.023 36.6175 74.3273 35.5768 75.6139 34.4487C77.298 32.9723 78.9388 31.3554 80.2702 30.0435C81.2211 29.1064 82.016 28.3232 82.5826 27.8333C83.5328 27.012 84.0646 26.9317 84.4475 27.4086C84.7109 27.7362 84.6879 28.218 84.6566 28.8735L84.6417 29.1995C84.6176 29.8251 84.6178 30.6005 84.7458 31.4948C84.8729 32.3806 85.1277 33.3837 85.6128 34.4722C86.0983 35.5614 86.8144 36.7394 87.6424 37.8636C88.4994 39.0275 89.475 40.1314 90.4376 41.0184C91.415 41.9191 92.3654 42.5859 93.0392 42.8854C93.1133 42.9184 93.1818 42.9462 93.2442 42.9685C93.1202 42.6112 92.8565 42.074 92.6027 41.5572C92.4025 41.1495 92.2073 40.7519 92.0644 40.3912C91.7801 39.6733 91.7668 39.1161 92.3217 38.8798C92.9323 38.6198 94.3482 39.6068 96.1618 40.8718C97.0847 41.5151 98.12 42.2373 99.15 42.8951C100.599 43.8203 102.062 44.6373 103.579 45.3926C105.081 46.141 106.663 46.8405 108.352 47.5335C109.246 47.9002 109.767 48.1077 110.301 48.321C113.13 49.4489 116.044 50.6112 118.377 52.1115C119.836 53.0496 121.058 54.1121 122.132 55.2309C123.197 56.3413 124.115 57.5055 124.972 58.6575L125.633 59.5564C126.014 60.0773 126.348 60.563 126.605 60.9403C126.467 60.3511 126.265 59.6003 126.046 58.7866C125.328 56.1163 124.435 52.8006 124.929 51.6799C125.332 50.7672 126.139 50.8919 127.071 51.3339C127.38 51.4804 127.678 51.6479 127.977 51.8152C128.275 51.9822 128.574 52.1502 128.842 52.2754C129.167 52.4279 129.419 52.5386 129.43 52.5133C129.679 51.9415 129.246 50.0535 128.315 47.5546C127.429 45.1763 126.085 42.3153 124.422 39.5431C122.851 36.9223 121.002 34.3908 119.099 32.0707C116.76 29.22 114.322 26.6692 112.203 24.653C110.29 22.8326 108.65 21.46 107.158 20.4117C105.681 19.3729 104.341 18.6457 103.02 18.1094C101.808 17.6172 100.616 17.2859 99.5295 17.0841C98.2573 16.8476 97.1246 16.7866 96.2703 16.8483C95.2343 16.9231 94.6168 17.1881 94.1533 17.3871C93.8929 17.4987 93.672 17.594 93.4342 17.6462C92.8349 17.7785 92.3616 17.6214 91.6439 17.3828C91.4627 17.322 91.2622 17.2548 90.9368 17.1587C90.4212 17.0059 89.7798 16.8467 88.9944 16.7675C88.1946 16.687 87.2334 16.6843 86.0785 16.8435C84.8001 17.0197 83.2873 17.395 81.6365 18.1013C80.2813 18.6813 78.8324 19.4857 77.343 20.5873C75.7029 21.8009 74.0128 23.3765 72.398 25.1534C70.733 26.9853 69.1494 29.03 67.7838 31.1117C66.4686 33.1166 65.3572 35.1516 64.4689 37.116C63.539 39.1727 62.851 41.1539 62.428 42.9432C62.0334 44.6115 61.8691 46.1116 61.8933 47.4122C61.9185 48.7759 62.1527 49.9152 62.5451 50.7932C62.9106 51.6107 63.4214 52.2054 63.9828 52.667C64.5632 53.1444 65.2106 53.4909 65.8136 53.7941C66.4273 54.1026 66.9898 54.3649 67.4114 54.5064C67.6119 54.5736 67.5665 54.8686 67.6377 54.7627C67.6782 54.7022 67.3637 54.3198 67.0213 53.5815C66.8507 53.2136 66.6587 52.7995 66.4733 52.3679ZM66.6201 49.3064C66.8736 50.2178 67.2116 51.1045 67.5414 51.8732C67.7335 52.3202 67.9147 52.7111 68.0757 53.0583C68.5936 54.1751 68.9467 54.9357 68.5958 55.4571C68.3099 55.8823 67.761 55.8995 67.0539 55.6623C66.5677 55.499 65.958 55.2162 65.3049 54.8879C64.641 54.554 63.9244 54.1696 63.2539 53.6181C62.5642 53.051 61.9352 52.317 61.4814 51.3021C61.0247 50.2801 60.7526 48.9749 60.724 47.4311C60.6978 46.0318 60.8723 44.429 61.2911 42.6579C61.7325 40.7913 62.4466 38.7326 63.4097 36.6025C64.327 34.5734 65.4694 32.4802 66.8164 30.427C68.215 28.2951 69.8378 26.1998 71.5454 24.321C73.2104 22.4889 74.9597 20.8592 76.6644 19.598C78.2293 18.4404 79.7581 17.5924 81.1916 16.979C82.9462 16.2282 84.5601 15.8286 85.9272 15.6402C87.1788 15.4676 88.2277 15.4715 89.1044 15.5596C89.9956 15.6496 90.6991 15.8228 91.258 15.9885C91.4776 16.0534 91.7544 16.1456 91.9992 16.2269C92.5386 16.4054 92.8928 16.523 93.1911 16.4572C93.3329 16.4261 93.5056 16.3518 93.7084 16.2648C94.2489 16.0329 94.969 15.7237 96.1922 15.6353C97.1239 15.5679 98.3558 15.634 99.7358 15.8905C100.899 16.1065 102.168 16.4579 103.447 16.9774C104.839 17.5429 106.253 18.3104 107.814 19.4081C109.362 20.4964 111.048 21.9047 112.996 23.7589C115.132 25.7912 117.6 28.3759 119.988 31.2861C121.937 33.6614 123.823 36.2431 125.417 38.9012C127.117 41.7351 128.495 44.6699 129.407 47.117C130.447 49.9097 130.874 52.1502 130.498 53.0125C130.098 53.9326 129.291 53.8194 128.36 53.3834C128.055 53.2401 127.738 53.0622 127.422 52.8855C127.126 52.7199 126.83 52.554 126.585 52.4373C126.256 52.2811 126.001 52.1658 125.993 52.1843C125.677 52.9007 126.506 55.9819 127.174 58.4631C127.502 59.6815 127.794 60.7638 127.903 61.4228C128.059 62.3617 127.847 62.8134 127.348 62.9031C126.702 63.0184 125.792 61.7773 124.702 60.289L124.046 59.3992C123.214 58.2813 122.326 57.1539 121.302 56.0868C120.286 55.0278 119.133 54.0244 117.763 53.1437C115.517 51.6995 112.658 50.5592 109.884 49.453C109.1 49.1401 108.309 48.8247 107.921 48.6655C106.244 47.9775 104.644 47.2684 103.074 46.4864C101.519 45.7115 100.018 44.8742 98.5357 43.9272C97.4759 43.2504 96.4368 42.5256 95.5106 41.88C94.6181 41.2577 93.8405 40.7154 93.3431 40.3758C93.4351 40.5716 93.5409 40.7869 93.6483 41.0055C94.0597 41.8434 94.4937 42.7265 94.4857 43.2991C94.4833 43.4761 94.4456 43.6325 94.3759 43.7673C94.1956 44.1127 93.8825 44.2666 93.467 44.2475C93.2153 44.236 92.9137 44.1511 92.5806 44.0032C91.7972 43.6548 90.7275 42.9121 89.6582 41.9267C88.6442 40.9924 87.6157 39.8286 86.7117 38.6007C85.8339 37.4087 85.0709 36.1518 84.549 34.9811C84.0105 33.7728 83.7273 32.6569 83.5858 31.6706C83.4458 30.693 83.4458 29.8408 83.4725 29.1521L83.4873 28.8165C83.5055 28.4311 83.5782 28.2206 83.5487 28.184C83.4223 28.0264 83.6253 28.5105 83.3301 28.7656C82.814 29.2117 82.0231 29.991 81.0771 30.9233C79.7313 32.2494 78.0725 33.8841 76.3702 35.3764C75.0807 36.507 73.7565 37.5633 72.5213 38.5487C71.008 39.7559 69.6289 40.8562 68.6127 41.8595C67.7284 42.7327 67.1202 43.5324 66.7376 44.3191C66.3677 45.0799 66.206 45.8383 66.2047 46.6509C66.2038 47.4974 66.3717 48.4137 66.6201 49.3064ZM92.7666 40.0021C92.658 40.0484 92.6997 40.0369 92.7875 40.0102L92.7666 40.0021ZM127.128 61.6876C127.139 61.6993 127.147 61.7051 127.151 61.7044C127.245 61.6876 127.209 61.6874 127.128 61.6876Z" fill="#0078BF"/>
<path d="M123.677 50.9351C123.468 50.6791 123.499 50.2955 123.746 50.079C123.993 49.8625 124.363 49.8945 124.571 50.1506C126.128 52.0616 127.685 53.9719 129.174 55.8164C130.68 57.6815 132.196 59.5754 133.731 61.5272C135.243 63.4488 136.739 65.384 138.088 67.2892C139.446 69.2076 140.664 71.1069 141.615 72.9521C142.55 74.7656 143.223 76.5179 143.646 78.1431C144.097 79.8715 144.269 81.4675 144.18 82.8526C144.09 84.237 143.74 85.4134 143.146 86.4653C142.559 87.5052 141.741 88.4094 140.708 89.2637C139.563 90.2112 138.134 91.1087 137.096 91.6383C136.696 91.8419 136.352 91.994 136.099 92.0771C135.591 92.2437 135.206 92.1832 135.003 91.8512L135.001 91.844C134.971 91.7934 134.947 91.7391 134.931 91.6809C134.792 91.198 135.309 90.6306 136.042 89.8253C136.864 88.9227 138.028 87.6444 138.734 86.3505C139.389 85.1479 139.663 83.9181 139.65 83.0769C139.647 82.8469 139.621 82.6563 139.577 82.5176C139.204 82.7509 138.36 83.937 137.275 85.4617C136.822 86.0976 136.33 86.789 135.801 87.4988C134.761 88.8947 133.583 90.3566 132.205 91.7064C130.815 93.068 129.223 94.3155 127.366 95.268C125.726 96.1099 123.885 96.7173 122.033 97.148C119.729 97.6841 117.407 97.948 115.436 98.0526C113.582 98.1511 112.016 98.1074 111.164 97.8932C110.828 97.8088 110.566 97.6878 110.396 97.5297C110.068 97.2235 109.999 96.8659 110.224 96.4536C110.35 96.2231 110.603 95.9905 110.998 95.7604C111.589 95.4157 112.585 95.0113 113.818 94.5108C116.382 93.4702 120.001 92.0007 122.838 89.8999C124.795 88.4511 126.393 86.6944 127.589 84.8881C128.91 82.8945 129.741 80.8443 130.024 79.0869C130.24 77.7449 130.134 76.5779 129.886 75.6519C129.556 74.418 129.033 73.6633 128.722 73.5354C128.589 73.4811 128.892 73.6237 128.882 73.6509C128.785 73.9033 128.69 74.3057 128.575 74.7907C128.427 75.413 128.248 76.1649 127.967 77.0073C127.56 78.2255 126.951 79.5802 125.999 80.9788C125.049 82.3743 123.757 83.8182 121.983 85.2203C120.431 86.4476 118.509 87.6426 116.692 88.6331C114.394 89.8854 112.239 90.8213 111.194 91.0903C110.296 91.3218 109.847 91.117 109.721 90.5892C109.56 89.9164 110.575 88.8486 111.722 87.6435L112.209 87.1295C113.034 86.2538 113.844 85.3519 114.546 84.4652C115.238 83.5898 115.829 82.7254 116.23 81.912C117.012 80.3282 117.09 78.861 117.163 77.3954C117.163 77.0579 117.426 76.7852 117.75 76.7852C118.074 76.7852 118.336 77.0579 118.336 77.394L118.334 77.4262C118.254 79.0296 118.174 80.634 117.271 82.4638C116.828 83.3631 116.189 84.2989 115.449 85.2355C114.716 86.1611 113.887 87.0856 113.048 87.9762L111.33 89.7867C112.4 89.4314 114.207 88.6147 116.146 87.5581C117.914 86.5946 119.778 85.4366 121.273 84.2549C122.943 82.935 124.154 81.5828 125.041 80.2799C125.925 78.9797 126.488 77.7309 126.862 76.6124C127.119 75.8431 127.293 75.1082 127.438 74.5008C127.562 73.9781 127.665 73.5437 127.795 73.2036C128.083 72.451 128.468 72.1262 129.153 72.408C129.715 72.6392 130.579 73.7047 131.014 75.3284C131.302 76.4042 131.427 77.7513 131.179 79.2866C130.87 81.2048 129.973 83.4271 128.552 85.5728C127.28 87.4928 125.586 89.3567 123.517 90.8892C120.56 93.0791 116.863 94.5799 114.245 95.6428C113.13 96.0954 112.215 96.4665 111.673 96.7635C112.461 96.9048 113.795 96.9239 115.377 96.8397C117.293 96.738 119.548 96.4821 121.777 95.9636C123.544 95.5524 125.296 94.9756 126.848 94.1788C128.588 93.2861 130.088 92.1093 131.403 90.822C132.728 89.5232 133.868 88.1092 134.875 86.757C135.397 86.0571 135.885 85.3706 136.335 84.7388C137.741 82.7633 138.799 81.2775 139.669 81.2628C139.84 81.2598 139.999 81.3035 140.145 81.3886C140.394 81.5331 140.575 81.7887 140.685 82.129C140.767 82.3828 140.814 82.6991 140.819 83.0581C140.835 84.0791 140.516 85.547 139.752 86.9496C139.118 88.1112 138.189 89.2175 137.4 90.0991C138.231 89.613 139.176 88.977 139.979 88.3126C140.905 87.5471 141.63 86.7506 142.137 85.8519C142.637 84.9659 142.934 83.9634 143.01 82.7716C143.091 81.5184 142.931 80.0567 142.514 78.457C142.111 76.9118 141.472 75.2462 140.583 73.5227C139.666 71.7433 138.477 69.8903 137.143 68.0076C135.801 66.1119 134.32 64.1949 132.823 62.2929C131.35 60.4203 129.826 58.5159 128.276 56.5964C126.709 54.6569 125.192 52.7951 123.677 50.9351ZM110.858 90.2993C110.878 90.3839 110.877 90.3524 110.873 90.279L110.858 90.2993Z" fill="#0078BF"/>
<path d="M69.257 57.7033C69.5595 57.8202 69.7135 58.1694 69.6008 58.4832C69.4881 58.7971 69.1515 58.9567 68.8489 58.8399C68.3581 58.6489 67.8668 58.4577 67.3769 58.3121C66.9351 58.1807 66.5206 58.0967 66.1628 58.1078C65.843 58.1177 65.5549 58.2046 65.3056 58.3562C65.0428 58.5159 64.815 58.7527 64.63 59.0511C64.4348 59.3663 64.2851 59.7546 64.1705 60.198C64.0485 60.6699 63.9671 61.1954 63.913 61.757C63.8542 62.3676 63.8265 63.0213 63.8484 63.6936C63.8675 64.2826 63.9256 64.8881 64.0341 65.4925C64.1494 66.1347 64.3222 66.7771 64.5355 67.372C64.7467 67.9615 64.998 68.5052 65.2721 68.9566C65.5278 69.3774 65.8004 69.7108 66.1011 69.939C66.3744 70.1463 66.6805 70.269 67.0309 70.2938C67.84 70.3513 68.9592 69.9224 70.0779 69.4936L70.0963 69.489C70.4046 69.3834 70.7353 69.5557 70.8364 69.8734C70.9358 70.1857 70.7772 70.5223 70.4809 70.6334C69.2466 71.1085 68.0112 71.582 66.9528 71.5068C66.3697 71.4656 65.8616 71.2624 65.4087 70.9187C64.9835 70.5961 64.6147 70.1514 64.2816 69.6036C63.9671 69.0854 63.6796 68.4649 63.4399 67.7954C63.2028 67.1339 63.0109 66.4218 62.8834 65.7111C62.7641 65.0457 62.7002 64.3797 62.6791 63.7318C62.6552 63.0031 62.6851 62.2968 62.7486 61.6383C62.8096 61.0049 62.9011 60.4141 63.038 59.8842C63.1826 59.3256 63.3791 58.8228 63.6444 58.3949C63.9276 57.9382 64.2878 57.5689 64.7143 57.3098C65.1317 57.0561 65.6077 56.9109 66.1309 56.8948C66.6306 56.8794 67.158 56.9813 67.698 57.1419C68.1902 57.2882 68.724 57.496 69.257 57.7033Z" fill="#0078BF"/>
<path d="M60.5207 67.6293C60.715 67.3606 61.0816 67.3061 61.3398 67.5069C61.5915 67.7027 61.6479 68.0694 61.4709 68.3359C59.3632 71.525 57.2544 74.7145 55.9977 77.7647C55.3767 79.2728 54.9609 80.7534 54.759 82.1697C54.5603 83.5656 54.5689 84.8964 54.7927 86.1264C54.9884 87.2015 55.3508 88.2097 55.734 89.0072C55.899 89.3507 56.0521 89.647 56.1825 89.8822L56.1674 89.5041C56.1379 88.8013 56.1026 87.9688 56.1825 87.1854C56.2794 86.2359 56.5496 85.3685 56.8696 84.8559C57.0191 84.6166 57.1903 84.4332 57.3762 84.3228C57.6629 84.1548 57.9597 84.1369 58.254 84.3009C58.4514 84.4116 58.6246 84.6053 58.7619 84.8939C59.0059 85.4069 59.1704 86.3102 59.3701 87.4068C59.6307 88.8392 59.9558 90.6248 60.5551 92.098C61.0477 93.3089 61.735 94.3325 62.5732 95.1712C63.4548 96.0537 64.5052 96.7339 65.6723 97.2143C66.8314 97.6912 68.1118 97.9758 69.35 98.1408C70.5894 98.3062 71.8044 98.3513 72.8175 98.3513C73.3489 98.3513 73.8151 98.3398 74.1835 98.3103C73.9271 98.1723 73.6164 98.0172 73.2686 97.8437C71.6154 97.0191 69.1732 95.8009 67.4652 93.9472C66.4876 92.886 65.7645 91.6328 65.2609 90.4445C64.5527 88.7743 64.2679 87.1891 64.3089 86.4305C64.3872 84.9804 65.0009 84.9205 65.9604 85.7274C66.4106 86.1061 66.993 86.8396 67.6376 87.7153L68.0191 88.2366C69.1622 89.8076 70.5606 91.7294 72.5578 93.0572C73.6659 93.7939 74.9797 94.3634 76.3384 94.8093C77.7107 95.2593 79.1304 95.5823 80.4349 95.8241C81.7408 96.0662 82.9194 96.2265 83.8862 96.2486C84.7971 96.2693 85.5157 96.1745 85.9642 95.9173C86.107 95.8356 86.2184 95.7369 86.2962 95.6281C86.3863 95.502 86.435 95.355 86.4386 95.1983C86.4426 95.0221 86.3909 94.824 86.2802 94.6158C86.1361 94.3452 85.8957 94.0677 85.5521 93.8036C85.0125 93.3885 84.2029 92.9979 83.2348 92.531C81.7894 91.8339 80.0047 90.9725 78.0959 89.5458C76.4842 88.3409 74.8061 86.7457 73.0956 84.9564C71.3843 83.1662 69.657 81.2016 67.9299 79.2374C67.7123 78.9894 67.7296 78.6047 67.9687 78.379C68.2078 78.1533 68.5786 78.1712 68.7962 78.4192C70.5253 80.3855 72.2544 82.3522 73.9256 84.1005C75.5977 85.8498 77.2294 87.4026 78.779 88.5611C80.5904 89.9151 82.3226 90.7509 83.7254 91.4276C84.751 91.9222 85.6087 92.3362 86.249 92.8285C86.7347 93.2019 87.0849 93.614 87.3071 94.0309C87.5189 94.4287 87.617 94.8362 87.6079 95.2268C87.5988 95.6373 87.4717 96.0211 87.2362 96.351C87.0585 96.5997 86.8207 96.8148 86.528 96.9826C85.8888 97.3491 84.9741 97.4869 83.8631 97.4616C82.8081 97.4374 81.5725 97.272 80.2287 97.0228C78.8846 96.7737 77.4166 96.4391 75.9854 95.9698C74.5415 95.496 73.1338 94.8831 71.9252 94.0797C69.7497 92.6334 68.2828 90.6173 67.0835 88.9692L66.7069 88.4525C66.2452 87.825 65.8258 87.283 65.4917 86.9289C65.5574 87.6373 65.8233 88.7502 66.3339 89.9544C66.791 91.0325 67.4413 92.1636 68.3134 93.1101C69.8761 94.8063 72.1998 95.9654 73.773 96.75C74.3643 97.0449 74.8562 97.2904 75.1836 97.4984C76.5434 98.363 76.4041 98.9477 75.2483 99.3478C74.7682 99.5139 73.8954 99.5689 72.8175 99.5689C71.7828 99.5689 70.5266 99.5208 69.2032 99.3441C67.8784 99.1674 66.5013 98.8602 65.2411 98.3416C63.9326 97.803 62.7535 97.0389 61.7619 96.0464C60.8128 95.0969 60.0348 93.9382 59.4776 92.5688C58.8273 90.97 58.49 89.1169 58.2194 87.6304C58.0639 86.7752 57.9313 86.0484 57.7887 85.6257C57.5871 86.0063 57.4179 86.6192 57.3469 87.3115C57.2757 88.0091 57.3087 88.7911 57.3367 89.4517C57.3573 89.9452 57.3757 90.3771 57.3513 90.6913C57.2999 91.3565 57.0692 91.7386 56.5014 91.6917C56.0552 91.6544 55.292 90.8142 54.6841 89.5492C54.2618 88.6703 53.861 87.5524 53.6421 86.35C53.3935 84.9838 53.3819 83.5189 53.5991 81.994C53.8153 80.4764 54.2587 78.8953 54.9203 77.2889C56.2233 74.1258 58.364 70.8884 60.5041 67.6516L60.5207 67.6293Z" fill="#0078BF"/>
<path d="M62.9822 73.7362C63.1047 73.4288 63.4431 73.2802 63.7412 73.4042C64.0413 73.5289 64.187 73.8826 64.0668 74.1938L64.0639 74.2021C63.2867 76.1272 62.5089 78.0534 62.3004 80.125C62.1966 81.1594 62.231 82.2489 62.3435 83.3116C62.4573 84.3812 62.6518 85.4278 62.8651 86.3661C63.0789 87.3048 63.3114 88.1319 63.5525 88.902C63.8009 89.6955 64.0526 90.4132 64.3039 91.1305C64.4139 91.4457 64.2569 91.7941 63.953 91.9082C63.6491 92.0223 63.3134 91.8594 63.2033 91.5442C62.943 90.8008 62.6821 90.0572 62.4382 89.278C62.1869 88.475 61.9449 87.6147 61.7233 86.6417C61.5018 85.668 61.2993 84.5752 61.1793 83.4446C61.0589 82.3048 61.0227 81.1304 61.136 80.0012C61.3629 77.7456 62.1729 75.7402 62.9822 73.7362Z" fill="#0078BF"/>
<path d="M128.692 64.3176C128.528 64.03 128.619 63.6582 128.896 63.4875C129.173 63.3168 129.532 63.4116 129.696 63.6992C130.634 65.3339 131.572 66.9693 132.366 68.4634C133.189 70.0143 133.907 71.4983 134.412 72.8461C134.925 74.2139 135.215 75.4313 135.345 76.5338C135.476 77.6488 135.446 78.6512 135.317 79.578C135.189 80.5029 134.964 81.3454 134.703 82.1054C134.446 82.8503 134.148 83.5265 133.869 84.125C133.593 84.7179 133.34 85.2261 133.099 85.6911C132.85 86.1724 132.622 86.5932 132.394 87.0134C132.236 87.3063 131.878 87.4105 131.596 87.2464C131.314 87.0824 131.213 86.7117 131.371 86.4188C131.604 85.9893 131.837 85.5597 132.068 85.1155C132.307 84.6546 132.553 84.1593 132.815 83.5972C133.074 83.0406 133.352 82.4081 133.598 81.6963C133.838 80.9996 134.043 80.2341 134.157 79.4068C134.272 78.5808 134.299 77.6837 134.181 76.6811C134.061 75.666 133.794 74.5446 133.321 73.2837C132.841 72.0024 132.144 70.5642 131.339 69.0482C130.504 67.4754 129.598 65.8962 128.692 64.3176Z" fill="#0078BF"/>
<path d="M88.4081 24.9663C88.2813 24.657 88.4199 24.3002 88.7173 24.1688C89.0099 24.0395 89.3476 24.1766 89.4789 24.4748C90.7403 27.3006 92.002 30.1271 94.4304 32.984C95.6159 34.3787 97.0808 35.7861 98.6713 37.1093C100.362 38.5157 102.196 39.8299 103.992 40.9366C105.742 42.0154 107.45 42.895 109.136 43.6745C110.814 44.4503 112.507 45.1422 114.199 45.8336C114.5 45.9555 114.649 46.3082 114.531 46.6207C114.414 46.9331 114.074 47.0875 113.773 46.9656C112.085 46.2762 110.398 45.5865 108.659 44.7826C106.927 43.9817 105.178 43.0814 103.395 41.983C101.557 40.8496 99.6747 39.5012 97.9376 38.0558C96.2919 36.6864 94.7762 35.2305 93.5499 33.7879C91.0128 30.8033 89.7138 27.8933 88.4154 24.9837L88.4081 24.9663Z" fill="#0078BF"/>
<path d="M92.634 23.4299C92.4341 23.166 92.4783 22.7834 92.7327 22.5761C92.9871 22.3688 93.3559 22.4146 93.5557 22.6785L93.5695 22.6983C95.4938 25.4302 97.4189 28.1626 99.8863 30.3325C101.678 31.9074 103.782 33.2135 105.752 34.4361C106.538 34.9239 107.305 35.3997 107.964 35.8334C110.505 37.5054 112.468 39.1665 114.43 40.8274C114.68 41.0375 114.72 41.4176 114.519 41.6783C114.318 41.9396 113.951 41.9822 113.699 41.7735L113.692 41.7694C111.765 40.1381 109.837 38.5067 107.336 36.8609C106.602 36.378 105.886 35.9337 105.152 35.4779C103.139 34.2291 100.989 32.8946 99.13 31.2601C96.561 29.001 94.5979 26.2171 92.6366 23.4329L92.634 23.4299Z" fill="#0078BF"/>
<path d="M97.9127 21.7258C97.6443 21.5381 97.5736 21.1601 97.7546 20.8817C97.9355 20.6033 98.2999 20.5299 98.5683 20.7176C101.722 22.9252 104.877 25.1335 106.948 26.9173C107.999 27.8224 108.759 28.6063 109.372 29.3287C109.981 30.0472 110.454 30.7138 110.925 31.3801C111.116 31.6504 111.06 32.0307 110.799 32.2291C110.539 32.4274 110.172 32.3687 109.981 32.0984C109.531 31.4634 109.081 30.8279 108.491 30.1326C107.904 29.441 107.184 28.6967 106.2 27.8495C104.201 26.1279 101.057 23.9265 97.9127 21.7258Z" fill="#0078BF"/>
<path d="M82.3539 21.8925C82.6302 21.7257 82.9857 21.82 83.1503 22.1055C83.316 22.3931 83.2257 22.7661 82.9485 22.938L82.9405 22.9432C80.7623 24.2568 78.5839 25.5707 76.7303 27.2206C75.8044 28.0452 74.9522 28.9584 74.138 29.9153C73.3265 30.8687 72.5314 31.893 71.7369 32.9166C71.5344 33.178 71.1658 33.2194 70.9139 33.0094C70.6619 32.7993 70.622 32.4169 70.8245 32.1555C71.6172 31.1345 72.4101 30.1127 73.2624 29.1114C74.1119 28.1129 75.0015 27.1594 75.9691 26.298C77.9038 24.5759 80.1289 23.2341 82.3539 21.8925Z" fill="#0078BF"/>
<path d="M112.381 54.6878C111.761 53.7668 110.772 53.0062 109.666 52.3629C108.516 51.6938 107.251 51.1566 106.128 50.6948C105.005 50.2324 104.022 49.8445 103.058 49.5624C102.117 49.2872 101.2 49.1154 100.192 49.0776C99.207 49.041 98.1264 49.1294 97.0791 49.3022C95.9526 49.4885 94.8679 49.7727 93.9851 50.1045C92.6914 50.5908 91.8164 51.1918 91.0774 51.6996C90.8477 51.8574 90.6299 52.007 90.4043 52.1501C89.9053 52.4662 89.4235 52.7124 88.9203 52.882C88.4093 53.0543 87.8787 53.1472 87.2897 53.1546C86.697 53.1617 86.0514 53.0824 85.365 52.9027C84.7227 52.7345 84.0415 52.4795 83.3311 52.128C82.7512 51.8411 82.1308 51.4757 81.4956 51.1021C80.6433 50.6003 79.7612 50.081 78.8829 49.7122C78.1488 49.4036 77.4124 49.1989 76.6929 49.0721C75.9697 48.9446 75.2555 48.894 74.5713 48.894C73.8906 48.894 73.2472 48.9444 72.6286 49.0539C72.008 49.1641 71.4096 49.333 70.8197 49.5698C70.2439 49.8012 69.675 50.0966 69.2077 50.5129C68.7625 50.909 68.4026 51.4242 68.2094 52.1151C67.8064 53.5575 68.0817 55.8357 68.3831 58.3295L68.4589 58.9601C68.7641 61.5004 69.0872 64.188 69.9527 65.6322C70.3594 66.3104 70.9037 66.72 71.5483 66.9558C72.2407 67.2093 73.0604 67.2761 73.9576 67.2602C74.8716 67.2443 75.8637 67.1415 76.8187 66.9783C77.7983 66.8108 78.7314 66.5801 79.4935 66.3143C80.9076 65.8217 81.7615 65.1865 82.6363 64.5354L82.7425 64.4565C83.2231 64.0994 83.7193 63.7372 84.2516 63.4179C84.7945 63.0923 85.3605 62.8236 85.9569 62.6747C86.5287 62.5319 87.1122 62.504 87.6882 62.5634C88.3144 62.6278 88.9325 62.796 89.5165 63.0307C90.1486 63.2847 90.7299 63.6123 91.3569 63.9657C91.7668 64.1965 92.1981 64.4399 92.724 64.7001C93.3339 65.002 94.0077 65.2912 94.7461 65.5661C95.4853 65.8411 96.3062 66.1096 97.2115 66.3705C98.114 66.6302 99.0968 66.8812 100.134 67.0612C101.163 67.2395 102.242 67.3478 103.342 67.3255H103.344C104.345 67.3055 105.376 67.1771 106.342 66.9926C107.501 66.7713 108.565 66.4671 109.375 66.1708C110.087 65.9103 110.585 65.6614 110.963 65.391C111.326 65.131 111.59 64.8421 111.842 64.4942C112.103 64.1332 112.35 63.7105 112.57 63.1584C112.797 62.5887 112.997 61.8817 113.155 60.9666C113.314 60.0484 113.43 58.9236 113.344 57.7872C113.262 56.6925 112.99 55.5941 112.381 54.6878ZM110.239 51.3022C111.478 52.0231 112.601 52.8967 113.339 53.9935C114.086 55.1056 114.417 56.4118 114.513 57.697C114.607 58.9404 114.48 60.1733 114.306 61.1806C114.131 62.1906 113.908 62.9784 113.652 63.6199C113.389 64.2788 113.092 64.7864 112.777 65.2217C112.453 65.6706 112.108 66.0463 111.628 66.39C111.161 66.7239 110.576 67.0202 109.765 67.317C108.911 67.6295 107.785 67.9509 106.553 68.1862C105.533 68.3809 104.438 68.5166 103.365 68.5385C102.178 68.5624 101.029 68.4481 99.9418 68.2599C98.8641 68.073 97.8405 67.8117 96.8997 67.5406C95.9768 67.2749 95.1282 66.9965 94.3517 66.7078C93.5495 66.4091 92.8396 66.1059 92.2197 65.799C91.7322 65.5578 91.2524 65.287 90.7975 65.031C90.2073 64.6983 89.6602 64.39 89.0946 64.1626C88.6034 63.9652 88.0881 63.8242 87.5738 63.7713C87.1193 63.7246 86.6647 63.7451 86.2275 63.8541C85.762 63.9703 85.2969 64.1939 84.8384 64.4689C84.3696 64.7503 83.892 65.0991 83.4256 65.4458L83.3194 65.5247C82.3768 66.2262 81.4572 66.9105 79.8648 67.4652C79.0417 67.7521 78.0447 67.9996 77.0068 68.177C76.0051 68.3482 74.955 68.4561 73.9757 68.4731C72.9502 68.4911 71.9983 68.4096 71.1583 68.102C70.2705 67.7772 69.5202 67.2121 68.9577 66.2741C67.9546 64.6003 67.615 61.7765 67.2945 59.1074L67.2187 58.4767C66.9024 55.8601 66.6134 53.4693 67.0862 51.7774C67.3506 50.8322 67.841 50.1293 68.4465 49.5902C69.0296 49.071 69.7134 48.7127 70.3978 48.4378C71.069 48.1686 71.7419 47.9776 72.4317 47.8552C73.1232 47.7328 73.8314 47.6765 74.5713 47.6765C75.3081 47.6765 76.0857 47.7324 76.8854 47.8734C77.6888 48.0151 78.5087 48.2427 79.3229 48.5848C80.2582 48.9775 81.1813 49.521 82.0731 50.046C82.6731 50.399 83.2586 50.7438 83.8355 51.0291C84.4785 51.3473 85.0855 51.5756 85.6493 51.7233C86.243 51.8788 86.788 51.9476 87.2759 51.9416C87.7364 51.9359 88.1536 51.8623 88.5579 51.726C88.97 51.5871 89.3721 51.3807 89.7944 51.1134C89.9913 50.9884 90.2053 50.8414 90.4311 50.6863C91.222 50.1429 92.1587 49.4996 93.5863 48.9628C94.534 48.6067 95.6945 48.302 96.8959 48.1035C98.0128 47.9192 99.1706 47.8251 100.233 47.8647C101.349 47.9063 102.353 48.0934 103.374 48.3922C104.371 48.684 105.392 49.0868 106.56 49.5675C107.728 50.0481 109.044 50.6072 110.239 51.3022Z" fill="#0078BF"/>
<path d="M116.573 61.3815C116.318 61.5876 115.949 61.5398 115.75 61.2745C115.552 61.0092 115.598 60.6268 115.854 60.4207L115.857 60.4211C117.296 59.2275 118.734 58.0343 119.85 57.5403C120.502 57.2518 121.062 57.1869 121.565 57.3275C122.081 57.4713 122.5 57.8167 122.861 58.3447C123.169 58.7963 123.441 59.392 123.648 60.0215C123.86 60.6682 124.01 61.366 124.067 61.9861C124.124 62.6119 124.088 63.157 123.986 63.6533C123.884 64.1475 123.716 64.5929 123.508 65.0229C123.302 65.4504 123.056 65.8645 122.742 66.2442C122.42 66.6334 122.028 66.9871 121.538 67.2827C121.092 67.5519 120.569 67.7705 120.037 67.9354C119.45 68.1177 118.839 68.2378 118.304 68.2909C117.828 68.3383 117.408 68.3326 117.101 68.276C116.89 68.2371 116.708 68.1694 116.567 68.0744C116.306 67.8991 116.174 67.655 116.196 67.3405C116.203 67.2443 116.228 67.1467 116.271 67.0496C116.394 66.7706 116.67 66.5359 117.002 66.2527C117.318 65.9835 117.703 65.6549 117.927 65.3063L117.93 65.3038C118.101 65.0374 118.192 64.736 118.218 64.4532C118.246 64.1574 118.207 63.9004 118.118 63.7464C118.075 63.6746 118.014 63.633 117.947 63.6139C117.812 63.5755 117.642 63.5957 117.484 63.6459C117.144 63.7533 116.832 64.031 116.52 64.3081L116.511 64.3152C116.263 64.5292 115.894 64.494 115.688 64.2367C115.482 63.9809 115.515 63.6008 115.76 63.3861C116.162 63.0274 116.565 62.669 117.145 62.4854C117.491 62.3756 117.888 62.3397 118.254 62.4437C118.601 62.5422 118.911 62.7553 119.125 63.128C119.333 63.495 119.433 64.0198 119.383 64.5674C119.339 65.0337 119.188 65.5321 118.903 65.9763C118.612 66.4314 118.2 66.7998 117.841 67.1067C117.952 67.1033 118.07 67.0954 118.194 67.083C118.649 67.0379 119.181 66.9323 119.702 66.7703C120.154 66.63 120.591 66.4491 120.951 66.2317C121.318 66.0102 121.612 65.7453 121.853 65.4545C122.102 65.1538 122.298 64.8232 122.463 64.4808C122.626 64.1412 122.759 63.7894 122.84 63.4011C122.919 63.015 122.947 62.5896 122.902 62.1002C122.855 61.5777 122.724 60.9781 122.538 60.4117C122.365 59.8855 122.147 59.3996 121.907 59.0487C121.705 58.7533 121.495 58.5672 121.263 58.5023C121.017 58.4337 120.706 58.482 120.309 58.658C119.328 59.092 117.954 60.2325 116.58 61.3727L116.573 61.3815Z" fill="#0078BF"/>
<path d="M83.0513 67.6614C82.9511 68.0774 82.9633 68.5493 83.0875 69.0023C83.2052 69.4321 83.4226 69.84 83.738 70.1621C84.0671 70.4983 84.5107 70.7518 85.0217 70.9163C85.572 71.0937 86.1974 71.1671 86.8437 71.1305C87.4891 71.0942 88.1538 70.9472 88.7513 70.7231C89.332 70.505 89.8421 70.216 90.1963 69.8886C90.5028 69.6056 90.6838 69.297 90.7415 68.9832C90.7991 68.6699 90.7375 68.3314 90.5589 67.9902C90.3549 67.6002 90.0056 67.2073 89.5695 66.8582C89.1202 66.4989 88.5852 66.1928 88.025 65.9892C87.4723 65.7884 86.895 65.6862 86.3385 65.6761C85.7702 65.666 85.224 65.7509 84.7489 65.923C84.2964 66.087 83.9101 66.3307 83.6162 66.6376C83.3412 66.9245 83.1456 67.2708 83.0513 67.6614ZM81.9594 69.3355C81.7798 68.6802 81.7647 67.9872 81.9144 67.3665C82.0608 66.7591 82.3629 66.2234 82.7863 65.7817C83.2052 65.3446 83.7428 65.0017 84.3639 64.7767C84.9665 64.5584 85.6511 64.4505 86.3567 64.4631C87.0369 64.4753 87.74 64.5993 88.41 64.843C89.0902 65.0903 89.7394 65.4614 90.2846 65.8974C90.8444 66.3456 91.3031 66.8697 91.5858 67.41C91.8977 68.0056 92.001 68.6195 91.8921 69.2115C91.7859 69.7887 91.4816 70.3299 90.9757 70.7969C90.5117 71.2258 89.8683 71.5951 89.1501 71.8647C88.4488 72.1279 87.6657 72.3005 86.9032 72.3435C86.1225 72.3877 85.359 72.2963 84.6779 72.0768C83.9906 71.8555 83.3831 71.5035 82.9173 71.0277C82.4489 70.5494 82.1293 69.9553 81.9594 69.3355Z" fill="#0078BF"/>
<path d="M75.7568 72.9844C75.4745 72.8204 75.374 72.4497 75.5322 72.1568C75.6903 71.8639 76.0476 71.7597 76.3299 71.9238C77.2375 72.4541 78.1455 72.9849 79.0498 73.4482C79.9564 73.9125 80.8793 74.3225 81.8326 74.6223C82.7231 74.9023 83.6582 75.0917 84.595 75.2088C85.6616 75.342 86.7169 75.3807 87.7041 75.3533C88.6347 75.3277 89.5166 75.2428 90.3691 75.1209C91.2243 74.9985 92.0472 74.8379 92.86 74.6614C93.7332 74.4721 94.5891 74.2657 95.3601 74.0478C96.0508 73.8504 96.6749 73.6475 97.1848 73.4418C97.7228 73.2248 98.1569 72.9964 98.5379 72.7626C98.9229 72.5266 99.2585 72.2813 99.5936 72.0367C99.858 71.8439 100.224 71.9099 100.41 72.1842C100.595 72.4584 100.532 72.8378 100.267 73.0306C99.9117 73.2904 99.5555 73.5509 99.1341 73.809C98.7091 74.0694 98.2207 74.3262 97.6066 74.5738C97.0364 74.8039 96.3759 75.0204 95.6675 75.2203C94.8544 75.4476 93.9779 75.6597 93.0983 75.8505C92.2603 76.0322 91.4122 76.1979 90.5297 76.3242C89.6448 76.4508 88.7208 76.5391 87.7316 76.5663C86.6816 76.5952 85.5687 76.5557 84.4575 76.4167C83.4674 76.2929 82.4656 76.0888 81.4932 75.7828C80.4628 75.4589 79.484 75.0252 78.5317 74.5374C77.5773 74.0483 76.6668 73.5163 75.7568 72.9844Z" fill="#0078BF"/>
<path d="M82.906 78.7831C82.5908 78.7111 82.3917 78.3871 82.4611 78.0602C82.5305 77.7332 82.8428 77.5266 83.1579 77.5986L83.1664 77.6C83.9407 77.7813 84.7154 77.9629 85.6156 78.065C86.0805 78.1177 86.5749 78.1506 87.0486 78.1593C87.5097 78.1679 87.9564 78.155 88.343 78.1182C88.7183 78.082 89.0494 78.0197 89.3568 77.9445C89.697 77.8605 89.967 77.7751 90.236 77.6902C90.5447 77.5931 90.8714 77.7742 90.965 78.0945C91.0586 78.4147 90.8841 78.7536 90.5753 78.8507C90.2562 78.9515 89.9361 79.0525 89.6272 79.1284H89.6247C89.284 79.2119 88.9041 79.2823 88.4486 79.3261C88.0183 79.3672 87.5295 79.3815 87.0304 79.3723C86.5088 79.3629 85.9778 79.3281 85.4919 79.2729C84.528 79.1636 83.7184 78.9738 82.9095 78.7845L82.906 78.7831Z" fill="#0078BF"/>
<path d="M98.042 70.9972C97.7572 70.8398 97.6495 70.4721 97.8012 70.1767C97.9529 69.8813 98.3073 69.7695 98.5921 69.9268C98.9671 70.1351 99.3426 70.344 99.7026 70.6164C100.087 70.907 100.433 71.2551 100.701 71.715C100.958 72.1563 101.135 72.6921 101.272 73.274C101.402 73.8269 101.493 74.4067 101.583 74.9858C101.635 75.3166 101.418 75.6288 101.099 75.6827C100.78 75.7365 100.48 75.5117 100.428 75.1809C100.34 74.6183 100.251 74.0549 100.135 73.5593C100.025 73.0925 99.8878 72.6712 99.6966 72.3426C99.5167 72.0334 99.2796 71.796 99.015 71.5961C98.7258 71.3772 98.3836 71.187 98.042 70.9972Z" fill="#0078BF"/>
<path d="M76.2165 70.8166C76.3671 70.5198 76.7213 70.4059 77.0074 70.5621C77.2935 70.7183 77.4033 71.0858 77.2527 71.3826C77.1476 71.5889 77.0425 71.7944 76.911 72.0677C76.7987 72.296 76.6823 72.5507 76.5543 72.856C76.4341 73.1431 76.3015 73.4836 76.1633 73.8504C76.0125 74.2512 75.8792 74.6152 75.7463 74.9787C75.6325 75.2925 75.2948 75.451 74.9922 75.333C74.6897 75.215 74.5369 74.8646 74.6507 74.5507C74.7991 74.1444 74.9481 73.7374 75.0721 73.4082C75.2089 73.0451 75.3458 72.6947 75.4813 72.371C75.609 72.0661 75.7363 71.7891 75.8628 71.5266C75.9657 71.3078 76.0919 71.0611 76.2165 70.8166Z" fill="#0078BF"/>
<path d="M100.844 53.5131C100.018 53.578 99.0784 53.7782 98.1879 54.0814C97.3604 54.3631 96.5824 54.7312 95.9869 55.1589C95.4393 55.5523 95.0463 55.9964 94.7757 56.4595C94.4674 56.9873 94.3126 57.5469 94.2654 58.0873C94.221 58.5946 94.2724 59.0911 94.3998 59.5876C94.5315 60.1012 94.7449 60.6165 95.0181 61.1466C95.2938 61.6813 95.6291 62.2282 96.0368 62.7238C96.4331 63.2058 96.898 63.6382 97.441 63.9582C97.9779 64.275 98.6014 64.4888 99.2621 64.6003C99.9516 64.7165 100.681 64.7209 101.396 64.6148C102.079 64.5138 102.752 64.31 103.383 64.0353C104.058 63.7412 104.679 63.3674 105.209 62.9518C105.702 62.566 106.115 62.1447 106.456 61.7023C106.818 61.2348 107.102 60.7353 107.315 60.2224C107.515 59.7478 107.648 59.2688 107.673 58.7886C107.696 58.3266 107.619 57.8554 107.401 57.3755C107.177 56.8826 106.807 56.3732 106.357 55.8942C105.858 55.3637 105.265 54.8743 104.664 54.485C104.096 54.1166 103.527 53.8417 102.913 53.6765C102.299 53.5115 101.625 53.4517 100.844 53.5131ZM97.8255 52.9255C98.8039 52.5924 99.8405 52.3722 100.757 52.3002C101.666 52.2289 102.465 52.3023 103.207 52.5017C103.949 52.7014 104.623 53.0245 105.283 53.4529C105.958 53.8907 106.628 54.4443 107.195 55.0475C107.732 55.6186 108.18 56.2393 108.46 56.8569C108.767 57.5319 108.876 58.1968 108.842 58.8503C108.809 59.485 108.641 60.1016 108.391 60.7019C108.144 61.301 107.806 61.8926 107.372 62.4572C106.971 62.9808 106.487 63.4746 105.916 63.9223C105.309 64.3983 104.601 64.8247 103.837 65.1576C103.121 65.4691 102.351 65.7013 101.561 65.8181C100.732 65.941 99.8822 65.9353 99.074 65.7991C98.2802 65.6651 97.5239 65.404 96.8634 65.0142C96.1909 64.6178 95.6243 64.0932 95.1474 63.5135C94.6814 62.9468 94.2995 62.3242 93.9863 61.7172C93.671 61.1055 93.4232 60.5045 93.2673 59.8969C93.1069 59.2718 93.0431 58.6383 93.1009 57.9778C93.1631 57.2682 93.3677 56.5313 93.7763 55.8319C94.1292 55.2277 94.6317 54.6557 95.322 54.1599C96.0153 53.662 96.8991 53.241 97.8255 52.9255Z" fill="#0078BF"/>
<path d="M74.9999 53.7687C74.4022 54.0434 73.6144 54.4665 72.8574 54.9384C72.2289 55.3302 71.6203 55.7567 71.1605 56.1592C70.6996 56.5625 70.4017 56.9306 70.2452 57.2997C70.1012 57.639 70.0744 58.0028 70.144 58.4217C70.2179 58.8672 70.3944 59.3683 70.6282 59.8751C70.907 60.4793 71.2692 61.0929 71.6431 61.6378C71.9794 62.1267 72.32 62.5516 72.7315 62.8859C73.1338 63.2129 73.6206 63.4673 74.2634 63.6309C74.9618 63.8088 75.8376 63.8817 76.6829 63.8378C77.46 63.7973 78.1979 63.6588 78.724 63.4142C79.1944 63.1958 79.4859 62.8841 79.6558 62.4909C79.8459 62.051 79.9068 61.4877 79.9011 60.8258C79.8949 60.0916 79.8037 59.2456 79.6269 58.4063C79.4686 57.6556 79.2419 56.9203 78.9474 56.291C78.6766 55.7128 78.3445 55.2174 78.001 54.8074C77.5709 54.2969 77.1307 53.9228 76.7687 53.6858C76.5008 53.5103 76.2939 53.4219 76.0781 53.4249C75.8239 53.4286 75.493 53.542 74.9999 53.7687ZM72.2568 53.8966C73.0646 53.3929 73.899 52.9443 74.5275 52.6555C75.1607 52.3645 75.6243 52.2182 76.0643 52.212C76.542 52.2051 76.9317 52.3562 77.3924 52.6583C77.8411 52.9521 78.3778 53.4051 78.8848 54.0095C79.2898 54.4948 79.6815 55.0794 80.0018 55.7632C80.3402 56.4859 80.5968 57.3139 80.7732 58.1496C80.9646 59.0584 81.0635 59.9916 81.0704 60.8162C81.0777 61.641 80.9912 62.3666 80.7239 62.9856C80.4365 63.6505 79.9594 64.17 79.2009 64.5222C78.5368 64.8308 77.6499 65.0031 76.7379 65.0507C75.7862 65.1004 74.7894 65.0155 73.9839 64.8103C73.1677 64.6025 72.5398 64.2717 72.0115 63.8421C71.4921 63.4199 71.0831 62.9145 70.6894 62.3418C70.2833 61.7503 69.8863 61.075 69.5738 60.3983C69.2935 59.7909 69.0808 59.1812 68.9885 58.626C68.8794 57.9699 68.929 57.3827 69.1721 56.8096C69.4026 56.2659 69.8033 55.7572 70.4042 55.2315C70.9123 54.787 71.5755 54.3215 72.2568 53.8966Z" fill="#0078BF"/>
<path fill-rule="evenodd" clip-rule="evenodd" d="M94.9507 56.0641C94.6972 56.5613 94.1464 57.4644 93.8869 58.2052C93.6272 58.9467 93.6596 59.5263 93.8869 60.0355C94.1147 60.5449 94.5375 60.9839 94.9926 61.3729C95.4477 61.7622 95.9348 62.1016 96.725 62.2879C97.5155 62.4743 98.6089 62.5077 99.6704 62.1057C100.732 61.7042 101.763 60.8679 102.253 59.9278C102.744 58.9879 102.696 57.9445 102.245 57.1206C101.794 56.2965 100.94 55.6923 99.6842 55.439C98.429 55.1864 96.7722 55.2855 95.9658 55.3805C95.1596 55.4758 95.2042 55.5671 94.9507 56.0641Z" fill="#0078BF"/>
<path fill-rule="evenodd" clip-rule="evenodd" d="M75.5243 55.6513C74.9723 55.8563 74.0525 56.2723 73.5002 56.8642C72.9482 57.4565 72.7628 58.2247 72.8863 59.009C73.0096 59.7931 73.4419 60.5933 74.2193 61.198C74.9969 61.8031 76.12 62.2129 77.1749 62.0748C78.2299 61.937 79.2167 61.2518 79.7013 60.6371C80.1857 60.0225 80.1675 59.4791 80.0258 58.7845C79.8843 58.0903 79.619 57.2453 79.0018 56.6659C78.3848 56.0868 77.416 55.773 76.8389 55.6129C76.2618 55.453 76.0768 55.4465 75.5243 55.6513Z" fill="#0078BF"/>
<path d="M101.362 84.872C101.399 84.5386 101.689 84.2991 102.011 84.3371C102.332 84.375 102.563 84.6767 102.526 85.0101L102.525 85.0241C102.221 87.6576 101.917 90.289 102.004 92.5663C102.048 93.716 102.191 94.7824 102.443 95.7248C102.677 96.6 103.004 97.3659 103.432 97.9876C103.983 98.7866 104.73 99.3841 105.299 99.8381C105.69 100.151 106.009 100.405 106.201 100.672C106.712 101.378 106.485 101.823 105.754 102.392C105.565 102.539 105.361 102.679 105.122 102.844C104.937 102.971 104.732 103.112 104.542 103.248C103.773 103.799 102.808 104.559 101.819 105.338C101.146 105.869 100.459 106.41 99.9351 106.811C99.1486 107.412 98.4211 107.944 97.7005 108.407C96.9735 108.874 96.2655 109.262 95.5309 109.567C94.7844 109.877 94.0092 110.102 93.2223 110.237C92.4421 110.37 91.65 110.415 90.8625 110.367C90.0629 110.317 89.2667 110.171 88.5341 109.944C87.7973 109.715 87.1186 109.403 86.5561 109.021C85.9697 108.623 85.5062 108.148 85.168 107.602C84.8253 107.05 84.6155 106.43 84.5412 105.75C84.4671 105.073 84.529 104.337 84.7188 103.647C84.9018 102.982 85.2072 102.351 85.6282 101.847C86.1061 101.274 86.6981 100.902 87.2712 100.542C87.6525 100.302 88.0251 100.068 88.309 99.7939C88.6075 99.5056 88.8253 99.1492 88.9692 98.7017C89.1234 98.2227 89.1961 97.6277 89.1961 96.8924C89.1961 96.1688 89.1263 95.3325 89.0207 94.5288C88.8998 93.609 88.7302 92.7206 88.5638 92.0854C88.4196 91.5346 88.2861 91.2065 88.1584 90.9907C88.0446 90.7986 87.9228 90.6824 87.8013 90.5671C87.5633 90.3414 87.5471 89.9579 87.7647 89.711C87.9823 89.4641 88.352 89.4473 88.59 89.673C88.7756 89.8493 88.9615 90.0262 89.1578 90.358C89.3403 90.6665 89.5208 91.0961 89.6963 91.7665C89.871 92.4337 90.0507 93.3784 90.1807 94.3673C90.2944 95.2342 90.3699 96.1288 90.3699 96.8924C90.3699 97.749 90.2763 98.4689 90.0786 99.0846C89.8706 99.7343 89.5499 100.255 89.1065 100.683C88.7448 101.033 88.3156 101.303 87.8763 101.579C87.3834 101.889 86.874 102.209 86.5131 102.641C86.2104 103.004 85.9862 103.474 85.8469 103.98C85.6976 104.522 85.6486 105.096 85.7056 105.617C85.7593 106.107 85.9092 106.552 86.1536 106.946C86.4007 107.345 86.7496 107.699 87.198 108.003C87.6658 108.321 88.2395 108.583 88.869 108.779C89.5191 108.98 90.2243 109.11 90.9312 109.154C91.6336 109.197 92.3396 109.157 93.0342 109.038C93.7355 108.918 94.4275 108.717 95.0953 108.439C95.7685 108.16 96.4181 107.804 97.0862 107.375C97.7606 106.942 98.4675 106.424 99.2426 105.831C99.9262 105.308 100.523 104.838 101.113 104.373C102.131 103.572 103.124 102.789 103.877 102.249C104.116 102.078 104.306 101.947 104.476 101.83C104.715 101.666 104.919 101.525 105.053 101.421C105.151 101.344 105.319 101.473 105.266 101.399C105.171 101.268 104.907 101.057 104.584 100.799C103.956 100.298 103.13 99.6377 102.479 98.6916C101.97 97.9524 101.585 97.0585 101.315 96.0483C101.039 95.015 100.882 93.8556 100.835 92.6137C100.743 90.2255 101.052 87.5545 101.361 84.8837L101.362 84.872Z" fill="#0078BF"/>
<path d="M97.0908 99.3245C97.2807 99.0528 97.6473 98.9918 97.9092 99.1888C98.1711 99.3857 98.2299 99.766 98.0401 100.038C97.6025 100.666 97.164 101.294 96.769 101.894C96.37 102.5 95.9951 103.106 95.6698 103.71C95.0264 104.902 94.5723 106.105 94.1186 107.308L94.117 107.31C94.0006 107.622 93.6617 107.778 93.3605 107.657C93.0593 107.536 92.9094 107.185 93.0258 106.872L93.0274 106.868C93.494 105.629 93.9609 104.391 94.6473 103.118C94.9878 102.484 95.3815 101.848 95.8015 101.209C96.2256 100.565 96.6583 99.9448 97.0908 99.3245Z" fill="#0078BF"/>
<path d="M89.5337 101.648C89.5046 101.315 89.7417 101.02 90.0631 100.99C90.3845 100.959 90.669 101.205 90.6981 101.539L91.1587 106.638C91.1878 106.971 90.9507 107.267 90.6293 107.297C90.3079 107.327 90.0234 107.081 89.9943 106.748L89.5337 101.648Z" fill="#0078BF"/>
<path d="M118.733 103.164C118.419 103.083 118.228 102.752 118.306 102.427C118.385 102.101 118.703 101.903 119.017 101.985L119.034 101.99C120.887 102.526 122.74 103.061 123.901 103.882C124.74 104.476 125.169 105.16 125.772 106.122C126.02 106.517 126.301 106.966 126.677 107.502C127.309 108.405 128.181 109.507 129.196 110.629C130.058 111.583 131.027 112.554 132.044 113.435C133.307 114.529 134.647 115.487 136.126 116.544C137.265 117.357 138.486 118.23 139.84 119.285C141.357 120.467 143.011 121.855 144.685 123.336C146.456 124.902 148.257 126.576 149.953 128.226C151.607 129.835 153.163 131.422 154.491 132.905C155.832 134.402 156.948 135.801 157.71 137.022C158.509 138.3 158.93 139.399 158.999 140.446C159.071 141.524 158.774 142.515 158.135 143.55C157.537 144.518 156.631 145.529 155.315 146.764C154.015 147.984 152.335 149.408 150.162 151.225C148.002 153.03 145.333 155.243 142.551 157.501C139.784 159.747 136.947 162.004 134.472 163.883C130.264 167.079 127.047 169.228 124.063 171.221L122.437 172.309C121.887 172.678 121.008 173.275 120.146 173.861C117.536 175.632 115.107 177.281 113.181 178.374C111.919 179.091 110.883 179.562 109.996 179.796C109.038 180.049 108.236 180.036 107.509 179.769C106.861 179.531 106.293 179.093 105.835 178.588C105.285 177.982 104.884 177.266 104.691 176.685C104.469 176.013 104.508 175.537 104.544 175.095C104.562 174.876 104.579 174.668 104.543 174.481C104.486 174.186 104.297 173.811 104.113 173.448C103.944 173.116 103.779 172.79 103.678 172.461C103.564 172.091 103.553 171.795 103.544 171.504C103.536 171.274 103.528 171.047 103.438 170.822C103.35 170.601 103.165 170.31 102.973 170.01C102.707 169.593 102.429 169.158 102.274 168.711C102.104 168.212 102.103 167.78 102.101 167.36C102.1 167.117 102.098 166.877 102.051 166.663C102.002 166.44 101.887 166.182 101.769 165.918C101.591 165.518 101.407 165.106 101.338 164.623C101.266 164.122 101.331 163.585 101.574 163.109C101.787 162.688 102.136 162.321 102.643 162.074C103.445 161.684 104.607 161.63 105.709 161.579L106.254 161.552C106.815 161.521 107.331 161.474 107.772 161.373C108.012 161.318 108.225 161.248 108.403 161.156C108.359 160.86 108.319 160.564 108.284 160.269C108.163 159.256 108.092 158.196 108.118 157.045C108.144 155.898 108.268 154.689 108.459 153.402C108.647 152.132 108.906 150.756 109.205 149.274C109.5 147.809 109.835 146.241 110.239 144.639C110.643 143.037 111.116 141.407 111.688 139.823C112.226 138.332 112.845 136.901 113.426 135.555C114.07 134.063 114.669 132.677 115.045 131.47C115.385 130.383 115.545 129.447 115.455 128.733C115.38 128.144 115.115 127.711 114.605 127.487C113.778 127.123 112.307 127.18 111.166 127.225C110.496 127.252 109.929 127.274 109.575 127.209C109.326 127.164 109.137 127.068 109.005 126.934C108.753 126.675 108.715 126.372 108.867 126.044C108.941 125.882 109.072 125.725 109.249 125.577C109.665 125.231 110.482 124.817 111.479 124.478C112.448 124.147 113.613 123.875 114.857 123.735C115.942 123.614 117.09 123.593 118.225 123.721C119.439 123.859 120.637 124.168 121.797 124.632C122.967 125.1 124.097 125.727 125.165 126.495C126.067 127.145 126.909 127.882 127.795 128.657C128.959 129.676 130.202 130.763 131.7 131.755C132.889 132.542 134.263 133.286 135.645 133.947C137.322 134.748 138.991 135.417 140.351 135.887C141.618 136.326 142.63 136.597 143.362 136.793C144.156 137.005 144.658 137.14 144.919 137.35C145.369 137.713 145.348 138.087 145.044 138.493V138.496C144.908 138.678 144.705 138.831 144.475 139.003C144.303 139.133 144.11 139.278 143.969 139.421C143.816 139.575 143.671 139.784 143.453 140.1C143.056 140.675 142.431 141.579 140.975 143.268C139.916 144.497 138.432 146.123 136.801 147.867C134.858 149.945 132.743 152.152 130.89 154.053C129.162 155.826 127.617 157.377 126.219 158.689C124.838 159.985 123.646 160.998 122.629 161.685C121.568 162.402 120.681 162.778 119.891 162.93C119.072 163.087 118.372 163.005 117.7 162.81C117.049 162.621 116.432 162.329 115.847 161.983C115.276 161.642 114.732 161.25 114.217 160.853C113.999 160.685 113.816 160.54 113.643 160.403C112.915 159.827 112.256 159.305 111.766 159.156C111.547 159.09 111.359 159.101 111.202 159.17C111.015 159.253 110.848 159.423 110.711 159.651C110.589 159.853 110.487 160.096 110.384 160.344C110.195 160.799 109.999 161.267 109.666 161.658C109.738 162.11 109.816 162.552 109.893 162.994C109.949 163.324 109.738 163.639 109.42 163.698C109.103 163.757 108.799 163.538 108.742 163.208L108.6 162.39C108.419 162.459 108.227 162.516 108.024 162.562C107.521 162.677 106.942 162.73 106.313 162.765L105.759 162.792C104.771 162.838 103.728 162.886 103.138 163.173C102.883 163.297 102.711 163.475 102.61 163.675C102.491 163.909 102.46 164.184 102.498 164.448C102.542 164.757 102.69 165.088 102.833 165.409C102.976 165.73 103.116 166.044 103.193 166.392C103.267 166.727 103.269 167.039 103.27 167.356C103.271 167.673 103.273 168 103.377 168.301C103.489 168.618 103.724 168.986 103.949 169.339C104.171 169.687 104.385 170.022 104.52 170.36C104.69 170.786 104.701 171.121 104.713 171.461C104.72 171.672 104.727 171.884 104.792 172.095C104.858 172.308 105.001 172.592 105.148 172.883C105.374 173.33 105.606 173.79 105.694 174.243C105.762 174.598 105.738 174.889 105.713 175.195C105.687 175.516 105.659 175.861 105.801 176.29C105.947 176.732 106.257 177.282 106.687 177.756C107.029 178.133 107.442 178.455 107.899 178.623C108.4 178.807 108.983 178.808 109.707 178.617C110.503 178.406 111.452 177.973 112.622 177.309C114.47 176.259 116.897 174.612 119.504 172.843C120.145 172.408 120.802 171.961 121.8 171.291L123.43 170.198C126.401 168.214 129.602 166.076 133.78 162.904C136.271 161.012 139.093 158.767 141.831 156.545C144.553 154.335 147.236 152.111 149.428 150.278C151.606 148.457 153.282 147.038 154.531 145.865C155.765 144.707 156.608 143.771 157.149 142.894C157.649 142.083 157.883 141.327 157.83 140.527C157.775 139.695 157.415 138.781 156.729 137.683C156.007 136.527 154.933 135.183 153.634 133.733C152.323 132.269 150.786 130.701 149.15 129.11C147.467 127.473 145.68 125.811 143.924 124.258C142.257 122.784 140.623 121.412 139.139 120.256C137.824 119.231 136.602 118.357 135.461 117.543C133.952 116.464 132.586 115.488 131.292 114.367C130.241 113.457 129.238 112.451 128.343 111.461C127.287 110.294 126.383 109.151 125.727 108.215C125.358 107.688 125.057 107.207 124.79 106.783C124.264 105.942 123.888 105.344 123.241 104.886C122.24 104.178 120.489 103.671 118.736 103.164L118.733 103.164ZM109.397 159.659C109.494 159.43 109.595 159.209 109.716 159.009C109.978 158.574 110.324 158.238 110.744 158.052C111.145 157.875 111.599 157.84 112.094 157.991C112.799 158.207 113.538 158.792 114.353 159.437L114.914 159.878C115.396 160.25 115.903 160.616 116.427 160.927H116.43C116.943 161.231 117.472 161.484 118.011 161.64C118.53 161.79 119.065 161.854 119.68 161.736C120.323 161.612 121.069 161.291 121.991 160.667C122.959 160.013 124.104 159.04 125.436 157.79C126.751 156.556 128.299 154.999 130.065 153.187C131.976 151.227 134.095 149.017 135.962 147.02C137.597 145.272 139.072 143.656 140.104 142.459C141.492 140.849 142.108 139.958 142.499 139.392C142.749 139.031 142.914 138.792 143.152 138.551C143.315 138.386 143.487 138.248 143.649 138.123L143.073 137.967C142.325 137.767 141.29 137.49 139.985 137.038C138.573 136.55 136.856 135.863 135.155 135.05C133.739 134.374 132.319 133.603 131.072 132.778C129.492 131.732 128.225 130.623 127.039 129.584C126.171 128.825 125.347 128.104 124.5 127.494C123.506 126.779 122.457 126.197 121.375 125.764C120.312 125.338 119.214 125.055 118.101 124.929C117.053 124.811 115.989 124.83 114.981 124.943C113.826 125.073 112.743 125.326 111.841 125.634C111.473 125.759 111.138 125.892 110.851 126.023L111.125 126.012C112.379 125.963 113.998 125.9 115.064 126.369C116 126.782 116.485 127.546 116.615 128.576C116.729 129.481 116.55 130.592 116.16 131.841C115.764 133.109 115.152 134.526 114.494 136.049C113.918 137.383 113.305 138.802 112.784 140.247C112.229 141.783 111.767 143.375 111.371 144.943C110.976 146.511 110.645 148.064 110.351 149.521C110.061 150.959 109.808 152.307 109.619 153.582C109.432 154.841 109.312 156.003 109.287 157.074C109.267 157.972 109.313 158.828 109.397 159.659Z" fill="#0078BF"/>
<path d="M116.213 178.279C116.108 177.961 116.271 177.615 116.578 177.506C116.884 177.397 117.218 177.566 117.323 177.884L117.329 177.904C118.995 182.957 120.66 188.008 121.904 192.797C122.524 195.184 123.042 197.523 123.512 199.887C123.99 202.284 124.404 204.629 124.821 207.058C125.235 209.465 125.66 211.998 126.066 214.675C126.463 217.29 126.824 219.932 127.104 222.527C127.263 223.99 127.404 225.528 127.543 227.049C127.873 230.66 128.196 234.179 128.862 237.502C129.329 239.836 129.969 242.081 130.804 244.454C131.644 246.841 132.682 249.356 133.941 252.22C134.718 253.986 135.57 255.866 136.435 257.774C138.42 262.15 140.472 266.676 141.764 270.157C142.702 272.685 143.237 274.653 143.559 276.628C143.881 278.594 143.991 280.562 144.081 283.1C144.136 284.641 144.185 286.426 144.236 288.305C144.348 292.441 144.473 297.042 144.721 300.795C144.825 302.368 144.943 303.706 145.05 304.922C145.336 308.179 145.549 310.608 145.145 312.643C144.881 313.973 144.359 315.111 143.687 316.08C142.896 317.218 141.899 318.119 140.873 318.818C139.855 319.513 138.791 320.017 137.888 320.164C136.943 320.318 136.146 320.103 135.665 319.371C135.157 318.601 135.131 317.35 135.097 315.684C135.073 314.536 135.045 313.173 134.852 311.671C134.625 309.911 134.167 307.934 133.507 305.857C132.853 303.8 132.005 301.657 130.989 299.538C129.878 297.218 128.554 294.901 127.203 292.535C126.057 290.529 124.89 288.488 123.802 286.352C122.544 283.884 121.4 281.307 120.502 278.736C119.699 276.439 119.092 274.15 118.773 271.951C118.325 268.852 118.448 265.945 118.559 263.326C118.614 262.019 118.666 260.784 118.641 259.655C118.604 258.001 118.399 256.53 118.005 255.099C117.611 253.666 117.026 252.272 116.229 250.772C115.137 248.718 113.641 246.456 111.986 243.954C111.185 242.74 110.345 241.47 109.495 240.139C108.094 237.946 106.663 235.582 105.319 233.17C104.142 231.06 103.036 228.921 102.08 226.839C100.801 224.052 99.777 221.34 98.7457 218.607C98.118 216.944 97.4872 215.273 96.8218 213.639C95.7073 210.903 94.4056 208.039 93.2991 205.605C92.6209 204.114 92.0154 202.782 91.5758 201.751C90.9566 200.297 90.6192 199.336 90.6157 198.285C90.6124 197.244 90.9428 196.206 91.6574 194.611C92.2325 193.328 93.07 191.653 93.847 190.098L94.1342 189.523C93.4617 190.403 92.7546 191.324 92.1241 192.097C91.0994 193.353 90.2706 194.223 89.4009 194.766C88.4838 195.338 87.5552 195.536 86.3733 195.417C85.2596 195.304 83.9375 194.904 82.843 194.574C82.5848 194.496 82.3489 194.417 82.1424 194.345C82.6376 194.843 83.3263 195.472 84.0531 196.137C84.3436 196.402 84.6431 196.676 85.1796 197.176C86.2003 198.126 87.1566 199.064 87.9826 200.126C88.8247 201.208 89.5302 202.414 90.0277 203.879C90.5199 205.329 90.8053 207.021 90.9402 208.989C91.0726 210.923 91.0595 213.136 90.9561 215.659C90.8503 218.236 90.6492 221.137 90.3782 223.969C90.1207 226.659 89.8004 229.284 89.4384 231.51C89.2035 232.956 88.9447 234.264 88.6996 235.502C88.1891 238.084 87.7384 240.362 87.653 243.273C87.59 245.426 87.7235 247.939 87.9582 250.628C88.1893 253.276 88.5311 256.184 88.8797 259.092L88.9569 259.734C89.6254 265.297 90.2861 270.797 90.1366 275.226C90.0581 277.554 89.756 279.576 89.1727 281.592C88.5907 283.603 87.7308 285.604 86.5345 287.897C85.416 290.042 83.9981 292.449 82.589 294.841C81.0305 297.488 79.4815 300.118 78.3721 302.336C77.3293 304.422 76.6694 306.155 76.1924 307.816C75.7111 309.492 75.4141 311.089 75.0989 312.895L74.9155 313.953C74.3151 317.426 73.6307 321.385 72.6552 323.779C72.3654 324.491 72.048 325.07 71.7197 325.524C71.2803 326.131 70.8104 326.53 70.3464 326.739C69.8172 326.978 69.2966 326.98 68.8249 326.774C68.6803 326.71 68.5421 326.627 68.4124 326.526C67.497 325.814 67.0224 324.202 66.4985 322.42C66.4025 322.094 66.3045 321.761 66.1827 321.366C65.8953 320.436 65.5781 319.523 65.2709 318.64C64.8766 317.505 64.4969 316.413 64.23 315.451C63.9741 314.528 63.8053 313.686 63.8224 312.286C63.8386 310.937 64.0329 309.07 64.4982 306.08C65.0365 302.62 65.933 297.675 66.8658 292.528C67.5299 288.863 68.2132 285.094 68.8247 281.529C69.5129 277.518 70.0589 274.047 70.4741 271.091C70.9111 267.982 71.2078 265.415 71.3779 263.364C71.5432 261.376 71.588 259.892 71.5414 258.654C71.495 257.428 71.3575 256.419 71.157 255.38C71.0326 254.734 70.8884 254.096 70.7432 253.452C70.3943 251.907 70.037 250.324 69.9445 248.71C69.9059 248.037 69.9157 247.355 69.9256 246.65C69.9483 245.072 69.9727 243.366 69.4016 241.256C69.1197 240.214 68.6934 239.067 68.2041 237.749C67.2322 235.132 66.015 231.854 65.1425 227.374C64.5354 224.255 64.0992 220.579 63.8026 216.773C63.4551 212.317 63.2959 207.643 63.2752 203.46C63.2562 199.59 63.3553 196.161 63.5471 193.065C63.7401 189.954 64.0269 187.165 64.3806 184.595C64.7295 182.061 65.1447 179.737 65.616 177.621C65.8398 176.616 66.076 175.66 66.3237 174.751C65.2305 175.459 64.5314 174.798 62.8046 173.166C62.4632 172.843 62.0776 172.479 61.7311 172.161C60.7998 171.305 59.5407 170.204 58.1226 168.964C56.132 167.223 53.822 165.203 51.5005 163.048C49.488 161.181 47.5079 159.247 45.6692 157.342C43.9199 155.53 42.2907 153.735 40.8738 152.038C39.4329 150.312 38.2104 148.684 37.2296 147.208C36.2107 145.673 35.4477 144.295 34.9658 143.128C34.4528 141.886 34.2429 140.859 34.5965 139.65C34.9294 138.512 35.7724 137.268 37.364 135.562C39.5906 133.177 43.2896 129.856 46.4313 127.036C47.6172 125.971 48.7211 124.98 49.7083 124.07C51.7042 122.231 52.7472 121.146 53.5224 120.339C54.0551 119.785 54.4657 119.358 54.9634 118.913C55.5837 118.358 56.3187 117.795 57.0637 117.225C57.7961 116.664 58.5395 116.094 59.1546 115.551C59.7743 115.003 60.3037 114.451 60.8295 113.834C61.3585 113.214 61.8877 112.524 62.5027 111.708L62.7625 111.364C63.9768 109.75 65.4705 107.767 66.9217 106.4C67.7255 105.644 68.5173 105.074 69.4448 104.624C70.3624 104.179 71.3981 103.858 72.6976 103.597C73.9647 103.342 75.5006 103.14 77.17 102.966C78.8876 102.786 80.6384 102.642 82.3879 102.498C82.7106 102.472 82.9932 102.723 83.0184 103.057C83.0437 103.392 82.8024 103.685 82.4797 103.711C80.6712 103.86 78.8627 104.008 77.2845 104.174C75.6583 104.344 74.1596 104.541 72.9176 104.791C71.7091 105.034 70.7598 105.325 69.9398 105.723C69.1303 106.115 68.4301 106.621 67.7104 107.299C66.3238 108.605 64.8679 110.538 63.6842 112.11L63.4245 112.455C62.7984 113.285 62.2577 113.991 61.7052 114.638C61.1496 115.289 60.5838 115.879 59.9109 116.473C59.2368 117.069 58.4932 117.638 57.7606 118.2C57.0329 118.757 56.3152 119.307 55.729 119.831C55.2646 120.246 54.8673 120.66 54.3523 121.195C53.5563 122.023 52.4848 123.138 50.4876 124.979C49.6142 125.784 48.4478 126.831 47.1969 127.954C44.0601 130.77 40.3668 134.086 38.2028 136.406V136.408C36.7483 137.968 35.9902 139.062 35.7152 140.002C35.4613 140.87 35.6351 141.664 36.0432 142.652C36.4952 143.746 37.2196 145.053 38.1926 146.518C39.1503 147.96 40.3464 149.552 41.7588 151.244C43.1559 152.918 44.765 154.69 46.4943 156.481C48.3305 158.384 50.2947 160.302 52.2799 162.145C54.5316 164.234 56.8663 166.276 58.8789 168.036C60.2702 169.253 61.5053 170.333 62.506 171.252C62.9727 171.681 63.3018 171.992 63.5933 172.268C64.8633 173.468 65.3689 173.946 65.7287 173.705C66.0887 173.463 66.5271 172.844 66.9925 172.043C67.1244 171.816 67.2573 171.576 67.3906 171.325C67.7113 170.425 68.0633 169.532 68.4117 168.648C69.182 166.694 69.9361 164.782 70.479 162.295C70.4553 161.966 70.4085 161.652 70.3464 161.357C70.2095 160.709 70.0011 160.155 69.7999 159.719C69.6229 159.335 69.463 159.06 69.2782 158.928C69.1316 158.823 68.9152 158.801 68.5767 158.876C68.1639 158.967 67.6011 159.196 67.0033 159.44C66.2146 159.761 65.3678 160.107 64.6004 160.248C63.8384 160.389 63.1696 160.331 62.4867 160.005C61.8458 159.7 61.2186 159.16 60.5031 158.324C59.8235 157.53 59.0561 156.461 58.2441 155.225C57.4379 153.999 56.5809 152.598 55.7175 151.134C55.3067 150.438 54.9973 149.906 54.6895 149.376C53.3254 147.031 51.9816 144.721 50.8372 143.275C49.9744 142.186 49.2028 141.56 48.7399 141.185C48.2857 140.816 48.0211 140.602 48.0415 140.19C48.0721 139.596 48.5013 139.513 49.2418 139.368C49.7546 139.267 50.5216 139.117 51.4278 138.763C52.2806 138.429 53.2713 137.912 54.3184 137.294C55.3861 136.665 56.5008 135.939 57.5858 135.2C58.6644 134.465 59.7263 133.707 60.6934 132.948C61.6358 132.21 62.4648 131.486 63.092 130.81C64.311 129.496 64.8089 128.303 65.512 126.617L65.5355 126.556C65.9201 125.639 66.3599 124.59 66.7569 123.704C67.1827 122.754 67.5966 121.899 67.926 121.377C68.1748 120.982 68.4101 120.73 68.614 120.618C68.869 120.478 69.1121 120.481 69.3379 120.622C69.5235 120.737 69.6424 120.924 69.6923 121.18C69.7476 121.465 69.7107 121.928 69.561 122.536C69.4049 123.171 69.1128 124.04 68.8045 124.957C68.4592 125.984 68.0916 127.075 67.8843 127.95C67.7017 128.72 67.645 129.317 67.6949 129.892C67.7448 130.471 67.908 131.063 68.1626 131.812C68.3922 132.487 68.7116 133.323 69.0695 134.262C69.5078 135.41 70.0059 136.715 70.5056 138.173C70.9525 139.476 71.3906 140.877 71.7541 142.497C72.1176 144.115 72.4044 145.947 72.5474 148.108C72.6925 150.301 72.6896 152.838 72.5417 155.336C72.3997 157.735 72.1236 160.104 71.7164 162.11L71.6592 162.385C71.6789 162.788 71.6685 163.211 71.6188 163.651C71.5146 164.571 71.2384 165.552 70.8618 166.57C70.4925 167.569 70.0272 168.604 69.5337 169.655C69.1875 170.393 68.8258 171.141 68.4616 171.83L68.3547 172.137C67.7692 173.839 67.2331 175.758 66.7578 177.892C66.294 179.974 65.8848 182.265 65.5406 184.766C65.1906 187.308 64.9072 190.065 64.7164 193.141C64.5248 196.233 64.4257 199.638 64.4445 203.456C64.4649 207.581 64.6242 212.217 64.9719 216.678C65.2665 220.459 65.6956 224.089 66.2887 227.136C67.1402 231.508 68.3385 234.735 69.2953 237.311C69.7988 238.667 70.2373 239.848 70.5296 240.928C71.1446 243.2 71.1187 244.999 71.0949 246.664C71.0856 247.335 71.0763 247.983 71.1138 248.639C71.1998 250.142 71.5465 251.677 71.8849 253.176C72.0358 253.845 72.1853 254.508 72.3077 255.142C72.5168 256.227 72.661 257.291 72.7107 258.607C72.7597 259.912 72.7149 261.444 72.5472 263.464C72.3764 265.523 72.0766 268.113 71.6341 271.262C71.2125 274.262 70.6649 277.748 69.9802 281.739C69.4098 285.064 68.7029 288.963 68.0165 292.751C67.0823 297.906 66.1847 302.857 65.6537 306.27C65.1975 309.202 65.0072 311.014 64.9917 312.3C64.9766 313.536 65.1281 314.289 65.3581 315.118C65.6293 316.096 65.9933 317.142 66.3714 318.231C66.6873 319.139 67.0133 320.077 67.297 320.995C67.3955 321.314 67.5077 321.695 67.6172 322.068C68.0823 323.65 68.5037 325.081 69.1137 325.556C69.1678 325.598 69.2232 325.632 69.2787 325.656C69.4528 325.732 69.6579 325.726 69.8788 325.626C70.1654 325.497 70.4735 325.226 70.7842 324.796C71.0579 324.418 71.3269 323.925 71.5778 323.309C72.5033 321.037 73.1753 317.149 73.7648 313.739L73.9483 312.681C74.2728 310.822 74.5779 309.179 75.0692 307.468C75.5649 305.743 76.2498 303.943 77.3315 301.779C78.4617 299.519 80.0209 296.872 81.5897 294.208C82.9872 291.835 84.3938 289.448 85.5027 287.322C86.6618 285.1 87.4922 283.17 88.0496 281.244C88.6051 279.324 88.8926 277.401 88.9673 275.188C89.113 270.872 88.4568 265.408 87.7925 259.881L87.7153 259.239C87.3731 256.384 87.0362 253.514 86.7938 250.738C86.5549 248.002 86.4192 245.441 86.4837 243.239C86.5724 240.22 87.0324 237.895 87.5534 235.26C87.7921 234.054 88.0442 232.78 88.2829 231.311C88.6428 229.096 88.96 226.5 89.2137 223.851C89.4826 221.041 89.6822 218.165 89.7868 215.611C89.8882 213.141 89.9009 210.972 89.7709 209.075C89.6434 207.212 89.3779 205.623 88.9228 204.284C88.4736 202.961 87.8342 201.869 87.0701 200.887C86.2899 199.883 85.3765 198.988 84.4002 198.079L83.2782 197.05C82.0878 195.962 80.9959 194.964 80.5654 194.355C80.1935 193.828 80.1595 193.392 80.5779 193.074C81.0001 192.753 81.9618 193.044 83.1686 193.408C84.2157 193.725 85.4808 194.107 86.4833 194.209C87.4004 194.301 88.1112 194.154 88.8003 193.724C89.5367 193.264 90.2834 192.473 91.2298 191.313C91.8959 190.496 92.659 189.497 93.3721 188.565C94.7004 186.827 95.8693 185.298 96.3749 185.319H96.3774C96.7866 185.338 96.9902 185.564 96.9727 186.019C96.9527 186.524 95.9773 188.474 94.8876 190.654C94.1191 192.192 93.2909 193.849 92.7211 195.12C92.0793 196.552 91.7823 197.455 91.785 198.285C91.7878 199.107 92.0913 199.952 92.6488 201.26C93.1002 202.319 93.6937 203.625 94.3584 205.087C95.4589 207.508 96.754 210.357 97.8993 213.168C98.605 214.901 99.2227 216.537 99.8369 218.165C100.856 220.865 101.868 223.546 103.139 226.316C104.09 228.387 105.18 230.495 106.332 232.561C107.661 234.947 109.081 237.29 110.472 239.468C111.318 240.795 112.155 242.06 112.954 243.269C114.625 245.797 116.136 248.083 117.256 250.188C118.097 251.769 118.715 253.243 119.133 254.766C119.552 256.289 119.771 257.86 119.81 259.631C119.836 260.81 119.784 262.058 119.728 263.379C119.62 265.936 119.5 268.774 119.933 271.77C120.241 273.894 120.827 276.105 121.603 278.323C122.48 280.834 123.602 283.361 124.838 285.786C125.906 287.882 127.069 289.917 128.211 291.917C129.57 294.295 130.902 296.627 132.039 299.001C133.083 301.18 133.954 303.376 134.621 305.476C135.3 307.613 135.774 309.665 136.011 311.514C136.212 313.077 136.242 314.479 136.266 315.66C136.296 317.117 136.319 318.211 136.632 318.687C136.821 318.974 137.213 319.046 137.709 318.965C138.442 318.846 139.343 318.411 140.231 317.805C141.15 317.179 142.039 316.378 142.737 315.371C143.319 314.533 143.771 313.549 143.999 312.401C144.369 310.537 144.162 308.185 143.885 305.031C143.773 303.75 143.649 302.341 143.552 300.876C143.306 297.156 143.18 292.512 143.066 288.338C143.016 286.48 142.968 284.715 142.912 283.143C142.824 280.661 142.716 278.738 142.404 276.827C142.093 274.925 141.578 273.028 140.673 270.59C139.401 267.165 137.355 262.651 135.376 258.287C134.504 256.365 133.645 254.47 132.877 252.725C131.602 249.826 130.553 247.281 129.704 244.867C128.85 242.441 128.195 240.143 127.716 237.749C127.039 234.371 126.713 230.813 126.378 227.163C126.245 225.703 126.109 224.227 125.94 222.66C125.658 220.049 125.301 217.431 124.911 214.861C124.53 212.353 124.097 209.773 123.666 207.267C123.239 204.783 122.82 202.412 122.366 200.129C121.906 197.814 121.393 195.503 120.772 193.11C119.536 188.352 117.878 183.325 116.221 178.298L116.213 178.279ZM70.9716 159.46C71.1535 158.125 71.2875 156.702 71.3724 155.265C71.5175 152.818 71.5201 150.335 71.3782 148.189C71.2402 146.102 70.9632 144.334 70.6128 142.772C70.2632 141.211 69.8367 139.849 69.4007 138.577C68.9238 137.186 68.4208 135.869 67.9783 134.709C67.6243 133.781 67.3085 132.954 67.0577 132.216C66.7749 131.385 66.5919 130.708 66.5305 129.997C66.4684 129.281 66.5336 128.563 66.7474 127.66C66.9665 126.736 67.3442 125.613 67.6995 124.557L67.7984 124.263C67.3748 125.21 66.9645 126.188 66.6112 127.035L66.5877 127.097C65.8316 128.904 65.298 130.183 63.9357 131.652C63.2573 132.383 62.383 133.148 61.3995 133.919C60.4401 134.671 59.3509 135.448 58.2277 136.213C57.1112 136.974 55.9721 137.716 54.8959 138.35C53.7992 138.997 52.7539 139.542 51.8403 139.899C51.021 140.22 50.3177 140.386 49.7857 140.496C50.2869 140.915 50.9776 141.542 51.7403 142.505C52.9535 144.037 54.3133 146.375 55.6937 148.749C56.0683 149.393 56.4449 150.04 56.7169 150.502C57.5683 151.945 58.4144 153.328 59.2116 154.541C60.0027 155.745 60.7404 156.775 61.3787 157.52C61.9815 158.225 62.4876 158.669 62.9751 158.901C63.4176 159.113 63.8694 159.147 64.3986 159.05C65.0549 158.928 65.8431 158.607 66.577 158.308C67.2205 158.046 67.8268 157.798 68.3336 157.687C69.0187 157.536 69.52 157.627 69.9432 157.929C70.3284 158.204 70.5935 158.63 70.8543 159.195L70.9716 159.46ZM49.2758 140.275C49.2389 140.153 49.2199 140.075 49.2108 140.252C49.2055 140.361 49.2303 140.324 49.2758 140.275Z" fill="#0078BF"/>
<path d="M88.1703 134.755C87.9981 134.489 88.0556 134.127 88.3053 133.932C88.5635 133.732 88.9301 133.786 89.1237 134.054L89.145 134.081C89.7268 134.986 90.3092 135.892 91.4406 136.642C92.0183 137.025 92.7556 137.383 93.5682 137.683C94.3884 137.987 95.2729 138.227 96.1361 138.373C96.9956 138.518 97.8399 138.572 98.6801 138.519C99.5151 138.466 100.348 138.305 101.189 138.023C102.017 137.745 102.861 137.344 103.665 136.866C104.499 136.37 105.285 135.791 105.962 135.18C107.291 133.981 108.215 132.636 109.137 131.293C109.316 131.011 109.68 130.936 109.95 131.122C110.22 131.309 110.292 131.687 110.113 131.967L110.101 131.982C109.132 133.394 108.163 134.807 106.732 136.098C106 136.76 105.15 137.385 104.248 137.922C103.383 138.436 102.463 138.871 101.546 139.179C100.609 139.494 99.6801 139.672 98.7488 139.732C97.8226 139.791 96.8931 139.732 95.948 139.572C95.0057 139.412 94.0504 139.154 93.1739 138.83C92.2925 138.503 91.4749 138.104 90.8125 137.665C89.4622 136.769 88.815 135.763 88.1683 134.756L88.1703 134.755Z" fill="#0078BF"/>
<path d="M80.018 133.9C80.3356 133.836 80.6436 134.051 80.7055 134.381C80.7674 134.71 80.56 135.03 80.2424 135.094C77.8699 135.576 75.497 136.057 73.7371 136.206C72.8355 136.282 72.0903 136.271 71.4624 136.195C70.8099 136.116 70.2826 135.967 69.8382 135.774C69.382 135.575 69.0078 135.326 68.694 135.045C68.3812 134.764 68.1346 134.455 67.9286 134.134C67.5364 133.521 67.3004 132.877 67.0649 132.234L67.0602 132.223C66.9489 131.908 67.1048 131.559 67.4087 131.443C67.7125 131.328 68.0494 131.489 68.1608 131.805L68.163 131.811C68.3728 132.386 68.5844 132.962 68.9053 133.463C69.0579 133.701 69.2374 133.927 69.4596 134.127C69.6803 134.325 69.9517 134.503 70.292 134.652C70.6437 134.805 71.0665 134.923 71.5954 134.987C72.149 135.054 72.8191 135.063 73.6452 134.993C75.3411 134.85 77.6798 134.375 80.018 133.9Z" fill="#0078BF"/>
<path d="M54.6577 120.761C54.6741 120.426 54.9493 120.168 55.272 120.185C55.5947 120.203 55.8433 120.488 55.8269 120.823C55.7828 121.688 55.7387 122.554 55.7695 123.4C55.7994 124.227 55.9019 125.052 56.1474 125.872C56.371 126.619 56.7154 127.37 57.1011 128.054C57.5691 128.884 58.0979 129.614 58.5472 130.121C58.936 130.56 59.2523 130.819 59.5317 130.986C59.8019 131.147 60.0707 131.238 60.3395 131.329C60.6471 131.433 60.8155 131.776 60.7154 132.095C60.6154 132.414 60.2847 132.589 59.9771 132.485C59.6571 132.377 59.3366 132.268 58.9493 132.037C58.5714 131.811 58.1606 131.48 57.6853 130.944C57.1898 130.384 56.6077 129.58 56.0924 128.667C55.6642 127.908 55.2804 127.07 55.0287 126.229C54.7499 125.297 54.6339 124.369 54.6002 123.443C54.5672 122.536 54.6124 121.648 54.6577 120.761Z" fill="#0078BF"/>
<path d="M138.525 120.581C138.679 120.287 139.035 120.179 139.318 120.339C139.602 120.499 139.706 120.868 139.552 121.162C139.133 121.956 138.714 122.751 138.302 123.489C137.87 124.261 137.424 125.017 136.949 125.736C136.485 126.438 135.986 127.115 135.49 127.726C134.973 128.365 134.466 128.922 134.014 129.353C133.095 130.228 132.383 130.618 131.672 131.008C131.386 131.165 131.032 131.053 130.88 130.758C130.729 130.462 130.836 130.095 131.121 129.937L131.127 129.933C131.77 129.581 132.414 129.227 133.22 128.459C133.648 128.051 134.12 127.533 134.596 126.946C135.056 126.378 135.53 125.735 135.981 125.051C136.441 124.356 136.872 123.626 137.288 122.88C137.724 122.1 138.125 121.34 138.525 120.581Z" fill="#0078BF"/>
<path d="M106.431 103.075C106.171 103.271 105.805 103.212 105.615 102.941C105.426 102.671 105.483 102.292 105.744 102.095C106.02 101.886 106.296 101.677 106.479 101.452C106.611 101.29 106.695 101.106 106.681 100.883C106.666 100.649 106.557 100.316 106.447 99.9841C106.217 99.2842 105.986 98.5832 106.301 97.9742C106.536 97.5214 107.025 97.2605 107.635 97.1305C108.255 96.9982 109.029 96.9911 109.747 97.038C110.403 97.081 111.022 97.1687 111.546 97.2957C112.083 97.4257 112.537 97.6024 112.856 97.8221C113.321 98.1417 113.482 98.5041 113.609 98.7893C113.633 98.8441 113.578 98.8328 113.616 98.8614C113.659 98.894 113.689 98.8232 113.881 98.8146C114.15 98.8029 114.504 98.7873 114.97 98.8179C115.532 98.8552 116.266 98.9624 116.936 99.1167C117.527 99.2525 118.077 99.4296 118.439 99.6351C119.128 100.026 119.349 100.508 118.96 101.165C118.743 101.53 118.225 101.928 117.332 102.39C116.019 103.072 113.803 103.968 111.448 104.92L109.853 105.567C108.403 106.158 106.971 106.755 105.64 107.36C104.31 107.965 103.066 108.584 101.981 109.227C101.378 109.585 100.817 109.954 100.276 110.31C98.8155 111.27 97.485 112.146 95.7002 112.585C94.4866 112.885 93.0806 112.972 91.6643 112.873C90.2242 112.772 88.7644 112.475 87.4795 112.012C86.3 111.587 85.2685 111.021 84.4314 110.418C83.4316 109.7 82.6943 108.918 82.2949 108.251C81.7189 107.29 81.795 106.59 81.8708 105.887C81.8963 105.652 81.9218 105.416 81.9096 105.191C81.8968 104.954 81.838 104.67 81.7783 104.38C81.6173 103.599 81.4481 102.777 81.8571 101.94C82.1033 101.436 82.5508 100.985 83.0776 100.595C83.7219 100.119 84.4951 99.7253 85.1381 99.4474C85.6839 99.2115 86.1503 99.0539 86.5243 98.9674C87.0175 98.8535 87.4003 98.8655 87.6494 98.9851C88.1014 99.2021 88.1883 99.5725 88.0928 100.019C88.0433 100.252 87.9393 100.475 87.8357 100.698C87.6953 100.999 87.3451 101.126 87.0541 100.981C86.7631 100.835 86.6409 100.472 86.7813 100.17L86.7913 100.148L86.7762 100.152C86.475 100.222 86.0769 100.358 85.5874 100.57C85.0074 100.82 84.3159 101.171 83.7563 101.585C83.3706 101.87 83.0534 102.178 82.9026 102.487C82.6804 102.942 82.8055 103.55 82.9246 104.128C82.9931 104.461 83.0605 104.787 83.0789 105.125C83.0967 105.452 83.0658 105.737 83.0352 106.02C82.9818 106.514 82.9286 107.006 83.2899 107.609C83.6135 108.15 84.2349 108.8 85.0964 109.419C85.8551 109.965 86.7915 110.479 87.8645 110.866C89.0471 111.292 90.3998 111.566 91.7423 111.66C93.0438 111.751 94.3286 111.673 95.4296 111.401C97.0241 111.008 98.2748 110.185 99.6477 109.283C100.2 108.919 100.772 108.543 101.399 108.172H101.402C102.525 107.507 103.806 106.868 105.172 106.247C106.539 105.625 107.978 105.026 109.427 104.435L111.027 103.788C113.359 102.845 115.554 101.957 116.81 101.306C117.32 101.041 117.653 100.835 117.832 100.674C117.567 100.536 117.148 100.408 116.685 100.301C116.081 100.162 115.413 100.065 114.896 100.031C114.479 100.003 114.165 100.017 113.927 100.028C113.479 100.047 113.209 100.059 112.923 99.841C112.718 99.6848 112.64 99.5067 112.545 99.2937C112.481 99.1492 112.399 98.9654 112.21 98.8354C112.011 98.6987 111.687 98.5786 111.281 98.4801C110.816 98.3676 110.263 98.2896 109.674 98.251C109.039 98.2093 108.37 98.2125 107.868 98.3195C107.585 98.3798 107.382 98.4562 107.333 98.5498C107.26 98.6923 107.408 99.1434 107.557 99.5939C107.691 100.001 107.825 100.409 107.85 100.807C107.887 101.394 107.689 101.849 107.373 102.237C107.109 102.562 106.77 102.819 106.431 103.075Z" fill="#0078BF"/>
<path d="M113.598 98.857C113.901 98.739 114.239 98.8975 114.352 99.2113C114.466 99.5252 114.313 99.8756 114.011 99.9936C113.69 100.119 113.369 100.246 113.061 100.391C112.755 100.536 112.44 100.709 112.107 100.938C111.483 101.367 110.796 101.996 110.128 102.608L109.925 102.796C109.549 103.139 109.177 103.474 108.767 103.8C108.359 104.125 107.929 104.426 107.448 104.689C106.509 105.204 105.408 105.558 104.308 105.912L104.298 105.914C103.99 106.011 103.663 105.83 103.569 105.51C103.476 105.189 103.65 104.851 103.959 104.753L103.964 104.752C105.009 104.415 106.054 104.079 106.903 103.614C107.318 103.387 107.695 103.122 108.056 102.835C108.415 102.55 108.777 102.222 109.15 101.882L109.353 101.697C110.057 101.055 110.781 100.393 111.46 99.9248C111.844 99.6609 112.213 99.4584 112.575 99.2877C112.935 99.1177 113.267 98.987 113.598 98.857Z" fill="#0078BF"/>
<path d="M103.876 146.447C104.109 146.214 104.479 146.222 104.703 146.463C104.928 146.705 104.92 147.089 104.687 147.322C103.315 148.692 101.942 150.063 100.639 151.387C99.3295 152.717 98.0753 154.015 96.9328 155.246C94.6519 157.705 92.8155 159.901 90.9802 162.096L90.9733 162.104C90.7608 162.356 90.3911 162.381 90.148 162.161C89.9049 161.94 89.8803 161.557 90.0928 161.305L90.0954 161.302C91.943 159.092 93.7918 156.881 96.0891 154.405C97.2378 153.166 98.4998 151.86 99.8181 150.521C101.142 149.176 102.509 147.811 103.876 146.447Z" fill="#0078BF"/>
<path d="M74.1551 148.825C73.9703 148.551 74.0351 148.172 74.2995 147.981C74.5639 147.789 74.9285 147.856 75.1132 148.131L77.851 152.191C78.6093 153.314 79.4477 154.551 80.4256 155.989C81.279 157.244 82.0305 158.343 82.726 159.357L84.8656 162.468C85.0528 162.741 84.9914 163.12 84.7281 163.314C84.4648 163.508 84.0991 163.445 83.9119 163.172L81.7723 160.061C81.0056 158.943 80.2399 157.824 79.4674 156.688C78.8205 155.737 77.9233 154.411 76.8929 152.885L74.1551 148.825Z" fill="#0078BF"/>
<path d="M98.6324 158.977C98.854 158.733 99.2246 158.722 99.4599 158.951C99.6952 159.181 99.7065 159.566 99.4849 159.81C98.6519 160.727 97.8186 161.645 97.0586 162.548C96.298 163.453 95.5929 164.363 94.9999 165.282C94.4124 166.193 93.9295 167.125 93.4994 168.065C93.0596 169.028 92.681 169.984 92.3027 170.939C92.18 171.249 91.838 171.396 91.5393 171.269C91.2405 171.142 91.0981 170.787 91.2208 170.477C91.6105 169.494 92.0001 168.51 92.4402 167.547C92.8904 166.562 93.3999 165.581 94.028 164.606C94.6514 163.64 95.3871 162.69 96.178 161.75C96.9701 160.808 97.8013 159.892 98.6324 158.977Z" fill="#0078BF"/>
<path d="M44.2199 144.66C44.087 144.354 44.2186 143.994 44.5133 143.856C44.8081 143.718 45.1552 143.855 45.288 144.161L45.296 144.182C45.9445 145.812 46.5942 147.444 48.1243 149.377C49.5757 151.21 51.8482 153.359 53.2182 154.655L53.4948 154.916C54.1544 155.541 54.5327 155.911 54.7694 156.151C55.014 156.399 55.0992 156.502 55.1837 156.604C55.3938 156.859 55.3651 157.243 55.1196 157.46C54.8741 157.678 54.5044 157.649 54.2943 157.394C54.2258 157.311 54.1568 157.227 53.9532 157.021L53.951 157.019C53.7396 156.804 53.3752 156.449 52.7061 155.815L52.4295 155.554C51.0402 154.24 48.736 152.061 47.2212 150.147C45.5846 148.08 44.9008 146.37 44.2214 144.662L44.2199 144.66Z" fill="#0078BF"/>
<path d="M151.707 137.14C151.76 136.809 152.062 136.585 152.381 136.64C152.7 136.695 152.915 137.008 152.862 137.339L152.862 137.342C152.716 138.429 152.572 139.514 152.709 140.322C152.84 141.09 153.26 141.696 153.68 142.302L153.694 142.318C153.875 142.599 153.802 142.978 153.532 143.164C153.262 143.35 152.898 143.275 152.718 142.995L152.719 142.993C152.222 142.277 151.728 141.559 151.553 140.531C151.385 139.539 151.545 138.349 151.704 137.159L151.707 137.14Z" fill="#0078BF"/>
<path d="M141.878 145.264C142.102 145.023 142.473 145.015 142.706 145.248C142.939 145.48 142.946 145.865 142.722 146.106L134.119 155.349C133.895 155.59 133.525 155.598 133.292 155.365C133.059 155.133 133.052 154.748 133.276 154.507L141.878 145.264Z" fill="#0078BF"/>
<path d="M122.421 128.867C122.212 128.611 122.243 128.228 122.49 128.011C122.736 127.795 123.106 127.827 123.315 128.083L127.36 133.053C128.663 134.65 129.846 136.097 130.788 137.243C131.695 138.345 132.477 139.283 133.193 140.137C133.865 140.937 134.424 141.597 134.983 142.255C135.197 142.508 135.173 142.892 134.93 143.114C134.687 143.336 134.316 143.311 134.102 143.059C133.535 142.39 132.967 141.721 132.308 140.935C131.693 140.202 130.937 139.294 129.899 138.033C128.897 136.815 127.723 135.38 126.466 133.837L122.421 128.867Z" fill="#0078BF"/>
<path d="M148.157 159.863C147.905 159.654 147.864 159.273 148.065 159.012C148.266 158.75 148.634 158.708 148.886 158.916L158.438 166.844C161.587 169.46 164.685 172.037 167.68 174.533C170.676 177.03 173.571 179.448 176.177 181.788C178.789 184.132 181.1 186.39 182.913 188.553C184.74 190.733 186.061 192.816 187.004 194.838C187.952 196.869 188.518 198.836 188.834 200.775C189.149 202.705 189.214 204.608 189.129 206.414C189.045 208.216 188.81 209.918 188.525 211.453C188.236 213.003 187.892 214.4 187.471 215.404C186.961 216.623 186.3 217.325 185.437 217.199C184.693 217.092 183.935 216.278 183.124 215.014C182.397 213.881 181.582 212.338 180.677 210.62L180.515 210.313C181.409 212.656 182.377 215.261 183.079 217.47C183.882 219.997 184.35 222.04 184.58 223.882C184.81 225.728 184.797 227.357 184.64 229.058C184.483 230.753 184.183 232.521 183.668 234.445C183.154 236.366 182.427 238.44 181.417 240.751C180.351 243.189 178.968 245.896 177.391 248.521C175.982 250.866 174.415 253.152 172.776 255.132C170.967 257.317 169.066 259.131 167.541 260.209C166.858 260.692 166.237 261.036 165.716 261.211C165.051 261.434 164.501 261.395 164.112 261.05L164.11 261.047C164.035 260.98 163.968 260.903 163.911 260.816C163.409 260.052 163.723 258.538 164.219 256.152C164.739 253.648 165.475 250.107 165.73 245.618C165.977 241.281 165.778 236.041 165.15 230.54C164.549 225.276 163.558 219.786 162.192 214.633C160.794 209.357 158.998 204.417 157.086 199.896C155.177 195.379 153.147 191.274 151.283 187.671C149.407 184.045 147.71 180.949 146.228 178.328C144.756 175.725 143.46 173.53 142.414 171.764L139.93 167.57L138.192 164.648C138.023 164.363 138.108 163.989 138.383 163.814C138.657 163.638 139.018 163.726 139.187 164.011L140.925 166.933L143.414 171.131C144.442 172.87 145.72 175.032 147.237 177.714C148.743 180.378 150.453 183.497 152.314 187.095C154.188 190.715 156.229 194.845 158.159 199.411C160.088 203.973 161.903 208.966 163.32 214.314C164.706 219.54 165.709 225.09 166.314 230.397C166.95 235.963 167.15 241.278 166.899 245.689C166.639 250.274 165.893 253.865 165.365 256.404C164.934 258.48 164.66 259.796 164.878 260.13C164.933 260.17 165.101 260.141 165.359 260.055C165.768 259.918 166.287 259.625 166.881 259.205C168.328 258.182 170.145 256.445 171.887 254.342C173.483 252.415 175.015 250.179 176.396 247.879C177.946 245.299 179.304 242.642 180.349 240.251C181.336 237.994 182.043 235.978 182.54 234.121C183.036 232.267 183.325 230.568 183.475 228.944C183.625 227.326 183.638 225.78 183.42 224.034C183.202 222.285 182.748 220.316 181.964 217.85C181.035 214.928 179.657 211.351 178.597 208.6C177.836 206.623 177.236 205.066 177.067 204.436C176.909 203.846 177.053 203.511 177.448 203.396C178.103 203.208 179.989 206.788 181.628 209.898L181.703 210.04C182.59 211.722 183.388 213.233 184.101 214.344C184.73 215.324 185.241 215.945 185.597 215.996C185.834 216.03 186.108 215.616 186.398 214.923C186.778 214.016 187.099 212.703 187.374 211.225C187.651 209.734 187.879 208.088 187.96 206.357C188.041 204.632 187.979 202.816 187.679 200.975C187.38 199.143 186.845 197.285 185.95 195.366C185.05 193.437 183.784 191.442 182.028 189.347C180.257 187.234 177.985 185.016 175.412 182.706C172.834 180.392 169.941 177.975 166.947 175.479C163.951 172.983 160.853 170.406 157.704 167.791L148.157 159.863Z" fill="#0078BF"/>
<path d="M83.032 115.88C82.3132 116.155 81.5467 116.543 80.8587 117.061C80.302 117.48 79.797 117.985 79.415 118.583C79.0007 119.233 78.7222 120.003 78.5747 120.827C78.4179 121.703 78.4083 122.643 78.5385 123.571C78.6634 124.46 78.9193 125.34 79.2649 126.151C79.6253 126.997 80.0817 127.763 80.5874 128.384C81.0716 128.978 81.6003 129.438 82.1899 129.772C82.7812 130.106 83.4426 130.319 84.1909 130.418C84.9121 130.514 85.7163 130.506 86.513 130.429C87.429 130.34 88.3359 130.158 89.0973 129.937C89.7818 129.74 90.3345 129.512 90.7894 129.209C91.2248 128.919 91.579 128.55 91.8846 128.057C92.2031 127.543 92.4726 126.894 92.6764 126.186C92.8882 125.449 93.0273 124.656 93.0756 123.89C93.1235 123.132 93.0827 122.397 92.9474 121.692C92.815 121.003 92.5941 120.345 92.2803 119.723C91.972 119.112 91.5661 118.522 91.1123 117.988C90.625 117.414 90.0888 116.914 89.562 116.527C89.0621 116.16 88.5684 115.892 88.0707 115.705C87.5719 115.517 87.0659 115.407 86.5425 115.355C86.0135 115.302 85.4644 115.307 84.8862 115.388C84.3066 115.468 83.693 115.626 83.032 115.88ZM80.1711 116.076C80.9543 115.486 81.8199 115.048 82.6284 114.738C83.3634 114.456 84.0609 114.278 84.7305 114.185C85.3999 114.091 86.0366 114.086 86.6525 114.147C87.2747 114.209 87.8762 114.34 88.4694 114.563C89.0641 114.787 89.6507 115.104 90.2407 115.538C90.8431 115.98 91.4494 116.544 91.9928 117.184C92.4985 117.779 92.9574 118.45 93.3165 119.162C93.6873 119.897 93.9459 120.662 94.0981 121.454C94.2531 122.261 94.2997 123.1 94.2449 123.966C94.1906 124.826 94.0355 125.713 93.7995 126.533C93.5658 127.345 93.25 128.101 92.8702 128.713C92.4701 129.358 92.0013 129.845 91.4219 130.232C90.8628 130.604 90.2076 130.876 89.4134 131.107C88.5974 131.344 87.6178 131.54 86.6186 131.637C85.7448 131.721 84.8545 131.729 84.0441 131.622C83.1489 131.503 82.3513 131.244 81.6305 130.837C80.9079 130.428 80.2692 129.875 79.6932 129.168C79.115 128.459 78.5966 127.591 78.1919 126.641C77.8062 125.736 77.5198 124.748 77.3785 123.742C77.2308 122.691 77.2435 121.618 77.424 120.609C77.6001 119.625 77.9359 118.701 78.4383 117.913C78.9049 117.182 79.5097 116.574 80.1711 116.076Z" fill="#0078BF"/>
<path d="M83.9997 127.53C83.5473 127.357 83.0616 127.111 82.6215 126.779C82.244 126.495 81.8976 126.147 81.6288 125.725C81.3402 125.272 81.1475 124.743 81.0468 124.181C80.945 123.611 80.9375 123.006 81.0204 122.416C81.0994 121.852 81.2595 121.299 81.4749 120.794C81.7011 120.263 81.9925 119.776 82.3181 119.376C82.647 118.972 83.0139 118.655 83.4306 118.42C83.8456 118.185 84.3032 118.036 84.8155 117.968C85.2688 117.908 85.7643 117.912 86.2489 117.959C86.8019 118.013 87.3421 118.121 87.7906 118.251C88.2404 118.382 88.6139 118.538 88.9366 118.753C89.2795 118.981 89.5565 119.269 89.7923 119.649C90.0092 119.999 90.1888 120.428 90.3206 120.885C90.4521 121.343 90.5388 121.839 90.569 122.319C90.5998 122.806 90.5736 123.279 90.4862 123.734C90.4004 124.18 90.2534 124.614 90.0422 125.033C89.8386 125.436 89.5811 125.814 89.2992 126.145C88.996 126.502 88.6558 126.818 88.3167 127.068H88.3143C87.9765 127.316 87.6425 127.496 87.3058 127.623C86.9667 127.751 86.6231 127.826 86.2682 127.861C85.9202 127.896 85.5603 127.893 85.1821 127.84C84.8029 127.788 84.4109 127.688 83.9997 127.53ZM83.3091 125.794C83.6542 126.054 84.0408 126.25 84.4034 126.389C84.7379 126.517 85.0468 126.597 85.3356 126.637C85.623 126.677 85.8958 126.679 86.1582 126.653C86.4144 126.628 86.6626 126.574 86.907 126.482C87.1527 126.389 87.3951 126.258 87.6389 126.079C87.9015 125.885 88.1719 125.632 88.4187 125.342C88.6487 125.07 88.8532 124.774 89.006 124.471C89.1604 124.166 89.2695 123.839 89.3356 123.496C89.4032 123.143 89.4237 122.775 89.3997 122.395C89.3755 122.008 89.3048 121.606 89.1974 121.233C89.0956 120.879 88.9623 120.556 88.8066 120.305C88.6656 120.078 88.5028 119.908 88.3041 119.775C88.0854 119.63 87.8141 119.519 87.4765 119.421C87.0806 119.307 86.6131 119.213 86.1434 119.167C85.7364 119.128 85.3267 119.123 84.9623 119.172C84.5973 119.22 84.2757 119.324 83.99 119.485C83.7061 119.645 83.4495 119.87 83.2124 120.161C82.9595 120.471 82.7298 120.857 82.5479 121.285C82.3727 121.695 82.2432 122.14 82.1804 122.587C82.115 123.054 82.1194 123.525 82.1975 123.962C82.2695 124.365 82.4048 124.74 82.6056 125.055C82.7897 125.343 83.0363 125.589 83.3091 125.794Z" fill="#0078BF"/>
<path d="M100.571 104.416C100.833 104.219 101.2 104.28 101.39 104.552C101.58 104.824 101.521 105.204 101.259 105.401C98.8762 107.191 96.7237 108.973 94.8025 110.747C92.882 112.52 91.1951 114.281 89.7426 116.029C89.5312 116.282 89.1615 116.31 88.9173 116.091C88.6731 115.872 88.6463 115.488 88.8576 115.235C90.3498 113.439 92.072 111.64 94.0231 109.839C95.9731 108.038 98.156 106.23 100.571 104.416Z" fill="#0078BF"/>
<path d="M83.1332 108.981C82.9143 108.734 82.9296 108.349 83.1675 108.122C83.4055 107.895 83.7762 107.911 83.9951 108.158C85.0288 109.322 85.9517 110.464 86.7626 111.585C87.5772 112.71 88.2719 113.803 88.8456 114.862C89.0038 115.155 88.9033 115.525 88.6209 115.689C88.3386 115.853 87.9813 115.749 87.8232 115.456C87.2678 114.431 86.6022 113.383 85.827 112.312C85.0486 111.236 84.1501 110.126 83.1332 108.981Z" fill="#0078BF"/>
</g>
</g>
<defs>
<filter id="filter0_ddd_2036_7268" x="0" y="0.5" width="186" height="198" filterUnits="userSpaceOnUse" color-interpolation-filters="sRGB">
<feFlood flood-opacity="0" result="BackgroundImageFix"/>
<feColorMatrix in="SourceAlpha" type="matrix" values="0 0 0 0 0 0 0 0 0 0 0 0 0 0 0 0 0 0 127 0" result="hardAlpha"/>
<feOffset dy="3"/>
<feGaussianBlur stdDeviation="3"/>
<feColorMatrix type="matrix" values="0 0 0 0 0.0392157 0 0 0 0 0.623529 0 0 0 0 0.921569 0 0 0 0.08 0"/>
<feBlend mode="normal" in2="BackgroundImageFix" result="effect1_dropShadow_2036_7268"/>
<feColorMatrix in="SourceAlpha" type="matrix" values="0 0 0 0 0 0 0 0 0 0 0 0 0 0 0 0 0 0 127 0" result="hardAlpha"/>
<feOffset dy="10"/>
<feGaussianBlur stdDeviation="5"/>
<feColorMatrix type="matrix" values="0 0 0 0 0.0392157 0 0 0 0 0.623529 0 0 0 0 0.921569 0 0 0 0.07 0"/>
<feBlend mode="normal" in2="effect1_dropShadow_2036_7268" result="effect2_dropShadow_2036_7268"/>
<feColorMatrix in="SourceAlpha" type="matrix" values="0 0 0 0 0 0 0 0 0 0 0 0 0 0 0 0 0 0 127 0" result="hardAlpha"/>
<feOffset dy="23"/>
<feGaussianBlur stdDeviation="7"/>
<feColorMatrix type="matrix" values="0 0 0 0 0.0392157 0 0 0 0 0.623529 0 0 0 0 0.921569 0 0 0 0.04 0"/>
<feBlend mode="normal" in2="effect2_dropShadow_2036_7268" result="effect3_dropShadow_2036_7268"/>
<feBlend mode="normal" in="SourceGraphic" in2="effect3_dropShadow_2036_7268" result="shape"/>
</filter>
<clipPath id="clip0_2036_7268">
<path d="M14 82.5C14 38.8695 49.3695 3.5 93 3.5C136.63 3.5 172 38.8695 172 82.5C172 126.13 136.63 161.5 93 161.5C49.3695 161.5 14 126.13 14 82.5Z" fill="white"/>
</clipPath>
</defs>
</svg>
