<svg width="32" height="32" viewBox="0 0 32 32" fill="none" xmlns="http://www.w3.org/2000/svg">
<g clip-path="url(#clip0_2018_102259)">
<path d="M9.92544 1.43583C8.36489 1.50946 7.2992 1.7585 6.36756 2.12458C5.40337 2.50035 4.58613 3.00459 3.773 3.82065C2.95987 4.63671 2.45915 5.45454 2.08603 6.4202C1.72493 7.35389 1.48029 8.42046 1.41135 9.98189C1.34242 11.5433 1.32716 12.0452 1.33479 16.0281C1.34242 20.0111 1.36002 20.5103 1.4357 22.075C1.51021 23.6352 1.75837 24.7006 2.12445 25.6326C2.5008 26.5967 3.00446 27.4137 3.82082 28.2271C4.63717 29.0405 5.45441 29.5401 6.42242 29.9138C7.35523 30.2743 8.42209 30.5201 9.98323 30.5885C11.5444 30.6568 12.0468 30.6727 16.0286 30.665C20.0103 30.6574 20.5117 30.6398 22.076 30.5656C23.6404 30.4914 24.7002 30.2415 25.6324 29.8771C26.5966 29.4999 27.4141 28.9971 28.227 28.1805C29.0398 27.3638 29.5402 26.5454 29.9131 25.5792C30.2745 24.6464 30.52 23.5795 30.5878 22.0195C30.6561 20.454 30.6722 19.9541 30.6646 15.9718C30.657 11.9895 30.6391 11.4902 30.5649 9.92615C30.4907 8.36208 30.2422 7.29991 29.8764 6.3674C29.4995 5.4032 28.9964 4.58685 28.1803 3.77284C27.3643 2.95883 26.5453 2.45869 25.5793 2.08674C24.6459 1.72564 23.5797 1.47954 22.0185 1.41207C20.4574 1.3446 19.9549 1.32729 15.9717 1.33492C11.9885 1.34255 11.4898 1.35956 9.92544 1.43583ZM10.0967 27.9499C8.66673 27.8877 7.89027 27.6501 7.37283 27.4512C6.68759 27.1872 6.19948 26.8681 5.6838 26.3574C5.16811 25.8467 4.85131 25.3568 4.58378 24.673C4.38285 24.1556 4.14085 23.38 4.07397 21.95C4.00122 20.4044 3.98597 19.9404 3.97746 16.0246C3.96895 12.1089 3.98391 11.6454 4.05167 10.0992C4.11269 8.67038 4.35176 7.89304 4.55034 7.37589C4.81435 6.68977 5.13232 6.20254 5.6442 5.68715C6.15607 5.17176 6.64447 4.85437 7.32882 4.58685C7.84568 4.38503 8.62127 4.14508 10.0507 4.07703C11.5975 4.00369 12.0609 3.98903 15.9761 3.98052C19.8912 3.97201 20.3559 3.98668 21.9032 4.05473C23.3321 4.11692 24.1097 4.35364 24.6263 4.55341C25.3118 4.81741 25.7996 5.13451 26.315 5.64726C26.8304 6.16001 27.1481 6.64665 27.4156 7.33247C27.6177 7.84787 27.8577 8.62315 27.9251 10.0535C27.9988 11.6002 28.0155 12.064 28.0225 15.9789C28.0296 19.8937 28.0158 20.3587 27.948 21.9042C27.8855 23.3343 27.6485 24.111 27.4493 24.629C27.1853 25.314 26.8671 25.8024 26.3549 26.3175C25.8427 26.8326 25.3549 27.15 24.6703 27.4175C24.154 27.619 23.3775 27.8596 21.9493 27.9276C20.4025 28.0004 19.9391 28.0156 16.0224 28.0241C12.1058 28.0326 11.6438 28.0168 10.097 27.9499H10.0967ZM22.0534 8.16115C22.054 8.50927 22.1578 8.8494 22.3517 9.13853C22.5456 9.42765 22.8209 9.65277 23.1428 9.78543C23.4646 9.91809 23.8186 9.95232 24.1599 9.88379C24.5012 9.81527 24.8145 9.64706 25.0602 9.40045C25.306 9.15384 25.473 8.8399 25.5403 8.49834C25.6076 8.15678 25.572 7.80294 25.4382 7.48157C25.3044 7.1602 25.0782 6.88574 24.7884 6.6929C24.4986 6.50006 24.158 6.3975 23.8099 6.3982C23.3432 6.39913 22.896 6.58537 22.5666 6.91598C22.2373 7.24658 22.0526 7.69446 22.0534 8.16115ZM8.46902 16.0146C8.47724 20.1741 11.8553 23.5384 16.0139 23.5305C20.1726 23.5226 23.5392 20.1448 23.5313 15.9853C23.5233 11.8258 20.1444 8.46065 15.9852 8.46886C11.826 8.47707 8.4611 11.8557 8.46902 16.0146ZM11.1108 16.0094C11.1089 15.0424 11.3938 14.0966 11.9294 13.2915C12.465 12.4865 13.2273 11.8583 14.1199 11.4865C15.0126 11.1147 15.9954 11.016 16.9441 11.2027C17.8929 11.3895 18.765 11.8534 19.4501 12.5358C20.1352 13.2182 20.6025 14.0884 20.793 15.0364C20.9836 15.9844 20.8887 16.9676 20.5204 17.8617C20.1521 18.7558 19.527 19.5206 18.7241 20.0594C17.9212 20.5982 16.9765 20.8868 16.0095 20.8887C15.3675 20.8901 14.7314 20.7649 14.1377 20.5204C13.5441 20.2759 13.0043 19.9169 12.5494 19.4638C12.0945 19.0107 11.7334 18.4724 11.4865 17.8797C11.2397 17.287 11.112 16.6514 11.1108 16.0094Z" fill="black"/>
</g>
<defs>
<clipPath id="clip0_2018_102259">
<rect width="32" height="32" fill="white"/>
</clipPath>
</defs>
</svg>
