<svg width="48" height="48" viewBox="0 0 48 48" fill="none" xmlns="http://www.w3.org/2000/svg">
<path fill-rule="evenodd" clip-rule="evenodd" d="M24 40C32.8366 40 40 32.8366 40 24C40 15.1634 32.8366 8 24 8C15.1634 8 8 15.1634 8 24C8 32.8366 15.1634 40 24 40ZM24 44C35.0457 44 44 35.0457 44 24C44 12.9543 35.0457 4 24 4C12.9543 4 4 12.9543 4 24C4 35.0457 12.9543 44 24 44Z" fill="white"/>
<path d="M18 18.0063C18 16.453 19.6934 15.4926 21.0265 16.2897L31.0208 22.2662C32.3318 23.0502 32.3318 24.9496 31.0207 25.7336L21.0264 31.7098C19.6933 32.507 18 31.5465 18 29.9933V18.0063Z" fill="white"/>
</svg>
