<svg width="24" height="24" viewBox="0 0 24 24" fill="none" xmlns="http://www.w3.org/2000/svg"><path fill-rule="evenodd" clip-rule="evenodd" d="M12.001 6c-4.855 0-7.11 3.773-7.903 5.553a1.088 1.088 0 000 .894C4.89 14.227 7.146 18 12 18c4.855 0 7.11-3.773 7.903-5.553a1.088 1.088 0 000-.893C19.11 9.772 16.856 6 12 6zm-9.73 4.74C3.14 8.788 5.892 4 12 4s8.86 4.788 9.73 6.74a3.088 3.088 0 010 2.52C20.86 15.212 18.11 20 12 20s-8.86-4.788-9.73-6.74a3.088 3.088 0 010-2.52z" fill="#0078BF"/><path fill-rule="evenodd" clip-rule="evenodd" d="M12 8a4 4 0 100 8 4 4 0 000-8zm-.085 2.002L12 10a2 2 0 11-1.998 1.915A1.5 1.5 0 0012 10.5a1.5 1.5 0 00-.085-.498z" fill="#0078BF"/></svg>