<svg width="197" height="209" viewBox="0 0 197 209" fill="none" xmlns="http://www.w3.org/2000/svg"><g filter="url(#filter0_ddd_2036_7201)"><g clip-path="url(#clip0_2036_7201)"><path d="M14 87.5C14 40.832 51.832 3 98.5 3S183 40.832 183 87.5 145.168 172 98.5 172 14 134.168 14 87.5z" fill="#fff"/><path d="M70.064 37.555c-.128.4-.6.853-1.238 1.468-.981.945-2.414 2.324-3.255 4.004-.594 1.186-.91 2.547-1.016 3.728-.117 1.305-.027 2.312.207 2.483.002.002.461-.546.835-.985.205-.24.392-.46.568-.618.406-.362.776-.443 1.115-.03.309.376.18 1.33.002 2.647-.17 1.254-.39 2.89-.39 4.438 0 1.455.196 2.83.567 4.045.364 1.192.896 2.234 1.575 3.048.521.621 1.119 1.106 1.688 1.337.268.108.524.159.752.138a.928.928 0 00.549-.244c.177-.161.334-.407.461-.749.594-1.593.505-4.983.414-8.498-.03-1.166-.061-2.347-.067-3.5-.012-2.349.08-4.522.347-6.166.299-1.841.855-3.103 1.776-3.395.962-.305 1.993.455 3.587 1.63 1.378 1.016 3.223 2.376 5.74 3.606 2.723 1.33 6.25 2.523 10.009 3.313 3.387.712 6.959 1.096 10.293.954 3.502-.148 6.742-.877 9.664-2.175 2.9-1.288 5.49-3.138 7.717-5.536 2.091-2.252 3.868-4.995 5.271-7.807 1.608-3.22 2.719-6.517 3.247-9.264.421-2.186.472-4.023.328-5.43-.173-1.689-.553-2.66-.868-2.78-.092-.034-.509.971-1.022 2.214a34.082 34.082 0 01-.913 2.07c-.704 1.42-1.587 2.69-2.309 3.327a2.42 2.42 0 01-.675.441c-.311.125-.605.126-.87-.017a.964.964 0 01-.29-.243c-.384-.474-.409-1.456-.434-2.438-.021-.797-.041-1.594-.114-1.644-.019-.013-.731.678-1.657 1.576-.63.612-1.343 1.304-2.121 1.939-1.096.894-2.29 1.645-3.676 2.137-1.39.493-2.966.726-4.819.581-2.804-.219-6.241-1.308-9.246-2.26-.823-.26-1.611-.51-2.43-.753a79.515 79.515 0 00-3.22-.87c-1.685-.427-2.69-.681-2.884-1.286-.2-.628.284-.976.8-1.344.089-.064.18-.13.26-.193-.42-.184-1.257-.345-2.38-.392a15.74 15.74 0 00-4.098.398c-1.782.406-3.715 1.155-5.52 2.108-1.784.942-3.437 2.078-4.688 3.276-.997.953-1.737 1.944-2.15 2.808-.223.468-.344.88-.346 1.203-.002.22.054.387.176.48a.74.74 0 00.29.122c.704.157 2.051-.139 3.743-.511 2.122-.467 4.763-1.048 7.58-1.034 4.284.02 8.856 1.424 13.15 2.74.85.262 1.69.52 2.564.776 2.457.722 4.77 1.308 6.852 1.637 2.047.324 3.857.4 5.339.112 2.084-.405 3.582-1.55 4.349-2.138.483-.37.782-.599 1.152-.444l.044.021c.57.271.351.855.076 1.579-.081.22-.173.461-.223.613a.593.593 0 01-.334.367c-.036.033-.046.057 0 .073.119.043.771-.236 1.306-.465.651-.279 1.198-.512 1.547-.188.321.299.313.69-.15 1.233-.636.745-2.747 2.666-5.957 4.3a25.107 25.107 0 01-7.127 2.383c-3.055.524-6.523.51-9.935.206-4.567-.407-9.055-1.334-12.314-2.177-4.769-1.234-6.917-2.291-8.733-3.185-.367-.181-.722-.356-1.024-.497-1.017-.476-2.072-.897-3.124-1.14-1.023-.237-2.052-.308-3.052-.1-.243.051-.473.114-.687.185a7.847 7.847 0 00-2.222 1.171c-.389.298-.654.511-.7.56.08.066.338-.174.665-.166.41.01.815.02 1.114.124.496.173.74.492.559 1.063zm-2.028.572l.554-.537-.227-.007c-.737-.018-1.491-.037-1.737-.627a.619.619 0 01-.042-.12l-.012-.053c-.094-.491.369-1.18 1.164-1.79a9.04 9.04 0 012.56-1.349c.278-.092.55-.167.81-.222 1.168-.243 2.357-.163 3.532.109 1.144.265 2.27.712 3.348 1.216.386.181.711.341 1.047.507 1.77.87 3.862 1.9 8.514 3.104 3.206.83 7.625 1.742 12.131 2.143 3.335.297 6.708.313 9.651-.192a23.98 23.98 0 006.804-2.277 23.974 23.974 0 004.086-2.618c-.264.051-.506.058-.7-.012-.714-.257-.685-.996-.453-1.787-.925.642-2.277 1.42-4.022 1.758-1.625.316-3.561.24-5.723-.102-2.127-.337-4.488-.934-6.993-1.67-.809-.237-1.687-.507-2.577-.78-4.22-1.295-8.713-2.673-12.827-2.693-2.687-.014-5.265.553-7.338 1.01-1.826.401-3.28.721-4.222.511a1.866 1.866 0 01-.737-.332c-.449-.343-.658-.852-.652-1.471.005-.516.166-1.11.466-1.738.47-.983 1.3-2.099 2.409-3.16 1.335-1.278 3.079-2.48 4.949-3.467 1.892-1 3.923-1.785 5.799-2.213a16.852 16.852 0 014.39-.422c1.709.071 2.975.469 3.387.881.505.505.372.972-.032 1.412-.177.193-.405.356-.624.514-.142.1-.428-.284-.352-.044.012.037.76.159 2.053.486.898.227 2.01.509 3.26.879.703.208 1.561.48 2.454.763 2.94.931 6.304 1.998 8.994 2.208 1.687.131 3.111-.077 4.358-.52 1.251-.444 2.335-1.127 3.334-1.942.726-.592 1.425-1.27 2.043-1.871 1.305-1.267 2.308-2.24 3.091-1.705.582.397.611 1.517.639 2.635.016.63.033 1.258.105 1.545.071-.043.154-.107.247-.19.613-.541 1.388-1.668 2.025-2.954.315-.638.607-1.342.876-1.994.755-1.823 1.365-3.3 2.488-2.876.674.254 1.411 1.606 1.636 3.796.155 1.51.101 3.472-.346 5.797-.55 2.86-1.698 6.273-3.352 9.588-1.449 2.904-3.293 5.745-5.472 8.092-2.337 2.517-5.054 4.457-8.096 5.808-3.052 1.355-6.429 2.117-10.076 2.271-3.426.145-7.093-.248-10.567-.978-3.85-.81-7.472-2.036-10.272-3.404-2.623-1.28-4.51-2.672-5.92-3.71-1.312-.97-2.162-1.595-2.577-1.464-.427.135-.739 1.05-.963 2.432-.257 1.58-.346 3.683-.334 5.961.006 1.124.037 2.307.067 3.476.095 3.638.187 7.148-.491 8.966-.2.536-.467.939-.781 1.225-.36.327-.773.499-1.216.54-.413.038-.844-.041-1.272-.215-.752-.305-1.512-.91-2.147-1.67-.784-.942-1.394-2.131-1.806-3.482-.41-1.342-.626-2.842-.626-4.412 0-1.614.229-3.306.404-4.605.038-.284.08-.538.117-.76-.638.732-1.392 1.462-2.149.91-.557-.408-.854-1.867-.7-3.59.118-1.319.475-2.843 1.144-4.18.938-1.875 2.457-3.337 3.497-4.338zm51.865-5.402c-.102-.043-.088-.014-.055.042.163.029.263.046.083-.031l-.028-.011zM73.812 76.292a.62.62 0 01.26.815.571.571 0 01-.78.272l-.017-.008c-1.17-.625-2.339-1.25-2.698-2.066l-.017-.04c-.207-.507-.117-1.004.136-1.472.21-.389.53-.745.863-1.057l.277-.248c.373-.335.714-.64.668-.973-.04-.289-.25-.674-.574-1.06a4.415 4.415 0 00-1.25-1.025 4.209 4.209 0 00-1.637-.49c-.537-.044-1.047.021-1.45.205-.368.17-.653.448-.843.815-.207.398-.31.906-.3 1.497.01.64.153 1.38.361 2.171.207.785.498 1.67.79 2.557a.617.617 0 01-.364.774.579.579 0 01-.742-.379c-.287-.874-.574-1.748-.807-2.632-.231-.878-.39-1.716-.403-2.472-.014-.805.137-1.514.437-2.093.316-.608.79-1.07 1.406-1.353.583-.267 1.288-.366 2.006-.305.706.059 1.437.27 2.085.624.622.338 1.172.81 1.588 1.305.47.56.78 1.172.852 1.69.138.993-.436 1.505-1.066 2.068l-.253.23c-.258.241-.498.501-.63.747-.08.147-.118.284-.08.392l.006.014c.193.438 1.181.966 2.172 1.495l.004.002zM77.998 64.006a32.211 32.211 0 013.728-2.211c1.16-.588 2.415-1.133 3.651-1.523a17.028 17.028 0 014.052-.767 13.876 13.876 0 013.862.277c1.509.336 2.788.93 4.046 1.514.628.292 1.251.581 1.877.825.912.356 1.865.63 2.843.772.965.14 1.955.148 2.954-.023 1.384-.238 2.833-.837 4.205-1.405.638-.264 1.26-.521 1.892-.746a14.926 14.926 0 012.78-.72 11.21 11.21 0 012.519-.103c.811.06 1.597.212 2.335.45a8.37 8.37 0 012.043.975 6.33 6.33 0 011.669 1.583c.468.647.841 1.431 1.097 2.406.237.9.372 1.962.421 3.08a26.077 26.077 0 01-.113 3.692c-.12 1.188-.314 2.327-.701 3.31-.409 1.04-1.028 1.895-1.985 2.442-.858.49-1.969.709-3.194.728-1.354.022-2.855-.197-4.301-.555-1.285-.318-2.525-.745-3.725-1.159-1.284-.442-2.524-.869-3.676-1.114-.253-.054-.505-.1-.753-.138.589.448 1.066.935 1.384 1.377.459.64.622 1.232.467 1.78-.155.545-.602.966-1.358 1.257-.631.243-1.523.41-2.468.479-.9.065-1.865.04-2.712-.098-.898-.146-1.668-.421-2.231-.786-.645-.417-1.045-.962-1.114-1.594-.07-.634.206-1.298.754-1.884.28-.3.636-.584 1.054-.835-.837.136-1.673.38-2.463.702-.625.255-1.257.576-1.908.906-1.194.607-2.453 1.247-4.099 1.683-1.16.307-2.495.506-3.852.622-1.596.137-3.237.16-4.653.111-1.334-.046-2.465-.156-3.362-.336-.927-.187-1.633-.457-2.09-.816-.966-.76-.853-1.686-.696-2.959l.048-.42c.077-.684.132-1.47.134-2.245a12.777 12.777 0 00-.12-1.886c-.085-.57-.227-1.108-.356-1.596-.177-.671-.333-1.26-.325-1.835.008-.581.174-1.09.604-1.633.376-.476.958-.973 1.836-1.584zm4.234-1.115a31.037 31.037 0 00-3.59 2.131c-.783.545-1.285.966-1.58 1.34-.242.305-.335.577-.34.875-.005.4.13.913.285 1.496.136.517.286 1.086.383 1.736.098.654.136 1.366.134 2.071-.002.847-.06 1.678-.14 2.387l-.052.43c-.106.867-.184 1.498.244 1.834.311.245.856.441 1.606.592.844.17 1.914.274 3.18.317 1.36.047 2.952.024 4.52-.11 1.301-.112 2.573-.3 3.665-.59 1.521-.402 2.727-1.015 3.87-1.596.656-.333 1.294-.657 2-.944a12.353 12.353 0 013.175-.837c.998-.118 1.995-.088 2.931.131.137.032.272.069.405.108l.255-.014a13.236 13.236 0 013.327.294c1.247.266 2.505.7 3.808 1.148 1.176.405 2.39.823 3.629 1.13 1.369.34 2.774.547 4.018.527 1.044-.017 1.97-.191 2.65-.58.693-.396 1.153-1.043 1.465-1.838.336-.854.509-1.884.619-2.971a24.95 24.95 0 00.109-3.515c-.046-1.034-.168-2.005-.38-2.814-.213-.81-.521-1.46-.906-1.99a5.158 5.158 0 00-1.362-1.288 7.2 7.2 0 00-1.761-.84 8.847 8.847 0 00-2.074-.4 10.105 10.105 0 00-2.272.095 13.8 13.8 0 00-2.57.666c-.566.202-1.194.462-1.838.728-1.422.588-2.925 1.21-4.446 1.471a10.517 10.517 0 01-3.302.028 14.1 14.1 0 01-3.09-.838c-.669-.261-1.304-.557-1.945-.854-1.197-.556-2.416-1.122-3.813-1.433a12.756 12.756 0 00-3.551-.253c-1.21.076-2.486.31-3.783.719-1.183.373-2.378.892-3.483 1.45zm20.566 12.601c-.803.07-1.53.235-2.148.48-.674.265-1.212.622-1.569 1.004-.3.322-.458.64-.43.896.027.24.23.481.567.699.434.282 1.054.498 1.797.618.753.122 1.628.144 2.456.084.838-.06 1.613-.203 2.144-.408.386-.148.597-.3.641-.456.043-.153-.053-.39-.28-.707-.332-.462-.9-.997-1.62-1.458a7.06 7.06 0 00-1.558-.752z" fill="#0078BF"/><path d="M91.135 64.619c-.657-.014-1.58.02-2.534.183-.688.118-1.388.302-2.003.584a5.261 5.261 0 00-1.759 1.297 4.628 4.628 0 00-.998 1.81 5.134 5.134 0 00-.137 1.89c.074.73.278 1.437.551 2.046.248.552.556 1.02.955 1.385l.028.028c.386.345.865.602 1.469.755.638.162 1.416.213 2.219.173a11.088 11.088 0 002.52-.42c.726-.214 1.345-.497 1.847-.867.482-.355.86-.796 1.13-1.34.273-.555.438-1.225.492-1.918a6.101 6.101 0 00-.185-2.084 5.773 5.773 0 00-.8-1.679 7.95 7.95 0 00-.991-1.178c-.265-.26-.464-.424-.694-.515-.251-.099-.584-.14-1.11-.15zm-2.721-1.018a14.96 14.96 0 012.744-.198c.666.014 1.111.075 1.498.227.407.16.708.4 1.082.767.34.336.756.794 1.141 1.36.391.573.75 1.26.97 2.045.22.79.297 1.669.23 2.519-.065.845-.273 1.676-.62 2.38a4.83 4.83 0 01-1.495 1.778c-.614.453-1.351.793-2.203 1.044-.851.25-1.828.415-2.78.463-.906.045-1.797-.016-2.548-.207-.796-.203-1.436-.548-1.959-1.018l-.036-.031c-.523-.48-.92-1.082-1.238-1.787a7.983 7.983 0 01-.656-2.43 6.392 6.392 0 01.179-2.359 5.857 5.857 0 011.258-2.296 6.436 6.436 0 012.151-1.588c.713-.326 1.508-.537 2.282-.67zM113.315 65.262c-.593.228-1.261.527-1.877.919-.598.38-1.153.848-1.547 1.427-.375.55-.615 1.211-.734 1.888a5.583 5.583 0 00.033 2.147c.13.575.365 1.055.688 1.451.349.428.805.766 1.346 1.026.536.257 1.156.44 1.794.547l.019.004c.668.111 1.354.14 1.98.085a5.345 5.345 0 001.601-.372 3.979 3.979 0 001.221-.79c.355-.337.649-.742.858-1.219.199-.452.326-.976.362-1.575a7.952 7.952 0 00-.177-2.085c-.149-.7-.382-1.376-.678-1.931a4.27 4.27 0 00-.957-1.23 3.17 3.17 0 00-1.203-.668 2.82 2.82 0 00-1.194-.066c-.45.064-.95.217-1.535.442zm-2.485-.12a11.81 11.81 0 012.083-1.024c.654-.253 1.232-.426 1.782-.504a3.9 3.9 0 011.655.1c.562.16 1.126.458 1.641.906.462.402.886.923 1.232 1.572.35.657.623 1.45.796 2.261.175.82.25 1.668.204 2.423a5.794 5.794 0 01-.467 2.005 4.965 4.965 0 01-1.131 1.614 5.15 5.15 0 01-1.578 1.019 6.443 6.443 0 01-1.935.458 9.177 9.177 0 01-2.26-.1l-.021-.003a7.937 7.937 0 01-2.091-.643c-.695-.334-1.287-.776-1.748-1.34a4.698 4.698 0 01-.939-1.967c-.181-.796-.202-1.729-.042-2.642.148-.842.452-1.674.93-2.375.497-.729 1.171-1.304 1.889-1.76z" fill="#0078BF"/><path fill-rule="evenodd" clip-rule="evenodd" d="M91.142 66.742c-.559.198-1.317.616-1.75 1.31-.432.692-.537 1.66-.316 2.397.222.737.77 1.244 1.623 1.486.854.242 2.013.22 2.814-.154.8-.374 1.243-1.1 1.401-1.97.159-.869.032-1.88-.432-2.442-.463-.56-1.264-.67-1.844-.737-.58-.066-.938-.088-1.496.11zM114.351 67.886c-.624 1.005-.741 2.509.006 3.445.747.936 2.358 1.302 3.37.716 1.012-.587 1.425-2.129 1.245-3.316-.181-1.188-.956-2.023-1.909-2.188-.954-.165-2.087.339-2.712 1.343z" fill="#0078BF"/><path d="M101.45 81.626c-.318-.063-.65-.178-1.012-.303-.558-.192-1.196-.411-1.776-.442a3.198 3.198 0 00-1.325.227 5.497 5.497 0 00-1.348.78c-.47.36-.924.79-1.362 1.206-.468.445-.92.873-1.37 1.204-.475.35-.937.581-1.387.705a2.86 2.86 0 01-1.37.046 3.356 3.356 0 01-1.174-.512 3.878 3.878 0 01-.958-.924 3.273 3.273 0 01-.513-1.06c-.107-.403-.112-.797-.01-1.123.09-.285.25-.508.457-.68-.263.03-.541.087-.815.173-.411.13-.805.323-1.109.575-.301.25-.515.565-.62.924-.104.356-.107.768.008 1.222.124.486.384 1.02.723 1.543a8.84 8.84 0 001.326 1.594c.458.432.934.776 1.45 1.048a6.943 6.943 0 001.694.614c.596.137 1.258.223 1.936.268.762.05 1.537.048 2.26.006.677-.039 1.31-.112 1.886-.242a5.46 5.46 0 001.495-.548c.438-.247.825-.57 1.157-.906.345-.35.635-.714.868-1.028l.293-.406c.359-.504.628-.87 1.106-1.157a2.727 2.727 0 011.147-.37 2.38 2.38 0 011.153.177c.602.26 1.049.764 1.543 1.32l.324.36c.275.299.579.601.935.902.352.297.745.584 1.197.852a10.7 10.7 0 001.608.773c.53.203 1.075.364 1.596.456a5.49 5.49 0 001.536.069c.48-.05.941-.176 1.383-.381.44-.205.865-.492 1.258-.838.409-.361.781-.783 1.094-1.242a7.44 7.44 0 00.748-1.401c.21-.516.36-1.04.448-1.543.087-.491.115-.956.063-1.368a2.074 2.074 0 00-.313-.903 2.144 2.144 0 00-.699-.636 3.033 3.033 0 00-1.052-.378l-.148-.02c.182.152.362.328.511.538.26.368.401.807.442 1.246.044.47-.027.95-.185 1.342a2.085 2.085 0 01-.763.97c-.322.224-.72.37-1.205.444a5.598 5.598 0 01-1.61-.013 5.077 5.077 0 01-1.499-.455l-.033-.017c-.937-.476-1.597-1.25-2.112-1.854l-.046-.053c-.239-.28-.441-.513-.631-.697a2.873 2.873 0 00-.567-.44 3.57 3.57 0 00-.725-.315 5.224 5.224 0 00-.889-.19 5.629 5.629 0 00-.851-.039 6.41 6.41 0 00-.895.09 5.694 5.694 0 00-.744.18l-.025.008c-.215.069-.418.15-.608.243l-.196.096c-.45.23-.899.441-1.7.283zm-.647-1.461c.334.114.641.22.862.264.428.085.702-.04.974-.178l.214-.11c.233-.114.487-.215.761-.303l.027-.01c.272-.085.569-.157.894-.213a7.539 7.539 0 011.051-.105c.339-.01.683.003 1.02.044.371.046.742.126 1.089.235.35.113.677.252.959.417.296.173.545.373.791.612.234.228.454.48.708.778l.046.053c.448.526 1.022 1.2 1.747 1.568l.028.013c.356.177.76.29 1.161.35.46.069.912.068 1.282.012.309-.046.55-.13.726-.252a.918.918 0 00.329-.424c.088-.22.127-.49.102-.759a1.304 1.304 0 00-.219-.636c-.154-.218-.418-.412-.643-.573l-.034-.023c-.346-.249-.624-.447-.692-.814a.793.793 0 01-.006-.249c.038-.257.192-.46.436-.6.136-.08.308-.141.498-.18.325-.065.75-.079 1.189-.01.483.077.995.255 1.453.526.427.253.809.588 1.084 1 .279.418.441.906.508 1.44.069.545.036 1.135-.072 1.745a8.927 8.927 0 01-1.393 3.43 7.875 7.875 0 01-1.29 1.466 6.45 6.45 0 01-1.536 1.02c-.558.259-1.14.417-1.744.48a6.562 6.562 0 01-1.841-.077c-.6-.107-1.216-.287-1.807-.513a11.899 11.899 0 01-1.782-.86 9.952 9.952 0 01-1.356-.962 11.51 11.51 0 01-1.04-1.006l-.338-.375c-.404-.456-.771-.869-1.132-1.025a1.278 1.278 0 00-.615-.086 1.58 1.58 0 00-.662.208c-.27.162-.475.444-.752.831l-.305.422c-.26.352-.586.761-.977 1.157A6.509 6.509 0 0199.088 89a6.583 6.583 0 01-1.805.667c-.636.143-1.327.223-2.064.266a19.63 19.63 0 01-2.397-.006 13.5 13.5 0 01-2.114-.297 8.072 8.072 0 01-1.968-.714 7.684 7.684 0 01-1.706-1.234 10.08 10.08 0 01-1.513-1.813c-.406-.627-.722-1.287-.883-1.915-.172-.677-.16-1.314.006-1.884a3.1 3.1 0 011.008-1.525c.426-.355.957-.618 1.502-.79a5.154 5.154 0 011.743-.241c.427.021.792.112 1.078.226l.033.012c.525.217.851.6.898.864.088.5-.153.725-.592.817l-.027.006a3.217 3.217 0 01-.389.043c-.131.01-.28.02-.395.04a1.11 1.11 0 00-.438.152.266.266 0 00-.11.132c-.031.1-.022.249.024.422.055.207.163.434.32.651.173.239.402.462.661.637.24.162.504.284.773.341.267.057.546.049.84-.032.316-.086.653-.258 1.014-.524.388-.285.814-.689 1.255-1.107h.003c.47-.445.957-.906 1.454-1.287a6.654 6.654 0 011.636-.943 4.302 4.302 0 011.786-.3c.746.04 1.458.286 2.082.5z" fill="#0078BF"/><path d="M98.603 90.365a.62.62 0 01-.292-.806.574.574 0 01.771-.305l.05.026c.785.392 1.575.782 2.701 1.028a11.38 11.38 0 002.004.247c.587.018 1.143-.016 1.573-.123.414-.104.713-.28.955-.493.255-.224.473-.515.69-.805a.566.566 0 01.817-.105.626.626 0 01.101.853c-.252.338-.505.676-.859.987a3.33 3.33 0 01-1.435.745c-.536.134-1.195.178-1.874.157a12.559 12.559 0 01-2.209-.272c-1.257-.274-2.115-.697-2.967-1.122l-.026-.012zM98.902 93.888a.626.626 0 01-.137-.848.568.568 0 01.813-.143c.255.189.51.379.787.556.248.16.496.297.741.386l.002.001c.232.085.474.136.711.16a3.82 3.82 0 001.452-.136c.197-.06.368-.134.506-.214.256-.149.435-.352.614-.555l.018-.02a.567.567 0 01.826 0 .628.628 0 010 .862l-.001.002c-.237.266-.477.533-.891.774a3.524 3.524 0 01-.743.32 4.918 4.918 0 01-1.895.18 4.071 4.071 0 01-.985-.225 4.983 4.983 0 01-.967-.496c-.277-.178-.564-.391-.851-.604zM124.972 69.12a.627.627 0 01.064-.857.566.566 0 01.822.066c.598.727 1.197 1.454 1.726 2.23.543.8 1.007 1.642 1.31 2.572.292.893.431 1.86.446 2.824a11.64 11.64 0 01-.35 3.008 9.56 9.56 0 01-.976 2.444l-.03.046a7.002 7.002 0 01-1.505 1.815c-1.144.964-2.496 1.384-3.847 1.802a.577.577 0 01-.721-.353.618.618 0 01.324-.791l.054-.02c1.244-.384 2.489-.77 3.459-1.587a5.778 5.778 0 001.243-1.5l.023-.041c.359-.621.648-1.336.848-2.125.213-.84.327-1.76.313-2.679a8.315 8.315 0 00-.386-2.452c-.262-.805-.672-1.547-1.155-2.257-.498-.73-1.08-1.438-1.662-2.144z" fill="#0078BF"/><path d="M123.13 81.31a.574.574 0 01-.774-.298.62.62 0 01.286-.808c.479-.232.96-.464 1.35-.686.374-.212.688-.424.882-.635a.813.813 0 00.228-.432.938.938 0 00-.098-.516 1.949 1.949 0 00-.394-.555c-.146-.144-.297-.25-.424-.29a.439.439 0 00-.272.011 2.698 2.698 0 00-.458.23.57.57 0 01-.792-.242.623.623 0 01.23-.826c.212-.122.423-.243.677-.325.296-.095.608-.122.953-.012.305.097.619.305.889.573.258.254.487.573.641.907.18.388.263.801.203 1.221a2.031 2.031 0 01-.542 1.1c-.287.31-.696.592-1.166.859-.452.257-.935.49-1.419.724zM87.726 97.925a.593.593 0 01.612-.577.6.6 0 01.553.639c-.084 1.688-.168 3.377-.302 4.956-.134 1.576-.317 2.994-.596 4.094-.293 1.159-.695 1.985-1.157 2.598a4.73 4.73 0 01-1.558 1.331c-.195.107-.38.196-.554.278-.261.125-.496.237-.606.336-.021.021.067.004.163.12.347.416 1.089 1.011 2.04 1.68a55.757 55.757 0 003.849 2.438c1.284.747 2.569 1.438 3.858 2.017 1.268.571 2.532 1.027 3.786 1.313 1.252.286 2.496.404 3.653.357 1.141-.046 2.198-.253 3.093-.617.853-.348 1.559-.839 2.081-1.393.528-.561.864-1.179.966-1.768a2.516 2.516 0 00-.192-1.456c-.214-.478-.549-.853-.902-1.034-.233-.12-.511-.166-.777-.209-.732-.12-1.403-.231-1.836-1.248-.478-1.128-.473-3.486-.47-5.311l.001-.467a69.832 69.832 0 00-.096-3.78l-.001-.008a.6.6 0 01.551-.641.592.592 0 01.614.574l.001.013c.048 1.026.098 2.055.098 3.842l-.003.467c-.004 1.71-.008 3.919.374 4.82.175.411.544.472.945.537.355.058.727.119 1.115.319.578.298 1.115.883 1.441 1.612.287.641.42 1.402.283 2.184-.144.831-.59 1.673-1.281 2.407-.633.673-1.478 1.263-2.488 1.674-1.018.413-2.203.647-3.472.699a15.121 15.121 0 01-3.945-.381c-1.335-.305-2.668-.786-4-1.384-1.312-.59-2.635-1.302-3.964-2.075a56.617 56.617 0 01-3.93-2.491c-1.038-.729-1.862-1.395-2.274-1.89-.684-.821-.57-1.365-.047-1.839.235-.211.543-.359.888-.523.164-.078.339-.161.499-.249.415-.227.82-.531 1.179-1.007.371-.493.7-1.176.947-2.155.263-1.036.436-2.385.564-3.889.128-1.501.213-3.207.297-4.913z" fill="#0078BF"/><path d="M90.608 107.093a.627.627 0 01.114-.853.567.567 0 01.818.119l6.287 8.675a.627.627 0 01-.114.853.568.568 0 01-.818-.119l-6.287-8.675zM98.802 105.807a.577.577 0 01.74-.377.614.614 0 01.36.772l-.005.016c-.4 1.236-.803 2.471-.986 3.38-.176.876-.156 1.49-.133 2.1v.004a.601.601 0 01-.548.644.594.594 0 01-.616-.573v-.018c-.026-.689-.05-1.38.155-2.404.2-.991.612-2.257 1.024-3.523l.009-.021z" fill="#0078BF"/><path d="M84.884 110.938a.607.607 0 01.455.717.584.584 0 01-.687.475c-.868-.186-1.737-.373-2.531-.509-.763-.131-1.438-.213-1.936-.196-.31.011-.533.057-.667.127.095.148.309.351.497.531.328.31.609.578.615.945.01.441-.21.7-.755.71-.282.006-.773-.086-1.37-.197-.919-.173-2.112-.396-2.893-.33-.438.036-.722.167-.895.338-.204.202-.27.483-.266.729.001.067.01.156.019.24.008.09.017.175.02.279.018.777-.228 1.293-2.137 1.343-.494.013-1.123-.003-1.852-.021-2.148-.053-5.184-.129-7.871.461a16.577 16.577 0 00-4.595 1.779 18.181 18.181 0 00-4.04 3.113 19.902 19.902 0 00-2.573 3.303c-.676 1.076-1.2 2.103-1.616 2.942l-.075.15c-.839 1.693-1.324 2.672-3.927 4.479-.852.591-1.91 1.257-3.074 1.991-2.403 1.513-5.27 3.318-7.517 5.205a29.474 29.474 0 00-4.12 4.249c-1.13 1.416-2.047 2.797-2.857 4.041l-.58.894c-1.37 2.116-2.478 3.827-3.892 5.35-.215.231-.436.456-.655.68-1.245 1.271-2.438 2.489-1.727 4.354.456 1.195 1.607 2.69 3.223 4.28 1.689 1.663 3.866 3.408 6.28 5.012 4.043 2.688 8.769 4.998 12.724 6.931.83.406 1.626.794 2.146 1.052a169.26 169.26 0 018.766 4.658c.888.499 1.774 1.004 2.663 1.502.783.441 1.851 1.069 1.494 2.858l-.005.025c-.104.503-.32 1.053-.548 1.638-.423 1.082-.9 2.302-.608 3.05.277.712 1.34 1.258 2.241 1.72.607.311 1.154.592 1.489.93.659.666.483 1.278.3 1.914-.078.27-.158.55-.069.733.154.313.641.662 1.31.978.74.35 1.665.629 2.607.759.969.134 1.953.112 2.819-.074.776-.167 1.447-.464 1.909-.894.692-.645.975-1.681 1.163-2.369.082-.301.149-.547.247-.747.33-.675.713-.643 1.168-.4.086.046.14.081.196.118.088.057.188.122.218.121.072-.004.175-.073.29-.188.167-.263.34-.543.52-.837.021-.061.04-.122.055-.183.106-.43.076-.948.054-1.342-.022-.371-.038-.665.054-.901l.03-.064c.243-.555.58-.463 1.013-.348.088.024.2.053.227.038.102-.056.223-.251.328-.532.12-.318.197-.711.192-1.122-.005-.5-.138-1.078-.242-1.537-.102-.446-.184-.802-.134-1.081.127-.717.488-.675.994-.618.125.014.292.033.394-.04.184-.13.375-.456.503-.915.122-.438.175-.973.103-1.561-.083-.68-.335-1.431-.72-2.128-.36-.649-.832-1.245-1.39-1.686a4.841 4.841 0 00-1.832-.884 5.841 5.841 0 00-2.197-.118c-.808.111-1.563.404-2.1.611-.435.17-.755.293-1.015.274l-.019-.002c-.714-.06-.681-.457-.637-.994.008-.108.02-.255-.042-.297-.204-.137-.66-.227-1.223-.272a10.989 10.989 0 00-2.192.064 8.136 8.136 0 00-1.794.436 6.386 6.386 0 00-1.37.702c-.203.138-.4.292-.585.435-.711.552-1.293 1.003-2.045.689l-.042-.02c-.746-.346-1.326-1.515-2.036-2.948l-.86-1.717c-.57-1.129-1.187-2.354-1.768-3.573l-.523-1.112c-.697-1.484-1.458-3.104-2.6-5.169-.775-1.4-1.724-3-2.682-4.461-.796-1.214-1.593-2.325-2.292-3.132-.593-.685-1.138-1.173-1.535-1.529-.38-.34-.645-.578-.78-.843-.263-.512-.16-.873.401-1.187.338-.189.94-.345 1.772-.561 1.15-.298 2.776-.72 4.63-1.458 1.504-.6 3.16-1.408 4.785-2.306a55.472 55.472 0 004.913-3.049 67.504 67.504 0 003.049-2.294c1.256-.986 2.178-1.711 2.85-1.91 1.066-.316 1.463.256 1.83 1.602.07.261.158.631.257 1.053.085.365.181.776.321 1.319a62.27 62.27 0 001.545 5.007 61.954 61.954 0 001.923 4.835c.594 1.316 1.23 2.572 1.883 3.859 1.07 2.111 2.182 4.306 3.226 6.987.938 2.408 1.82 5.214 2.328 8.118.411 2.357.573 4.772.313 7.083-.29 2.591-1.11 5.042-2.074 7.188a38.747 38.747 0 01-2.206 4.159 3.5 3.5 0 01-.559.941l-.083.092-.072.114c-.503.789-.925 1.415-1.286 1.953-.85 1.262-1.359 2.02-1.778 3.184-.586 1.623-1.043 4.118-2.011 9.41l-.35 1.911c-1.061 5.791-2.577 14.06-3.706 21.093a716.81 716.81 0 00-.74 4.725c-.843 5.473-1.565 10.152-2.702 14.306-.733 2.676-1.637 5.138-2.773 7.516-1.133 2.372-2.5 4.666-4.162 7.012-.756 1.067-1.594 2.172-2.452 3.303-2.753 3.629-5.714 7.532-7.344 12.182-1.062 3.031-1.57 6.409-1.796 9.844-.228 3.473-.168 6.992-.096 10.279.074 3.366.16 6.502.256 9.218.09 2.557.19 4.738.297 6.381.106 1.618.215 2.658.433 3.387.194.65.492 1.059.986 1.47.603.501 1.473 1.002 2.378 1.239.674.176 1.36.201 1.942-.045.67-.284 1.254-.953 1.814-1.944.602-1.066 1.168-2.491 1.77-4.201.237-.668.468-1.349.71-2.06 1.074-3.165 2.357-6.941 4.337-10.683 1.51-2.853 3.429-5.683 5.35-8.516 1.14-1.681 2.28-3.364 3.356-5.089 1.4-2.243 2.648-4.503 3.62-6.706.965-2.182 1.657-4.301 1.954-6.281.39-2.59.109-5.006-.142-7.163-.134-1.161-.261-2.249-.274-3.298-.019-1.534.214-2.894.673-4.15.46-1.254 1.142-2.401 2.025-3.513.624-.788 1.356-1.562 2.185-2.44 1.405-1.487 3.1-3.28 5.037-5.972 1.472-2.046 3.09-4.613 4.662-7.318a141.407 141.407 0 004.725-8.847 101.253 101.253 0 003.127-7.072 86.177 86.177 0 001.84-5.108c.432-1.332.719-2.316.81-3.144a4.036 4.036 0 00-.31-2.135c-.343-.808-.949-1.714-1.401-2.39-.424-.635-.74-1.108-.71-1.448v-.002c.042-.426.26-.626.69-.582a.56.56 0 01.2.059c.431.182 1.188.752 2.067 1.414.802.604 1.717 1.293 2.489 1.796.775.506 1.37.798 1.949.861.575.063 1.188-.09 2.011-.472.906-.42 2.06-1.115 2.965-1.66.877-.528 1.548-.933 1.848-.902l.026.004c.38.046.557.266.517.684-.032.346-.679.968-1.545 1.8-.919.884-2.12 2.038-2.958 3.021-.721.845-1.162 1.552-1.368 2.415-.215.895-.197 1.998.004 3.616.189 1.528.546 3.517.995 5.712a236.179 236.179 0 001.847 8.172l.517 2.111c1.052 4.263 2.032 8.231 2.388 12.174.2 2.223.203 4.424.054 6.47-.162 2.222-.503 4.275-.964 5.985-.487 1.809-1.098 3.21-1.728 4.655-.514 1.181-1.043 2.394-1.509 3.835a27.743 27.743 0 00-1.255 6.257c-.146 1.854-.085 3.797.31 5.692.698 3.346 2.459 6.614 4.332 10.091.522.969 1.053 1.955 1.585 2.988a87.451 87.451 0 013.541 7.764 72.346 72.346 0 012.553 7.595c.804 2.945 1.404 5.974 1.939 8.681.438 2.21.833 4.204 1.262 5.75.385 1.386.795 2.409 1.22 3.062l.02.032c.198.3.392.504.577.611.13.076.258.095.382.057a.826.826 0 00.239-.123c.929-.66 1.998-3.07 2.957-5.234l.668-1.489c.925-2.039 1.663-3.665 1.684-5.98.009-1.033-.124-2.251-.297-3.84-.261-2.402-.614-5.642-.715-10.5-.076-3.636-.01-8.171.056-12.751.081-5.558.164-11.187-.008-15.347-.181-4.379-.647-7.133-1-9.214-.258-1.52-.456-2.69-.445-3.918.014-1.661.413-3.297.815-4.942.298-1.221.598-2.45.729-3.645v-.002c.13-1.195.102-2.4.07-3.709-.043-1.807-.091-3.808.245-6.265.182-1.333.479-2.798.808-4.43.715-3.539 1.592-7.875 1.788-13.333.139-3.85-.058-8.27-.485-12.641-.455-4.663-1.175-9.273-2.03-13.074-.663-2.953-1.414-5.429-2.1-7.691-1.028-3.39-1.913-6.309-2.177-9.724-.22-2.847-.001-6.015.417-9.2.415-3.159 1.026-6.334 1.594-9.225.572-2.909 1.099-5.522 1.595-7.723.507-2.251.995-4.14 1.485-5.584.52-1.534 1.058-2.601 1.842-3.196.838-.634 1.864-.706 3.303-.196 1.432.508 3.301 1.608 5.293 2.78 1.566.921 3.21 1.889 4.736 2.625 1.871.902 3.594 1.476 5.425 2.085 1.586.528 3.251 1.082 5.124 1.876.992.42 2.044.907 3.114 1.402 3.309 1.533 6.8 3.149 8.963 3.006 1.268-.084 2.088-.832 2.606-2.038.572-1.335.8-3.213.847-5.388.046-2.16-.089-4.607-.378-7.266-.305-2.812-.781-5.844-1.393-9.009-.557-2.876-1.25-5.962-1.926-8.975-.748-3.331-1.475-6.572-2.002-9.489-.478-2.651-.782-4.999-1.075-7.257-.311-2.403-.609-4.706-1.091-7.154a68.23 68.23 0 00-1.938-7.523c-.736-2.296-1.582-4.475-2.489-6.298-.897-1.802-1.85-3.243-2.827-4.353-1.023-1.164-2.07-1.964-3.102-2.436a6.01 6.01 0 00-2.983-.535c-1.053.071-2.163.379-3.374.848a31.952 31.952 0 00-3.696 1.747c-1.272.698-2.423 1.43-3.218 2.045-.721.559-1.127 1.003-1.33 1.388-.167.316-.185.6-.139.89.038.237.117.494.196.753l.008.028c.195.638.389 1.29.206 2.034-.106.428-.321.813-.546 1.214-.277.493-.572 1.02-.556 1.534.014.437.232.937.572 1.38.345.45.809.83 1.311 1.021.68.26 1.499.185 2.041.135l.051-.003c.363-.033.636-.053.855.046l.037.019c.417.206.471.528.298.946-.067.16-.171.306-.292.475-.16.226-.367.516-.4.732v.002c-.027.179.069.402.268.681.265.372.692.801 1.241 1.308a25.187 25.187 0 001.995 1.674c.732.548 1.509 1.048 2.253 1.377.767.34 1.551.517 2.303.688.742.168 1.458.33 2.168.645a5.89 5.89 0 012.181 1.657c.559.675 1.025 1.531 1.351 2.604.333 1.098.519 2.429.594 3.953.073 1.496.04 3.181-.063 5.017a101.675 101.675 0 01-.495 5.733c-.213 1.852-.47 3.615-.745 5.037-.28 1.452-.58 2.535-.903 3.282-.39.9-.857 1.39-1.406 1.507-.575.122-1.123-.174-1.647-.694-.425-.421-.848-1-1.257-1.599l-.247-.367c-.665-.981-1.343-1.985-2.345-2.604-.425-.262-.932-.474-1.455-.692l-.028-.013c-.966-.403-1.979-.83-2.815-1.669-.837-.839-1.418-2.014-2.149-3.492-.414-.836-.878-1.774-1.44-2.759-.853-1.496-1.972-3.183-3.28-4.713-1.043-1.22-2.199-2.331-3.421-3.144-1.36-.904-2.822-1.454-4.254-1.771-1.444-.319-2.855-.401-4.103-.371-1.195.029-2.275.166-3.154.279l-.017.001c-.999.127-1.756.223-2.284.095-.722-.175-.922-.628-1.116-1.069-.065-.147-.128-.29-.206-.318-.227-.08-.742-.03-1.248.02-.613.06-1.217.119-1.645-.035-.687-.248-.762-.778-.832-1.271-.014-.098.117-.104.045-.147-.044-.027-.404.034-.788.098-.414.07-.849.143-1.235.112-.767-.061-1.184-.468-1.529-.804a2.967 2.967 0 00-.2-.185.51.51 0 00-.238-.103l-.002-.001c-.111-.017-.243-.009-.375-.002a.592.592 0 01-.614-.574.599.599 0 01.55-.641 2.7 2.7 0 01.613.012c.253.04.507.134.763.333.112.09.202.177.297.27.21.203.464.451.822.48.261.02.622-.04.965-.098.593-.1 1.148-.193 1.551.049.421.253.474.628.531 1.025.019.141.041.293.055.298.19.069.672.021 1.161-.027.63-.062 1.271-.124 1.728.038.551.195.719.576.89.966.076.171.154.348.317.387.328.079.998-.005 1.883-.118l.017-.002c.889-.113 1.981-.253 3.268-.284 1.331-.032 2.834.055 4.372.396 1.552.343 3.143.944 4.637 1.938 1.328.882 2.565 2.066 3.668 3.358 1.351 1.58 2.516 3.338 3.409 4.903a51.008 51.008 0 011.475 2.822c.682 1.377 1.224 2.473 1.921 3.172.676.678 1.578 1.058 2.439 1.417l.03.012c.567.236 1.118.466 1.615.773 1.217.753 1.968 1.865 2.703 2.953l.245.362c.373.545.753 1.067 1.11 1.422.258.256.476.413.611.384.161-.034.351-.299.575-.816.291-.671.564-1.668.825-3.02.263-1.36.515-3.092.727-4.941.215-1.875.388-3.85.49-5.662.101-1.797.134-3.438.063-4.883-.069-1.418-.239-2.647-.543-3.648-.275-.904-.662-1.619-1.122-2.176a4.711 4.711 0 00-1.753-1.332c-.599-.266-1.266-.417-1.958-.573-.796-.181-1.625-.369-2.508-.76-.846-.374-1.696-.918-2.481-1.505a26.714 26.714 0 01-2.087-1.755c-.606-.56-1.084-1.044-1.405-1.495-.388-.544-.564-1.058-.482-1.595.044-.288.157-.547.289-.777-.609.043-1.384.046-2.131-.24-.703-.269-1.345-.791-1.817-1.408-.491-.64-.806-1.397-.829-2.1-.027-.863.357-1.547.716-2.187.183-.326.359-.64.423-.9.101-.41-.042-.89-.187-1.363l-.009-.027c-.093-.305-.187-.609-.237-.925-.086-.54-.05-1.074.267-1.675.281-.532.791-1.107 1.659-1.78.844-.653 2.049-1.42 3.368-2.144a33.11 33.11 0 013.833-1.809c1.318-.51 2.534-.845 3.708-.924a7.092 7.092 0 013.521.634c1.18.54 2.36 1.436 3.496 2.727 1.047 1.19 2.06 2.72 3.004 4.615.931 1.87 1.8 4.11 2.558 6.475a69.648 69.648 0 011.975 7.666c.491 2.496.791 4.815 1.105 7.235.289 2.24.591 4.568 1.065 7.195.515 2.852 1.244 6.099 1.994 9.437.665 2.966 1.348 6.005 1.929 9.012.623 3.217 1.105 6.285 1.412 9.115.293 2.699.43 5.199.382 7.423-.05 2.326-.304 4.359-.947 5.86-.699 1.628-1.83 2.641-3.597 2.758-2.449.162-6.072-1.516-9.507-3.106a104.82 104.82 0 00-3.081-1.388c-1.876-.795-3.495-1.334-5.038-1.847-1.877-.625-3.644-1.213-5.562-2.138-1.577-.761-3.237-1.738-4.818-2.668-1.946-1.145-3.772-2.22-5.097-2.69-1.042-.369-1.738-.353-2.243.03-.558.424-.984 1.307-1.427 2.614-.473 1.396-.95 3.243-1.448 5.455-.509 2.262-1.031 4.842-1.591 7.69-.563 2.868-1.169 6.017-1.579 9.144-.407 3.102-.621 6.183-.408 8.943.253 3.273 1.12 6.132 2.126 9.452.691 2.277 1.447 4.77 2.124 7.782.862 3.836 1.59 8.502 2.052 13.231.432 4.421.631 8.897.49 12.803-.201 5.569-1.087 9.957-1.811 13.538-.324 1.605-.616 3.046-.795 4.354-.324 2.369-.277 4.31-.235 6.064.032 1.361.062 2.614-.076 3.876-.141 1.293-.449 2.555-.756 3.81-.386 1.582-.77 3.154-.783 4.65-.009 1.097.182 2.229.432 3.699.357 2.106.829 4.891 1.014 9.371.172 4.178.089 9.832.008 15.415-.067 4.568-.133 9.091-.057 12.712.1 4.778.451 8.002.711 10.39.176 1.619.311 2.86.301 3.984-.023 2.588-.809 4.32-1.793 6.49l-.285.627-.378.852c-1.023 2.307-2.162 4.877-3.364 5.73a1.962 1.962 0 01-.567.285c-.436.132-.861.077-1.274-.162-.341-.198-.666-.527-.97-.986l-.023-.033c-.493-.757-.956-1.897-1.376-3.41-.443-1.597-.842-3.612-1.284-5.846-.528-2.665-1.118-5.647-1.922-8.59a70.94 70.94 0 00-2.507-7.466 85.978 85.978 0 00-3.491-7.65 185.66 185.66 0 00-1.575-2.969c-1.918-3.56-3.72-6.904-4.455-10.43-.422-2.022-.488-4.083-.334-6.044.19-2.417.715-4.689 1.315-6.548.497-1.538 1.031-2.762 1.55-3.954.614-1.409 1.21-2.774 1.669-4.479.44-1.633.767-3.604.922-5.747a38.88 38.88 0 00-.049-6.264c-.348-3.853-1.316-7.775-2.356-11.988l-.521-2.116a236.036 236.036 0 01-1.857-8.216c-.451-2.205-.812-4.223-1.009-5.811-.22-1.776-.233-3.012.019-4.065.26-1.086.783-1.938 1.629-2.929.4-.47.876-.973 1.365-1.468-.301.162-.597.313-.875.442-1.019.473-1.81.659-2.601.572-.788-.087-1.525-.437-2.447-1.037-.711-.464-1.56-1.097-2.334-1.679.258.428.501.875.684 1.305.394.929.51 1.77.401 2.765-.102.935-.407 1.988-.865 3.397a87.525 87.525 0 01-1.867 5.18 102.363 102.363 0 01-3.163 7.157 142.442 142.442 0 01-4.77 8.928c-1.594 2.743-3.234 5.345-4.727 7.418-1.99 2.765-3.71 4.586-5.136 6.096-.803.85-1.51 1.599-2.118 2.364-.803 1.013-1.422 2.049-1.832 3.17-.41 1.12-.618 2.332-.6 3.701.011.953.136 2.026.27 3.17.258 2.229.548 4.726.132 7.492-.316 2.105-1.04 4.331-2.045 6.605-.995 2.254-2.272 4.565-3.702 6.859-1.056 1.693-2.22 3.411-3.384 5.127-1.893 2.791-3.784 5.579-5.277 8.401-1.935 3.656-3.2 7.38-4.26 10.502-.25.736-.49 1.44-.713 2.075-.625 1.772-1.217 3.259-1.863 4.401-.689 1.219-1.449 2.059-2.38 2.454-.835.354-1.769.33-2.663.097-1.076-.282-2.108-.875-2.821-1.468-.686-.569-1.1-1.142-1.374-2.06-.251-.84-.372-1.956-.483-3.669a232.018 232.018 0 01-.297-6.419 697.355 697.355 0 01-.257-9.237c-.072-3.326-.133-6.886.097-10.384.231-3.536.759-7.023 1.864-10.178 1.694-4.831 4.717-8.816 7.527-12.52a122.596 122.596 0 002.43-3.275c1.613-2.28 2.945-4.513 4.051-6.83 1.104-2.311 1.983-4.703 2.695-7.307 1.125-4.11 1.84-8.743 2.675-14.163.242-1.572.494-3.205.74-4.734 1.132-7.05 2.649-15.325 3.71-21.122l.35-1.911c.981-5.358 1.444-7.885 2.066-9.61.11-.304.224-.582.344-.844-.56.381-1.242.65-1.99.812-.992.213-2.11.24-3.202.089a10.37 10.37 0 01-2.937-.856c-.898-.424-1.588-.966-1.866-1.531-.306-.622-.158-1.138-.014-1.638.08-.276.156-.542.006-.694-.205-.206-.67-.445-1.187-.71-1.087-.558-2.37-1.215-2.813-2.355-.47-1.206.102-2.668.609-3.964.212-.543.412-1.053.49-1.433l.004-.02c.183-.921-.465-1.29-.93-1.552-.845-.455-1.83-.985-2.639-1.489-1.607-.909-4.437-2.51-8.711-4.629-.842-.417-1.483-.73-2.141-1.052-3.985-1.948-8.746-4.275-12.856-7.007-2.481-1.649-4.72-3.442-6.455-5.15-1.733-1.707-2.984-3.352-3.505-4.719-.998-2.617.466-4.113 1.996-5.675.212-.216.427-.435.632-.656 1.334-1.436 2.42-3.111 3.76-5.182l.584-.895c.827-1.27 1.765-2.681 2.926-4.137a30.738 30.738 0 014.284-4.42c2.319-1.946 5.216-3.771 7.645-5.3 1.166-.734 2.224-1.4 3.033-1.962 2.35-1.632 2.785-2.508 3.535-4.022l.074-.15c.427-.858.964-1.913 1.68-3.052a21.063 21.063 0 012.73-3.502 19.343 19.343 0 014.299-3.319 17.663 17.663 0 014.915-1.897c2.812-.618 5.929-.541 8.135-.486.714.018 1.331.033 1.797.021.882-.023 1.001-.055 1-.099 0-.041-.008-.11-.015-.183-.01-.101-.021-.209-.024-.345-.009-.534.149-1.155.627-1.629.354-.351.871-.611 1.608-.673.885-.074 2.118.149 3.095.331l-.084-.124a1.345 1.345 0 01-.213-.665v-.004a1.08 1.08 0 01.14-.574l.003-.002a1.21 1.21 0 01.382-.404c.295-.198.735-.324 1.305-.344.585-.02 1.332.068 2.16.21a67.15 67.15 0 012.575.519zM72.41 194.147l-.046.17.214-.323-.11-.059-.058.212zm4.364-8.539l.08.359c.071-.192.14-.386.207-.582a1.39 1.39 0 01-.329.04l.042.183zm1.012-6.672c.148.268.28.544.394.823.087-1.82-.075-3.692-.395-5.53-.489-2.795-1.349-5.522-2.264-7.874-1.027-2.636-2.122-4.798-3.176-6.877-.66-1.301-1.303-2.572-1.906-3.907a63.353 63.353 0 01-1.964-4.936 63.47 63.47 0 01-1.577-5.111 65.634 65.634 0 01-.326-1.348 28.46 28.46 0 00-.248-1.005v-.002c-.15-.551-.25-.803-.39-.762-.466.138-1.314.805-2.468 1.711a69.03 69.03 0 01-3.098 2.332 56.88 56.88 0 01-5.019 3.116c-1.67.922-3.37 1.752-4.913 2.367-1.906.759-3.58 1.194-4.767 1.501-.458.119-.84.218-1.114.303l.201.181c.415.372.985.883 1.64 1.639.747.863 1.576 2.016 2.392 3.26a73.162 73.162 0 012.727 4.537c1.15 2.077 1.926 3.731 2.638 5.246l.523 1.103a177.8 177.8 0 001.754 3.549l.865 1.727c.605 1.221 1.098 2.215 1.457 2.388l.018.007c.147.061.494-.207.917-.536.198-.154.409-.318.644-.478a7.541 7.541 0 011.613-.831 9.282 9.282 0 012.04-.493h.002a12.146 12.146 0 012.423-.073c.741.058 1.39.21 1.77.467.42.283.55.619.58.931l.092-.035c.585-.225 1.405-.543 2.356-.674a6.938 6.938 0 012.617.142c.807.202 1.59.559 2.266 1.093.687.543 1.263 1.266 1.696 2.049z" fill="#0078BF"/><path d="M129.974 159.306a.62.62 0 01.295-.804.574.574 0 01.769.308c3.17 7.421 6.341 14.844 9.642 22.166 3.283 7.28 6.674 14.411 10.281 21.239 1.715 3.246 3.47 6.408 5.187 9.504 5.578 10.051 10.775 19.419 12.743 28.217a38.392 38.392 0 01.306 15.446c-1.011 5.482-3.148 10.482-5.88 14.8-2.8 4.427-6.241 8.152-9.203 9.908-.981.582-1.921.956-2.783 1.078-.925.132-1.761-.022-2.467-.509-.443-.306-.826-.738-1.137-1.309-1.914-3.516-1.025-12.714-.104-22.25.291-3.01.585-6.055.8-9.024.431-5.978.503-11.343.102-16.559-.4-5.211-1.273-10.278-2.731-15.668-2.183-8.068-5.676-16.869-8.706-24.505-1.06-2.671-2.065-5.202-2.886-7.37-3.381-8.925-4.832-14.576-6.281-20.225l-.011-.049a.612.612 0 01.424-.705.58.58 0 01.701.392l.014.047c1.439 5.61 2.88 11.222 6.24 20.092.896 2.366 1.86 4.795 2.876 7.355 3.045 7.672 6.555 16.515 8.752 24.639 1.48 5.472 2.366 10.614 2.772 15.901.406 5.281.334 10.705-.102 16.745-.208 2.884-.508 5.986-.804 9.053-.902 9.34-1.773 18.35-.042 21.53.216.397.474.693.766.894.457.315 1.024.411 1.669.319.709-.1 1.508-.423 2.363-.93 2.807-1.665 6.1-5.245 8.805-9.522 2.652-4.192 4.727-9.043 5.707-14.357.86-4.664.878-9.688-.297-14.94-1.929-8.627-7.084-17.916-12.615-27.884-1.728-3.115-3.494-6.297-5.2-9.528-3.619-6.85-7.021-14.003-10.314-21.306-3.274-7.262-6.463-14.726-9.651-22.189zM67.563 137.052a.626.626 0 01-.09-.855.566.566 0 01.82-.093c2.14 1.795 4.281 3.59 6.336 5.23 2.054 1.639 4.017 3.121 5.795 4.284 1.77 1.158 3.376 2.015 4.887 2.63 1.495.609 2.89.979 4.25 1.167 1.366.189 2.711.197 4.045.116 1.327-.081 2.675-.257 4.023-.433.32-.04.612.198.65.532a.605.605 0 01-.509.679c-1.35.176-2.7.352-4.1.438-1.394.085-2.808.074-4.26-.126-1.457-.202-2.941-.594-4.523-1.238-1.566-.638-3.236-1.529-5.08-2.735-1.834-1.2-3.822-2.699-5.886-4.347-2.064-1.647-4.212-3.448-6.358-5.249zM113.685 150.984a.587.587 0 01-.671-.501.607.607 0 01.479-.701l.035-.005c4.145-.696 8.287-1.394 11.351-2.816 1.51-.701 2.765-1.581 3.732-2.622a8.377 8.377 0 001.966-3.48c.746-2.683.227-6.036-.293-9.389l-.001-.01a.604.604 0 01.494-.69.589.589 0 01.66.518c.539 3.484 1.077 6.966.259 9.91a9.582 9.582 0 01-2.25 3.989c-1.067 1.15-2.445 2.118-4.096 2.884-3.206 1.488-7.42 2.199-11.637 2.907l-.028.006zM146.258 98.633a.618.618 0 01-.324-.792.575.575 0 01.753-.34c1 .367 1.998.74 2.513 1.87l.015.036c.266.605.365 1.409.202 2.135-.147.66-.503 1.266-1.131 1.638-.599.355-1.428.467-2.288.399a7.292 7.292 0 01-2.619-.726 4.871 4.871 0 01-1.754-1.466c-.423-.575-.699-1.225-.869-1.912-.17-.688-.228-1.37-.276-1.946-.04-.469-.073-.856-.131-.98l-.008-.018.003.049c.009.04.017.082.004.083-.283.017-.599.036-.963-.208l-.043-.032c-.332-.245-.629-.716-.787-1.25-.143-.481-.187-1.035-.057-1.537l.005-.017a2 2 0 01-.615-.005c-.529-.093-.956-.428-1.263-.87a3.292 3.292 0 01-.553-1.601c-.034-.508.069-.96.24-1.382.158-.39.364-.731.568-1.07a.57.57 0 01.804-.192.625.625 0 01.183.84c-.182.301-.364.603-.482.894-.105.26-.168.532-.149.829.022.325.14.687.335.967.139.2.314.35.509.384.459.08 1.182-.307 1.475-.465.075-.04.133-.071.187-.094l.045-.017c.39-.132.627-.025.751.405.102.346-.025.49-.242.71-.164.166-.558.565-.67.998-.069.269-.041.583.043.866.084.282.207.51.327.602l.019.012c.045.03.163.023.269.017.431-.026.808-.05 1.094.527l.021.041c.154.329.195.817.245 1.41.046.542.101 1.186.24 1.75.132.532.344 1.033.667 1.473.32.435.755.814 1.335 1.109.636.322 1.44.546 2.199.606.649.051 1.243-.015 1.626-.242.31-.183.49-.502.569-.855a2.27 2.27 0 00-.122-1.346l-.013-.025c-.309-.678-1.075-.964-1.843-1.246l-.044-.016zm-5.917-2.102l-.002-.006c-.016-.028-.005.011.005.055l-.003-.049z" fill="#0078BF"/><path d="M141.318 96.677a.567.567 0 01-.793.092.626.626 0 01-.117-.851l.025-.032c.89-1.084 1.782-2.168 3.119-2.905.663-.364 1.422-.633 2.228-.852.793-.216 1.611-.38 2.427-.544a.586.586 0 01.683.484c.06.33-.147.65-.464.712-.809.163-1.619.326-2.354.526-.723.197-1.399.434-1.976.752-1.142.629-1.96 1.624-2.778 2.618zM140.246 92.95a.57.57 0 01-.788-.236.621.621 0 01.221-.827l.015-.008c.952-.538 1.905-1.076 3.16-1.582a31.684 31.684 0 012.035-.727c.658-.214 1.438-.45 2.217-.686a.58.58 0 01.722.414.613.613 0 01-.397.753c-.714.216-1.428.433-2.195.682h-.002c-.702.227-1.367.46-1.96.698-1.174.474-2.102.997-3.028 1.518zM134.812 137.233a.626.626 0 01.164-.844.569.569 0 01.809.172 10.974 10.974 0 004.868 4.212c2.076.933 4.592 1.372 7.544 1.317a.595.595 0 01.592.598.598.598 0 01-.574.618c-3.123.058-5.798-.413-8.023-1.413a12.139 12.139 0 01-5.38-4.66zM52.639 133.084a.607.607 0 01-.49-.694.588.588 0 01.664-.512c5.633.89 10.631.838 14.993-.158 4.332-.989 8.04-2.91 11.12-5.762a.565.565 0 01.822.052.627.627 0 01-.05.858c-3.235 2.996-7.117 5.011-11.646 6.044-4.5 1.027-9.638 1.085-15.413.172zM68.702 112.758a.627.627 0 01-.125-.851.567.567 0 01.815-.131c4.799 3.668 9.797 6.148 14.994 7.438 5.194 1.289 10.59 1.392 16.187.308a.585.585 0 01.678.488.607.607 0 01-.468.708c-5.762 1.116-11.318 1.011-16.667-.317-5.346-1.327-10.485-3.875-15.414-7.643zM109.664 120.679a.6.6 0 01-.555-.636.593.593 0 01.61-.579c2.305.113 4.312-.422 6.02-1.605 1.723-1.193 3.16-3.055 4.308-5.584a.574.574 0 01.777-.291.621.621 0 01.278.811c-1.241 2.734-2.815 4.761-4.719 6.079-1.919 1.329-4.159 1.931-6.719 1.805zM64.464 148.771a.567.567 0 01.81-.15.625.625 0 01.144.846c-2.023 3.017-3.963 5.719-5.82 8.104-1.864 2.397-3.652 4.483-5.36 6.258a.566.566 0 01-.823-.002.628.628 0 01.002-.861c1.679-1.745 3.438-3.799 5.277-6.162 1.848-2.373 3.77-5.052 5.77-8.033zM60.672 171.17a.57.57 0 01-.783.264.62.62 0 01-.254-.817 126.637 126.637 0 003.583-8.019c1.1-2.707 2.116-5.482 3.05-8.323a.58.58 0 01.742-.379.617.617 0 01.363.775 131.559 131.559 0 01-3.082 8.399 128.05 128.05 0 01-3.62 8.1zM76.873 158.06a.625.625 0 01-.183-.84.569.569 0 01.804-.19c3.011 1.981 6.105 3.407 9.279 4.276a28.927 28.927 0 009.776.945c.321-.022.6.232.62.567a.602.602 0 01-.543.649 30.07 30.07 0 01-10.145-.983c-3.294-.902-6.497-2.377-9.608-4.424zM79.84 164.154a.624.624 0 01-.208-.832.568.568 0 01.796-.217c1.908 1.165 3.908 1.966 6 2.403 2.09.436 4.273.507 6.547.212.32-.04.611.198.65.532a.605.605 0 01-.509.679c-2.398.311-4.704.235-6.917-.227-2.212-.462-4.332-1.312-6.36-2.55zM81.492 169.827a.616.616 0 01-.359-.775.577.577 0 01.742-.374c1.444.525 2.879.921 4.304 1.186 1.425.265 2.83.397 4.21.398.322 0 .583.272.583.608 0 .335-.261.607-.582.607-1.465 0-2.936-.137-4.412-.412a28.107 28.107 0 01-4.486-1.238zM121.458 158.222a.567.567 0 01.825-.002.627.627 0 01.002.86c-2.05 2.147-4.164 3.695-6.341 4.644-2.198.958-4.456 1.305-6.774 1.042a.602.602 0 01-.518-.669.59.59 0 01.641-.541c2.12.24 4.188-.078 6.203-.957 2.036-.887 4.024-2.346 5.962-4.377zM119.551 164.514a.567.567 0 01.825.031.628.628 0 01-.03.86c-1.344 1.306-2.76 2.207-4.247 2.701-1.498.499-3.056.581-4.673.247a.609.609 0 01-.461-.715.585.585 0 01.685-.481c1.427.294 2.793.225 4.098-.209 1.317-.438 2.584-1.25 3.803-2.434zM118.657 170.258a.57.57 0 01.792.236.622.622 0 01-.226.827 13.78 13.78 0 01-2.988 1.312c-.994.294-1.983.441-2.966.441a.595.595 0 01-.582-.608c0-.335.26-.608.582-.608.87 0 1.754-.133 2.651-.398a12.63 12.63 0 002.737-1.202z" fill="#0078BF"/><path d="M94.196 121.342a.626.626 0 01-.105-.853.567.567 0 01.818-.11c1.45 1.173 2.71 2.293 3.774 3.361 1.076 1.079 1.958 2.108 2.645 3.085a.627.627 0 01-.125.851.568.568 0 01-.815-.131c-.65-.922-1.487-1.899-2.513-2.927-1.036-1.04-2.263-2.132-3.679-3.276zM110.008 111.855a.567.567 0 01.813-.133.625.625 0 01.128.848c-1.811 2.591-3.398 5.1-4.758 7.524-1.35 2.407-2.48 4.737-3.386 6.989a.576.576 0 01-.765.327.62.62 0 01-.313-.799c.919-2.283 2.073-4.661 3.459-7.132 1.377-2.452 2.984-4.994 4.822-7.624zM37.237 159.346a.602.602 0 01.537-.656.593.593 0 01.628.56c.245 3.192 1.468 5.894 3.669 8.106 2.237 2.247 5.49 4.005 9.757 5.272.31.092.49.429.402.753a.58.58 0 01-.722.419c-4.451-1.321-7.867-3.177-10.245-5.567-2.415-2.427-3.757-5.39-4.026-8.887zM28.019 154.428a.567.567 0 01.822-.062c.243.22.27.605.06.859-.817.986-1.225 1.948-1.225 2.885 0 .932.407 1.874 1.22 2.826a.63.63 0 01-.048.861.568.568 0 01-.825-.05c-1.01-1.184-1.516-2.397-1.516-3.637 0-1.235.504-2.463 1.512-3.682zM157.599 155.507a.604.604 0 01-.537-.656.594.594 0 01.628-.56c1.672.137 2.854-.071 3.504-.661.601-.547.763-1.504.453-2.911a.61.61 0 01.439-.729.582.582 0 01.698.458c.416 1.888.125 3.24-.823 4.102-.901.818-2.369 1.12-4.362.957zM76.973 46.81a.594.594 0 01.596-.593.597.597 0 01.569.622c-.033 1.35-.065 2.7-.121 4.063v.002a92.616 92.616 0 01-.27 4.304 83.37 83.37 0 01-.537 4.647c-.206 1.415-.442 2.73-.69 3.768-.265 1.114-.551 1.926-.902 2.436-.478.695-1.048.906-1.765.623-.467-.183-.935-.589-1.48-1.061-.64-.554-1.402-1.213-2.268-1.592a4.706 4.706 0 00-2.557-.343c-.8.118-1.595.455-2.29 1.053-.763.659-1.412 1.638-1.861 2.823-.437 1.152-.683 2.49-.664 3.915.02 1.44.312 2.979.775 4.393.481 1.472 1.143 2.796 1.871 3.72.684.868 1.432 1.383 2.19 1.704.774.328 1.581.461 2.346.56.794.103 1.533.169 2.156.173.596.003 1.094-.047 1.445-.173.232-.084.416-.213.578-.325.503-.353.883-.618 1.643-.217.422.223.953.712 1.61 1.437.608.672 1.362 1.588 2.264 2.709l.396.49c1.712 2.132 3.907 4.866 6.463 7.164a34.09 34.09 0 004.204 3.215c1.514.983 3.015 1.785 4.37 2.351 1.292.54 2.449.864 3.642.945 1.195.08 2.444-.081 3.921-.512 1.582-.462 3.421-1.23 5.272-2.248 1.666-.916 3.339-2.036 4.837-3.317a22.014 22.014 0 004.101-4.609c1.158-1.75 2.104-3.741 2.816-6.028.719-2.307 1.202-4.918 1.561-7.625.359-2.698.598-5.538.827-8.265.232-2.771.451-5.401.631-7.608.188-2.307.344-4.261.444-5.63.205-2.778.205-3.395.205-4.012 0-.337.262-.61.585-.61.322 0 .584.273.584.61 0 .632 0 1.265-.209 4.102-.106 1.44-.261 3.387-.444 5.64-.192 2.352-.408 4.94-.632 7.613-.228 2.716-.466 5.546-.835 8.327-.368 2.773-.865 5.454-1.607 7.834-.747 2.4-1.744 4.495-2.967 6.344a23.181 23.181 0 01-4.321 4.86c-1.556 1.331-3.297 2.496-5.033 3.452-1.922 1.057-3.843 1.858-5.505 2.343-1.607.468-2.978.644-4.304.554-1.327-.089-2.597-.443-4.002-1.03-1.42-.593-2.984-1.428-4.553-2.446a35.29 35.29 0 01-4.35-3.33c-2.633-2.367-4.86-5.14-6.596-7.302l-.394-.49c-.871-1.086-1.606-1.978-2.22-2.656-.566-.625-.994-1.03-1.286-1.185-.153-.08-.29.014-.47.14-.225.157-.481.337-.847.468-.475.171-1.103.24-1.828.235a19.133 19.133 0 01-2.293-.177c-.844-.11-1.74-.259-2.644-.64-.918-.39-1.824-1.013-2.65-2.063-.818-1.038-1.553-2.497-2.078-4.101-.497-1.522-.812-3.19-.833-4.77-.022-1.594.253-3.09.74-4.377.523-1.376 1.29-2.525 2.205-3.314a5.63 5.63 0 012.874-1.32 5.822 5.822 0 013.165.424c1.032.451 1.865 1.172 2.564 1.778.467.404.868.751 1.147.861.147.058.28-.007.408-.194.257-.372.486-1.05.716-2.016.235-.987.463-2.265.666-3.66.217-1.49.402-3.082.532-4.575.129-1.466.21-2.872.266-4.246.057-1.388.09-2.715.121-4.042zM152.913 115.523a.604.604 0 01-.511-.677.589.589 0 01.648-.533l.02.002c.834.105 1.668.21 2.46.245.407.019.81.021 1.183.006.354-.013.688-.043.979-.089.549-.086.916-.237 1.282-.387l.05-.017a.576.576 0 01.707.357.62.62 0 01-.273.767l-.059.028c-.429.176-.86.352-1.533.458a9.73 9.73 0 01-1.112.099c-.405.016-.84.014-1.274-.006-.865-.039-1.706-.145-2.547-.25l-.02-.003zM84.504 25.834a.59.59 0 01-.637-.546.602.602 0 01.52-.665c1.317-.153 2.634-.306 4.428-.042.884.13 1.88.361 2.907.641 1.007.275 2.055.6 3.06.92.818.26 1.437.46 2.064.664 1.255.406 2.536.822 4.037 1.281 1.139.35 2.407.723 3.702 1.065 1.282.339 2.573.64 3.756.844 1.148.198 2.202.308 3.141.34.99.033 1.856-.017 2.573-.138 1.358-.228 2.211-.723 3.064-1.218a.57.57 0 01.792.236.622.622 0 01-.226.827c-.942.547-1.885 1.094-3.447 1.356-.787.133-1.727.189-2.792.152a24.397 24.397 0 01-3.292-.353 46.244 46.244 0 01-3.853-.864c-1.288-.34-2.578-.721-3.747-1.079-1.49-.456-2.784-.875-4.05-1.286-.742-.24-1.48-.48-2.06-.664a76.34 76.34 0 00-3.015-.905c-.983-.268-1.934-.49-2.773-.613-1.65-.242-2.896-.098-4.14.046h-.012zM94.158 45.732a.604.604 0 01-.5-.684.588.588 0 01.655-.522l.028.004c2.971.428 5.941.856 8.271 1.002 1.151.073 2.147.077 3.084.006.926-.07 1.796-.214 2.704-.438a30.015 30.015 0 002.849-.879c1.021-.362 2.011-.748 3.001-1.134a.575.575 0 01.748.357.615.615 0 01-.342.782c-1.033.403-2.067.806-3.032 1.149-1.011.36-2.004.678-2.959.912-.966.238-1.894.392-2.887.467-.984.074-2.029.07-3.235-.006-2.372-.149-5.367-.58-8.362-1.012l-.023-.004zM82.64 34.09a.597.597 0 01-.57-.62.595.595 0 01.593-.595c1.075.023 2.151.045 3.183.097 1.058.053 2.1.136 3.11.28 1.01.144 1.984.35 3 .607 1.003.255 2.048.562 3.21.914l.821.25c2.108.642 4.494 1.37 6.486 1.773 1.109.225 2.098.349 3.027.422.96.075 1.822.098 2.683.12a.598.598 0 01.569.621.595.595 0 01-.596.594 50.896 50.896 0 01-2.743-.12 25.812 25.812 0 01-3.159-.44c-2.026-.411-4.45-1.15-6.591-1.803l-.82-.25a72.568 72.568 0 00-3.162-.899 27.23 27.23 0 00-2.88-.583c-.972-.138-1.981-.22-3.01-.27a108.784 108.784 0 00-3.15-.097z" fill="#0078BF"/><path d="M98.903 128.348c-.845.325-1.745.784-2.554 1.396-.657.498-1.253 1.098-1.704 1.81-.49.773-.82 1.687-.993 2.666a10.453 10.453 0 00-.043 3.247 12.22 12.22 0 00.853 3.048c.423 1 .96 1.906 1.554 2.641.571.705 1.195 1.252 1.893 1.649.699.398 1.48.651 2.364.769.847.113 1.791.104 2.724.013a16.866 16.866 0 003.025-.579c.806-.234 1.458-.504 1.996-.865a4.364 4.364 0 001.305-1.381c.375-.61.693-1.38.933-2.218.248-.87.411-1.806.468-2.711.057-.898.008-1.767-.151-2.601a8.878 8.878 0 00-.786-2.333 10.588 10.588 0 00-1.372-2.054 10.97 10.97 0 00-1.819-1.726 7.308 7.308 0 00-1.761-.976 7.025 7.025 0 00-1.803-.416 8.17 8.17 0 00-1.951.039 9.744 9.744 0 00-2.178.582zm-3.239.409c.903-.684 1.903-1.193 2.836-1.554a10.958 10.958 0 012.426-.643 9.234 9.234 0 012.215-.043 8.088 8.088 0 012.091.482c.68.258 1.354.624 2.035 1.128.699.517 1.4 1.172 2.025 1.912a11.81 11.81 0 011.527 2.297c.427.851.725 1.739.9 2.657.179.937.233 1.911.17 2.916-.063.999-.242 2.03-.515 2.983-.269.942-.633 1.819-1.07 2.527-.458.744-.994 1.304-1.656 1.748-.642.431-1.396.746-2.311 1.013-.945.277-2.079.505-3.235.618-1.011.098-2.039.107-2.975-.018-1.03-.137-1.947-.436-2.775-.907-.83-.472-1.564-1.112-2.227-1.931-.667-.824-1.265-1.831-1.732-2.935a13.502 13.502 0 01-.94-3.368 11.707 11.707 0 01.053-3.638c.202-1.139.588-2.208 1.166-3.119.536-.845 1.231-1.548 1.992-2.125z" fill="#0078BF"/><path d="M100.095 141.993a6.512 6.512 0 01-1.58-.866 4.649 4.649 0 01-1.131-1.208 4.922 4.922 0 01-.663-1.771 6.548 6.548 0 01-.03-2.033c.09-.651.275-1.289.521-1.873.26-.614.594-1.176.967-1.637a4.48 4.48 0 011.267-1.096 4.302 4.302 0 011.577-.517 7.36 7.36 0 011.647-.01 9.977 9.977 0 011.775.338c.515.15.942.329 1.309.576.387.259.7.586.966 1.019.248.401.453.894.604 1.421.151.529.25 1.101.285 1.657a6.465 6.465 0 01-.095 1.63 5.697 5.697 0 01-.507 1.494 6.827 6.827 0 01-1.978 2.348h-.003a4.812 4.812 0 01-1.15.638 4.603 4.603 0 01-1.184.272c-.398.04-.81.036-1.242-.024a6.06 6.06 0 01-1.355-.358zm-.895-1.853c.41.31.867.543 1.297.709a4.97 4.97 0 001.106.296c.342.048.667.051.98.02a3.5 3.5 0 00.896-.207 3.62 3.62 0 00.875-.484c.312-.233.632-.534.924-.88a5.32 5.32 0 00.697-1.039 4.44 4.44 0 00.393-1.171c.081-.421.105-.861.077-1.315a6.62 6.62 0 00-.24-1.384 4.556 4.556 0 00-.466-1.113 2.048 2.048 0 00-.615-.651c-.263-.177-.588-.311-.99-.428a8.757 8.757 0 00-1.569-.3 6.251 6.251 0 00-1.396.005 3.19 3.19 0 00-1.166.379c-.342.194-.65.464-.933.815-.3.371-.573.832-.789 1.341a6.252 6.252 0 00-.435 1.553 5.296 5.296 0 00.021 1.643c.086.485.249.938.49 1.318.221.349.516.646.843.893z" fill="#0078BF"/></g></g><defs><clipPath id="clip0_2036_7201"><path d="M14 87.5C14 40.832 51.832 3 98.5 3S183 40.832 183 87.5 145.168 172 98.5 172 14 134.168 14 87.5z" fill="#fff"/></clipPath><filter id="filter0_ddd_2036_7201" x="0" y="0" width="197" height="209" filterUnits="userSpaceOnUse" color-interpolation-filters="sRGB"><feFlood flood-opacity="0" result="BackgroundImageFix"/><feColorMatrix in="SourceAlpha" values="0 0 0 0 0 0 0 0 0 0 0 0 0 0 0 0 0 0 127 0" result="hardAlpha"/><feOffset dy="3"/><feGaussianBlur stdDeviation="3"/><feColorMatrix values="0 0 0 0 0.0392157 0 0 0 0 0.623529 0 0 0 0 0.921569 0 0 0 0.08 0"/><feBlend in2="BackgroundImageFix" result="effect1_dropShadow_2036_7201"/><feColorMatrix in="SourceAlpha" values="0 0 0 0 0 0 0 0 0 0 0 0 0 0 0 0 0 0 127 0" result="hardAlpha"/><feOffset dy="10"/><feGaussianBlur stdDeviation="5"/><feColorMatrix values="0 0 0 0 0.0392157 0 0 0 0 0.623529 0 0 0 0 0.921569 0 0 0 0.07 0"/><feBlend in2="effect1_dropShadow_2036_7201" result="effect2_dropShadow_2036_7201"/><feColorMatrix in="SourceAlpha" values="0 0 0 0 0 0 0 0 0 0 0 0 0 0 0 0 0 0 127 0" result="hardAlpha"/><feOffset dy="23"/><feGaussianBlur stdDeviation="7"/><feColorMatrix values="0 0 0 0 0.0392157 0 0 0 0 0.623529 0 0 0 0 0.921569 0 0 0 0.04 0"/><feBlend in2="effect2_dropShadow_2036_7201" result="effect3_dropShadow_2036_7201"/><feBlend in="SourceGraphic" in2="effect3_dropShadow_2036_7201" result="shape"/></filter></defs></svg>