<svg width="186" height="199" viewBox="0 0 186 199" fill="none" xmlns="http://www.w3.org/2000/svg"><g filter="url(#filter0_ddd_2036_7268)"><g clip-path="url(#clip0_2036_7268)"><path d="M14 82.5c0-43.63 35.37-79 79-79s79 35.37 79 79-35.37 79-79 79-79-35.37-79-79z" fill="#fff"/><path d="M67.107 45.202a.583.583 0 01.72-.423.61.61 0 01.408.747c-.4 1.504-.8 3.008-.824 4.508-.018 1.115.172 2.29.383 3.603.077.475.157.97.227 1.452.186 1.292.34 2.742.505 4.295.08.75.162 1.525.265 2.428l.179 1.526c.238 2.007.48 4.047.553 5.826.02.463.026.926.033 1.374.023 1.505.043 2.824.604 4.25.365.928.961 1.922 1.73 2.898a17.935 17.935 0 002.76 2.789c1.602 1.303 3.493 2.388 5.106 3.314.598.345 1.164.67 1.524.888 1.17.71 2.022 1.329 2.73 1.844.393.284.739.536 1.099.768.432.279.841.495 1.235.617.361.112.715.145 1.07.072.457-.093.98-.375 1.636-.729.473-.255 1.01-.545 1.686-.85 1.294-.585 2.957-1.154 4.755-1.77l1.438-.493c1.143-.398 2.315-.82 3.514-1.357a21.646 21.646 0 003.553-1.985c1.109-.77 2.226-1.715 3.24-2.68 1.163-1.11 2.185-2.241 2.899-3.17.982-1.275 1.38-2.166 1.646-2.762.099-.221.182-.407.277-.577.249-.444.523-.699 1.03-.803.378-.078.878-.04 1.653.083l.534.09c1.396.237 3.455.589 5.115.172.867-.217 1.646-.652 2.324-1.233.755-.647 1.383-1.475 1.87-2.387a11.54 11.54 0 001.006-2.686 16.47 16.47 0 00.446-3.223c.045-1.043.001-2.057-.145-2.973-.132-.833-.349-1.58-.659-2.189-.283-.555-.65-1-1.057-1.353a5.168 5.168 0 00-1.579-.922 5.919 5.919 0 00-1.474-.343 7.95 7.95 0 00-1.447-.006c-.459.036-.902.099-1.303.176-.456.087-.871.194-1.203.302l-.164.054c-.144.05-.273.095-.425.127-.695.146-1.106-.018-1.324-1.131-.096-.498-.151-1.27-.184-2.18-.031-.873-.044-1.907-.057-2.94a.596.596 0 01.577-.614.596.596 0 01.592.6c.013 1.01.025 2.022.057 2.911.031.852.079 1.56.161 1.98.027.135-.107.195-.056.185.058-.012.168-.05.293-.092.008 0 .168-.054.181-.06a11.42 11.42 0 011.341-.336c.453-.087.941-.157 1.427-.195a8.984 8.984 0 011.648.01c.571.06 1.155.187 1.755.41a6.347 6.347 0 011.936 1.132 5.65 5.65 0 011.341 1.72c.371.726.626 1.6.779 2.559.158.998.206 2.096.158 3.22a17.724 17.724 0 01-.478 3.471 12.869 12.869 0 01-1.118 2.97c-.555 1.044-1.277 1.993-2.147 2.74-.808.692-1.744 1.212-2.797 1.476-1.893.475-4.089.1-5.578-.154l-.525-.089c-.632-.101-1.017-.137-1.249-.089-.104.022-.17.093-.241.22-.066.116-.14.28-.227.476-.29.65-.724 1.62-1.793 3.01-.75.974-1.815 2.156-3.023 3.306-1.051 1-2.215 1.984-3.382 2.795a22.778 22.778 0 01-3.741 2.095c-1.21.542-2.42.977-3.606 1.39l-1.442.498c-1.785.611-3.437 1.177-4.655 1.727a24.92 24.92 0 00-1.612.817c-.738.398-1.327.716-1.953.843a3.222 3.222 0 01-1.629-.1c-.504-.157-1.005-.419-1.52-.75-.341-.221-.72-.496-1.148-.807-.682-.496-1.502-1.093-2.65-1.787a74.85 74.85 0 00-1.497-.876c-1.649-.943-3.58-2.052-5.265-3.421a19.15 19.15 0 01-2.948-2.98c-.843-1.07-1.5-2.17-1.907-3.206-.64-1.628-.663-3.056-.687-4.688a49.473 49.473 0 00-.033-1.346c-.07-1.688-.311-3.723-.549-5.726l-.179-1.53c-.087-.765-.177-1.618-.265-2.438-.162-1.53-.314-2.958-.5-4.252-.075-.517-.15-.981-.222-1.429-.22-1.364-.417-2.585-.397-3.82.026-1.66.446-3.237.865-4.814z" fill="#0078BF"/><path d="M66.473 52.368a21.892 21.892 0 01-.976-2.724c-.276-.992-.463-2.021-.462-2.993a6.43 6.43 0 01.657-2.88c.444-.911 1.13-1.82 2.114-2.791 1.057-1.044 2.46-2.164 4-3.392 1.217-.97 2.521-2.011 3.808-3.14 1.684-1.476 3.325-3.093 4.656-4.404.951-.938 1.746-1.72 2.313-2.21.95-.822 1.482-.902 1.865-.425.263.327.24.809.209 1.465l-.015.326c-.024.625-.024 1.4.104 2.295.127.886.382 1.889.867 2.977.485 1.09 1.201 2.267 2.03 3.392a22.581 22.581 0 002.795 3.154c.977.901 1.927 1.568 2.601 1.867.074.033.143.061.205.084-.124-.358-.388-.895-.641-1.412-.2-.407-.396-.805-.539-1.166-.284-.718-.297-1.275.258-1.511.61-.26 2.026.727 3.84 1.992.923.643 1.958 1.365 2.988 2.023a47.543 47.543 0 004.429 2.498 71.77 71.77 0 004.773 2.14c.894.367 1.415.575 1.949.788 2.829 1.128 5.743 2.29 8.076 3.79 1.459.939 2.681 2.001 3.755 3.12 1.065 1.11 1.983 2.274 2.84 3.426l.661.9c.381.52.715 1.006.972 1.383-.138-.589-.34-1.34-.559-2.153-.718-2.67-1.611-5.986-1.117-7.107.403-.913 1.21-.788 2.142-.346.309.146.607.314.906.481.298.167.597.335.865.46.325.153.577.264.588.238.249-.572-.184-2.46-1.115-4.958-.886-2.379-2.23-5.24-3.893-8.012-1.571-2.62-3.42-5.152-5.323-7.472a83.806 83.806 0 00-6.896-7.418c-1.913-1.82-3.553-3.193-5.045-4.241-1.477-1.04-2.817-1.766-4.138-2.303a18.15 18.15 0 00-3.49-1.025c-1.273-.236-2.405-.297-3.26-.236-1.036.075-1.653.34-2.117.54-.26.11-.481.206-.719.258-.6.133-1.072-.025-1.79-.263-.181-.061-.382-.128-.707-.224a10.365 10.365 0 00-1.943-.392c-.8-.08-1.76-.083-2.915.076a17.35 17.35 0 00-4.442 1.258 21.361 21.361 0 00-4.294 2.486c-1.64 1.214-3.33 2.79-4.945 4.566a48.655 48.655 0 00-4.614 5.959 44.31 44.31 0 00-3.315 6.004c-.93 2.057-1.618 4.038-2.041 5.827-.395 1.669-.559 3.169-.535 4.47.026 1.363.26 2.502.652 3.38a5.054 5.054 0 001.438 1.874c.58.477 1.228.824 1.83 1.127.614.309 1.177.57 1.598.712.2.068.156.363.227.257.04-.06-.274-.443-.617-1.181-.17-.368-.362-.782-.548-1.214zm.147-3.062c.254.912.592 1.799.921 2.567.193.447.374.838.535 1.185.518 1.117.87 1.878.52 2.4-.286.424-.835.442-1.542.204-.486-.163-1.096-.446-1.75-.774-.663-.334-1.38-.718-2.05-1.27a6.239 6.239 0 01-1.773-2.316c-.456-1.022-.728-2.327-.757-3.87-.026-1.4.148-3.003.567-4.774.442-1.867 1.156-3.925 2.119-6.056a45.517 45.517 0 013.406-6.175 49.87 49.87 0 014.73-6.106c1.664-1.832 3.414-3.462 5.118-4.723a22.507 22.507 0 014.528-2.619 18.489 18.489 0 014.735-1.339c1.252-.172 2.3-.168 3.177-.08.892.09 1.595.263 2.154.428.22.065.496.158.741.239.54.178.894.296 1.192.23.142-.03.315-.105.517-.192.54-.232 1.261-.541 2.484-.63.932-.067 2.164-.001 3.544.255 1.163.216 2.432.568 3.711 1.087 1.392.566 2.806 1.333 4.367 2.431 1.548 1.088 3.234 2.497 5.182 4.35a84.995 84.995 0 016.992 7.528c1.949 2.375 3.835 4.957 5.429 7.615 1.7 2.834 3.078 5.769 3.99 8.216 1.04 2.793 1.467 5.033 1.091 5.896-.4.92-1.207.806-2.138.37-.305-.143-.622-.32-.938-.498-.296-.165-.592-.331-.837-.448-.329-.156-.584-.271-.592-.253-.316.717.513 3.798 1.181 6.28.328 1.218.62 2.3.729 2.959.156.939-.056 1.39-.555 1.48-.646.115-1.556-1.126-2.646-2.614l-.656-.89c-.832-1.118-1.72-2.245-2.744-3.312a19.487 19.487 0 00-3.539-2.943c-2.246-1.444-5.105-2.585-7.879-3.691-.784-.313-1.575-.628-1.963-.788a72.653 72.653 0 01-4.847-2.179 48.783 48.783 0 01-4.538-2.559c-1.06-.677-2.1-1.401-3.025-2.047-.893-.622-1.67-1.165-2.168-1.504.092.196.198.41.305.63.412.837.846 1.72.838 2.293-.003.177-.04.334-.11.468-.18.346-.494.5-.909.48-.252-.011-.553-.096-.886-.244-.784-.348-1.853-1.09-2.923-2.076-1.014-.935-2.042-2.098-2.946-3.326-.878-1.192-1.641-2.45-2.163-3.62a12.413 12.413 0 01-.963-3.31 13.72 13.72 0 01-.114-2.519l.015-.335c.019-.386.091-.596.062-.633-.127-.158.076.326-.219.582-.516.446-1.307 1.225-2.253 2.157-1.346 1.326-3.004 2.961-4.707 4.453-1.29 1.131-2.614 2.187-3.849 3.173-1.513 1.207-2.892 2.307-3.908 3.31-.885.874-1.493 1.673-1.875 2.46-.37.76-.532 1.52-.533 2.332-.001.846.167 1.763.415 2.655zm26.147-9.304c-.109.046-.067.035.02.008l-.02-.008zm34.361 21.686c.011.011.019.017.023.016.094-.016.058-.017-.023-.016z" fill="#0078BF"/><path d="M123.677 50.935a.623.623 0 01.069-.856.571.571 0 01.825.072c1.557 1.91 3.114 3.82 4.603 5.665a566.46 566.46 0 014.557 5.711c1.512 1.922 3.008 3.857 4.357 5.762 1.358 1.919 2.576 3.818 3.527 5.663.935 1.814 1.608 3.566 2.031 5.191.451 1.728.623 3.325.534 4.71-.09 1.384-.44 2.56-1.034 3.612-.587 1.04-1.405 1.944-2.438 2.799a21.436 21.436 0 01-3.612 2.374 7.63 7.63 0 01-.997.44c-.508.166-.893.105-1.096-.227l-.002-.007a.665.665 0 01-.07-.163c-.139-.483.378-1.05 1.111-1.856.822-.902 1.986-2.18 2.692-3.475.655-1.202.929-2.432.916-3.273a2.005 2.005 0 00-.073-.56c-.373.234-1.217 1.42-2.302 2.945-.453.636-.945 1.327-1.474 2.037-1.04 1.396-2.218 2.858-3.596 4.207-1.39 1.362-2.982 2.61-4.839 3.562-1.64.842-3.481 1.45-5.333 1.88-2.304.536-4.626.8-6.597.905-1.854.098-3.42.054-4.272-.16-.336-.084-.598-.205-.768-.363-.328-.306-.397-.664-.172-1.076.126-.23.379-.463.774-.694.591-.344 1.587-.749 2.82-1.25 2.564-1.04 6.183-2.51 9.02-4.61a20.048 20.048 0 004.751-5.012c1.321-1.994 2.152-4.044 2.435-5.801.216-1.342.11-2.51-.138-3.435-.33-1.234-.853-1.989-1.164-2.117-.133-.054.17.089.16.116-.097.252-.192.655-.307 1.14a24.992 24.992 0 01-.608 2.216 16.044 16.044 0 01-1.968 3.972c-.95 1.395-2.242 2.84-4.016 4.241-1.552 1.228-3.474 2.423-5.291 3.413-2.298 1.252-4.453 2.188-5.498 2.457-.898.232-1.347.027-1.473-.5-.161-.674.854-1.741 2.001-2.947l.487-.514c.825-.875 1.635-1.777 2.337-2.664.692-.875 1.283-1.74 1.684-2.553.782-1.584.86-3.051.933-4.517 0-.337.263-.61.587-.61.324 0 .586.273.586.609l-.002.032c-.08 1.604-.16 3.208-1.063 5.038-.443.9-1.082 1.835-1.822 2.772a43.067 43.067 0 01-2.401 2.74l-1.718 1.81c1.07-.355 2.877-1.171 4.816-2.228 1.768-.963 3.632-2.121 5.127-3.303 1.67-1.32 2.881-2.672 3.768-3.975a14.86 14.86 0 001.821-3.668c.257-.769.431-1.504.576-2.111.124-.523.227-.957.357-1.297.288-.753.673-1.078 1.358-.796.562.231 1.426 1.297 1.861 2.92.288 1.076.413 2.423.165 3.959-.309 1.918-1.206 4.14-2.627 6.286a21.29 21.29 0 01-5.035 5.316c-2.957 2.19-6.654 3.69-9.272 4.754-1.115.452-2.03.823-2.572 1.12.788.142 2.122.16 3.704.077 1.916-.102 4.171-.358 6.4-.876 1.767-.412 3.519-.988 5.071-1.785 1.74-.893 3.24-2.07 4.555-3.357 1.325-1.299 2.465-2.713 3.472-4.065.522-.7 1.01-1.386 1.46-2.018 1.406-1.976 2.464-3.462 3.334-3.476a.9.9 0 01.476.126c.249.144.43.4.54.74.082.254.129.57.134.93.016 1.02-.303 2.488-1.067 3.89-.634 1.162-1.563 2.269-2.352 3.15a20.212 20.212 0 002.579-1.786c.926-.766 1.651-1.562 2.158-2.461.5-.886.797-1.889.873-3.08.081-1.254-.079-2.715-.496-4.315-.403-1.545-1.042-3.21-1.931-4.934-.917-1.78-2.106-3.633-3.44-5.515-1.342-1.896-2.823-3.813-4.32-5.715a572.657 572.657 0 00-4.547-5.697c-1.567-1.94-3.084-3.8-4.599-5.66zM110.858 90.3c.02.085.019.053.015-.02l-.015.02zM69.257 57.703a.613.613 0 01.344.78.579.579 0 01-.752.357c-.49-.191-.982-.382-1.472-.528-.442-.131-.856-.215-1.214-.204-.32.01-.608.097-.857.248a2.08 2.08 0 00-.676.695c-.195.315-.345.704-.46 1.147a10.2 10.2 0 00-.257 1.559c-.059.61-.086 1.264-.065 1.937a11.82 11.82 0 00.687 3.678c.212.59.463 1.133.737 1.585.256.42.528.754.83.982.272.207.578.33.929.355.809.057 1.928-.372 3.047-.8l.018-.005a.58.58 0 01.74.384c.1.313-.059.65-.355.76-1.234.476-2.47.949-3.528.874a2.827 2.827 0 01-1.544-.588c-.425-.323-.794-.768-1.127-1.315a10.08 10.08 0 01-.842-1.809 13.104 13.104 0 01-.76-4.063c-.025-.729.005-1.435.069-2.094.06-.633.152-1.224.289-1.754.145-.558.341-1.061.606-1.49a3.259 3.259 0 011.07-1.084 2.865 2.865 0 011.417-.415c.5-.016 1.027.086 1.567.247.492.146 1.026.354 1.559.561zM60.52 67.63a.571.571 0 01.82-.123.622.622 0 01.13.829c-2.107 3.189-4.216 6.379-5.472 9.429-.621 1.508-1.037 2.988-1.239 4.405-.199 1.396-.19 2.726.034 3.956.195 1.075.558 2.084.941 2.881.165.344.318.64.448.875l-.015-.378c-.03-.703-.064-1.535.015-2.319.097-.95.368-1.817.688-2.33.15-.238.32-.422.506-.532.287-.168.584-.186.878-.022.197.11.37.304.508.593.244.513.408 1.416.608 2.513.26 1.432.586 3.218 1.185 4.691a9.223 9.223 0 002.018 3.073 9.411 9.411 0 003.1 2.043c1.158.477 2.439.762 3.677.927 1.24.165 2.454.21 3.468.21.53 0 .997-.011 1.365-.04a35.332 35.332 0 00-.914-.467c-1.654-.825-4.096-2.043-5.804-3.897-.977-1.061-1.7-2.314-2.204-3.502-.708-1.67-.993-3.256-.952-4.014.078-1.45.692-1.51 1.651-.704.45.38 1.033 1.113 1.678 1.988l.381.522c1.143 1.57 2.542 3.492 4.539 4.82 1.108.737 2.422 1.306 3.78 1.752 1.373.45 2.792.773 4.097 1.015 1.306.242 2.484.403 3.451.425.911.02 1.63-.075 2.078-.332.143-.081.254-.18.332-.289a.762.762 0 00.143-.43 1.2 1.2 0 00-.159-.582c-.144-.27-.384-.548-.728-.812-.54-.416-1.35-.806-2.317-1.273-1.446-.697-3.23-1.559-5.14-2.985-1.61-1.205-3.289-2.8-5-4.59-1.71-1.79-3.438-3.754-5.165-5.719a.624.624 0 01.039-.858.571.571 0 01.827.04c1.73 1.966 3.458 3.933 5.13 5.681 1.672 1.75 3.303 3.303 4.853 4.461 1.811 1.354 3.544 2.19 4.946 2.867 1.026.494 1.884.908 2.524 1.4.486.374.836.786 1.058 1.203.212.398.31.805.3 1.196a1.99 1.99 0 01-.37 1.124 2.216 2.216 0 01-.709.632c-.64.366-1.554.504-2.665.479-1.055-.025-2.29-.19-3.634-.44-1.344-.248-2.812-.583-4.244-1.052-1.444-.474-2.851-1.087-4.06-1.89-2.175-1.447-3.642-3.463-4.841-5.11l-.377-.517c-.462-.628-.881-1.17-1.215-1.524.065.708.331 1.821.842 3.025.457 1.079 1.107 2.21 1.98 3.156 1.562 1.696 3.886 2.855 5.459 3.64.591.295 1.083.54 1.41.748 1.36.865 1.221 1.45.065 1.85-.48.166-1.353.22-2.43.22-1.035 0-2.291-.047-3.615-.224-1.325-.177-2.702-.484-3.962-1.002a10.568 10.568 0 01-3.48-2.296 10.439 10.439 0 01-2.283-3.477c-.65-1.599-.988-3.452-1.259-4.939-.155-.855-.288-1.582-.43-2.004-.202.38-.371.993-.442 1.685-.071.698-.038 1.48-.01 2.14.02.494.039.926.014 1.24-.051.665-.282 1.048-.85 1-.446-.037-1.209-.877-1.817-2.142a12.87 12.87 0 01-1.042-3.199c-.248-1.366-.26-2.831-.043-4.356.216-1.518.66-3.099 1.321-4.705 1.303-3.163 3.444-6.4 5.584-9.637l.017-.023z" fill="#0078BF"/><path d="M62.982 73.736a.579.579 0 01.76-.332c.3.125.445.479.325.79l-.003.008c-.777 1.925-1.555 3.851-1.764 5.923-.103 1.034-.069 2.124.044 3.187.113 1.07.308 2.116.521 3.054.214.939.446 1.766.688 2.536.248.793.5 1.511.75 2.228a.614.614 0 01-.35.778.58.58 0 01-.75-.364c-.26-.743-.52-1.487-.765-2.266a33.947 33.947 0 01-.715-2.636 27.736 27.736 0 01-.544-3.197c-.12-1.14-.156-2.315-.043-3.444.227-2.255 1.037-4.26 1.846-6.265zM128.692 64.318a.62.62 0 01.204-.83.572.572 0 01.8.211c.938 1.635 1.876 3.27 2.67 4.764.823 1.551 1.541 3.035 2.046 4.383.513 1.368.803 2.585.933 3.688a11.828 11.828 0 01-.028 3.044 13.422 13.422 0 01-.614 2.527 20.856 20.856 0 01-.834 2.02 40.447 40.447 0 01-.77 1.566c-.249.481-.477.902-.705 1.322a.575.575 0 01-.798.233.62.62 0 01-.225-.827c.233-.43.466-.86.697-1.303.239-.461.485-.957.747-1.519.259-.556.537-1.189.783-1.9.24-.697.445-1.463.559-2.29a10.58 10.58 0 00.024-2.726c-.12-1.015-.387-2.136-.86-3.397-.48-1.282-1.177-2.72-1.982-4.236-.835-1.573-1.741-3.152-2.647-4.73zM88.408 24.966a.617.617 0 01.31-.797c.292-.13.63.008.76.306 1.262 2.826 2.524 5.652 4.952 8.509 1.186 1.395 2.65 2.802 4.241 4.125a47.034 47.034 0 005.321 3.828 48.356 48.356 0 005.144 2.738c1.678.775 3.371 1.467 5.063 2.159.301.121.45.474.332.787a.579.579 0 01-.758.345c-1.688-.69-3.375-1.38-5.114-2.183a49.655 49.655 0 01-5.264-2.8 48.322 48.322 0 01-5.457-3.927c-1.646-1.37-3.162-2.825-4.388-4.268-2.537-2.985-3.836-5.895-5.135-8.804l-.007-.018zM92.634 23.43a.624.624 0 01.099-.854.572.572 0 01.823.102l.014.02c1.924 2.732 3.849 5.465 6.316 7.634 1.792 1.575 3.896 2.882 5.866 4.104.786.488 1.553.964 2.212 1.397 2.541 1.672 4.504 3.334 6.466 4.994.25.21.29.59.089.851a.57.57 0 01-.82.096l-.007-.005c-1.927-1.63-3.855-3.262-6.356-4.908-.734-.483-1.45-.927-2.184-1.383-2.013-1.249-4.163-2.583-6.022-4.218-2.569-2.259-4.532-5.043-6.493-7.827l-.003-.003zM97.913 21.726a.622.622 0 01-.158-.844.573.573 0 01.813-.164c3.154 2.207 6.309 4.416 8.38 6.2a21.557 21.557 0 012.424 2.41c.609.72 1.082 1.386 1.553 2.052.191.27.135.65-.126.85a.572.572 0 01-.818-.132c-.45-.635-.9-1.27-1.49-1.965a20.374 20.374 0 00-2.291-2.284c-1.999-1.721-5.143-3.922-8.287-6.123zM82.354 21.892a.574.574 0 01.796.213.62.62 0 01-.202.833l-.007.005c-2.179 1.314-4.357 2.628-6.21 4.278-.927.824-1.779 1.737-2.593 2.694-.812.954-1.607 1.978-2.401 3.002a.571.571 0 01-.823.092.623.623 0 01-.09-.853c.793-1.021 1.586-2.043 2.438-3.045.85-.998 1.74-1.952 2.707-2.813 1.935-1.722 4.16-3.064 6.385-4.405zM112.381 54.688c-.62-.921-1.609-1.682-2.715-2.325-1.15-.67-2.415-1.206-3.538-1.668-1.123-.463-2.106-.85-3.07-1.133a11.529 11.529 0 00-2.866-.484c-.985-.037-2.066.051-3.113.224-1.126.187-2.211.47-3.094.803-1.294.486-2.169 1.087-2.908 1.595-.23.157-.447.307-.673.45-.499.316-.98.562-1.484.732a5.221 5.221 0 01-1.63.273 7.275 7.275 0 01-1.925-.252 10.744 10.744 0 01-2.034-.775c-.58-.287-1.2-.652-1.835-1.026-.853-.502-1.735-1.021-2.613-1.39a10.21 10.21 0 00-2.19-.64 12.225 12.225 0 00-2.122-.178c-.68 0-1.324.05-1.942.16-.621.11-1.22.279-1.81.516-.575.231-1.144.527-1.611.943a3.275 3.275 0 00-.999 1.602c-.403 1.442-.127 3.72.174 6.215l.076.63c.305 2.54.628 5.228 1.494 6.672a2.998 2.998 0 001.595 1.324c.693.253 1.512.32 2.41.304a19.347 19.347 0 002.86-.282c.98-.167 1.913-.398 2.675-.664 1.415-.492 2.269-1.127 3.143-1.779l.107-.078c.48-.358.976-.72 1.509-1.04.543-.325 1.109-.593 1.705-.742a5.003 5.003 0 011.731-.112 6.799 6.799 0 011.828.468c.633.254 1.214.581 1.84.935.41.23.842.474 1.368.734.61.302 1.284.591 2.022.866.74.275 1.56.544 2.466.805.902.26 1.885.51 2.922.69 1.029.178 2.108.287 3.208.264h.002a18.154 18.154 0 002.998-.332 20.027 20.027 0 003.033-.822c.712-.26 1.21-.51 1.588-.78a3.76 3.76 0 00.879-.897c.261-.36.508-.783.728-1.336.227-.57.427-1.276.585-2.191.159-.919.275-2.043.189-3.18-.082-1.094-.354-2.193-.963-3.1zm-2.142-3.386c1.239.721 2.362 1.595 3.1 2.691.747 1.113 1.078 2.419 1.174 3.704.094 1.243-.033 2.476-.207 3.484-.175 1.01-.398 1.797-.654 2.439a7.259 7.259 0 01-.875 1.602 4.872 4.872 0 01-1.149 1.168c-.467.334-1.052.63-1.863.927-.854.313-1.98.634-3.212.87-1.02.194-2.115.33-3.188.352a17.949 17.949 0 01-3.423-.28 28.713 28.713 0 01-3.042-.718 35.532 35.532 0 01-2.548-.833 22.607 22.607 0 01-2.132-.909c-.488-.241-.968-.512-1.422-.768-.59-.333-1.138-.641-1.703-.868a5.669 5.669 0 00-1.521-.392 3.905 3.905 0 00-1.346.083c-.466.116-.931.34-1.39.615-.468.281-.946.63-1.412.977l-.107.079c-.942.701-1.862 1.385-3.454 1.94-.823.287-1.82.535-2.858.712-1.002.171-2.052.28-3.031.296-1.026.018-1.978-.063-2.818-.371-.888-.325-1.638-.89-2.2-1.828-1.003-1.674-1.343-4.498-1.663-7.167l-.076-.63c-.317-2.617-.606-5.008-.133-6.7a4.472 4.472 0 011.36-2.187c.584-.519 1.267-.877 1.952-1.152a10.23 10.23 0 012.034-.583c.691-.122 1.4-.178 2.14-.178.736 0 1.514.055 2.313.196.804.142 1.624.37 2.438.712.935.392 1.858.936 2.75 1.461.6.353 1.186.698 1.763.983.642.318 1.25.547 1.813.694a6.157 6.157 0 001.627.219c.46-.006.878-.08 1.282-.216a5.756 5.756 0 001.236-.613c.197-.125.411-.272.637-.427.791-.543 1.728-1.186 3.155-1.723.948-.356 2.109-.661 3.31-.86 1.117-.184 2.275-.278 3.337-.238 1.116.041 2.12.228 3.141.527.997.292 2.018.695 3.186 1.175 1.168.481 2.484 1.04 3.679 1.735zM116.573 61.382a.573.573 0 01-.823-.107.624.624 0 01.104-.854h.003c1.439-1.194 2.877-2.387 3.993-2.88.652-.29 1.212-.354 1.715-.213.516.143.935.489 1.296 1.017.308.451.58 1.047.787 1.677.212.646.362 1.344.419 1.964a5.64 5.64 0 01-.081 1.667c-.102.494-.27.94-.478 1.37a5.948 5.948 0 01-.766 1.221c-.322.39-.714.743-1.204 1.039-.446.269-.969.487-1.501.652a8.997 8.997 0 01-1.733.356c-.476.047-.896.042-1.203-.015a1.416 1.416 0 01-.534-.202c-.261-.175-.393-.419-.371-.733a.875.875 0 01.075-.291c.123-.28.399-.514.731-.797.316-.27.701-.598.925-.947l.003-.002a1.91 1.91 0 00.288-.85c.028-.297-.011-.554-.1-.708a.287.287 0 00-.171-.132c-.135-.038-.305-.018-.463.032-.34.107-.652.385-.964.662l-.009.007a.57.57 0 01-.823-.078.621.621 0 01.072-.85c.402-.36.805-.718 1.385-.902.346-.11.743-.145 1.109-.041.347.098.657.311.871.684.208.367.308.892.258 1.44a3.18 3.18 0 01-.48 1.408c-.291.455-.703.824-1.062 1.13.111-.003.229-.01.353-.023.455-.045.987-.15 1.508-.313.452-.14.889-.32 1.249-.538.367-.222.661-.487.902-.778.249-.3.445-.63.61-.973.163-.34.296-.692.377-1.08.079-.386.107-.811.062-1.3a7.87 7.87 0 00-.364-1.69c-.173-.526-.391-1.011-.631-1.362-.202-.296-.412-.482-.644-.547-.246-.068-.557-.02-.954.156-.981.434-2.355 1.575-3.729 2.715l-.007.009z" fill="#0078BF"/><path d="M83.051 67.661c-.1.416-.088.888.037 1.341.117.43.335.838.65 1.16.33.336.773.59 1.284.754.55.178 1.175.251 1.822.215a6.585 6.585 0 001.907-.408c.581-.218 1.091-.507 1.445-.834.307-.283.488-.592.546-.906.057-.313-.005-.652-.183-.993-.204-.39-.553-.783-.99-1.132a5.543 5.543 0 00-1.544-.869 5.246 5.246 0 00-1.687-.313 4.471 4.471 0 00-1.59.247 2.945 2.945 0 00-1.132.715c-.275.286-.47.633-.565 1.023zm-1.092 1.674a3.998 3.998 0 01-.045-1.968 3.441 3.441 0 01.872-1.585c.42-.437.957-.78 1.578-1.005a5.6 5.6 0 011.993-.314c.68.012 1.383.136 2.053.38.68.247 1.33.618 1.875 1.054.56.449 1.018.973 1.3 1.513.313.596.416 1.21.307 1.802-.106.577-.41 1.118-.916 1.585-.464.429-1.108.798-1.826 1.068a7.755 7.755 0 01-2.247.479 6.166 6.166 0 01-2.225-.267c-.687-.221-1.295-.573-1.76-1.05a3.887 3.887 0 01-.959-1.692z" fill="#0078BF"/><path d="M75.757 72.984a.62.62 0 01-.225-.827.575.575 0 01.798-.233c.907.53 1.816 1.06 2.72 1.524.906.465 1.83.875 2.783 1.174.89.28 1.825.47 2.762.587 1.067.133 2.122.172 3.11.144.93-.025 1.812-.11 2.664-.232a35.128 35.128 0 002.491-.46 42.35 42.35 0 002.5-.613c.69-.198 1.315-.4 1.825-.606a8.92 8.92 0 001.353-.68c.385-.235.72-.48 1.056-.725a.573.573 0 01.816.147.623.623 0 01-.143.847c-.355.26-.712.52-1.133.778-.425.26-.913.517-1.527.765-.57.23-1.231.446-1.94.646-.813.228-1.69.44-2.569.63-.838.182-1.686.348-2.568.474-.885.127-1.81.215-2.798.242-1.05.03-2.163-.01-3.275-.15a16.875 16.875 0 01-2.964-.633c-1.03-.324-2.009-.758-2.961-1.246-.955-.489-1.865-1.02-2.775-1.553zM82.906 78.783a.607.607 0 01-.445-.723.585.585 0 01.697-.461l.008.001c.775.181 1.55.363 2.45.465.465.053.959.086 1.433.094.46.009.907-.004 1.294-.04a7.062 7.062 0 001.014-.174c.34-.084.61-.17.879-.255a.581.581 0 01.729.404.61.61 0 01-.39.757c-.319.1-.639.201-.948.277h-.002c-.341.084-.72.154-1.176.198-.43.041-.92.056-1.419.046a16.509 16.509 0 01-1.538-.1c-.964-.108-1.774-.298-2.583-.488h-.003z" fill="#0078BF"/><path d="M98.042 70.997a.618.618 0 01-.24-.82.575.575 0 01.79-.25c.375.208.75.417 1.11.69.385.29.731.638.999 1.098.257.441.434.977.571 1.559.13.553.221 1.133.311 1.712a.605.605 0 01-.484.697.588.588 0 01-.671-.502 22.924 22.924 0 00-.293-1.622c-.11-.466-.247-.888-.438-1.216a2.525 2.525 0 00-.682-.747c-.29-.219-.631-.409-.973-.599zM76.216 70.817a.575.575 0 01.791-.255.619.619 0 01.246.82c-.105.207-.21.412-.342.686a14.25 14.25 0 00-.357.788c-.12.287-.252.628-.39.994-.151.401-.285.765-.418 1.129a.58.58 0 01-.754.354.614.614 0 01-.341-.782c.148-.407.297-.814.421-1.143.137-.363.274-.713.41-1.037.127-.305.254-.582.38-.844.104-.22.23-.466.355-.71zM100.844 53.513c-.826.065-1.766.265-2.656.568-.828.282-1.606.65-2.201 1.078a4.24 4.24 0 00-1.211 1.3 3.88 3.88 0 00-.51 1.628 4.427 4.427 0 00.134 1.5 7.49 7.49 0 00.618 1.56 8.918 8.918 0 001.019 1.577c.396.482.861.914 1.404 1.234.537.317 1.16.53 1.821.642.69.117 1.419.12 2.134.015a7.91 7.91 0 001.987-.58 8.449 8.449 0 001.826-1.083 7.061 7.061 0 001.247-1.25c.362-.467.646-.967.859-1.48.2-.474.333-.953.358-1.433a3 3 0 00-.272-1.413c-.224-.493-.594-1.003-1.044-1.482a9.34 9.34 0 00-1.693-1.409c-.568-.368-1.137-.643-1.751-.809-.614-.165-1.288-.224-2.069-.163zm-3.018-.587a12.388 12.388 0 012.931-.626c.909-.071 1.708.002 2.45.202.742.2 1.416.523 2.076.95.675.439 1.345.992 1.912 1.596.537.57.985 1.191 1.265 1.809.307.675.416 1.34.382 1.993-.033.635-.201 1.252-.451 1.852-.247.599-.585 1.19-1.019 1.755a8.197 8.197 0 01-1.456 1.465 9.627 9.627 0 01-2.079 1.236 9.056 9.056 0 01-2.276.66 8.001 8.001 0 01-2.487-.019 6.474 6.474 0 01-2.21-.785 6.544 6.544 0 01-1.717-1.5 10.178 10.178 0 01-1.16-1.797 8.723 8.723 0 01-.72-1.82 5.652 5.652 0 01-.166-1.92c.062-.709.267-1.446.675-2.145a5.426 5.426 0 011.546-1.672c.693-.498 1.577-.919 2.504-1.234zM75 53.769a20.44 20.44 0 00-2.143 1.17c-.628.391-1.237.818-1.697 1.22-.46.404-.758.772-.915 1.14-.144.34-.17.704-.101 1.123.074.445.25.946.484 1.453.279.604.641 1.218 1.015 1.763.336.489.677.914 1.088 1.248.403.327.89.581 1.532.745.699.178 1.575.25 2.42.207.777-.04 1.515-.18 2.041-.424.47-.218.762-.53.932-.923.19-.44.25-1.003.245-1.665a12.546 12.546 0 00-.274-2.42c-.158-.75-.385-1.486-.68-2.115a6.818 6.818 0 00-.946-1.484 5.88 5.88 0 00-1.232-1.121c-.268-.176-.475-.264-.69-.261-.255.004-.586.117-1.08.344zm-2.743.128a21.656 21.656 0 012.27-1.241c.634-.291 1.097-.438 1.537-.444.478-.007.868.144 1.328.446.45.294.986.747 1.493 1.352a8.11 8.11 0 011.117 1.753c.338.723.595 1.55.771 2.387.192.908.29 1.842.297 2.666.008.825-.079 1.55-.346 2.17-.288.665-.765 1.184-1.523 1.536-.664.309-1.551.481-2.463.529-.952.05-1.949-.035-2.754-.24-.816-.209-1.444-.54-1.972-.969-.52-.422-.929-.928-1.323-1.5a13.566 13.566 0 01-1.115-1.944c-.28-.607-.493-1.217-.585-1.772-.11-.656-.06-1.243.183-1.816.23-.544.631-1.053 1.232-1.579.508-.444 1.172-.91 1.853-1.334z" fill="#0078BF"/><path fill-rule="evenodd" clip-rule="evenodd" d="M94.95 56.064c-.253.497-.804 1.4-1.063 2.141-.26.742-.227 1.321 0 1.83.228.51.65.949 1.106 1.338.455.39.942.729 1.732.915.79.186 1.884.22 2.945-.182 1.062-.402 2.093-1.238 2.583-2.178a2.962 2.962 0 00-.008-2.807c-.451-.825-1.305-1.429-2.56-1.682-1.256-.253-2.913-.154-3.72-.059-.805.096-.76.187-1.014.684zM75.524 55.651c-.552.205-1.472.621-2.024 1.213-.552.593-.737 1.36-.614 2.145.124.784.556 1.584 1.333 2.189.778.605 1.901 1.015 2.956.877 1.055-.138 2.042-.823 2.526-1.438.485-.614.467-1.158.325-1.852-.142-.695-.407-1.54-1.024-2.12-.617-.578-1.586-.892-2.163-1.052-.577-.16-.762-.166-1.315.038z" fill="#0078BF"/><path d="M101.362 84.872a.592.592 0 01.649-.535c.321.038.552.34.515.673l-.001.014c-.304 2.634-.608 5.265-.521 7.542.044 1.15.187 2.216.439 3.159.234.875.561 1.64.989 2.263.551.799 1.298 1.396 1.867 1.85.391.313.71.567.902.834.511.706.284 1.151-.447 1.72-.189.147-.393.287-.632.452-.185.127-.39.268-.58.404-.769.551-1.734 1.311-2.723 2.09-.673.531-1.36 1.072-1.884 1.473a33.937 33.937 0 01-2.234 1.596c-.727.467-1.435.855-2.17 1.16-.747.31-1.522.535-2.309.67a10.063 10.063 0 01-4.688-.293c-.737-.229-1.415-.541-1.978-.923a4.725 4.725 0 01-1.388-1.419 4.37 4.37 0 01-.627-1.852 5.718 5.718 0 01.178-2.103c.183-.665.488-1.296.91-1.8.477-.573 1.07-.945 1.642-1.305.382-.24.754-.474 1.038-.748.299-.288.516-.645.66-1.092.154-.48.227-1.074.227-1.81 0-.723-.07-1.56-.175-2.363-.121-.92-.29-1.808-.457-2.444-.144-.55-.278-.878-.406-1.094a1.848 1.848 0 00-.357-.424.622.622 0 01-.036-.856.57.57 0 01.825-.038c.186.176.371.353.568.685.182.308.363.738.538 1.408.175.668.355 1.612.485 2.601.113.867.189 1.762.189 2.525 0 .857-.094 1.577-.291 2.193a3.745 3.745 0 01-.972 1.598c-.362.35-.791.62-1.23.896-.494.31-1.003.63-1.364 1.062-.303.363-.527.833-.666 1.339a4.454 4.454 0 00-.141 1.637c.053.49.203.935.448 1.329a3.54 3.54 0 001.044 1.057c.468.318 1.042.58 1.671.776a8.925 8.925 0 004.165.259 9.564 9.564 0 002.061-.599 12.63 12.63 0 001.991-1.064 32.74 32.74 0 002.157-1.544c.683-.523 1.28-.993 1.87-1.458 1.018-.801 2.011-1.584 2.764-2.124.239-.171.429-.302.599-.419.239-.164.443-.305.577-.409.098-.077.266.052.213-.022-.095-.131-.359-.342-.682-.6-.628-.501-1.454-1.161-2.105-2.107-.509-.74-.894-1.633-1.164-2.644-.276-1.033-.433-2.192-.48-3.434-.092-2.389.217-5.06.526-7.73l.001-.012z" fill="#0078BF"/><path d="M97.09 99.325a.573.573 0 01.82-.136c.261.197.32.577.13.849-.438.628-.876 1.256-1.271 1.856a24.228 24.228 0 00-1.1 1.816c-.643 1.192-1.097 2.395-1.55 3.598l-.002.002a.579.579 0 01-.757.347.614.614 0 01-.334-.785l.001-.004c.467-1.239.934-2.477 1.62-3.75.34-.634.734-1.27 1.154-1.909.425-.644.857-1.264 1.29-1.885zM89.534 101.648a.6.6 0 01.53-.658.59.59 0 01.634.549l.46 5.099a.601.601 0 01-.529.659.592.592 0 01-.635-.549l-.46-5.1zM118.733 103.164a.61.61 0 01-.427-.737.585.585 0 01.711-.442l.017.005c1.853.536 3.706 1.071 4.867 1.892.839.594 1.268 1.278 1.871 2.24.248.395.529.844.905 1.38a33.242 33.242 0 002.519 3.127 33.165 33.165 0 002.848 2.806c1.263 1.094 2.603 2.052 4.082 3.109 1.139.813 2.36 1.686 3.714 2.741a103.202 103.202 0 014.845 4.051 152.979 152.979 0 015.268 4.89c1.654 1.609 3.21 3.196 4.538 4.679 1.341 1.497 2.457 2.896 3.219 4.117.799 1.278 1.22 2.377 1.289 3.424.072 1.078-.225 2.069-.864 3.104-.598.968-1.504 1.979-2.82 3.214-1.3 1.22-2.98 2.644-5.153 4.461a699.543 699.543 0 01-7.611 6.276c-2.767 2.246-5.604 4.503-8.079 6.382-4.208 3.196-7.425 5.345-10.409 7.338l-1.626 1.088c-.55.369-1.429.966-2.291 1.552-2.61 1.771-5.039 3.42-6.965 4.513-1.262.717-2.298 1.188-3.185 1.422-.958.253-1.76.24-2.487-.027-.648-.238-1.216-.676-1.674-1.181-.55-.606-.951-1.322-1.144-1.903-.222-.672-.183-1.148-.147-1.59.018-.219.035-.427-.001-.614-.057-.295-.246-.67-.43-1.033-.169-.332-.334-.658-.435-.987-.114-.37-.125-.666-.134-.957-.008-.23-.016-.457-.106-.682-.088-.221-.273-.512-.465-.812-.266-.417-.544-.852-.699-1.299-.17-.499-.171-.931-.173-1.351-.001-.243-.003-.483-.05-.697-.049-.223-.164-.481-.282-.745-.178-.4-.362-.812-.431-1.295a2.543 2.543 0 01.236-1.514 2.297 2.297 0 011.069-1.035c.802-.39 1.964-.444 3.066-.495l.545-.027c.561-.031 1.077-.078 1.518-.179.24-.055.453-.125.631-.217a30.384 30.384 0 01-.119-.887 22.58 22.58 0 01-.166-3.224c.026-1.147.15-2.356.341-3.643a81.88 81.88 0 01.746-4.128 98.15 98.15 0 011.034-4.635 50.801 50.801 0 011.449-4.816c.538-1.491 1.157-2.922 1.738-4.268.644-1.492 1.243-2.878 1.619-4.085.34-1.087.5-2.023.41-2.737-.075-.589-.34-1.022-.85-1.246-.827-.364-2.298-.307-3.439-.262-.67.027-1.237.049-1.591-.016-.249-.045-.438-.141-.57-.275-.252-.259-.29-.562-.138-.89a1.38 1.38 0 01.382-.467c.416-.346 1.233-.76 2.23-1.099a16.242 16.242 0 013.378-.743 15.218 15.218 0 013.368-.014 13.82 13.82 0 013.572.911 15.89 15.89 0 013.368 1.863c.902.65 1.744 1.387 2.63 2.162 1.164 1.019 2.407 2.106 3.905 3.098 1.189.787 2.563 1.531 3.945 2.192a46.491 46.491 0 004.706 1.94c1.267.439 2.279.71 3.011.906.794.212 1.296.347 1.557.557.45.363.429.737.125 1.143v.003c-.136.182-.339.335-.569.507-.172.13-.365.275-.506.418-.153.154-.298.363-.516.679-.397.575-1.022 1.479-2.478 3.168-1.059 1.229-2.543 2.855-4.174 4.599a426.417 426.417 0 01-5.911 6.186c-1.728 1.773-3.273 3.324-4.671 4.636-1.381 1.296-2.573 2.309-3.59 2.996-1.061.717-1.948 1.093-2.738 1.245-.819.157-1.519.075-2.191-.12a8.093 8.093 0 01-1.853-.827 16.84 16.84 0 01-1.63-1.13c-.218-.168-.401-.313-.574-.45-.728-.576-1.387-1.098-1.877-1.247a.798.798 0 00-.564.014c-.187.083-.354.253-.491.481a5.318 5.318 0 00-.327.693c-.189.455-.385.923-.718 1.314.072.452.15.894.227 1.336a.606.606 0 01-.473.704.586.586 0 01-.678-.49l-.142-.818a4.255 4.255 0 01-.576.172c-.503.115-1.082.168-1.711.203l-.554.027c-.988.046-2.031.094-2.621.381a1.124 1.124 0 00-.528.502c-.119.234-.15.509-.112.773.044.309.192.64.335.961.143.321.283.635.36.983.074.335.076.647.077.964.001.317.003.644.107.945.112.317.347.685.572 1.038.222.348.436.683.571 1.021.17.426.181.761.193 1.101.007.211.014.423.079.634.066.213.209.497.356.788.226.447.458.907.546 1.36.068.355.044.646.019.952-.026.321-.054.666.088 1.095.146.442.456.992.886 1.466.342.377.755.699 1.212.867.501.184 1.084.185 1.808-.006.796-.211 1.745-.644 2.915-1.308 1.848-1.05 4.275-2.697 6.882-4.466.641-.435 1.298-.882 2.296-1.552l1.63-1.093c2.971-1.984 6.172-4.122 10.35-7.294 2.491-1.892 5.313-4.137 8.051-6.359a694.346 694.346 0 007.597-6.267c2.178-1.821 3.854-3.24 5.103-4.413 1.234-1.158 2.077-2.094 2.618-2.971.5-.811.734-1.567.681-2.367-.055-.832-.415-1.746-1.101-2.844-.722-1.156-1.796-2.5-3.095-3.95-1.311-1.464-2.848-3.032-4.484-4.623a152.42 152.42 0 00-5.226-4.852 102.363 102.363 0 00-4.785-4.002 104.493 104.493 0 00-3.678-2.713c-1.509-1.079-2.875-2.055-4.169-3.176a34.35 34.35 0 01-2.949-2.906 34.618 34.618 0 01-2.616-3.246c-.369-.527-.67-1.008-.937-1.432-.526-.841-.902-1.439-1.549-1.897-1.001-.708-2.752-1.215-4.505-1.722h-.003zm-9.336 56.495c.097-.229.198-.45.319-.65.262-.435.608-.771 1.028-.957.401-.177.855-.212 1.35-.061.705.216 1.444.801 2.259 1.446l.561.441c.482.372.989.738 1.513 1.049h.003c.513.304 1.042.557 1.581.713.519.15 1.054.214 1.669.096.643-.124 1.389-.445 2.311-1.069.968-.654 2.113-1.627 3.445-2.877 1.315-1.234 2.863-2.791 4.629-4.603 1.911-1.96 4.03-4.17 5.897-6.167 1.635-1.748 3.11-3.364 4.142-4.561 1.388-1.61 2.004-2.501 2.395-3.067.25-.361.415-.6.653-.841.163-.165.335-.303.497-.428l-.576-.156c-.748-.2-1.783-.477-3.088-.929a47.611 47.611 0 01-4.83-1.988c-1.416-.676-2.836-1.447-4.083-2.272-1.58-1.046-2.847-2.155-4.033-3.194-.868-.759-1.692-1.48-2.539-2.09a14.75 14.75 0 00-3.125-1.73 12.613 12.613 0 00-3.274-.835 14.078 14.078 0 00-3.12.014c-1.155.13-2.238.383-3.14.691a10.69 10.69 0 00-.99.389l.274-.011c1.254-.049 2.873-.112 3.939.357.936.413 1.421 1.177 1.551 2.207.114.905-.065 2.016-.455 3.265-.396 1.268-1.008 2.685-1.666 4.208-.576 1.334-1.189 2.753-1.71 4.198a49.674 49.674 0 00-1.413 4.696 98.473 98.473 0 00-1.02 4.578 80.456 80.456 0 00-.732 4.061c-.187 1.259-.307 2.421-.332 3.492-.02.898.026 1.754.11 2.585z" fill="#0078BF"/><path d="M116.213 178.279a.614.614 0 01.365-.773c.306-.109.64.06.745.378l.006.02c1.666 5.053 3.331 10.104 4.575 14.893.62 2.387 1.138 4.726 1.608 7.09a269.38 269.38 0 011.309 7.171c.414 2.407.839 4.94 1.245 7.617.397 2.615.758 5.257 1.038 7.852.159 1.463.3 3.001.439 4.522.33 3.611.653 7.13 1.319 10.453.467 2.334 1.107 4.579 1.942 6.952.84 2.387 1.878 4.902 3.137 7.766a558.63 558.63 0 002.494 5.554c1.985 4.376 4.037 8.902 5.329 12.383.938 2.528 1.473 4.496 1.795 6.471.322 1.966.432 3.934.522 6.472.055 1.541.104 3.326.155 5.205.112 4.136.237 8.737.485 12.49.104 1.573.222 2.911.329 4.127.286 3.257.499 5.686.095 7.721a9.08 9.08 0 01-1.458 3.437c-.791 1.138-1.788 2.039-2.814 2.738-1.018.695-2.082 1.199-2.985 1.346-.945.154-1.742-.061-2.223-.793-.508-.77-.534-2.021-.568-3.687-.024-1.148-.052-2.511-.245-4.013-.227-1.76-.685-3.737-1.345-5.814a49.26 49.26 0 00-2.518-6.319c-1.111-2.32-2.435-4.637-3.786-7.003-1.146-2.006-2.313-4.047-3.401-6.183-1.258-2.468-2.402-5.045-3.3-7.616-.803-2.297-1.41-4.586-1.729-6.785-.448-3.099-.325-6.006-.214-8.625.055-1.307.107-2.542.082-3.671-.037-1.654-.242-3.125-.636-4.556-.394-1.433-.979-2.827-1.776-4.327-1.092-2.054-2.588-4.316-4.243-6.818-.801-1.214-1.641-2.484-2.491-3.815a136.269 136.269 0 01-4.176-6.969 91.639 91.639 0 01-3.239-6.331c-1.279-2.787-2.303-5.499-3.334-8.232a207.352 207.352 0 00-1.924-4.968c-1.115-2.736-2.416-5.6-3.523-8.034a196.067 196.067 0 01-1.723-3.854c-.62-1.454-.957-2.415-.96-3.466-.004-1.041.327-2.079 1.041-3.674.576-1.283 1.413-2.958 2.19-4.513l.287-.575c-.672.88-1.38 1.801-2.01 2.574-1.025 1.256-1.853 2.126-2.723 2.669-.917.572-1.846.77-3.028.651-1.113-.113-2.436-.513-3.53-.843a17.436 17.436 0 01-.7-.229c.495.498 1.183 1.127 1.91 1.792.29.265.59.539 1.127 1.039 1.02.95 1.977 1.888 2.803 2.95a12.613 12.613 0 012.045 3.753c.492 1.45.777 3.142.912 5.11.133 1.934.12 4.147.016 6.67a157.166 157.166 0 01-.578 8.31c-.257 2.69-.578 5.315-.94 7.541a114.589 114.589 0 01-.738 3.992c-.51 2.582-.962 4.86-1.047 7.771-.063 2.153.07 4.666.305 7.355.231 2.648.573 5.556.922 8.464l.077.642c.668 5.563 1.33 11.063 1.18 15.492-.079 2.328-.381 4.35-.964 6.366-.582 2.011-1.442 4.012-2.639 6.305-1.118 2.145-2.536 4.552-3.945 6.944-1.558 2.647-3.108 5.277-4.217 7.495-1.043 2.086-1.703 3.819-2.18 5.48-.48 1.676-.778 3.273-1.093 5.079l-.184 1.058c-.6 3.473-1.284 7.432-2.26 9.826-.29.712-.607 1.291-.935 1.745-.44.607-.91 1.006-1.374 1.215-.529.239-1.05.241-1.521.035a1.968 1.968 0 01-.413-.248c-.915-.712-1.39-2.324-1.913-4.106-.096-.326-.194-.659-.316-1.054a81.757 81.757 0 00-.912-2.726c-.394-1.135-.774-2.227-1.041-3.189-.256-.923-.425-1.765-.408-3.165.017-1.349.21-3.216.676-6.206.538-3.46 1.435-8.405 2.368-13.552.664-3.665 1.347-7.434 1.959-10.999a352.476 352.476 0 001.65-10.438c.436-3.109.733-5.676.903-7.727.165-1.988.21-3.472.163-4.71a20.719 20.719 0 00-.384-3.274c-.124-.646-.269-1.284-.414-1.928-.349-1.545-.706-3.128-.798-4.742-.04-.673-.03-1.355-.02-2.06.023-1.578.048-3.284-.523-5.394-.282-1.042-.709-2.189-1.198-3.507-.972-2.617-2.189-5.895-3.061-10.375-.608-3.119-1.044-6.795-1.34-10.601-.348-4.456-.507-9.13-.528-13.313-.019-3.87.08-7.299.272-10.395.193-3.111.48-5.9.834-8.47a86.331 86.331 0 011.235-6.974c.224-1.005.46-1.961.708-2.87-1.093.708-1.793.047-3.52-1.585-.34-.323-.726-.687-1.073-1.005-.931-.856-2.19-1.957-3.608-3.197-1.991-1.741-4.301-3.761-6.622-5.916a149.212 149.212 0 01-5.832-5.706 100.508 100.508 0 01-4.795-5.304c-1.441-1.726-2.664-3.354-3.644-4.83-1.02-1.535-1.782-2.913-2.264-4.08-.513-1.242-.723-2.269-.37-3.478.333-1.138 1.176-2.382 2.768-4.088 2.227-2.385 5.926-5.706 9.067-8.526 1.186-1.065 2.29-2.056 3.277-2.966a77.8 77.8 0 003.814-3.731c.533-.554.944-.981 1.441-1.426.62-.555 1.356-1.118 2.1-1.688.733-.561 1.476-1.131 2.092-1.674.62-.548 1.149-1.1 1.675-1.717.529-.62 1.058-1.31 1.673-2.126l.26-.344c1.214-1.614 2.708-3.597 4.159-4.964.803-.756 1.595-1.326 2.523-1.776.917-.445 1.953-.766 3.253-1.027 1.267-.255 2.803-.457 4.472-.631 1.718-.18 3.468-.324 5.218-.468a.595.595 0 01.63.559.602.602 0 01-.538.654c-1.809.149-3.617.297-5.196.463-1.626.17-3.124.367-4.366.617-1.209.243-2.158.534-2.978.932-.81.392-1.51.898-2.23 1.576-1.386 1.306-2.842 3.239-4.026 4.811l-.26.345c-.626.83-1.166 1.536-1.719 2.183a17.767 17.767 0 01-1.794 1.835c-.674.596-1.418 1.165-2.15 1.727-.728.557-1.446 1.107-2.032 1.631-.464.415-.862.829-1.377 1.364-.796.828-1.867 1.943-3.864 3.784-.874.805-2.04 1.852-3.291 2.975-3.137 2.816-6.83 6.132-8.994 8.452v.002c-1.455 1.56-2.213 2.654-2.488 3.594-.254.868-.08 1.662.328 2.65.452 1.094 1.177 2.401 2.15 3.866.957 1.442 2.153 3.034 3.566 4.726a98.877 98.877 0 004.735 5.237c1.837 1.903 3.8 3.821 5.786 5.664 2.252 2.089 4.586 4.131 6.599 5.891 1.391 1.217 2.626 2.297 3.627 3.216.467.429.796.74 1.087 1.016 1.27 1.2 1.776 1.678 2.136 1.437.36-.242.798-.861 1.264-1.662.131-.227.264-.467.398-.718.32-.9.672-1.793 1.02-2.677.771-1.954 1.525-3.866 2.068-6.353a6.997 6.997 0 00-.133-.938 7.736 7.736 0 00-.546-1.638c-.177-.384-.337-.659-.522-.791-.146-.105-.363-.127-.701-.052-.413.091-.976.32-1.574.564-.788.321-1.635.667-2.403.808-.762.141-1.43.083-2.113-.243-.641-.305-1.268-.845-1.984-1.681-.68-.794-1.447-1.863-2.259-3.099a100.763 100.763 0 01-2.526-4.091c-.411-.696-.72-1.228-1.029-1.758-1.364-2.345-2.707-4.655-3.852-6.101a12.602 12.602 0 00-2.097-2.09c-.454-.369-.719-.583-.699-.995.031-.594.46-.677 1.2-.822.514-.101 1.28-.251 2.187-.605.853-.334 1.843-.851 2.89-1.469a60.286 60.286 0 003.268-2.094 57.857 57.857 0 003.107-2.252c.943-.738 1.772-1.462 2.399-2.138 1.219-1.314 1.717-2.507 2.42-4.193l.023-.061c.385-.917.825-1.966 1.222-2.852.426-.95.84-1.805 1.169-2.327.249-.395.484-.647.688-.759.255-.14.498-.137.724.004.186.115.304.302.354.558.056.285.019.748-.131 1.356-.156.635-.448 1.504-.757 2.421-.345 1.027-.712 2.118-.92 2.993-.182.77-.239 1.367-.19 1.942.05.579.214 1.171.469 1.92.23.675.549 1.511.907 2.45a117.2 117.2 0 011.436 3.911 40.118 40.118 0 011.248 4.324c.364 1.618.65 3.45.793 5.611.145 2.193.143 4.73-.005 7.228-.142 2.399-.418 4.768-.826 6.774l-.057.275c.02.403.01.826-.04 1.266-.104.92-.38 1.901-.757 2.919-.37.999-.835 2.034-1.328 3.085a51.84 51.84 0 01-1.072 2.175l-.107.307c-.586 1.702-1.122 3.621-1.597 5.755a85.013 85.013 0 00-1.217 6.874c-.35 2.542-.634 5.299-.825 8.375-.191 3.092-.29 6.497-.271 10.315.02 4.125.18 8.761.527 13.222.294 3.781.724 7.411 1.317 10.458.851 4.372 2.05 7.599 3.006 10.175.504 1.356.942 2.537 1.235 3.617.615 2.272.589 4.071.565 5.736-.01.671-.019 1.319.019 1.975.086 1.503.432 3.038.77 4.537.152.669.301 1.332.424 1.966.209 1.085.353 2.149.403 3.465.049 1.305.004 2.837-.164 4.857-.17 2.059-.47 4.649-.913 7.798-.421 3-.97 6.486-1.654 10.477-.57 3.325-1.277 7.224-1.964 11.012-.934 5.155-1.831 10.106-2.362 13.519-.456 2.932-.647 4.744-.662 6.03-.015 1.236.136 1.989.366 2.818.271.978.635 2.024 1.013 3.113.316.908.642 1.846.926 2.764.099.319.21.7.32 1.073.465 1.582.887 3.013 1.497 3.488.054.042.11.076.165.1.174.076.379.07.6-.03.286-.129.594-.4.905-.83.274-.378.543-.871.794-1.487.925-2.272 1.597-6.16 2.187-9.57l.183-1.058c.325-1.859.63-3.502 1.121-5.213.496-1.725 1.18-3.525 2.263-5.689 1.13-2.26 2.689-4.907 4.258-7.571 1.397-2.373 2.804-4.76 3.913-6.886 1.159-2.222 1.99-4.152 2.547-6.078.555-1.92.843-3.843.917-6.056.146-4.316-.51-9.78-1.174-15.307l-.078-.642c-.342-2.855-.679-5.725-.921-8.501-.24-2.736-.375-5.297-.31-7.499.088-3.019.548-5.344 1.07-7.979.238-1.206.49-2.48.729-3.949.36-2.215.677-4.811.93-7.46.27-2.81.47-5.686.574-8.24.101-2.47.114-4.639-.016-6.536-.128-1.863-.393-3.452-.848-4.791a11.423 11.423 0 00-1.853-3.397c-.78-1.004-1.694-1.899-2.67-2.808l-1.122-1.029c-1.19-1.088-2.282-2.086-2.713-2.695-.371-.527-.406-.963.013-1.281.422-.321 1.384-.03 2.59.334 1.048.317 2.313.699 3.315.801.917.092 1.628-.055 2.317-.485.737-.46 1.483-1.251 2.43-2.411.666-.817 1.429-1.816 2.142-2.748 1.328-1.738 2.497-3.267 3.003-3.246h.002c.41.019.613.245.596.7-.02.505-.996 2.455-2.085 4.635-.769 1.538-1.597 3.195-2.167 4.466-.642 1.432-.939 2.335-.936 3.165.003.822.306 1.667.864 2.975a191.505 191.505 0 001.71 3.827c1.1 2.421 2.395 5.27 3.54 8.081a202.15 202.15 0 011.938 4.997c1.019 2.7 2.031 5.381 3.302 8.151a90.505 90.505 0 003.193 6.245 135.005 135.005 0 004.14 6.907c.846 1.327 1.683 2.592 2.482 3.801 1.671 2.528 3.182 4.814 4.302 6.919.841 1.581 1.459 3.055 1.877 4.578.419 1.523.638 3.094.677 4.865.026 1.179-.026 2.427-.082 3.748-.108 2.557-.228 5.395.205 8.391.308 2.124.894 4.335 1.67 6.553.877 2.511 1.999 5.038 3.235 7.463 1.068 2.096 2.231 4.131 3.373 6.131 1.359 2.378 2.691 4.71 3.828 7.084a50.505 50.505 0 012.582 6.475c.679 2.137 1.153 4.189 1.39 6.038.201 1.563.231 2.965.255 4.146.03 1.457.053 2.551.366 3.027.189.287.581.359 1.077.278.733-.119 1.634-.554 2.522-1.16.919-.626 1.808-1.427 2.506-2.434a7.84 7.84 0 001.262-2.97c.37-1.864.163-4.216-.114-7.37-.112-1.281-.236-2.69-.333-4.155-.246-3.72-.372-8.364-.486-12.538-.05-1.858-.098-3.623-.154-5.195-.088-2.482-.196-4.405-.508-6.316-.311-1.902-.826-3.799-1.731-6.237-1.272-3.425-3.318-7.939-5.297-12.303a554.816 554.816 0 01-2.499-5.562c-1.275-2.899-2.324-5.444-3.173-7.858-.854-2.426-1.509-4.724-1.988-7.118-.677-3.378-1.003-6.936-1.338-10.586-.133-1.46-.269-2.936-.438-4.503a183.483 183.483 0 00-1.029-7.799 397.466 397.466 0 00-1.245-7.594 280.305 280.305 0 00-1.3-7.138 123.6 123.6 0 00-1.594-7.019c-1.236-4.758-2.894-9.785-4.551-14.812l-.008-.019zM70.972 159.46c.181-1.335.316-2.758.4-4.195.145-2.447.148-4.93.006-7.076a35.053 35.053 0 00-.765-5.417c-.35-1.561-.776-2.923-1.212-4.195-.477-1.391-.98-2.708-1.423-3.868-.354-.928-.67-1.755-.92-2.493-.283-.831-.466-1.508-.528-2.219-.062-.716.004-1.434.217-2.337.22-.924.597-2.047.953-3.103l.098-.294c-.423.947-.834 1.925-1.187 2.772l-.023.062c-.756 1.807-1.29 3.086-2.652 4.555-.679.731-1.553 1.496-2.536 2.267a59.74 59.74 0 01-3.172 2.294 61.331 61.331 0 01-3.332 2.137c-1.097.647-2.142 1.192-3.056 1.549-.819.321-1.522.487-2.054.597a13.363 13.363 0 011.954 2.009c1.213 1.532 2.573 3.87 3.954 6.244.374.644.75 1.291 1.023 1.753a100.386 100.386 0 002.495 4.039c.79 1.204 1.528 2.234 2.167 2.979.602.705 1.109 1.149 1.596 1.381.443.212.894.246 1.424.149.656-.122 1.444-.443 2.178-.742.644-.262 1.25-.51 1.757-.621.685-.151 1.186-.06 1.61.242.384.275.65.701.91 1.266l.118.265zm-21.696-19.185c-.037-.122-.056-.2-.065-.023-.005.109.02.072.065.023z" fill="#0078BF"/><path d="M88.17 134.755a.622.622 0 01.135-.823.572.572 0 01.819.122l.021.027c.582.905 1.164 1.811 2.296 2.561.577.383 1.315.741 2.127 1.041.82.304 1.705.544 2.568.69.86.145 1.704.199 2.544.146a9.795 9.795 0 002.509-.496 13.043 13.043 0 002.476-1.157 14.612 14.612 0 002.297-1.686c1.329-1.199 2.253-2.544 3.175-3.887a.572.572 0 01.813-.171c.27.187.342.565.163.845l-.012.015c-.969 1.412-1.938 2.825-3.369 4.116a15.755 15.755 0 01-2.484 1.824c-.865.514-1.785.949-2.702 1.257-.937.315-1.866.493-2.797.553-.926.059-1.856 0-2.801-.16a15.7 15.7 0 01-2.774-.742c-.882-.327-1.7-.726-2.362-1.165-1.35-.896-1.997-1.902-2.644-2.909l.002-.001zM80.018 133.9a.588.588 0 01.688.481.608.608 0 01-.464.713c-2.372.482-4.745.963-6.505 1.112-.901.076-1.647.065-2.275-.011a5.769 5.769 0 01-1.624-.421 4.232 4.232 0 01-1.144-.729 4.408 4.408 0 01-.765-.911c-.393-.613-.629-1.257-.864-1.9l-.005-.011a.615.615 0 01.349-.78.58.58 0 01.752.362l.002.006c.21.575.421 1.151.742 1.652.153.238.332.464.555.664.22.198.492.376.832.525.352.153.775.271 1.303.335.554.067 1.224.076 2.05.006 1.696-.143 4.035-.618 6.373-1.093zM54.658 120.761a.594.594 0 01.614-.576.6.6 0 01.555.638c-.044.865-.088 1.731-.057 2.577.03.827.132 1.652.377 2.472.224.747.568 1.498.954 2.182.468.83.997 1.56 1.446 2.067.389.439.705.698.985.865.27.161.539.252.808.343a.613.613 0 01.375.766.582.582 0 01-.738.39c-.32-.108-.64-.217-1.028-.448-.378-.226-.788-.557-1.264-1.093a13.774 13.774 0 01-1.593-2.277 12.158 12.158 0 01-1.063-2.438c-.28-.932-.395-1.86-.429-2.786-.033-.907.012-1.795.058-2.682zM138.525 120.581a.574.574 0 01.793-.242c.284.16.388.529.234.823-.419.794-.838 1.589-1.25 2.327a35.743 35.743 0 01-1.353 2.247 25.501 25.501 0 01-1.459 1.99 17.495 17.495 0 01-1.476 1.627c-.919.875-1.631 1.265-2.342 1.655a.576.576 0 01-.792-.25.62.62 0 01.241-.821l.006-.004c.643-.352 1.287-.706 2.093-1.474.428-.408.9-.926 1.376-1.513a24.25 24.25 0 001.385-1.895c.46-.695.891-1.425 1.307-2.171.436-.78.837-1.54 1.237-2.299zM106.431 103.075a.571.571 0 01-.816-.134.621.621 0 01.129-.846c.276-.209.552-.418.735-.643a.799.799 0 00.202-.569c-.015-.234-.124-.567-.234-.899-.23-.7-.461-1.4-.146-2.01.235-.453.724-.714 1.334-.844.62-.132 1.394-.139 2.112-.092a10.8 10.8 0 011.799.258c.537.13.991.306 1.31.526.465.32.626.682.753.967.024.055-.031.044.007.072.043.033.073-.038.265-.046.269-.012.623-.028 1.089.003.562.037 1.296.144 1.966.299.591.135 1.141.313 1.503.518.689.391.91.873.521 1.53-.217.365-.735.763-1.628 1.225-1.313.682-3.529 1.578-5.884 2.53l-1.595.647c-1.45.591-2.882 1.188-4.213 1.793-1.33.605-2.574 1.224-3.659 1.867-.603.358-1.164.727-1.705 1.083-1.46.96-2.791 1.836-4.576 2.275-1.213.3-2.62.387-4.036.288-1.44-.101-2.9-.398-4.184-.861a12.495 12.495 0 01-3.049-1.594c-1-.718-1.737-1.5-2.136-2.167-.576-.961-.5-1.661-.424-2.364.025-.235.05-.471.039-.696-.013-.237-.072-.521-.132-.811-.16-.781-.33-1.603.08-2.44.245-.504.693-.955 1.22-1.345.644-.476 1.417-.87 2.06-1.148a8.36 8.36 0 011.386-.48c.493-.114.876-.102 1.125.018.452.217.54.588.444 1.034-.05.233-.154.456-.257.679a.578.578 0 01-.782.283.618.618 0 01-.273-.811l.01-.022-.015.004c-.301.07-.7.206-1.189.418-.58.25-1.271.601-1.83 1.015-.386.285-.704.593-.854.902-.223.455-.098 1.063.022 1.641.068.333.136.659.154.997.018.327-.013.612-.044.895-.053.494-.106.986.255 1.589.323.541.945 1.191 1.806 1.81.76.546 1.695 1.06 2.769 1.447 1.182.426 2.535.7 3.877.794 1.302.091 2.587.013 3.688-.259 1.594-.393 2.845-1.216 4.218-2.118.552-.364 1.124-.74 1.751-1.111h.003c1.123-.665 2.404-1.304 3.77-1.925a117.55 117.55 0 014.255-1.812l1.6-.647c2.332-.943 4.527-1.831 5.783-2.482.51-.265.843-.471 1.022-.632-.265-.138-.684-.266-1.147-.373a12.007 12.007 0 00-1.789-.27 7.992 7.992 0 00-.969-.003c-.448.019-.718.031-1.004-.187-.205-.156-.283-.334-.378-.547-.064-.145-.146-.329-.335-.459-.199-.136-.523-.256-.929-.355a9.679 9.679 0 00-1.607-.229c-.635-.042-1.304-.038-1.806.069-.283.06-.486.136-.535.23-.073.142.075.593.224 1.044.134.407.268.815.293 1.213.037.587-.161 1.042-.477 1.43-.264.325-.603.582-.942.838z" fill="#0078BF"/><path d="M113.598 98.857a.579.579 0 01.754.354.614.614 0 01-.341.783c-.321.125-.642.252-.95.397a6.78 6.78 0 00-.954.547c-.624.429-1.311 1.058-1.979 1.67l-.203.188c-.376.343-.748.678-1.158 1.004a9.162 9.162 0 01-1.319.889c-.939.515-2.04.869-3.14 1.223l-.01.002a.582.582 0 01-.729-.404.612.612 0 01.39-.757l.005-.001c1.045-.337 2.09-.673 2.939-1.138a8.088 8.088 0 001.153-.779c.359-.285.721-.613 1.094-.953l.203-.185c.704-.642 1.428-1.304 2.107-1.772a7.854 7.854 0 011.115-.637c.36-.17.692-.301 1.023-.431zM103.876 146.447a.57.57 0 01.827.016.623.623 0 01-.016.859 667.465 667.465 0 00-4.048 4.065 183.849 183.849 0 00-3.706 3.859c-2.281 2.459-4.118 4.655-5.953 6.85l-.007.008a.571.571 0 01-.825.057.623.623 0 01-.055-.856l.002-.003c1.848-2.21 3.697-4.421 5.994-6.897a181.924 181.924 0 013.73-3.884c1.323-1.345 2.69-2.71 4.057-4.074zM74.155 148.825a.62.62 0 01.144-.844.57.57 0 01.814.15l2.738 4.06a1391.974 1391.974 0 004.875 7.166l2.14 3.111a.621.621 0 01-.138.846.572.572 0 01-.816-.142l-2.14-3.111a1036.6 1036.6 0 01-4.88-7.176l-2.737-4.06zM98.632 158.977a.572.572 0 01.828-.026c.235.23.247.615.025.859a98.367 98.367 0 00-2.426 2.738c-.761.905-1.466 1.815-2.06 2.734a21.904 21.904 0 00-1.5 2.783c-.44.963-.818 1.919-1.196 2.874a.578.578 0 01-.764.33.615.615 0 01-.318-.792c.39-.983.78-1.967 1.22-2.93.45-.985.959-1.966 1.587-2.941.623-.966 1.36-1.916 2.15-2.856a97.064 97.064 0 012.454-2.773zM44.22 144.66a.618.618 0 01.293-.804.578.578 0 01.775.305l.008.021c.648 1.63 1.298 3.262 2.828 5.195 1.452 1.833 3.724 3.982 5.094 5.278l.277.261c.66.625 1.038.995 1.274 1.235.245.248.33.351.415.453a.623.623 0 01-.064.856.57.57 0 01-.826-.066c-.068-.083-.137-.167-.34-.373l-.003-.002c-.211-.215-.576-.57-1.245-1.204l-.277-.261c-1.389-1.314-3.693-3.493-5.208-5.407-1.636-2.067-2.32-3.777-3-5.485l-.001-.002zM151.707 137.14a.589.589 0 01.674-.5.605.605 0 01.481.699v.003c-.146 1.087-.29 2.172-.153 2.98.131.768.551 1.374.971 1.98l.014.016a.623.623 0 01-.162.846.574.574 0 01-.814-.169l.001-.002c-.497-.716-.991-1.434-1.166-2.462-.168-.992-.008-2.182.151-3.372l.003-.019zM141.878 145.264a.571.571 0 01.828-.016c.233.232.24.617.016.858l-8.603 9.243a.57.57 0 01-.827.016.623.623 0 01-.016-.858l8.602-9.243zM122.421 128.867a.623.623 0 01.069-.856.572.572 0 01.825.072l4.045 4.97a1571.49 1571.49 0 003.428 4.19 404.956 404.956 0 004.195 5.012.625.625 0 01-.053.859.572.572 0 01-.828-.055c-.567-.669-1.135-1.338-1.794-2.124a395.442 395.442 0 01-2.409-2.902 1157.33 1157.33 0 01-3.433-4.196l-4.045-4.97zM148.157 159.863a.621.621 0 01-.092-.851.57.57 0 01.821-.096l9.552 7.928a7714.93 7714.93 0 019.242 7.689c2.996 2.497 5.891 4.915 8.497 7.255 2.612 2.344 4.923 4.602 6.736 6.765 1.827 2.18 3.148 4.263 4.091 6.285a22.387 22.387 0 011.83 5.937c.315 1.93.38 3.833.295 5.639a37.107 37.107 0 01-.604 5.039c-.289 1.55-.633 2.947-1.054 3.951-.51 1.219-1.171 1.921-2.034 1.795-.744-.107-1.502-.921-2.313-2.185-.727-1.133-1.542-2.676-2.447-4.394l-.162-.307c.894 2.343 1.862 4.948 2.564 7.157.803 2.527 1.271 4.57 1.501 6.412.23 1.846.217 3.475.06 5.176a32.058 32.058 0 01-.972 5.387c-.514 1.921-1.241 3.995-2.251 6.306a69.415 69.415 0 01-4.026 7.77c-1.409 2.345-2.976 4.631-4.615 6.611-1.809 2.185-3.71 3.999-5.235 5.077-.683.483-1.304.827-1.825 1.002-.665.223-1.215.184-1.604-.161l-.002-.003a1.166 1.166 0 01-.199-.231c-.502-.764-.188-2.278.308-4.664.52-2.504 1.256-6.045 1.511-10.534.247-4.337.048-9.577-.58-15.078-.601-5.264-1.592-10.754-2.958-15.907-1.398-5.276-3.194-10.216-5.106-14.737-1.909-4.517-3.939-8.622-5.803-12.225a283.98 283.98 0 00-5.055-9.343 365.087 365.087 0 00-3.814-6.564l-2.484-4.194-1.738-2.922a.62.62 0 01.191-.834.572.572 0 01.804.197l1.738 2.922 2.489 4.198a376.81 376.81 0 013.823 6.583 285.212 285.212 0 015.077 9.381c1.874 3.62 3.915 7.75 5.845 12.316 1.929 4.562 3.744 9.555 5.161 14.903 1.386 5.226 2.389 10.776 2.994 16.083.636 5.566.836 10.881.585 15.292-.26 4.585-1.006 8.176-1.534 10.715-.431 2.076-.705 3.392-.487 3.726.055.04.223.011.481-.075.409-.137.928-.43 1.522-.85 1.447-1.023 3.264-2.76 5.006-4.863 1.596-1.927 3.128-4.163 4.509-6.463a68.063 68.063 0 003.953-7.628c.987-2.257 1.694-4.273 2.191-6.13.496-1.854.785-3.553.935-5.177.15-1.618.163-3.164-.055-4.91-.218-1.749-.672-3.718-1.456-6.184-.929-2.922-2.307-6.499-3.367-9.25-.761-1.977-1.361-3.534-1.53-4.164-.158-.59-.014-.925.381-1.04.655-.188 2.541 3.392 4.18 6.502l.075.142c.887 1.682 1.685 3.193 2.398 4.304.629.98 1.14 1.601 1.496 1.652.237.034.511-.38.801-1.073.38-.907.701-2.22.976-3.698.277-1.491.505-3.137.586-4.868.081-1.725.019-3.541-.281-5.382a21.191 21.191 0 00-1.729-5.609c-.9-1.929-2.166-3.924-3.922-6.019-1.771-2.113-4.043-4.331-6.616-6.641-2.578-2.314-5.471-4.731-8.465-7.227a7585.745 7585.745 0 00-9.243-7.688l-9.547-7.928zM83.032 115.88a8.972 8.972 0 00-2.173 1.181 5.916 5.916 0 00-1.444 1.522c-.414.65-.693 1.42-.84 2.244a8.779 8.779 0 00-.037 2.744c.125.889.381 1.769.727 2.58.36.846.817 1.612 1.322 2.233.485.594 1.013 1.054 1.603 1.388a5.468 5.468 0 002 .646c.722.096 1.526.088 2.323.011a14.557 14.557 0 002.584-.492c.685-.197 1.238-.425 1.692-.728.436-.29.79-.659 1.096-1.152.318-.514.588-1.163.791-1.871.212-.737.351-1.53.4-2.296a8.722 8.722 0 00-.129-2.198 7.489 7.489 0 00-.667-1.969 8.938 8.938 0 00-1.168-1.735 9.29 9.29 0 00-1.55-1.461 6.193 6.193 0 00-1.491-.822 5.96 5.96 0 00-1.528-.35 6.9 6.9 0 00-1.657.033c-.58.08-1.193.238-1.854.492zm-2.86.196a10.154 10.154 0 012.456-1.338 9.496 9.496 0 012.103-.553 8.029 8.029 0 011.922-.038 7.117 7.117 0 011.816.416 7.343 7.343 0 011.772.975 10.456 10.456 0 011.752 1.646c.506.595.964 1.266 1.324 1.978.37.735.629 1.5.781 2.292.155.807.202 1.646.147 2.512-.054.86-.21 1.747-.446 2.567-.233.812-.549 1.568-.929 2.18a4.826 4.826 0 01-1.448 1.519c-.56.372-1.214.644-2.009.875-.816.237-1.795.433-2.794.53-.874.084-1.764.092-2.575-.015a6.608 6.608 0 01-2.413-.785c-.723-.409-1.362-.962-1.938-1.669a10.62 10.62 0 01-1.501-2.527 11.556 11.556 0 01-.813-2.899 10.015 10.015 0 01.045-3.133c.176-.984.512-1.908 1.014-2.696a7.104 7.104 0 011.733-1.837z" fill="#0078BF"/><path d="M84 127.53a5.665 5.665 0 01-1.379-.751 4.054 4.054 0 01-.992-1.054 4.275 4.275 0 01-.582-1.544 5.65 5.65 0 01-.027-1.765 6.45 6.45 0 01.455-1.622 5.977 5.977 0 01.843-1.418 3.901 3.901 0 011.113-.956 3.778 3.778 0 011.385-.452c.453-.06.948-.056 1.433-.009a8.722 8.722 0 011.542.292c.45.131.823.287 1.146.502.343.228.62.516.855.896.217.35.397.779.529 1.236.131.458.218.954.248 1.434.03.487.005.96-.083 1.415-.086.446-.233.88-.444 1.299a5.921 5.921 0 01-1.725 2.035h-.003a4.201 4.201 0 01-1.008.555c-.34.128-.683.203-1.038.238a4.515 4.515 0 01-1.086-.021 5.286 5.286 0 01-1.182-.31zm-.69-1.736c.344.26.73.456 1.093.595.335.128.644.208.933.248.287.04.56.042.822.016.256-.025.505-.079.749-.171.246-.093.488-.224.732-.403.263-.194.533-.447.78-.737.23-.272.434-.568.587-.871.154-.305.263-.632.33-.975.067-.353.088-.721.064-1.101a5.512 5.512 0 00-.203-1.162 3.775 3.775 0 00-.39-.928 1.687 1.687 0 00-.503-.53c-.219-.145-.49-.256-.828-.354a7.622 7.622 0 00-1.333-.254 5.286 5.286 0 00-1.18.005 2.66 2.66 0 00-.973.313c-.284.16-.54.385-.778.676-.252.31-.482.696-.664 1.124-.175.41-.305.855-.368 1.302-.065.467-.06.938.017 1.375.072.403.208.778.409 1.093.184.288.43.534.703.739zM100.571 104.416a.573.573 0 01.819.136.623.623 0 01-.131.849c-2.383 1.79-4.535 3.572-6.457 5.346-1.92 1.773-3.607 3.534-5.06 5.282a.571.571 0 01-.825.062.623.623 0 01-.06-.856c1.493-1.796 3.215-3.595 5.166-5.396 1.95-1.801 4.133-3.609 6.548-5.423z" fill="#0078BF"/><path d="M83.133 108.981a.625.625 0 01.035-.859.571.571 0 01.827.036 44.192 44.192 0 012.768 3.427 29.927 29.927 0 012.083 3.277.62.62 0 01-.225.827.575.575 0 01-.798-.233 28.735 28.735 0 00-1.996-3.144 43.034 43.034 0 00-2.694-3.331z" fill="#0078BF"/></g></g><defs><clipPath id="clip0_2036_7268"><path d="M14 82.5c0-43.63 35.37-79 79-79s79 35.37 79 79-35.37 79-79 79-79-35.37-79-79z" fill="#fff"/></clipPath><filter id="filter0_ddd_2036_7268" x="0" y=".5" width="186" height="198" filterUnits="userSpaceOnUse" color-interpolation-filters="sRGB"><feFlood flood-opacity="0" result="BackgroundImageFix"/><feColorMatrix in="SourceAlpha" values="0 0 0 0 0 0 0 0 0 0 0 0 0 0 0 0 0 0 127 0" result="hardAlpha"/><feOffset dy="3"/><feGaussianBlur stdDeviation="3"/><feColorMatrix values="0 0 0 0 0.0392157 0 0 0 0 0.623529 0 0 0 0 0.921569 0 0 0 0.08 0"/><feBlend in2="BackgroundImageFix" result="effect1_dropShadow_2036_7268"/><feColorMatrix in="SourceAlpha" values="0 0 0 0 0 0 0 0 0 0 0 0 0 0 0 0 0 0 127 0" result="hardAlpha"/><feOffset dy="10"/><feGaussianBlur stdDeviation="5"/><feColorMatrix values="0 0 0 0 0.0392157 0 0 0 0 0.623529 0 0 0 0 0.921569 0 0 0 0.07 0"/><feBlend in2="effect1_dropShadow_2036_7268" result="effect2_dropShadow_2036_7268"/><feColorMatrix in="SourceAlpha" values="0 0 0 0 0 0 0 0 0 0 0 0 0 0 0 0 0 0 127 0" result="hardAlpha"/><feOffset dy="23"/><feGaussianBlur stdDeviation="7"/><feColorMatrix values="0 0 0 0 0.0392157 0 0 0 0 0.623529 0 0 0 0 0.921569 0 0 0 0.04 0"/><feBlend in2="effect2_dropShadow_2036_7268" result="effect3_dropShadow_2036_7268"/><feBlend in="SourceGraphic" in2="effect3_dropShadow_2036_7268" result="shape"/></filter></defs></svg>