<svg width="32" height="32" viewBox="0 0 32 32" fill="none" xmlns="http://www.w3.org/2000/svg"><g clip-path="url(#clip0_2018_102259)"><path d="M9.925 1.436c-1.56.073-2.626.323-3.557.689A7.178 7.178 0 003.773 3.82a7.184 7.184 0 00-1.687 2.6c-.361.933-.606 2-.675 3.56-.069 1.562-.084 2.064-.076 6.047.007 3.983.025 4.482.1 6.047.075 1.56.323 2.626.69 3.558.376.964.88 1.78 1.696 2.594a7.178 7.178 0 002.601 1.687c.933.36 2 .606 3.561.674 1.561.069 2.064.085 6.046.077 3.981-.008 4.483-.025 6.047-.1 1.564-.074 2.624-.324 3.556-.688a7.19 7.19 0 002.595-1.697 7.19 7.19 0 001.686-2.6c.361-.934.607-2 .675-3.56.068-1.566.084-2.066.077-6.048-.008-3.982-.026-4.482-.1-6.046-.074-1.564-.323-2.626-.689-3.559a7.2 7.2 0 00-1.696-2.594 7.157 7.157 0 00-2.6-1.686c-.934-.361-2-.607-3.561-.675-1.562-.067-2.064-.085-6.047-.077-3.983.008-4.482.025-6.047.1zm.172 26.514c-1.43-.062-2.207-.3-2.724-.499a4.567 4.567 0 01-1.69-1.094c-.515-.51-.832-1-1.1-1.684-.2-.517-.442-1.293-.509-2.723-.073-1.546-.088-2.01-.097-5.925-.008-3.916.007-4.38.075-5.926.06-1.429.3-2.206.498-2.723a4.542 4.542 0 011.094-1.689c.512-.515 1-.833 1.685-1.1.517-.202 1.292-.442 2.722-.51 1.546-.073 2.01-.088 5.925-.096 3.915-.009 4.38.006 5.927.074 1.43.062 2.207.299 2.723.498a4.536 4.536 0 011.689 1.094c.515.513.833 1 1.1 1.685.203.516.443 1.291.51 2.721.074 1.547.09 2.011.098 5.926.007 3.915-.007 4.38-.075 5.925-.063 1.43-.3 2.207-.499 2.725a4.545 4.545 0 01-1.094 1.688 4.53 4.53 0 01-1.685 1.1c-.516.202-1.293.443-2.72.51-1.547.073-2.01.089-5.928.097-3.916.009-4.378-.007-5.925-.074zM22.053 8.16a1.76 1.76 0 103.52-.006 1.76 1.76 0 00-3.52.006zM8.47 16.015a7.532 7.532 0 1015.061-.032 7.532 7.532 0 00-15.061.032zm2.642-.006a4.89 4.89 0 119.779-.019 4.89 4.89 0 01-9.78.02z" fill="#000"/></g><defs><clipPath id="clip0_2018_102259"><path fill="#fff" d="M0 0h32v32H0z"/></clipPath></defs></svg>